<svg xmlns="http://www.w3.org/2000/svg" width="100%" height="100%" viewBox="0 0 692 256" preserveAspectRatio="xMidYMid meet" fill="none" xmlns:v="https://vecta.io/nano"><style><![CDATA[#A{animation:kf_Connector_Arc_path-trim_0 3.15s linear 1 forwards}#B{transform-origin:0 0;animation:kf_Frame_1000003531_transform_0 3.15s linear 1 forwards, kf_Frame_1000003531_opacity_0 3.15s linear 1 forwards}#C{transform-origin:0 0;animation:kf_Frame_1000003532_transform_0 3.15s linear 1 forwards, kf_Frame_1000003532_opacity_0 3.15s linear 1 forwards}#D{transform-origin:0 0;animation:kf_Frame_1000003533_transform_0 3.15s linear 1 forwards, kf_Frame_1000003533_opacity_0 3.15s linear 1 forwards}#E{transform-origin:0 0;animation:kf_Frame_1000003534_transform_0 3.15s linear 1 forwards, kf_Frame_1000003534_opacity_0 3.15s linear 1 forwards}#F{transform-origin:0 0;animation:kf_Frame_1000003537_transform_0 3.15s linear 1 forwards, kf_Frame_1000003537_opacity_0 3.15s linear 1 forwards}@keyframes kf_Connector_Arc_path-trim_0{0%{animation-timing-function:linear;stroke-dasharray:0 1;visibility:hidden}52.381%{stroke-dasharray:1 1;visibility:visible}100%{stroke-dasharray:1 1;visibility:visible}} @keyframes kf_Frame_1000003531_transform_0{0%{transform:translateX(59px) translateY(45px) translate(79px, 20px) scaleX(0.7) scaleY(0.7) translate(-79px, -20px)}52.38%{animation-timing-function:cubic-bezier(0.34, 1.15, 0.64, 1);transform:translateX(59px) translateY(45px) translate(79px, 20px) scaleX(0.7) scaleY(0.7) translate(-79px, -20px)}63.49%{transform:translateX(59px) translateY(45px) translate(79px, 20px) scaleX(1) scaleY(1) translate(-79px, -20px)}100%{transform:translateX(59px) translateY(45px) translate(79px, 20px) scaleX(1) scaleY(1) translate(-79px, -20px)}} @keyframes kf_Frame_1000003531_opacity_0{0%{animation-timing-function:linear;opacity:0}52.38%{animation-timing-function:cubic-bezier(0.16, 1, 0.3, 1);opacity:0}63.49%{animation-timing-function:linear;opacity:1}100%{opacity:1}} @keyframes kf_Frame_1000003532_transform_0{0%{transform:translateX(472px) translateY(45px) translate(66.5px, 20px) scaleX(0.7) scaleY(0.7) translate(-66.5px, -20px)}60.32%{animation-timing-function:cubic-bezier(0.34, 1.15, 0.64, 1);transform:translateX(472px) translateY(45px) translate(66.5px, 20px) scaleX(0.7) scaleY(0.7) translate(-66.5px, -20px)}71.43%{transform:translateX(472px) translateY(45px) translate(66.5px, 20px) scaleX(1) scaleY(1) translate(-66.5px, -20px)}100%{transform:translateX(472px) translateY(45px) translate(66.5px, 20px) scaleX(1) scaleY(1) translate(-66.5px, -20px)}} @keyframes kf_Frame_1000003532_opacity_0{0%{animation-timing-function:linear;opacity:0}60.32%{animation-timing-function:cubic-bezier(0.16, 1, 0.3, 1);opacity:0}71.43%{animation-timing-function:linear;opacity:1}100%{opacity:1}} @keyframes kf_Frame_1000003533_transform_0{0%{transform:translateX(45px) translateY(176px) translate(70px, 20px) scaleX(0.7) scaleY(0.7) translate(-70px, -20px)}44.44%{animation-timing-function:cubic-bezier(0.34, 1.15, 0.64, 1);transform:translateX(45px) translateY(176px) translate(70px, 20px) scaleX(0.7) scaleY(0.7) translate(-70px, -20px)}55.56%{transform:translateX(45px) translateY(176px) translate(70px, 20px) scaleX(1) scaleY(1) translate(-70px, -20px)}100%{transform:translateX(45px) translateY(176px) translate(70px, 20px) scaleX(1) scaleY(1) translate(-70px, -20px)}} @keyframes kf_Frame_1000003533_opacity_0{0%{animation-timing-function:linear;opacity:0}44.44%{animation-timing-function:cubic-bezier(0.16, 1, 0.3, 1);opacity:0}55.56%{animation-timing-function:linear;opacity:1}100%{opacity:1}} @keyframes kf_Frame_1000003534_transform_0{0%{transform:translateX(453px) translateY(176px) translate(102.5px, 20px) scaleX(0.7) scaleY(0.7) translate(-102.5px, -20px)}68.25%{animation-timing-function:cubic-bezier(0.34, 1.15, 0.64, 1);transform:translateX(453px) translateY(176px) translate(102.5px, 20px) scaleX(0.7) scaleY(0.7) translate(-102.5px, -20px)}79.37%{transform:translateX(453px) translateY(176px) translate(102.5px, 20px) scaleX(1) scaleY(1) translate(-102.5px, -20px)}100%{transform:translateX(453px) translateY(176px) translate(102.5px, 20px) scaleX(1) scaleY(1) translate(-102.5px, -20px)}} @keyframes kf_Frame_1000003534_opacity_0{0%{animation-timing-function:linear;opacity:0}68.25%{animation-timing-function:cubic-bezier(0.16, 1, 0.3, 1);opacity:0}79.37%{animation-timing-function:linear;opacity:1}100%{opacity:1}} @keyframes kf_Frame_1000003537_transform_0{0%{transform:translateX(229px) translateY(98px) translate(116.5px, 32.5px) scaleX(0.75) scaleY(0.75) translate(-116.5px, -32.5px)}85.71%{animation-timing-function:cubic-bezier(0.34, 1.15, 0.64, 1);transform:translateX(229px) translateY(98px) translate(116.5px, 32.5px) scaleX(0.75) scaleY(0.75) translate(-116.5px, -32.5px)}100%{transform:translateX(229px) translateY(98px) translate(116.5px, 32.5px) scaleX(1) scaleY(1) translate(-116.5px, -32.5px)}} @keyframes kf_Frame_1000003537_opacity_0{0%{animation-timing-function:linear;opacity:0}85.71%{animation-timing-function:cubic-bezier(0.16, 1, 0.3, 1);opacity:0}98.41%{animation-timing-function:linear;opacity:1}100%{opacity:1}}.B{fill:#fff}.C{fill:#3a3766}.D{stroke:#d6d4e8}.E{stroke-linecap:round}.F{stroke:#5642ce}.G{stroke-width:1.5}.H{stroke-linejoin:round}]]></style><g clip-path="url(#G)"><rect width="692" height="256" rx="12" fill="#f7f7f7"/><path id="A" transform="translate(104.212 24)" d="M0 231.862A242 242 0 0 1 241.788 0a242 242 0 0 1 170.943 70.704c43.106 43.018 68.325 100.614 70.847 161.228" pathLength="1" stroke-dasharray="1 1" stroke-dashoffset="0" class="D E"/><g id="B" transform="translate(59 45)"><g clip-path="url(#H)"><rect width="158" height="40" rx="8" class="B"/><g clip-path="url(#I)" transform="translate(12 10)" class="E F G H"><path transform="translate(2.5 1.787)" d="M14.583 4.278L7.5 8.213m0 0L.417 4.278M7.5 8.213v7.917m7.5-4.534V4.831c0-.286 0-.428-.042-.556-.037-.113-.098-.216-.178-.303-.091-.099-.216-.168-.465-.307L8.148.24c-.236-.131-.355-.197-.48-.223-.111-.023-.225-.023-.336 0-.125.026-.243.091-.48.223L.686 3.666c-.25.139-.374.208-.465.307-.08.087-.141.191-.178.303C0 4.403 0 4.546 0 4.831v6.764c0 .286 0 .428.042.556.037.113.098.216.178.303.091.099.216.168.465.307l6.167 3.426c.236.131.354.197.48.223.111.023.225.023.336 0 .125-.026.243-.091.48-.223l6.167-3.426c.25-.139.374-.208.465-.307a.83.83 0 0 0 .178-.303c.042-.127.042-.27.042-.556z"/></g><path transform="translate(40 11)" d="M1.461 14V3.818h3.629c.789 0 1.443.136 1.964.408s.915.648 1.173 1.129.388 1.029.388 1.656-.131 1.172-.393 1.646-.65.837-1.173 1.099-1.175.393-1.964.393H2.336V8.825h2.61c.497 0 .902-.071 1.213-.214s.545-.35.691-.621.219-.598.219-.979-.075-.718-.224-.999-.376-.497-.691-.646-.721-.229-1.228-.229H2.998V14H1.461zm5.026-4.594L9.003 14h-1.75L4.787 9.406h1.7zm7.073 4.748c-.752 0-1.4-.161-1.944-.482a3.27 3.27 0 0 1-1.253-1.367c-.292-.59-.438-1.281-.438-2.073 0-.782.146-1.472.438-2.068s.706-1.062 1.233-1.397 1.15-.502 1.859-.502a3.74 3.74 0 0 1 1.253.214c.404.143.767.366 1.089.671s.575.701.761 1.188.278 1.072.278 1.765v.527h-6.07V9.516h4.614c0-.391-.08-.737-.239-1.039s-.383-.545-.671-.721-.62-.263-1.004-.263a1.94 1.94 0 0 0-1.094.308 2.07 2.07 0 0 0-.716.795c-.166.325-.249.678-.249 1.059v.87c0 .51.089.945.268 1.303a1.94 1.94 0 0 0 .761.82c.325.186.704.278 1.139.278.282 0 .539-.04.771-.119s.432-.206.602-.368.298-.363.388-.601l1.407.253a2.55 2.55 0 0 1-.607 1.089 2.94 2.94 0 0 1-1.089.721c-.434.169-.93.253-1.486.253zm8.49-7.79v1.193H17.88V6.364h4.171zm-3.053-1.83h1.486v7.224c0 .288.043.505.129.651s.197.24.333.293.29.075.452.075c.119 0 .224-.008.313-.025l.209-.04.268 1.228c-.086.033-.209.066-.368.099s-.358.056-.597.06c-.391.007-.756-.063-1.094-.209s-.611-.371-.82-.676-.313-.688-.313-1.148V4.534zm9.534 6.299V6.364h1.491V14h-1.462v-1.322h-.08c-.176.408-.457.747-.845 1.019s-.863.403-1.437.403c-.491 0-.925-.108-1.303-.323a2.27 2.27 0 0 1-.885-.969c-.212-.428-.318-.956-.318-1.586V6.364h1.486v4.678c0 .52.144.935.433 1.243s.663.462 1.124.462c.278 0 .555-.07.83-.209a1.75 1.75 0 0 0 .691-.631c.186-.282.277-.64.273-1.074zM32.022 14V6.364h1.437v1.213h.08c.139-.411.385-.734.736-.969s.756-.358 1.203-.358l.328.01.303.025v1.422c-.06-.017-.166-.035-.318-.055s-.305-.035-.457-.035a1.94 1.94 0 0 0-.94.224 1.66 1.66 0 0 0-.646.612c-.159.259-.239.554-.239.885V14h-1.486zm6.86-4.534V14h-1.487V6.364h1.427v1.243h.095c.176-.404.451-.729.825-.974s.853-.368 1.427-.368c.52 0 .976.109 1.367.328s.694.537.91.964.323.956.323 1.586V14h-1.486V9.322c0-.553-.144-.986-.433-1.298s-.684-.472-1.188-.472c-.345 0-.651.075-.92.224a1.61 1.61 0 0 0-.631.656c-.152.285-.229.63-.229 1.034zm16.308-1.238l-1.347.239c-.056-.172-.146-.336-.269-.492s-.282-.283-.487-.383-.462-.149-.771-.149c-.421 0-.772.094-1.054.283s-.423.426-.423.721a.76.76 0 0 0 .283.616c.189.156.494.283.915.383l1.213.278c.703.162 1.226.413 1.571.751s.517.777.517 1.318a2 2 0 0 1-.398 1.223c-.262.355-.628.633-1.099.835s-1.009.303-1.626.303c-.855 0-1.553-.182-2.093-.547s-.872-.89-.994-1.566l1.437-.219c.089.375.273.658.552.85s.641.283 1.089.283c.487 0 .877-.101 1.168-.303s.438-.456.438-.751a.78.78 0 0 0-.268-.602c-.176-.162-.446-.285-.81-.368l-1.293-.283c-.713-.162-1.24-.421-1.581-.776s-.507-.804-.507-1.347c0-.451.126-.845.378-1.183s.6-.602 1.044-.79.953-.288 1.526-.288c.825 0 1.475.179 1.949.537s.787.83.94 1.427zm3.27 1.238V14h-1.486V3.818h1.467v3.788h.094c.179-.411.452-.737.82-.979s.849-.363 1.442-.363c.524 0 .981.108 1.372.323s.699.537.915.964.328.955.328 1.591V14h-1.486V9.322c0-.56-.144-.994-.432-1.303s-.689-.467-1.203-.467c-.351 0-.666.075-.945.224s-.492.368-.651.656-.234.63-.234 1.034zM65.395 14V6.364h1.486V14h-1.486zm.751-8.815c-.258 0-.481-.086-.666-.259a.84.84 0 0 1-.273-.626.83.83 0 0 1 .273-.626c.186-.176.408-.264.666-.264s.479.088.661.264.278.381.278.626-.093.451-.278.626-.403.259-.661.259zm2.736 11.678v-10.5h1.452v1.238h.124c.086-.159.21-.343.373-.552a2.11 2.11 0 0 1 .676-.547c.288-.159.669-.239 1.144-.239.616 0 1.167.156 1.651.467s.863.761 1.138 1.347.418 1.293.418 2.118-.138 1.533-.413 2.123-.653 1.039-1.133 1.357-1.029.472-1.646.472c-.464 0-.844-.078-1.139-.234s-.52-.338-.686-.547-.293-.394-.383-.557h-.09v4.052h-1.486zm1.457-6.682c0 .537.078 1.008.234 1.412a2.14 2.14 0 0 0 .676.95c.295.225.656.338 1.084.338.444 0 .815-.118 1.114-.353s.524-.562.676-.969.234-.867.234-1.377c0-.504-.076-.956-.229-1.357s-.375-.718-.676-.95-.671-.348-1.119-.348c-.431 0-.795.111-1.094.333s-.519.532-.671.93-.229.862-.229 1.392zm7.184 6.682v-10.5h1.452v1.238h.124c.086-.159.21-.343.373-.552s.388-.391.676-.547.669-.239 1.143-.239c.617 0 1.167.156 1.651.467s.863.761 1.139 1.347.418 1.293.418 2.118-.138 1.533-.413 2.123-.653 1.039-1.134 1.357-1.029.472-1.646.472c-.464 0-.843-.078-1.138-.234s-.52-.338-.686-.547-.293-.394-.383-.557h-.089v4.052h-1.487zm1.457-6.682c0 .537.078 1.008.234 1.412s.381.721.676.95.656.338 1.084.338c.444 0 .815-.118 1.114-.353s.524-.562.676-.969.234-.867.234-1.377c0-.504-.076-.956-.229-1.357s-.374-.718-.676-.95-.671-.348-1.119-.348c-.431 0-.795.111-1.094.333s-.519.532-.671.93-.229.862-.229 1.392zM86.162 14V6.364h1.486V14h-1.486zm.751-8.815c-.258 0-.481-.086-.666-.259a.84.84 0 0 1-.273-.626.83.83 0 0 1 .273-.626c.186-.176.408-.264.666-.264s.479.088.661.264.278.381.278.626-.093.451-.278.626-.403.259-.661.259zm4.222 4.281V14h-1.486V6.364h1.427v1.243h.094c.176-.404.451-.729.825-.974s.853-.368 1.427-.368c.52 0 .976.109 1.367.328s.694.537.91.964.323.956.323 1.586V14h-1.487V9.322c0-.553-.144-.986-.433-1.298s-.684-.472-1.188-.472c-.345 0-.651.075-.92.224a1.61 1.61 0 0 0-.631.656c-.153.285-.229.63-.229 1.034zm10.083 7.557c-.607 0-1.129-.079-1.567-.239s-.789-.37-1.064-.631a2.65 2.65 0 0 1-.616-.86l1.278-.527c.09.146.209.3.358.462a1.86 1.86 0 0 0 .616.423c.262.116.599.174 1.01.174.563 0 1.029-.138 1.397-.413s.551-.706.551-1.302v-1.501h-.094c-.09.162-.219.343-.388.542s-.394.371-.686.517-.671.219-1.138.219a3.18 3.18 0 0 1-1.631-.423c-.481-.285-.862-.704-1.144-1.258s-.418-1.241-.418-2.053.138-1.508.413-2.088.66-1.024 1.144-1.332 1.032-.467 1.645-.467c.474 0 .857.08 1.149.239s.519.338.681.547a4.38 4.38 0 0 1 .383.552h.109V6.364h1.457v7.805c0 .656-.153 1.195-.457 1.616s-.718.732-1.238.935-1.101.303-1.75.303zm-.015-4.37c.427 0 .789-.099 1.083-.298s.524-.491.677-.865.233-.83.233-1.357c0-.514-.076-.966-.228-1.357s-.377-.696-.672-.915-.659-.333-1.093-.333c-.448 0-.821.116-1.119.348a2.1 2.1 0 0 0-.676.935c-.149.394-.224.835-.224 1.322 0 .501.076.94.229 1.318s.378.673.676.885.673.318 1.114.318z" class="C"/></g><rect x=".5" y=".5" width="157" height="39" rx="7.5" class="D"/></g><g id="C" transform="translate(472 45)"><g clip-path="url(#J)"><rect width="133" height="40" rx="8" class="B"/><g clip-path="url(#K)" transform="translate(12 10)" class="F G H"><path transform="translate(3.333 2.5)" d="M0 4c0-1.4 0-2.1.272-2.635A2.5 2.5 0 0 1 1.365.272C1.9 0 2.6 0 4 0h5.333c1.4 0 2.1 0 2.635.272a2.5 2.5 0 0 1 1.093 1.093c.272.535.272 1.235.272 2.635v11l-2.292-1.667L8.958 15l-2.292-1.667L4.375 15l-2.083-1.667L0 15V4z"/></g><path transform="translate(40 11)" d="M1.594 14V3.818h3.629c.789 0 1.443.136 1.964.408s.915.648 1.173 1.129.388 1.029.388 1.656-.131 1.172-.393 1.646-.65.837-1.173 1.099-1.175.393-1.964.393H2.469V8.825h2.61c.497 0 .902-.071 1.213-.214s.545-.35.691-.621.219-.598.219-.979-.075-.718-.224-.999-.376-.497-.691-.646-.721-.229-1.228-.229H3.13V14H1.594zM6.62 9.406L9.136 14h-1.75L4.92 9.406h1.7zm7.073 4.748c-.752 0-1.4-.161-1.944-.482a3.27 3.27 0 0 1-1.253-1.367c-.292-.59-.437-1.281-.437-2.073 0-.782.146-1.472.438-2.068s.706-1.062 1.233-1.397 1.15-.502 1.859-.502a3.74 3.74 0 0 1 1.253.214c.404.143.767.366 1.089.671s.575.701.761 1.188.278 1.072.278 1.765v.527H10.9V9.516h4.614c0-.391-.08-.737-.239-1.039s-.383-.545-.671-.721-.62-.263-1.004-.263a1.94 1.94 0 0 0-1.094.308 2.07 2.07 0 0 0-.716.795c-.166.325-.249.678-.249 1.059v.87c0 .51.089.945.268 1.303a1.94 1.94 0 0 0 .761.82c.325.186.704.278 1.139.278.282 0 .539-.04.771-.119s.432-.206.602-.368a1.6 1.6 0 0 0 .388-.601l1.407.253a2.55 2.55 0 0 1-.606 1.089 2.94 2.94 0 0 1-1.089.721c-.434.169-.93.253-1.487.253zm8.49-7.79v1.193h-4.171V6.364h4.171zm-3.053-1.83h1.486v7.224c0 .288.043.505.129.651s.197.24.333.293.29.075.453.075c.119 0 .224-.008.313-.025l.209-.04.268 1.228c-.086.033-.209.066-.368.099s-.358.056-.597.06c-.391.007-.756-.063-1.094-.209s-.611-.371-.82-.676-.313-.688-.313-1.148V4.534zm9.534 6.299V6.364h1.491V14h-1.462v-1.322h-.08c-.176.408-.457.747-.845 1.019s-.863.403-1.437.403c-.491 0-.925-.108-1.303-.323a2.27 2.27 0 0 1-.885-.969c-.212-.428-.318-.956-.318-1.586V6.364h1.487v4.678c0 .52.144.935.432 1.243s.663.462 1.124.462c.278 0 .555-.07.83-.209a1.75 1.75 0 0 0 .691-.631c.186-.282.277-.64.273-1.074zM32.155 14V6.364h1.437v1.213h.08c.139-.411.384-.734.736-.969s.756-.358 1.203-.358l.328.01.303.025v1.422a2.66 2.66 0 0 0-.318-.055c-.152-.023-.305-.035-.457-.035a1.94 1.94 0 0 0-.94.224 1.66 1.66 0 0 0-.646.612c-.159.259-.239.554-.239.885V14h-1.486zm6.859-4.534V14h-1.486V6.364h1.427v1.243h.094c.176-.404.451-.729.825-.974s.853-.368 1.427-.368c.52 0 .976.109 1.367.328s.694.537.91.964.323.956.323 1.586V14h-1.486V9.322c0-.553-.144-.986-.433-1.298s-.684-.472-1.188-.472c-.345 0-.651.075-.92.224a1.61 1.61 0 0 0-.631.656c-.153.285-.229.63-.229 1.034zm12.072-5.648V14H49.6V3.818h1.486zm4.222 10.351c-.484 0-.921-.09-1.312-.268a2.21 2.21 0 0 1-.93-.791c-.225-.345-.338-.767-.338-1.268 0-.431.083-.785.249-1.064s.39-.499.671-.661.597-.285.945-.368a9.39 9.39 0 0 1 1.064-.189l1.114-.129c.285-.036.492-.094.621-.174s.194-.209.194-.388v-.035c0-.434-.123-.771-.368-1.009s-.603-.358-1.084-.358c-.501 0-.895.111-1.183.333s-.482.462-.592.731l-1.397-.318c.166-.464.408-.839.726-1.124s.691-.497 1.109-.626a4.33 4.33 0 0 1 1.318-.199 4.65 4.65 0 0 1 .969.109 2.84 2.84 0 0 1 .965.388c.302.189.549.459.741.81s.288.8.288 1.357V14h-1.452v-1.044h-.06c-.096.192-.24.381-.433.567s-.439.34-.741.462-.663.184-1.084.184zm.323-1.193c.411 0 .762-.081 1.054-.244s.519-.375.671-.636a1.65 1.65 0 0 0 .234-.85v-.984c-.053.053-.156.103-.308.149a4.8 4.8 0 0 1-.512.114l-.562.085-.457.06c-.288.037-.552.098-.79.184s-.424.21-.567.373-.209.371-.209.636c0 .368.136.646.408.835s.618.278 1.039.278zM61.176 14V3.818h1.486v3.783h.09c.086-.159.21-.343.373-.552a2.11 2.11 0 0 1 .676-.547c.288-.159.669-.239 1.143-.239.617 0 1.167.156 1.651.467s.863.761 1.139 1.347.418 1.293.418 2.118-.138 1.533-.413 2.123-.653 1.039-1.133 1.357-1.029.472-1.646.472c-.464 0-.843-.078-1.138-.234s-.52-.338-.686-.547-.293-.394-.383-.557h-.124V14h-1.452zm1.457-3.818c0 .537.078 1.008.234 1.412a2.14 2.14 0 0 0 .676.95c.295.225.656.338 1.084.338.444 0 .815-.118 1.114-.353s.524-.562.676-.969.234-.867.234-1.377c0-.504-.076-.956-.229-1.357s-.375-.718-.676-.95-.671-.348-1.119-.348c-.431 0-.795.111-1.094.333s-.519.532-.671.93-.229.862-.229 1.392zm10.479 3.972c-.752 0-1.4-.161-1.944-.482a3.27 3.27 0 0 1-1.253-1.367c-.292-.59-.437-1.281-.437-2.073 0-.782.146-1.472.438-2.068s.706-1.062 1.233-1.397 1.15-.502 1.859-.502a3.74 3.74 0 0 1 1.253.214c.404.143.767.366 1.089.671s.575.701.761 1.188.278 1.072.278 1.765v.527h-6.07V9.516h4.614c0-.391-.08-.737-.239-1.039s-.383-.545-.671-.721-.62-.263-1.004-.263a1.94 1.94 0 0 0-1.094.308 2.07 2.07 0 0 0-.716.795c-.166.325-.249.678-.249 1.059v.87c0 .51.089.945.268 1.303a1.94 1.94 0 0 0 .761.82c.325.186.704.278 1.138.278.282 0 .539-.04.771-.119s.433-.206.602-.368.298-.363.388-.601l1.407.253a2.55 2.55 0 0 1-.606 1.089 2.94 2.94 0 0 1-1.089.721c-.434.169-.93.253-1.486.253zm6.412-10.336V14h-1.486V3.818h1.486z" class="C"/></g><rect x=".5" y=".5" width="132" height="39" rx="7.5" class="D"/></g><g id="D" transform="translate(45 176)"><g clip-path="url(#L)"><rect width="140" height="40" rx="8" class="B"/><g clip-path="url(#M)" transform="translate(12 10)" class="E F G H"><path transform="translate(2.5 2.5)" d="M6.667.833H4c-1.4 0-2.1 0-2.635.272A2.5 2.5 0 0 0 .272 2.198C0 2.733 0 3.433 0 4.833v4.333c0 .775 0 1.162.085 1.48a2.5 2.5 0 0 0 1.768 1.768c.318.085.705.085 1.48.085v1.946c0 .444 0 .666.091.78.079.099.199.157.326.157.146 0 .319-.139.666-.416l1.988-1.59c.406-.325.609-.487.835-.603a2.5 2.5 0 0 1 .635-.223c.249-.051.509-.051 1.029-.051h1.264c1.4 0 2.1 0 2.635-.273a2.5 2.5 0 0 0 1.093-1.092c.273-.535.273-1.235.273-2.635v-.167m.101-7.601a2.5 2.5 0 0 1-3.536 3.536A2.5 2.5 0 0 1 14.268.732z"/></g><path transform="translate(40 11)" d="M7.134 6.493a1.45 1.45 0 0 0-.656-1.094c-.384-.262-.868-.393-1.452-.393-.418 0-.779.066-1.084.199s-.542.308-.711.537-.249.482-.249.771c0 .242.056.451.169.626s.267.323.452.442a3.42 3.42 0 0 0 .607.293l.621.189.994.259c.325.08.658.187.999.323s.658.315.95.537.527.497.706.825.273.721.273 1.178c0 .577-.149 1.089-.447 1.536s-.724.8-1.288 1.059-1.238.388-2.033.388c-.762 0-1.422-.121-1.979-.363s-.993-.585-1.308-1.029-.489-.978-.522-1.591h1.541c.03.368.149.675.358.92s.482.423.81.542.694.174 1.089.174c.434 0 .82-.068 1.158-.204s.61-.331.805-.577.293-.539.293-.87c0-.302-.086-.549-.259-.741s-.399-.351-.691-.477-.615-.237-.979-.333l-1.203-.328c-.815-.222-1.462-.549-1.939-.979s-.711-1.001-.711-1.71c0-.587.159-1.099.477-1.536s.749-.777 1.293-1.019 1.157-.368 1.839-.368c.689 0 1.298.121 1.825.363s.948.575 1.253.999.464.905.477 1.452H7.134zm8.175 4.34V6.364H16.8V14h-1.462v-1.322h-.08c-.176.408-.457.747-.845 1.019s-.863.403-1.437.403c-.491 0-.925-.108-1.303-.323a2.27 2.27 0 0 1-.885-.969c-.212-.428-.318-.956-.318-1.586V6.364h1.486v4.678c0 .52.144.935.433 1.243s.663.462 1.124.462c.278 0 .555-.07.83-.209a1.75 1.75 0 0 0 .691-.631c.186-.282.277-.64.273-1.074zm3.489 6.031v-10.5h1.452v1.238h.124c.086-.159.21-.343.373-.552a2.11 2.11 0 0 1 .676-.547c.288-.159.669-.239 1.143-.239.616 0 1.167.156 1.651.467s.863.761 1.139 1.347.418 1.293.418 2.118-.138 1.533-.413 2.123-.653 1.039-1.134 1.357-1.029.472-1.646.472c-.464 0-.844-.078-1.139-.234s-.52-.338-.686-.547-.293-.394-.383-.557h-.09v4.052h-1.486zm1.457-6.682c0 .537.078 1.008.234 1.412s.381.721.676.95.656.338 1.084.338c.444 0 .815-.118 1.114-.353s.524-.562.676-.969.234-.867.234-1.377c0-.504-.076-.956-.229-1.357s-.375-.718-.676-.95-.671-.348-1.119-.348c-.431 0-.795.111-1.094.333s-.519.532-.671.93-.229.862-.229 1.392zm7.184 6.682v-10.5h1.452v1.238h.124c.086-.159.21-.343.373-.552s.388-.391.676-.547.669-.239 1.143-.239c.617 0 1.167.156 1.651.467s.863.761 1.139 1.347.418 1.293.418 2.118-.138 1.533-.413 2.123-.653 1.039-1.134 1.357-1.029.472-1.646.472c-.464 0-.843-.078-1.138-.234s-.52-.338-.686-.547-.293-.394-.383-.557h-.09v4.052h-1.486zm1.457-6.682c0 .537.078 1.008.234 1.412s.381.721.676.95.656.338 1.084.338c.444 0 .815-.118 1.114-.353a2.19 2.19 0 0 0 .676-.969c.156-.408.234-.867.234-1.377 0-.504-.076-.956-.229-1.357s-.374-.718-.676-.95-.671-.348-1.119-.348c-.431 0-.796.111-1.094.333s-.519.532-.671.93-.229.862-.229 1.392zm10.401 3.972c-.716 0-1.341-.164-1.874-.492s-.948-.787-1.243-1.377-.442-1.279-.442-2.068.147-1.485.442-2.078.709-1.054 1.243-1.382 1.158-.492 1.874-.492 1.341.164 1.874.492.948.789 1.243 1.382.443 1.286.443 2.078-.148 1.478-.443 2.068-.709 1.049-1.243 1.377-1.158.492-1.874.492zm.005-1.248c.464 0 .849-.123 1.153-.368s.53-.572.676-.979.224-.857.224-1.347-.075-.935-.224-1.342-.371-.741-.676-.989-.689-.373-1.153-.373-.855.124-1.163.373-.532.578-.681.989a3.96 3.96 0 0 0-.219 1.342c0 .491.073.94.219 1.347a2.19 2.19 0 0 0 .681.979c.308.245.696.368 1.163.368zM44.514 14V6.364h1.437v1.213h.08c.139-.411.384-.734.736-.969s.756-.358 1.203-.358l.328.01.303.025v1.422c-.06-.017-.166-.035-.318-.055s-.305-.035-.457-.035a1.94 1.94 0 0 0-.94.224 1.66 1.66 0 0 0-.646.612c-.159.259-.239.554-.239.885V14h-1.486zm9.389-7.636v1.193h-4.171V6.364h4.171zm-3.053-1.83h1.486v7.224c0 .288.043.505.129.651s.197.24.333.293.29.075.452.075c.119 0 .224-.008.313-.025l.209-.04.269 1.228a2.5 2.5 0 0 1-.368.099c-.159.036-.358.056-.597.06-.391.007-.756-.063-1.094-.209s-.612-.371-.82-.676-.313-.688-.313-1.148V4.534zm11.967 1.83v1.193h-4.171V6.364h4.171zm-3.053-1.83h1.486v7.224c0 .288.043.505.129.651s.197.24.333.293.29.075.452.075c.119 0 .224-.008.313-.025l.209-.04.268 1.228c-.086.033-.209.066-.368.099s-.358.056-.597.06c-.391.007-.756-.063-1.094-.209s-.611-.371-.82-.676-.313-.688-.313-1.148V4.534zM64.461 14V6.364h1.486V14h-1.486zm.751-8.815c-.258 0-.481-.086-.666-.259a.84.84 0 0 1-.273-.626.83.83 0 0 1 .273-.626c.186-.176.408-.264.666-.264s.479.088.661.264.278.381.278.626-.093.451-.278.626-.403.259-.661.259zM67.948 14V6.364h1.427v1.243h.094c.159-.421.419-.749.781-.984s.794-.358 1.298-.358c.51 0 .938.119 1.283.358s.605.567.771.984h.08a2.15 2.15 0 0 1 .87-.974c.398-.245.872-.368 1.422-.368.693 0 1.258.217 1.695.651s.661 1.089.661 1.964V14h-1.486V9.018c0-.517-.141-.892-.423-1.124s-.618-.348-1.009-.348c-.484 0-.86.149-1.129.447s-.403.674-.403 1.138V14h-1.482V8.924c0-.414-.129-.747-.388-.999s-.595-.378-1.009-.378c-.282 0-.542.075-.781.224a1.64 1.64 0 0 0-.572.611c-.142.262-.214.565-.214.91V14h-1.486zm15.664.154c-.752 0-1.4-.161-1.944-.482a3.27 3.27 0 0 1-1.253-1.367c-.292-.59-.437-1.281-.437-2.073 0-.782.146-1.472.438-2.068s.706-1.062 1.233-1.397 1.15-.502 1.859-.502a3.74 3.74 0 0 1 1.253.214c.404.143.767.366 1.089.671s.575.701.761 1.188.278 1.072.278 1.765v.527h-6.07V9.516h4.614c0-.391-.08-.737-.239-1.039s-.383-.545-.671-.721-.62-.263-1.004-.263a1.94 1.94 0 0 0-1.094.308 2.07 2.07 0 0 0-.716.795c-.166.325-.249.678-.249 1.059v.87c0 .51.089.945.268 1.303a1.94 1.94 0 0 0 .761.82c.325.186.704.278 1.138.278.282 0 .539-.04.771-.119s.433-.206.602-.368.298-.363.388-.601l1.407.253a2.55 2.55 0 0 1-.606 1.089 2.94 2.94 0 0 1-1.089.721c-.434.169-.93.253-1.486.253z" class="C"/></g><rect x=".5" y=".5" width="139" height="39" rx="7.5" class="D"/></g><g id="E" transform="translate(453 176)"><g clip-path="url(#N)"><rect width="205" height="40" rx="8" class="B"/><g clip-path="url(#O)" transform="translate(12 10)" class="E F G H"><path transform="translate(2.5 1.889)" d="M5 15.611V9.444c0-.467 0-.7.091-.878.08-.157.207-.284.364-.364.178-.091.412-.091.878-.091h2.333c.467 0 .7 0 .878.091.157.08.284.207.364.364.091.178.091.412.091.878v6.167M6.681.414L1.029 4.81c-.378.294-.567.441-.703.625-.121.163-.21.347-.265.542C0 6.197 0 6.437 0 6.915v6.029c0 .933 0 1.4.182 1.757.16.314.415.569.728.728.357.182.823.182 1.757.182h9.667c.934 0 1.4 0 1.757-.182.314-.16.569-.415.728-.728.182-.357.182-.823.182-1.757V6.915c0-.479 0-.718-.062-.938-.055-.195-.144-.379-.265-.542-.136-.184-.325-.331-.703-.625L8.319.414C8.026.187 7.879.073 7.718.029c-.143-.039-.293-.039-.436 0-.162.044-.308.158-.601.385z"/></g><path transform="translate(40 11)" d="M3.275 14L.451 3.818h1.616l1.984 7.885h.094l2.063-7.885h1.601l2.063 7.89h.094l1.979-7.89h1.621L10.738 14H9.192L7.049 6.374h-.08L4.826 14H3.275zm13.043.169c-.484 0-.921-.09-1.312-.268a2.21 2.21 0 0 1-.93-.791c-.225-.345-.338-.767-.338-1.268 0-.431.083-.785.249-1.064s.389-.499.671-.661.597-.285.945-.368a9.39 9.39 0 0 1 1.064-.189l1.114-.129c.285-.036.492-.094.621-.174s.194-.209.194-.388v-.035c0-.434-.123-.771-.368-1.009s-.603-.358-1.084-.358c-.5 0-.895.111-1.183.333s-.482.462-.592.731l-1.397-.318c.166-.464.408-.839.726-1.124s.691-.497 1.109-.626a4.33 4.33 0 0 1 1.317-.199c.305 0 .628.036.969.109a2.84 2.84 0 0 1 .965.388c.302.189.549.459.741.81s.288.8.288 1.357V14h-1.452v-1.044h-.06c-.096.192-.24.381-.433.567s-.439.34-.741.462-.663.184-1.084.184zm.323-1.193c.411 0 .762-.081 1.054-.244s.519-.375.671-.636a1.65 1.65 0 0 0 .234-.85v-.984c-.053.053-.156.103-.308.149s-.32.081-.512.114l-.562.085-.457.06c-.288.037-.552.098-.79.184s-.424.21-.567.373-.209.371-.209.636c0 .368.136.646.408.835s.618.278 1.039.278zM22.067 14V6.364h1.437v1.213h.079c.139-.411.385-.734.736-.969s.756-.358 1.203-.358l.328.01.303.025v1.422a2.66 2.66 0 0 0-.318-.055c-.152-.023-.305-.035-.457-.035a1.94 1.94 0 0 0-.94.224 1.66 1.66 0 0 0-.646.612c-.159.259-.239.554-.239.885V14h-1.486zm8.391.154c-.752 0-1.4-.161-1.944-.482a3.27 3.27 0 0 1-1.253-1.367c-.292-.59-.437-1.281-.437-2.073 0-.782.146-1.472.438-2.068s.706-1.062 1.233-1.397 1.15-.502 1.859-.502a3.74 3.74 0 0 1 1.253.214c.404.143.767.366 1.089.671s.575.701.761 1.188.279 1.072.279 1.765v.527h-6.07V9.516h4.614c0-.391-.08-.737-.239-1.039s-.383-.545-.671-.721-.62-.263-1.004-.263a1.94 1.94 0 0 0-1.094.308 2.07 2.07 0 0 0-.716.795c-.166.325-.249.678-.249 1.059v.87c0 .51.09.945.268 1.303a1.94 1.94 0 0 0 .761.82c.325.186.704.278 1.139.278.282 0 .539-.04.771-.119s.433-.206.602-.368.298-.363.388-.601l1.407.253a2.55 2.55 0 0 1-.606 1.089 2.94 2.94 0 0 1-1.089.721c-.434.169-.93.253-1.486.253zm6.412-4.688V14h-1.486V3.818h1.467v3.788h.095c.179-.411.452-.737.82-.979s.849-.363 1.442-.363c.524 0 .981.108 1.372.323s.699.537.915.964.328.955.328 1.591V14h-1.486V9.322c0-.56-.144-.994-.433-1.303s-.689-.467-1.203-.467c-.351 0-.666.075-.945.224s-.492.368-.651.656-.234.63-.234 1.034zm10.152 4.688c-.716 0-1.341-.164-1.874-.492s-.948-.787-1.243-1.377-.443-1.279-.443-2.068.148-1.485.443-2.078.709-1.054 1.243-1.382 1.158-.492 1.874-.492 1.341.164 1.874.492.948.789 1.243 1.382.442 1.286.442 2.078-.148 1.478-.442 2.068-.709 1.049-1.243 1.377-1.158.492-1.874.492zm.005-1.248c.464 0 .849-.123 1.154-.368s.53-.572.676-.979.224-.857.224-1.347a3.88 3.88 0 0 0-.224-1.342c-.146-.411-.371-.741-.676-.989s-.689-.373-1.154-.373-.855.124-1.163.373-.532.578-.681.989a3.96 3.96 0 0 0-.219 1.342c0 .491.073.94.219 1.347a2.19 2.19 0 0 0 .681.979c.308.245.696.368 1.163.368zm10.051-2.073V6.364h1.491V14h-1.462v-1.322h-.08c-.176.408-.457.747-.845 1.019s-.863.403-1.437.403c-.491 0-.925-.108-1.303-.323a2.27 2.27 0 0 1-.885-.969c-.212-.428-.318-.956-.318-1.586V6.364h1.486v4.678c0 .52.144.935.433 1.243s.663.462 1.124.462c.278 0 .555-.07.83-.209a1.75 1.75 0 0 0 .691-.631c.186-.282.277-.64.273-1.074zm9.211-2.605l-1.347.239c-.056-.172-.146-.336-.269-.492s-.282-.283-.487-.383-.462-.149-.771-.149c-.421 0-.772.094-1.054.283s-.423.426-.423.721a.76.76 0 0 0 .283.616c.189.156.494.283.915.383l1.213.278c.703.162 1.226.413 1.571.751s.517.777.517 1.318a2 2 0 0 1-.398 1.223c-.262.355-.628.633-1.099.835s-1.009.303-1.626.303c-.855 0-1.553-.182-2.093-.547s-.872-.89-.994-1.566l1.437-.219c.09.375.273.658.552.85s.641.283 1.089.283c.487 0 .877-.101 1.168-.303s.438-.456.438-.751a.78.78 0 0 0-.268-.602c-.176-.162-.446-.285-.81-.368l-1.293-.283c-.713-.162-1.24-.421-1.581-.776s-.507-.804-.507-1.347c0-.451.126-.845.378-1.183s.6-.602 1.044-.79.953-.288 1.526-.288c.825 0 1.475.179 1.949.537s.787.83.94 1.427zm5.075 5.926c-.752 0-1.4-.161-1.944-.482a3.27 3.27 0 0 1-1.253-1.367c-.292-.59-.437-1.281-.437-2.073 0-.782.146-1.472.438-2.068s.706-1.062 1.233-1.397 1.15-.502 1.859-.502a3.74 3.74 0 0 1 1.253.214c.404.143.767.366 1.089.671s.575.701.761 1.188.278 1.072.278 1.765v.527h-6.07V9.516h4.614c0-.391-.079-.737-.239-1.039s-.383-.545-.671-.721-.62-.263-1.004-.263a1.94 1.94 0 0 0-1.094.308 2.07 2.07 0 0 0-.716.795c-.166.325-.249.678-.249 1.059v.87c0 .51.09.945.269 1.303a1.94 1.94 0 0 0 .761.82c.325.186.704.278 1.139.278.282 0 .539-.04.771-.119s.433-.206.602-.368a1.6 1.6 0 0 0 .388-.601l1.407.253c-.113.414-.315.777-.607 1.089a2.94 2.94 0 0 1-1.089.721c-.434.169-.93.253-1.487.253zm8.631 2.71v-10.5h1.452v1.238h.124c.086-.159.21-.343.373-.552a2.11 2.11 0 0 1 .676-.547c.288-.159.669-.239 1.144-.239.617 0 1.167.156 1.65.467s.863.761 1.139 1.347.418 1.293.418 2.118-.138 1.533-.413 2.123-.653 1.039-1.133 1.357-1.029.472-1.646.472c-.464 0-.844-.078-1.138-.234s-.52-.338-.686-.547-.293-.394-.383-.557h-.09v4.052h-1.487zm1.457-6.682c0 .537.078 1.008.234 1.412s.381.721.676.95.656.338 1.084.338c.444 0 .815-.118 1.114-.353s.524-.562.676-.969.234-.867.234-1.377c0-.504-.076-.956-.229-1.357s-.374-.718-.676-.95-.671-.348-1.119-.348c-.431 0-.796.111-1.094.333s-.519.532-.671.93-.229.862-.229 1.392zM88.635 14V6.364h1.437v1.213h.08c.139-.411.384-.734.736-.969s.756-.358 1.203-.358l.328.01.303.025v1.422c-.06-.017-.166-.035-.318-.055s-.305-.035-.457-.035a1.94 1.94 0 0 0-.94.224 1.66 1.66 0 0 0-.646.612c-.159.259-.239.554-.239.885V14h-1.486zm8.316.154c-.716 0-1.341-.164-1.874-.492s-.948-.787-1.243-1.377-.443-1.279-.443-2.068.148-1.485.443-2.078.709-1.054 1.243-1.382 1.158-.492 1.874-.492 1.341.164 1.874.492.948.789 1.242 1.382.443 1.286.443 2.078-.148 1.478-.443 2.068-.709 1.049-1.242 1.377-1.158.492-1.874.492zm.005-1.248c.464 0 .849-.123 1.153-.368s.53-.572.676-.979.224-.857.224-1.347a3.88 3.88 0 0 0-.224-1.342c-.146-.411-.371-.741-.676-.989s-.689-.373-1.153-.373-.855.124-1.163.373-.532.578-.681.989-.219.855-.219 1.342.073.94.219 1.347a2.19 2.19 0 0 0 .681.979c.308.245.696.368 1.163.368zm8.431 1.248c-.739 0-1.376-.167-1.909-.502a3.32 3.32 0 0 1-1.223-1.397c-.285-.593-.428-1.273-.428-2.038 0-.776.146-1.46.438-2.053s.702-1.062 1.233-1.397 1.155-.502 1.874-.502c.58 0 1.097.108 1.551.323s.82.51 1.099.895a2.71 2.71 0 0 1 .502 1.347h-1.447a1.73 1.73 0 0 0-.547-.925c-.281-.259-.659-.388-1.133-.388-.415 0-.777.109-1.089.328s-.549.524-.721.925-.258.868-.258 1.412c0 .557.084 1.037.253 1.442s.408.718.716.94.678.333 1.099.333c.281 0 .537-.051.765-.154s.426-.257.582-.452.27-.431.333-.706h1.447c-.053.494-.214.935-.482 1.322s-.628.693-1.079.915-.973.333-1.576.333zm8.018 0c-.753 0-1.401-.161-1.944-.482s-.958-.781-1.253-1.367-.437-1.281-.437-2.073c0-.782.145-1.472.437-2.068s.706-1.062 1.233-1.397 1.15-.502 1.859-.502a3.74 3.74 0 0 1 1.253.214c.405.143.767.366 1.089.671s.575.701.761 1.188.278 1.072.278 1.765v.527h-6.07V9.516h4.613c0-.391-.079-.737-.238-1.039s-.383-.545-.671-.721-.62-.263-1.005-.263c-.417 0-.782.103-1.093.308s-.547.467-.716.795-.249.678-.249 1.059v.87c0 .51.09.945.269 1.303s.435.631.76.82.704.278 1.139.278c.281 0 .538-.04.77-.119s.433-.206.602-.368.298-.363.388-.601l1.407.253a2.55 2.55 0 0 1-.607 1.089c-.288.308-.651.548-1.089.721s-.929.253-1.486.253zm10.648-5.926l-1.348.239a1.58 1.58 0 0 0-.268-.492 1.33 1.33 0 0 0-.487-.383c-.206-.099-.463-.149-.771-.149-.421 0-.772.094-1.054.283s-.422.426-.422.721a.76.76 0 0 0 .283.616c.189.156.494.283.915.383l1.213.278c.702.162 1.226.413 1.571.751s.517.777.517 1.318c0 .457-.133.865-.398 1.223s-.628.633-1.099.835-1.009.303-1.625.303c-.855 0-1.553-.182-2.093-.547a2.31 2.31 0 0 1-.995-1.566l1.437-.219c.09.375.274.658.552.85s.641.283 1.089.283c.487 0 .876-.101 1.168-.303s.438-.456.438-.751a.78.78 0 0 0-.269-.602c-.176-.162-.446-.285-.81-.368l-1.293-.283c-.713-.162-1.24-.421-1.581-.776s-.507-.804-.507-1.347c0-.451.126-.845.378-1.183s.6-.602 1.044-.79.953-.288 1.526-.288c.825 0 1.475.179 1.949.537a2.5 2.5 0 0 1 .94 1.427zm7.506 0l-1.348.239a1.6 1.6 0 0 0-.268-.492c-.12-.156-.282-.283-.487-.383s-.463-.149-.771-.149c-.421 0-.772.094-1.054.283s-.423.426-.423.721a.76.76 0 0 0 .284.616c.189.156.494.283.915.383l1.213.278c.702.162 1.226.413 1.571.751s.517.777.517 1.318c0 .457-.133.865-.398 1.223s-.628.633-1.099.835-1.009.303-1.626.303c-.855 0-1.552-.182-2.093-.547s-.871-.89-.994-1.566l1.437-.219c.089.375.273.658.552.85s.641.283 1.089.283c.487 0 .876-.101 1.168-.303s.437-.456.437-.751a.78.78 0 0 0-.268-.602c-.176-.162-.446-.285-.81-.368l-1.293-.283c-.713-.162-1.24-.421-1.581-.776s-.507-.804-.507-1.347c0-.451.126-.845.378-1.183s.6-.602 1.044-.79.953-.288 1.526-.288c.825 0 1.475.179 1.949.537a2.5 2.5 0 0 1 .94 1.427zM133.342 14V6.364h1.487V14h-1.487zm.751-8.815c-.259 0-.481-.086-.666-.259s-.274-.384-.274-.626.091-.454.274-.626.407-.264.666-.264.479.088.661.264a.82.82 0 0 1 .278.626.83.83 0 0 1-.278.626c-.182.172-.403.259-.661.259zm4.222 4.281V14h-1.487V6.364h1.427v1.243h.095c.175-.404.45-.729.825-.974s.853-.368 1.427-.368c.52 0 .976.109 1.367.328s.694.537.91.964.323.956.323 1.586V14h-1.487V9.322c0-.553-.144-.986-.432-1.298s-.684-.472-1.188-.472a1.86 1.86 0 0 0-.92.224c-.265.149-.476.368-.631.656s-.229.63-.229 1.034zm10.082 7.557c-.606 0-1.128-.079-1.566-.239s-.789-.37-1.064-.631-.48-.548-.616-.86l1.278-.527c.089.146.208.3.357.462a1.86 1.86 0 0 0 .617.423c.262.116.598.174 1.009.174.564 0 1.029-.138 1.397-.413s.552-.706.552-1.302v-1.501h-.094c-.09.162-.219.343-.388.542s-.395.371-.686.517-.671.219-1.139.219c-.603 0-1.147-.141-1.63-.423s-.862-.704-1.144-1.258-.418-1.241-.418-2.053.138-1.508.413-2.088.66-1.024 1.144-1.332a2.97 2.97 0 0 1 1.645-.467c.474 0 .857.08 1.149.239s.518.338.681.547.293.393.383.552h.109V6.364h1.457v7.805c0 .656-.153 1.195-.458 1.616s-.717.732-1.238.935-1.1.303-1.75.303zm-.015-4.37c.428 0 .789-.099 1.084-.298s.524-.491.676-.865.234-.83.234-1.357c0-.514-.076-.966-.229-1.357s-.376-.696-.671-.915-.659-.333-1.094-.333c-.447 0-.82.116-1.118.348a2.09 2.09 0 0 0-.676.935c-.15.394-.224.835-.224 1.322 0 .501.076.94.229 1.318a1.94 1.94 0 0 0 .676.885c.301.212.673.318 1.113.318z" class="C"/></g><rect x=".5" y=".5" width="204" height="39" rx="7.5" class="D"/></g><g id="F" transform="translate(229 98)"><g clip-path="url(#P)"><rect width="233" height="65" rx="8" class="B"/><g transform="translate(14 10)"><g transform="translate(0 27)"><path d="M4.559 14.139c-.716 0-1.352-.123-1.909-.368s-.991-.587-1.312-1.024-.492-.943-.512-1.516h1.869c.017.275.108.515.273.721s.386.36.661.472a2.42 2.42 0 0 0 .925.169c.365 0 .688-.063.969-.189s.502-.308.661-.537.237-.492.234-.79c.003-.308-.076-.58-.239-.815s-.398-.419-.706-.552-.673-.199-1.104-.199h-.9V8.089h.9c.355 0 .665-.061.93-.184s.479-.295.631-.517.227-.486.224-.781c.003-.288-.061-.539-.194-.751a1.31 1.31 0 0 0-.552-.502c-.235-.119-.512-.179-.83-.179a2.19 2.19 0 0 0-.865.169c-.265.113-.479.273-.641.482s-.249.451-.259.736H1.039c.013-.57.177-1.071.492-1.501s.742-.772 1.273-1.014 1.125-.368 1.785-.368c.679 0 1.269.128 1.77.383s.893.592 1.168 1.019.413.9.413 1.417c.003.573-.166 1.054-.507 1.442S6.65 8.581 6.1 8.7v.08c.716.099 1.264.365 1.646.795s.575.96.572 1.596c0 .57-.162 1.08-.487 1.531s-.766.799-1.332 1.054-1.21.383-1.939.383zm6.293-.03c-.302 0-.56-.106-.775-.318a1.03 1.03 0 0 1-.318-.776 1.02 1.02 0 0 1 .318-.766c.215-.212.474-.318.775-.318a1.05 1.05 0 0 1 .761.318c.219.212.33.467.333.766a1.06 1.06 0 0 1-.159.552 1.14 1.14 0 0 1-.398.398c-.162.096-.341.144-.537.144zM13.784 14v-1.332l3.535-3.465.845-.91a3.34 3.34 0 0 0 .507-.771c.113-.249.169-.514.169-.795 0-.321-.073-.597-.219-.825s-.346-.411-.602-.537a1.94 1.94 0 0 0-.87-.189 1.79 1.79 0 0 0-.88.209c-.252.136-.447.33-.587.582s-.204.552-.204.9h-1.755c0-.646.148-1.208.442-1.685s.701-.847 1.218-1.109 1.117-.393 1.79-.393c.683 0 1.283.128 1.8.383s.918.605 1.203 1.049a2.73 2.73 0 0 1 .433 1.521c0 .381-.073.756-.219 1.124s-.403.776-.771 1.223-.877.989-1.536 1.626l-1.755 1.785v.07h4.435V14h-6.98zm10.187-7.636l1.541 2.819 1.566-2.819h1.904l-2.302 3.818L29.022 14h-1.894l-1.616-2.749L23.911 14h-1.909l2.327-3.818-2.267-3.818h1.909z" fill="#d92d20"/><path d="M34.461 14V6.364h1.133v1.193h.099a1.92 1.92 0 0 1 .771-.95c.355-.229.781-.343 1.278-.343.504 0 .923.114 1.258.343s.602.542.791.95h.08c.195-.394.489-.708.88-.94s.86-.353 1.407-.353c.683 0 1.241.214 1.675.641s.651 1.085.651 1.984V14H43.31V8.889c0-.563-.154-.966-.462-1.208a1.71 1.71 0 0 0-1.089-.363c-.537 0-.953.162-1.248.487s-.443.729-.443 1.223V14h-1.193V8.77c0-.434-.141-.784-.423-1.049s-.645-.403-1.089-.403a1.61 1.61 0 0 0-.855.244 1.84 1.84 0 0 0-.636.676c-.159.285-.239.615-.239.989V14h-1.173zm15.27.159c-.689 0-1.294-.164-1.815-.492s-.921-.787-1.213-1.377-.432-1.279-.432-2.068c0-.795.144-1.49.432-2.083s.696-1.054 1.213-1.382 1.125-.492 1.815-.492 1.293.164 1.81.492.925.789 1.213 1.382.438 1.288.438 2.083c0 .789-.146 1.478-.437 2.068s-.693 1.049-1.213 1.377-1.12.492-1.81.492zm0-1.054c.524 0 .955-.134 1.293-.403s.588-.621.751-1.059.244-.912.244-1.422-.081-.986-.244-1.427-.413-.797-.751-1.069-.769-.408-1.293-.408-.955.136-1.293.408-.588.628-.751 1.069-.244.916-.244 1.427.081.984.244 1.422.413.79.751 1.059.769.403 1.293.403zm5.251.895V6.364h1.133v1.153h.079c.139-.378.391-.684.756-.92s.776-.353 1.233-.353l.323.005.293.015v1.193c-.04-.01-.131-.025-.273-.045a2.69 2.69 0 0 0-.443-.035c-.371 0-.703.078-.994.234s-.517.365-.686.636-.248.575-.248.92V14h-1.173zm8.178.159c-.736 0-1.37-.162-1.904-.487a3.27 3.27 0 0 1-1.228-1.372c-.285-.59-.427-1.276-.427-2.058s.142-1.472.427-2.068.689-1.067 1.203-1.402 1.12-.507 1.81-.507a3.62 3.62 0 0 1 1.178.199c.388.133.741.348 1.059.646s.572.686.761 1.173.283 1.087.283 1.8v.497h-5.886V9.565h4.693c0-.431-.086-.815-.258-1.153a1.95 1.95 0 0 0-.726-.8c-.312-.196-.679-.293-1.104-.293-.467 0-.872.116-1.213.348a2.29 2.29 0 0 0-.78.895 2.63 2.63 0 0 0-.273 1.183v.676c0 .577.099 1.066.298 1.467a2.15 2.15 0 0 0 .84.91c.358.205.774.308 1.248.308a2.54 2.54 0 0 0 .835-.129c.252-.089.469-.222.651-.398s.323-.401.423-.666l1.133.318a2.51 2.51 0 0 1-.602 1.014c-.282.288-.63.514-1.044.676s-.88.239-1.397.239zm12.205-7.795v.994h-3.957v-.994h3.957zm-2.804-1.83h1.173v7.278c0 .331.048.58.144.746s.225.272.378.328a1.52 1.52 0 0 0 .492.079c.129 0 .235-.007.318-.02l.199-.04.239 1.054c-.08.03-.191.06-.333.089a2.45 2.45 0 0 1-.542.05 2.36 2.36 0 0 1-.974-.214c-.315-.143-.577-.36-.785-.651s-.308-.66-.308-1.104V4.534zm5.906 4.872V14h-1.173V3.818h1.173v3.739h.099a2.16 2.16 0 0 1 .805-.94c.361-.235.842-.353 1.442-.353.52 0 .976.104 1.367.313s.694.522.91.95.328.964.328 1.621V14h-1.173V9.227c0-.607-.157-1.076-.472-1.407s-.744-.502-1.298-.502c-.385 0-.729.081-1.034.244a1.78 1.78 0 0 0-.716.711c-.172.312-.258.689-.258 1.134zm9.345 4.773c-.484 0-.923-.091-1.317-.274a2.26 2.26 0 0 1-.94-.8c-.232-.351-.348-.776-.348-1.273 0-.437.086-.792.258-1.064s.403-.491.691-.646a3.63 3.63 0 0 1 .954-.348l1.059-.189 1.129-.134c.292-.033.504-.088.636-.164s.204-.209.204-.398v-.04c0-.491-.134-.872-.403-1.143s-.668-.408-1.208-.408c-.56 0-.999.123-1.317.368s-.542.507-.671.786l-1.114-.398c.199-.464.464-.825.796-1.084a2.98 2.98 0 0 1 1.094-.547 4.54 4.54 0 0 1 1.173-.159 4.65 4.65 0 0 1 .845.089c.322.056.631.174.93.353s.552.449.751.81.298.845.298 1.452V14H90.14v-1.034h-.06c-.08.166-.212.343-.398.532s-.433.35-.741.482-.684.199-1.129.199zm.179-1.054c.464 0 .855-.091 1.173-.273s.563-.418.726-.706a1.8 1.8 0 0 0 .249-.91v-1.074c-.05.06-.159.114-.328.164s-.358.088-.577.124l-.631.089-.492.06c-.305.04-.59.104-.855.194s-.474.217-.636.393-.239.408-.239.706c0 .408.151.716.452.925s.691.308 1.158.308zm6.636-3.719V14h-1.173V6.364h1.133v1.193h.1a2.18 2.18 0 0 1 .815-.935c.365-.239.835-.358 1.412-.358.517 0 .969.106 1.357.318s.689.527.905.955.323.961.323 1.611V14h-1.173V9.227c0-.6-.156-1.067-.467-1.402s-.739-.507-1.283-.507c-.374 0-.709.081-1.004.244s-.522.399-.691.711-.254.689-.254 1.134zm10.954 7.457v-10.5h1.133v1.213h.139l.358-.507c.156-.209.378-.394.667-.557s.686-.249 1.183-.249c.643 0 1.21.161 1.7.482s.873.777 1.149 1.367.412 1.286.412 2.088c0 .809-.137 1.51-.412 2.103s-.657 1.047-1.144 1.372-1.049.482-1.685.482c-.491 0-.884-.081-1.179-.244s-.522-.353-.681-.562l-.368-.527h-.099v4.037h-1.173zm1.153-6.682c0 .577.085 1.085.254 1.526s.416.781.74 1.029.723.368 1.194.368c.49 0 .899-.129 1.228-.388s.58-.613.745-1.054.254-.938.254-1.482c0-.537-.083-1.021-.249-1.452s-.409-.777-.74-1.029-.741-.383-1.238-.383c-.478 0-.879.121-1.204.363s-.57.573-.735 1.004-.249.926-.249 1.496zM114.113 14V6.364h1.133v1.153h.08a1.83 1.83 0 0 1 .756-.92 2.22 2.22 0 0 1 1.233-.353l.323.005.293.015v1.193a3.52 3.52 0 0 0-.273-.045c-.14-.023-.287-.035-.443-.035-.371 0-.702.078-.994.234s-.517.365-.686.636-.249.575-.249.92V14h-1.173zm8.079.159c-.69 0-1.295-.164-1.815-.492s-.921-.787-1.213-1.377-.432-1.279-.432-2.068c0-.795.144-1.49.432-2.083s.696-1.054 1.213-1.382 1.125-.492 1.815-.492 1.292.164 1.809.492.925.789 1.213 1.382.438 1.288.438 2.083c0 .789-.146 1.478-.438 2.068a3.29 3.29 0 0 1-1.213 1.377c-.517.328-1.12.492-1.809.492zm0-1.054c.523 0 .954-.134 1.292-.403s.589-.621.751-1.059.244-.912.244-1.422-.082-.986-.244-1.427-.413-.797-.751-1.069-.769-.408-1.292-.408-.955.136-1.293.408a2.41 2.41 0 0 0-.751 1.069c-.162.441-.243.916-.243 1.427s.081.984.243 1.422a2.38 2.38 0 0 0 .751 1.059c.338.268.769.403 1.293.403zm8.135 1.054c-.637 0-1.199-.161-1.686-.482s-.868-.782-1.143-1.372-.413-1.294-.413-2.103c0-.802.138-1.498.413-2.088s.658-1.046 1.148-1.367 1.057-.482 1.7-.482c.498 0 .89.083 1.179.249s.513.348.666.557l.363.507h.099V3.818h1.174V14h-1.134v-1.173h-.139a7.5 7.5 0 0 1-.368.527c-.159.209-.386.396-.681.562s-.688.244-1.178.244zm.159-1.054c.47 0 .868-.123 1.193-.368s.572-.592.741-1.029.253-.95.253-1.526c0-.57-.083-1.069-.248-1.496s-.411-.766-.736-1.004-.726-.363-1.203-.363c-.498 0-.912.128-1.243.383s-.575.595-.741 1.029a4.1 4.1 0 0 0-.244 1.452c0 .544.083 1.037.249 1.482s.418.792.746 1.054.742.388 1.233.388zm10.465-2.227V6.364h1.173V14h-1.173v-1.293h-.08c-.179.388-.457.718-.835.989s-.855.403-1.432.403c-.477 0-.901-.104-1.273-.313s-.662-.53-.875-.954-.318-.966-.318-1.616V6.364h1.174v4.773c0 .557.155 1.001.467 1.332s.716.497 1.203.497c.292 0 .588-.075.89-.224s.56-.378.766-.686.313-.701.313-1.178zm6.424 3.281c-.716 0-1.332-.169-1.849-.507s-.915-.804-1.193-1.397-.418-1.271-.418-2.033c0-.776.143-1.46.428-2.053s.689-1.062 1.203-1.397 1.12-.507 1.809-.507c.537 0 1.021.099 1.452.298s.784.477 1.059.835.446.776.512 1.253h-1.173c-.09-.348-.288-.656-.597-.925s-.716-.408-1.233-.408c-.457 0-.858.119-1.203.358s-.608.568-.8.999-.284.93-.284 1.506c0 .59.093 1.104.279 1.541s.454.777.795 1.019.749.363 1.213.363a2.1 2.1 0 0 0 .831-.159 1.71 1.71 0 0 0 .631-.457c.172-.199.295-.437.368-.716h1.173c-.066.451-.23.857-.492 1.218s-.602.643-1.029.855-.918.313-1.482.313zm8.039-7.795v.994h-3.957v-.994h3.957zm-2.804-1.83h1.174v7.278c0 .331.048.58.144.746s.225.272.378.328a1.52 1.52 0 0 0 .492.079c.129 0 .235-.007.318-.02l.199-.04.239 1.054a2.41 2.41 0 0 1-.333.089c-.143.033-.324.05-.542.05a2.36 2.36 0 0 1-.975-.214 1.93 1.93 0 0 1-.785-.651c-.206-.292-.309-.66-.309-1.104V4.534zm14.751 1.83L164.537 14h-1.193l-2.824-7.636h1.273l2.108 6.085h.079l2.108-6.085h1.273zm3.564 7.815c-.484 0-.924-.091-1.318-.274s-.708-.452-.94-.8-.348-.776-.348-1.273c0-.437.087-.792.259-1.064s.403-.491.691-.646a3.63 3.63 0 0 1 .955-.348l1.058-.189 1.129-.134c.292-.033.504-.088.636-.164s.204-.209.204-.398v-.04c0-.491-.134-.872-.402-1.143s-.668-.408-1.209-.408c-.56 0-.999.123-1.317.368s-.542.507-.671.786l-1.114-.398c.199-.464.464-.825.796-1.084s.699-.444 1.093-.547.789-.159 1.174-.159c.245 0 .527.03.845.089s.631.174.93.353.551.449.75.81.299.845.299 1.452V14h-1.174v-1.034h-.059c-.08.166-.213.343-.398.532s-.433.35-.741.482-.684.199-1.128.199zm.179-1.054c.464 0 .855-.091 1.173-.273a1.87 1.87 0 0 0 .726-.706c.165-.288.248-.592.248-.91v-1.074c-.049.06-.159.114-.328.164s-.358.088-.577.124l-.631.089-.492.06a4.48 4.48 0 0 0-.855.194c-.262.086-.474.217-.637.393s-.238.408-.238.706c0 .408.151.716.452.925s.691.308 1.159.308zm6.635-9.307V14h-1.173V3.818h1.173zm6.962 7.06V6.364h1.173V14h-1.173v-1.293h-.08c-.179.388-.457.718-.835.989s-.855.403-1.432.403c-.477 0-.901-.104-1.273-.313s-.662-.53-.875-.954-.318-.966-.318-1.616V6.364h1.174v4.773c0 .557.155 1.001.467 1.332s.716.497 1.203.497c.292 0 .588-.075.89-.224s.56-.378.766-.686.313-.701.313-1.178zm6.524 3.281c-.736 0-1.371-.162-1.904-.487s-.94-.786-1.228-1.372-.428-1.276-.428-2.058.143-1.472.428-2.068.689-1.067 1.203-1.402 1.12-.507 1.809-.507c.398 0 .791.066 1.179.199s.741.348 1.059.646.571.686.76 1.173.284 1.087.284 1.8v.497H188.5V9.565h4.694c0-.431-.087-.815-.259-1.153s-.411-.605-.726-.8-.679-.293-1.104-.293c-.467 0-.871.116-1.213.348s-.598.527-.78.895-.274.762-.274 1.183v.676c0 .577.1 1.066.299 1.467a2.15 2.15 0 0 0 .84.91c.358.205.774.308 1.248.308.308 0 .586-.043.835-.129s.469-.222.651-.398.323-.401.423-.666l1.133.318c-.119.384-.319.723-.601 1.014s-.63.514-1.044.676-.88.239-1.397.239z" class="C"/></g><path transform="translate(28)" d="M.705 5.875V4.364H9.71v1.511H6.08V16H4.33V5.875H.705zm13.27 10.301c-.818 0-1.532-.188-2.142-.563s-1.083-.9-1.421-1.574-.506-1.462-.506-2.364.169-1.697.506-2.375.811-1.205 1.421-1.58 1.324-.562 2.142-.562 1.532.188 2.142.563 1.083.902 1.42 1.58.506 1.47.506 2.375-.169 1.689-.506 2.364-.811 1.199-1.42 1.574-1.324.563-2.142.563zm.006-1.426c.53 0 .97-.14 1.318-.421s.606-.653.773-1.119a4.45 4.45 0 0 0 .256-1.54c0-.557-.085-1.068-.256-1.534s-.424-.847-.773-1.131-.788-.426-1.318-.426-.977.142-1.329.426-.608.661-.778 1.131-.25.977-.25 1.534.083 1.074.25 1.54.43.839.778 1.119.795.421 1.329.421zm10.033-7.477v1.364h-4.767V7.273h4.767zm-3.489-2.091h1.699v8.256c0 .329.049.578.148.744a.77.77 0 0 0 .381.335c.159.057.331.085.517.085a1.99 1.99 0 0 0 .358-.028l.239-.046.307 1.403c-.099.038-.239.076-.421.114s-.409.064-.682.068a2.99 2.99 0 0 1-1.25-.239c-.386-.167-.699-.424-.937-.773s-.358-.786-.358-1.312V5.182zm7.908 11.011c-.553 0-1.053-.102-1.5-.307s-.801-.51-1.062-.903-.386-.877-.386-1.449c0-.492.095-.898.284-1.216s.445-.57.767-.756.682-.326 1.08-.421a10.75 10.75 0 0 1 1.216-.216l1.273-.148c.326-.042.563-.108.71-.199s.222-.239.222-.443v-.04c0-.496-.14-.881-.42-1.153s-.689-.409-1.239-.409c-.572 0-1.023.127-1.352.381s-.551.528-.676.835l-1.597-.364c.189-.53.466-.958.829-1.284s.79-.568 1.267-.716.979-.227 1.506-.227a5.31 5.31 0 0 1 1.108.125c.394.08.761.227 1.102.443s.627.525.847.926.329.915.329 1.551V16H31.08v-1.193h-.068c-.11.22-.275.436-.494.648s-.502.388-.846.529-.758.21-1.239.21zm.369-1.364c.47 0 .871-.093 1.205-.278a1.95 1.95 0 0 0 .767-.727c.178-.303.267-.627.267-.972v-1.125c-.061.061-.178.117-.352.17a5.47 5.47 0 0 1-.585.131l-.642.097-.523.068c-.329.042-.631.112-.903.21a1.55 1.55 0 0 0-.648.426c-.159.182-.239.424-.239.727 0 .42.155.739.466.955s.706.318 1.188.318zM36.7 4.364V16h-1.699V4.364H36.7zm10.594 2.909v1.364h-4.767V7.273h4.767zm-3.489-2.091h1.699v8.256c0 .329.049.578.148.744a.77.77 0 0 0 .381.335c.159.057.331.085.517.085a1.99 1.99 0 0 0 .358-.028l.239-.046.307 1.403c-.099.038-.239.076-.42.114s-.409.064-.682.068a2.99 2.99 0 0 1-1.25-.239c-.386-.167-.699-.424-.937-.773s-.358-.786-.358-1.312V5.182zM49.173 16V7.273h1.642v1.386h.091a2.11 2.11 0 0 1 .841-1.108c.405-.273.864-.409 1.375-.409l.375.011.347.028v1.625c-.068-.019-.189-.04-.364-.062a3.47 3.47 0 0 0-.523-.04c-.401 0-.76.085-1.074.256a1.9 1.9 0 0 0-.739.699 1.89 1.89 0 0 0-.273 1.011V16h-1.699zm11.669-3.619V7.273h1.705V16h-1.671v-1.511h-.091c-.201.466-.523.854-.966 1.165s-.987.46-1.642.46c-.561 0-1.057-.123-1.489-.369s-.765-.619-1.011-1.108-.364-1.093-.364-1.812V7.273h1.699v5.347c0 .595.165 1.068.494 1.42s.758.528 1.284.528c.318 0 .634-.08.949-.239s.581-.4.79-.721.316-.731.313-1.227zm7.749 3.795c-.86 0-1.6-.184-2.222-.551s-1.095-.892-1.432-1.562-.5-1.464-.5-2.369c0-.894.167-1.682.5-2.364s.807-1.214 1.409-1.597 1.314-.574 2.125-.574c.492 0 .97.081 1.432.244s.877.419 1.244.767.657.801.869 1.358.318 1.225.318 2.017v.602h-6.937v-1.273h5.273c0-.447-.091-.843-.273-1.187a2.06 2.06 0 0 0-.767-.824c-.326-.201-.708-.301-1.148-.301-.477 0-.894.117-1.25.352s-.625.534-.818.909-.284.775-.284 1.21v.994c0 .583.102 1.08.307 1.489s.498.722.869.938.805.318 1.301.318c.322 0 .615-.045.881-.136a1.9 1.9 0 0 0 .688-.421c.193-.186.341-.415.443-.687l1.608.29a2.91 2.91 0 0 1-.693 1.244 3.36 3.36 0 0 1-1.244.824c-.496.193-1.062.29-1.699.29zm13.54 0c-.845 0-1.572-.191-2.182-.574a3.8 3.8 0 0 1-1.398-1.597c-.326-.678-.489-1.455-.489-2.33 0-.886.167-1.668.5-2.347s.803-1.214 1.409-1.597 1.32-.574 2.142-.574c.663 0 1.254.123 1.773.369s.938.583 1.256 1.023.513.953.574 1.54h-1.653a1.98 1.98 0 0 0-.625-1.057c-.322-.295-.754-.443-1.296-.443a2.11 2.11 0 0 0-1.244.375c-.352.246-.627.598-.824 1.057s-.295.992-.295 1.614c0 .636.097 1.186.29 1.648s.466.82.818 1.074.775.381 1.256.381c.322 0 .614-.059.875-.176s.487-.294.665-.517.309-.492.381-.807h1.653c-.061.564-.244 1.068-.551 1.511a3.17 3.17 0 0 1-1.233 1.046c-.511.254-1.112.381-1.801.381zm9.078 0c-.818 0-1.532-.188-2.142-.563s-1.083-.9-1.421-1.574-.506-1.462-.506-2.364.169-1.697.506-2.375.811-1.205 1.421-1.58 1.324-.562 2.142-.562 1.532.188 2.142.563 1.083.902 1.42 1.58.506 1.47.506 2.375-.169 1.689-.506 2.364-.811 1.199-1.42 1.574-1.324.563-2.142.563zm.006-1.426c.53 0 .97-.14 1.318-.421s.606-.653.773-1.119a4.45 4.45 0 0 0 .256-1.54c0-.557-.085-1.068-.256-1.534s-.424-.847-.773-1.131-.788-.426-1.318-.426-.977.142-1.33.426a2.54 2.54 0 0 0-.778 1.131c-.167.466-.25.977-.25 1.534s.083 1.074.25 1.54.43.839.778 1.119.796.421 1.33.421zm12.498-5.347l-1.54.273a1.8 1.8 0 0 0-.307-.562 1.51 1.51 0 0 0-.556-.437c-.235-.114-.529-.17-.881-.17-.481 0-.883.108-1.205.324s-.483.487-.483.824c0 .292.108.526.324.705s.564.324 1.046.438l1.386.318c.803.186 1.402.472 1.796.858s.591.888.591 1.506c0 .523-.152.989-.455 1.398s-.718.723-1.256.954-1.153.347-1.858.347c-.977 0-1.774-.208-2.392-.625s-.996-1.017-1.136-1.79l1.642-.25c.102.428.313.752.631.972s.733.324 1.244.324c.557 0 1.002-.116 1.335-.347s.5-.521.5-.858a.89.89 0 0 0-.307-.687c-.2-.186-.509-.326-.926-.42l-1.477-.324c-.814-.186-1.417-.481-1.807-.886s-.58-.919-.58-1.54c0-.515.144-.966.432-1.352s.686-.687 1.193-.903 1.089-.33 1.744-.33c.943 0 1.686.205 2.227.614a2.85 2.85 0 0 1 1.074 1.631zm6.112-2.131v1.364h-4.767V7.273h4.767zm-3.488-2.091h1.699v8.256c0 .329.049.578.147.744s.226.275.381.335.331.085.517.085a1.99 1.99 0 0 0 .358-.028l.239-.046.306 1.403c-.098.038-.238.076-.42.114s-.409.064-.682.068a2.99 2.99 0 0 1-1.25-.239 2.14 2.14 0 0 1-.937-.773c-.239-.348-.358-.786-.358-1.312V5.182z" class="C"/><g transform="matrix(-1 0 0 -1 20 20)"><g clip-path="url(#Q)"><rect width="20" height="20" rx="100" fill="#fee4e2"/><g transform="translate(5 5)"><path transform="translate(.917 .396)" d="M3.875 0a.75.75 0 0 1 .75.75v5.689L6.47 4.595A.75.75 0 0 1 7.53 5.655L4.405 8.78a.75.75 0 0 1-1.061 0L.22 5.655a.75.75 0 0 1 0-1.061.75.75 0 0 1 1.061 0l1.845 1.845V.75a.75.75 0 0 1 .75-.75z" fill="#d92d20"/></g></g></g></g></g><rect x=".5" y=".5" width="232" height="64" rx="7.5" stroke="#d92d20"/></g></g><defs><clipPath id="G"><rect width="692" height="256" rx="12" class="B"/></clipPath><clipPath id="H"><rect width="158" height="40" rx="8" class="B"/></clipPath><clipPath id="I"><path d="M0 0h20v20H0z" class="B"/></clipPath><clipPath id="J"><rect width="133" height="40" rx="8" class="B"/></clipPath><clipPath id="K"><path d="M0 0h20v20H0z" class="B"/></clipPath><clipPath id="L"><rect width="140" height="40" rx="8" class="B"/></clipPath><clipPath id="M"><path d="M0 0h20v20H0z" class="B"/></clipPath><clipPath id="N"><rect width="205" height="40" rx="8" class="B"/></clipPath><clipPath id="O"><path d="M0 0h20v20H0z" class="B"/></clipPath><clipPath id="P"><rect width="233" height="65" rx="8" class="B"/></clipPath><clipPath id="Q"><rect width="20" height="20" rx="100" class="B"/></clipPath></defs></svg>