<svg xmlns="http://www.w3.org/2000/svg" width="100%" height="100%" viewBox="0 0 336 256" preserveAspectRatio="xMidYMid meet" fill="none" xmlns:v="https://vecta.io/nano"><style><![CDATA[#A{animation:kf_table_error-summary_opacity_0 2.8s linear 1 forwards}#B{transform-origin:0 0;animation:kf_Frame_7426_transform_0 2.8s linear 1 forwards, kf_Frame_7426_opacity_0 2.8s linear 1 forwards}#C{transform-origin:0 0;animation:kf_Frame_7361_transform_0 2.8s linear 1 forwards, kf_Frame_7361_opacity_0 2.8s linear 1 forwards}#D{transform-origin:0 0;animation:kf_Rectangle_1686_transform_0 2.8s linear 1 forwards, kf_Rectangle_1686_opacity_0 2.8s linear 1 forwards}#E{transform-origin:0 0;animation:kf_Rectangle_1688_transform_0 2.8s linear 1 forwards, kf_Rectangle_1688_opacity_0 2.8s linear 1 forwards}#F{transform-origin:0 0;animation:kf_Frame_7354_transform_0 2.8s linear 1 forwards, kf_Frame_7354_opacity_0 2.8s linear 1 forwards}#G{transform-origin:0 0;animation:kf_Frame_7357_2_transform_0 2.8s linear 1 forwards, kf_Frame_7357_2_opacity_0 2.8s linear 1 forwards}#H{animation:kf_Frame_7363_opacity_0 2.8s linear 1 forwards}#I{transform-origin:0 0;animation:kf_label-group_transform_0 2.8s linear 1 forwards, kf_label-group_opacity_0 2.8s linear 1 forwards}#J{transform-origin:0 0;animation:kf_table-row_error-summary_transform_0 2.8s linear 1 forwards, kf_table-row_error-summary_opacity_0 2.8s linear 1 forwards}#L{transform-origin:0 0;animation:kf_col_4_transform_0 2.8s linear 1 forwards, kf_col_4_opacity_0 2.8s linear 1 forwards}#M{transform-origin:0 0;animation:kf_table-row_error-summary_2_transform_0 2.8s linear 1 forwards, kf_table-row_error-summary_2_opacity_0 2.8s linear 1 forwards}#O{transform-origin:0 0;animation:kf_col_8_transform_0 2.8s linear 1 forwards, kf_col_8_opacity_0 2.8s linear 1 forwards}#P{transform-origin:0 0;animation:kf_table-row_error-summary_3_transform_0 2.8s linear 1 forwards, kf_table-row_error-summary_3_opacity_0 2.8s linear 1 forwards}@keyframes kf_table_error-summary_opacity_0{0%{animation-timing-function:cubic-bezier(0.4, 0, 0.2, 1);opacity:0}14.29%{animation-timing-function:linear;opacity:1}100%{opacity:1}} @keyframes kf_Frame_7426_transform_0{0%{transform:translateX(12.664px) translateY(12.664px) translateY(6px)}5.36%{animation-timing-function:cubic-bezier(0.16, 1, 0.3, 1);transform:translateX(12.664px) translateY(12.664px) translateY(6px)}17.86%{transform:translateX(12.664px) translateY(12.664px) translateY(0px)}100%{transform:translateX(12.664px) translateY(12.664px) translateY(0px)}} @keyframes kf_Frame_7426_opacity_0{0%{animation-timing-function:linear;opacity:0}5.36%{animation-timing-function:cubic-bezier(0.16, 1, 0.3, 1);opacity:0}17.86%{animation-timing-function:linear;opacity:1}100%{opacity:1}} @keyframes kf_Frame_7361_transform_0{0%{transform:translateY(4px)}12.5%{animation-timing-function:cubic-bezier(0.16, 1, 0.3, 1);transform:translateY(4px)}23.21%{transform:translateY(0px)}100%{transform:translateY(0px)}} @keyframes kf_Frame_7361_opacity_0{0%{animation-timing-function:linear;opacity:0}12.5%{animation-timing-function:cubic-bezier(0.16, 1, 0.3, 1);opacity:0}23.21%{animation-timing-function:linear;opacity:1}100%{opacity:1}} @keyframes kf_Rectangle_1686_transform_0{0%{transform:translateX(0px) translateX(-61.821px) translate(61.821px, 6.656px) scaleX(0) translate(-61.821px, -6.656px)}17.86%{animation-timing-function:cubic-bezier(0.16, 1, 0.3, 1);transform:translateX(0px) translateX(-61.821px) translate(61.821px, 6.656px) scaleX(0) translate(-61.821px, -6.656px)}35.71%{transform:translateX(0px) translateX(0px) translate(61.821px, 6.656px) scaleX(1) translate(-61.821px, -6.656px)}100%{transform:translateX(0px) translateX(0px) translate(61.821px, 6.656px) scaleX(1) translate(-61.821px, -6.656px)}} @keyframes kf_Rectangle_1686_opacity_0{0%{animation-timing-function:linear;opacity:0}17.14%{animation-timing-function:cubic-bezier(0.16, 1, 0.3, 1);opacity:0}18.57%{animation-timing-function:linear;opacity:1}100%{opacity:1}} @keyframes kf_Rectangle_1688_transform_0{0%{transform:translateX(124.751px) translateX(-67.119px) translate(67.119px, 6.656px) scaleX(0) translate(-67.119px, -6.656px)}35.71%{animation-timing-function:cubic-bezier(0.16, 1, 0.3, 1);transform:translateX(124.751px) translateX(-67.119px) translate(67.119px, 6.656px) scaleX(0) translate(-67.119px, -6.656px)}53.57%{transform:translateX(124.751px) translateX(0px) translate(67.119px, 6.656px) scaleX(1) translate(-67.119px, -6.656px)}100%{transform:translateX(124.751px) translateX(0px) translate(67.119px, 6.656px) scaleX(1) translate(-67.119px, -6.656px)}} @keyframes kf_Rectangle_1688_opacity_0{0%{animation-timing-function:linear;opacity:0}35%{animation-timing-function:cubic-bezier(0.16, 1, 0.3, 1);opacity:0}36.43%{animation-timing-function:linear;opacity:1}100%{opacity:1}} @keyframes kf_Frame_7354_transform_0{0%{transform:translateY(1.109px) translateY(4px)}25%{animation-timing-function:cubic-bezier(0.16, 1, 0.3, 1);transform:translateY(1.109px) translateY(4px)}35.71%{transform:translateY(1.109px) translateY(0px)}100%{transform:translateY(1.109px) translateY(0px)}} @keyframes kf_Frame_7354_opacity_0{0%{animation-timing-function:linear;opacity:0}25%{animation-timing-function:cubic-bezier(0.16, 1, 0.3, 1);opacity:0}35.71%{animation-timing-function:linear;opacity:1}100%{opacity:1}} @keyframes kf_Frame_7357_2_transform_0{0%{transform:translateX(139.188px) translateY(1.109px) translateY(4px)}42.93%{animation-timing-function:cubic-bezier(0.16, 1, 0.3, 1);transform:translateX(139.188px) translateY(1.109px) translateY(4px)}53.64%{transform:translateX(139.188px) translateY(1.109px) translateY(0px)}100%{transform:translateX(139.188px) translateY(1.109px) translateY(0px)}} @keyframes kf_Frame_7357_2_opacity_0{0%{animation-timing-function:linear;opacity:0}42.93%{animation-timing-function:cubic-bezier(0.16, 1, 0.3, 1);opacity:0}53.64%{animation-timing-function:linear;opacity:1}100%{opacity:1}} @keyframes kf_Frame_7363_opacity_0{0%{animation-timing-function:linear;opacity:0}58.93%{animation-timing-function:cubic-bezier(0.16, 1, 0.3, 1);opacity:0}60.71%{animation-timing-function:linear;opacity:1}100%{opacity:1}} @keyframes kf_label-group_transform_0{0%{transform:translateY(3px)}60.71%{animation-timing-function:cubic-bezier(0.16, 1, 0.3, 1);transform:translateY(3px)}69.64%{transform:translateY(0px)}100%{transform:translateY(0px)}} @keyframes kf_label-group_opacity_0{0%{animation-timing-function:linear;opacity:0}60.71%{animation-timing-function:cubic-bezier(0.16, 1, 0.3, 1);opacity:0}69.64%{animation-timing-function:linear;opacity:1}100%{opacity:1}} @keyframes kf_table-row_error-summary_transform_0{0%{transform:translateY(23.217px) translateY(6px)}69.64%{animation-timing-function:cubic-bezier(0.16, 1, 0.3, 1);transform:translateY(23.217px) translateY(6px)}78.57%{transform:translateY(23.217px) translateY(0px)}100%{transform:translateY(23.217px) translateY(0px)}} @keyframes kf_table-row_error-summary_opacity_0{0%{animation-timing-function:linear;opacity:0}69.64%{animation-timing-function:cubic-bezier(0.16, 1, 0.3, 1);opacity:0}78.57%{animation-timing-function:linear;opacity:1}100%{opacity:1}} @keyframes kf_col_4_transform_0{0%{transform:translateX(196px) translateY(9.59px) translateY(4px)}78.57%{animation-timing-function:cubic-bezier(0.16, 1, 0.3, 1);transform:translateX(196px) translateY(9.59px) translateY(4px)}87.5%{transform:translateX(196px) translateY(9.59px) translateY(0px)}100%{transform:translateX(196px) translateY(9.59px) translateY(0px)}} @keyframes kf_col_4_opacity_0{0%{animation-timing-function:linear;opacity:0}78.57%{animation-timing-function:cubic-bezier(0.16, 1, 0.3, 1);opacity:0}87.5%{animation-timing-function:linear;opacity:1}100%{opacity:1}} @keyframes kf_table-row_error-summary_2_transform_0{0%{transform:translateY(52.766px) translateY(6px)}75%{animation-timing-function:cubic-bezier(0.16, 1, 0.3, 1);transform:translateY(52.766px) translateY(6px)}83.93%{transform:translateY(52.766px) translateY(0px)}100%{transform:translateY(52.766px) translateY(0px)}} @keyframes kf_table-row_error-summary_2_opacity_0{0%{animation-timing-function:linear;opacity:0}75%{animation-timing-function:cubic-bezier(0.16, 1, 0.3, 1);opacity:0}83.93%{animation-timing-function:linear;opacity:1}100%{opacity:1}} @keyframes kf_col_8_transform_0{0%{transform:translateX(196px) translateY(9.59px) translateY(4px)}83.93%{animation-timing-function:cubic-bezier(0.16, 1, 0.3, 1);transform:translateX(196px) translateY(9.59px) translateY(4px)}92.86%{transform:translateX(196px) translateY(9.59px) translateY(0px)}100%{transform:translateX(196px) translateY(9.59px) translateY(0px)}} @keyframes kf_col_8_opacity_0{0%{animation-timing-function:linear;opacity:0}83.93%{animation-timing-function:cubic-bezier(0.16, 1, 0.3, 1);opacity:0}92.86%{animation-timing-function:linear;opacity:1}100%{opacity:1}} @keyframes kf_table-row_error-summary_3_transform_0{0%{transform:translateY(82.315px) translateY(6px)}80.36%{animation-timing-function:cubic-bezier(0.16, 1, 0.3, 1);transform:translateY(82.315px) translateY(6px)}89.29%{transform:translateY(82.315px) translateY(0px)}100%{transform:translateY(82.315px) translateY(0px)}} @keyframes kf_table-row_error-summary_3_opacity_0{0%{animation-timing-function:linear;opacity:0}80.36%{animation-timing-function:cubic-bezier(0.16, 1, 0.3, 1);opacity:0}89.29%{animation-timing-function:linear;opacity:1}100%{opacity:1}}.B{fill:#fff}.C{fill:#10103e}.D{opacity:0}.E{fill:#61608b}.F{fill:#aa261b}.G{fill-rule:evenodd}.H{fill-opacity:.1}.I{stroke-width:.896}]]></style><g clip-path="url(#S)"><rect width="336" height="256" rx="12" fill="#f7f7f7"/><g id="A" transform="translate(26 31)" class="D"><g clip-path="url(#T)"><rect width="284.405" height="193.597" rx="7.166" class="B"/><g id="B" transform="translate(12.664 12.664)" class="D C"><path d="M.861 12V3.273h5.676v1.325H2.442v2.369h3.801v1.325H2.442v2.382h4.129V12H.861zm6.861 0V5.455h1.496v1.091h.068c.119-.378.324-.669.614-.874a1.69 1.69 0 0 1 1.001-.311l.285.013a1.92 1.92 0 0 1 .268.03v1.419c-.065-.023-.169-.043-.311-.06s-.274-.03-.405-.03a1.56 1.56 0 0 0-.758.183 1.34 1.34 0 0 0-.524.499c-.128.213-.192.459-.192.737V12H7.722zm4.398 0V5.455h1.496v1.091h.068c.119-.378.324-.669.614-.874a1.69 1.69 0 0 1 1.002-.311l.285.013a1.92 1.92 0 0 1 .268.03v1.419c-.065-.023-.169-.043-.311-.06s-.274-.03-.405-.03a1.56 1.56 0 0 0-.758.183 1.34 1.34 0 0 0-.524.499c-.128.213-.192.459-.192.737V12H12.12zm6.983.128c-.639 0-1.193-.141-1.662-.422s-.832-.675-1.091-1.18-.384-1.097-.384-1.773.128-1.268.384-1.777a2.86 2.86 0 0 1 1.091-1.185c.469-.281 1.023-.422 1.662-.422s1.193.141 1.662.422a2.83 2.83 0 0 1 1.087 1.185c.258.509.388 1.101.388 1.777s-.129 1.267-.388 1.773-.618.899-1.087 1.18-1.023.422-1.662.422zm.008-1.236c.347 0 .636-.095.869-.285a1.72 1.72 0 0 0 .52-.776 3.18 3.18 0 0 0 .175-1.082c0-.401-.058-.763-.175-1.087s-.287-.587-.52-.78-.523-.29-.869-.29c-.355 0-.651.097-.886.29a1.75 1.75 0 0 0-.524.78c-.114.324-.171.686-.171 1.087s.057.759.171 1.082.291.582.524.776.531.285.886.285zM23.189 12V5.455h1.496v1.091h.068c.119-.378.324-.669.614-.874a1.69 1.69 0 0 1 1.001-.311l.285.013a1.92 1.92 0 0 1 .269.03v1.419c-.065-.023-.169-.043-.311-.06s-.274-.03-.405-.03a1.56 1.56 0 0 0-.759.183 1.34 1.34 0 0 0-.524.499c-.128.213-.192.459-.192.737V12h-1.543zm11.825-6.328c-.04-.372-.207-.662-.503-.869s-.673-.311-1.142-.311c-.33 0-.612.05-.848.149s-.416.234-.541.405-.189.365-.192.584c0 .182.041.339.123.473a1.13 1.13 0 0 0 .345.341c.145.091.305.168.481.23s.354.115.533.158l.818.205a5.64 5.64 0 0 1 .95.311 3.35 3.35 0 0 1 .822.494c.244.199.438.439.58.72s.213.611.213.989c0 .511-.131.962-.392 1.351s-.639.689-1.133.908-1.087.324-1.785.324c-.679 0-1.269-.105-1.769-.315s-.886-.517-1.168-.921-.429-.895-.452-1.474h1.555c.023.304.116.557.281.759a1.49 1.49 0 0 0 .643.452 2.55 2.55 0 0 0 .895.149c.344 0 .645-.051.903-.153s.466-.25.614-.435a1.05 1.05 0 0 0 .226-.656c-.003-.227-.07-.415-.2-.562s-.314-.276-.55-.375a5.3 5.3 0 0 0-.818-.273l-.993-.256c-.719-.185-1.287-.464-1.705-.839s-.622-.879-.622-1.504a2.25 2.25 0 0 1 .418-1.351c.281-.386.663-.686 1.146-.899s1.03-.324 1.641-.324c.619 0 1.162.108 1.628.324s.837.51 1.104.891.405.813.413 1.304h-1.521zm6.794 3.575V5.455h1.543V12h-1.496v-1.163h-.068a1.97 1.97 0 0 1-.729.899c-.335.233-.749.349-1.24.349-.429 0-.808-.095-1.138-.286s-.582-.473-.767-.839-.277-.815-.277-1.338V5.455h1.543v3.929c0 .415.114.744.341.989s.526.366.895.366c.227 0 .447-.055.661-.166s.388-.275.524-.494.209-.499.209-.831zM44.577 12V5.455h1.474v1.112h.077c.136-.375.362-.668.678-.878s.692-.32 1.129-.32c.443 0 .817.108 1.121.324s.523.504.648.874h.068a1.79 1.79 0 0 1 .733-.869c.347-.219.757-.328 1.232-.328.602 0 1.094.19 1.474.571s.571.936.571 1.666V12h-1.547V7.845c0-.406-.108-.703-.324-.891s-.48-.286-.793-.286c-.372 0-.663.116-.874.349s-.311.53-.311.899V12H48.42V7.781c0-.338-.102-.608-.307-.81s-.466-.303-.793-.303a1.12 1.12 0 0 0-.605.17 1.19 1.19 0 0 0-.435.473c-.108.202-.162.438-.162.707V12h-1.543zm10.409 0V5.455h1.474v1.112h.077c.136-.375.362-.668.678-.878s.692-.32 1.129-.32c.443 0 .817.108 1.121.324s.523.504.648.874h.068a1.79 1.79 0 0 1 .733-.869c.347-.219.757-.328 1.231-.328.602 0 1.094.19 1.474.571s.571.936.571 1.666V12h-1.547V7.845c0-.406-.108-.703-.324-.891s-.48-.286-.793-.286c-.372 0-.663.116-.874.349s-.311.53-.311.899V12H58.83V7.781c0-.338-.102-.608-.307-.81s-.466-.303-.793-.303a1.12 1.12 0 0 0-.605.17 1.19 1.19 0 0 0-.435.473c-.108.202-.162.438-.162.707V12h-1.543zm12.293.132c-.415 0-.788-.074-1.121-.222a1.83 1.83 0 0 1-.784-.665c-.19-.293-.285-.653-.285-1.082 0-.369.068-.675.205-.916a1.58 1.58 0 0 1 .558-.58c.236-.145.501-.254.797-.328a6.48 6.48 0 0 1 .925-.166l.933-.107c.239-.034.412-.085.52-.153s.166-.18.166-.328V7.56c0-.321-.095-.57-.285-.746s-.465-.264-.822-.264c-.378 0-.678.082-.899.247s-.367.359-.443.584l-1.44-.205c.114-.398.301-.73.563-.997s.581-.472.959-.605.795-.205 1.253-.205a4.08 4.08 0 0 1 .942.111 2.65 2.65 0 0 1 .856.366 1.84 1.84 0 0 1 .622.686c.159.29.239.652.239 1.087V12h-1.483v-.899h-.051a1.88 1.88 0 0 1-.396.511c-.168.156-.379.283-.635.379a2.56 2.56 0 0 1-.891.141zm.4-1.133c.31 0 .578-.061.805-.183s.402-.29.524-.494a1.26 1.26 0 0 0 .188-.669v-.771c-.048.04-.131.077-.247.111a3.5 3.5 0 0 1-.384.089l-.422.068-.362.051c-.23.031-.436.082-.618.153s-.325.17-.43.298-.158.287-.158.486c0 .284.104.499.311.643s.472.217.793.217zM71.926 12V5.455h1.496v1.091h.068c.119-.378.324-.669.614-.874a1.69 1.69 0 0 1 1.001-.311l.286.013a1.92 1.92 0 0 1 .268.03v1.419c-.065-.023-.169-.043-.311-.06s-.274-.03-.405-.03a1.56 1.56 0 0 0-.758.183 1.34 1.34 0 0 0-.524.499c-.128.213-.192.459-.192.737V12h-1.543zm5.556 2.454c-.21 0-.405-.017-.584-.051a2.16 2.16 0 0 1-.422-.111l.358-1.202c.224.065.425.097.601.094s.331-.058.465-.166.251-.281.345-.528l.132-.354-2.374-6.682h1.636l1.508 4.943h.068l1.513-4.943h1.641l-2.621 7.338c-.122.347-.284.643-.486.891s-.449.44-.741.571-.636.2-1.04.2z"/></g><g transform="translate(12.664 34.328)"><g id="C" class="D C"><path d="M.7 11v-.796l2.461-2.55.65-.728c.173-.211.302-.411.387-.6s.128-.391.128-.604c0-.241-.057-.45-.17-.625s-.269-.314-.465-.408a1.48 1.48 0 0 0-.664-.146c-.26 0-.488.053-.682.16s-.343.257-.447.451a1.42 1.42 0 0 0-.156.682H.692c0-.443.102-.83.305-1.161s.483-.588.838-.771.759-.277 1.211-.277.859.091 1.207.273.624.426.82.739.295.661.295 1.051a2.14 2.14 0 0 1-.153.792c-.099.258-.273.546-.522.863s-.594.697-1.037 1.147l-1.445 1.513v.053h3.274V11H.7zm5.724-1.42v-.888l3.143-4.964h.7v1.307h-.444L7.574 8.592v.057h4.307v.93H6.423zM9.872 11V9.31l.007-.405V3.727h1.041V11H9.872zm8.059.11c-.537 0-1-.115-1.388-.344s-.684-.557-.895-.977-.312-.915-.312-1.481c0-.559.104-1.051.313-1.477s.504-.759.881-.998.822-.359 1.328-.359c.308 0 .606.051.895.153a2.17 2.17 0 0 1 .778.479c.23.218.411.501.543.849s.199.766.199 1.261v.376h-4.336v-.795h3.295c0-.279-.057-.527-.171-.742a1.29 1.29 0 0 0-.479-.515 1.34 1.34 0 0 0-.717-.188c-.298 0-.559.073-.781.22a1.48 1.48 0 0 0-.511.568 1.64 1.64 0 0 0-.178.756v.621c0 .365.064.675.192.93s.311.451.543.586a1.61 1.61 0 0 0 .813.199 1.69 1.69 0 0 0 .55-.085 1.19 1.19 0 0 0 .43-.263 1.14 1.14 0 0 0 .277-.43l1.005.181a1.82 1.82 0 0 1-.433.778 2.1 2.1 0 0 1-.778.515c-.31.121-.664.181-1.062.181zm3.418-.11V5.545h1.026v.866h.057a1.32 1.32 0 0 1 .526-.692c.253-.17.54-.256.859-.256l.234.007.217.018v1.016c-.043-.012-.118-.025-.227-.039a2.17 2.17 0 0 0-.327-.025c-.251 0-.475.053-.671.16s-.348.25-.462.437a1.18 1.18 0 0 0-.171.632V11h-1.062zm3.738 0V5.545h1.026v.866h.057a1.32 1.32 0 0 1 .526-.692c.253-.17.54-.256.859-.256l.234.007.217.018v1.016c-.043-.012-.118-.025-.227-.039a2.17 2.17 0 0 0-.327-.025c-.251 0-.475.053-.671.16s-.348.25-.462.437a1.18 1.18 0 0 0-.171.632V11h-1.062zm5.84.11c-.511 0-.958-.117-1.339-.352a2.37 2.37 0 0 1-.888-.984c-.211-.421-.316-.914-.316-1.477s.105-1.061.316-1.484.507-.753.888-.987.827-.352 1.339-.352.958.117 1.339.352.677.563.888.987.316.919.316 1.484-.105 1.056-.316 1.477a2.37 2.37 0 0 1-.888.984c-.381.234-.827.352-1.339.352zm.003-.891c.332 0 .606-.088.824-.263a1.54 1.54 0 0 0 .483-.7c.106-.291.16-.612.16-.962s-.053-.668-.16-.959-.265-.529-.483-.707-.492-.266-.824-.266-.611.089-.831.266-.38.413-.486.707-.156.611-.156.959a2.84 2.84 0 0 0 .156.962c.107.291.269.524.486.7s.497.263.831.263zm3.624.781V5.545h1.026v.866h.057c.099-.294.275-.524.526-.692s.54-.256.859-.256l.234.007.217.018v1.016a1.9 1.9 0 0 0-.227-.039 2.17 2.17 0 0 0-.327-.025c-.251 0-.475.053-.671.16a1.19 1.19 0 0 0-.462.437 1.18 1.18 0 0 0-.17.632V11h-1.062zm7.825-4.123l-.962.17a1.14 1.14 0 0 0-.192-.352c-.085-.111-.201-.202-.348-.273a1.26 1.26 0 0 0-.55-.107c-.301 0-.552.067-.753.202s-.302.304-.302.515c0 .182.068.329.202.44s.353.202.653.273l.867.199c.502.116.876.295 1.122.536s.369.555.369.941a1.43 1.43 0 0 1-.284.874 1.86 1.86 0 0 1-.785.597c-.334.144-.721.217-1.161.217-.611 0-1.109-.13-1.495-.391a1.65 1.65 0 0 1-.71-1.119l1.026-.156c.064.268.195.47.394.607s.458.203.778.203c.348 0 .626-.072.834-.217s.313-.325.313-.536c0-.17-.064-.314-.192-.43s-.318-.204-.579-.263l-.923-.202c-.509-.116-.885-.301-1.129-.554s-.362-.574-.362-.962c0-.322.09-.604.27-.845s.428-.43.746-.565.681-.206 1.09-.206c.59 0 1.053.128 1.392.384s.562.593.671 1.019zm6.316-1.332v.852h-3.082v-.852h3.082zM46.459 11V4.913c0-.341.075-.624.224-.849a1.37 1.37 0 0 1 .593-.508 1.89 1.89 0 0 1 .803-.17 2.43 2.43 0 0 1 .547.053c.151.033.264.064.337.092l-.249.859-.192-.05c-.078-.021-.173-.032-.284-.032-.258 0-.443.064-.554.192s-.163.313-.163.554V11h-1.062zm5.315.11c-.511 0-.958-.117-1.339-.352a2.37 2.37 0 0 1-.888-.984c-.211-.421-.316-.914-.316-1.477s.105-1.061.316-1.484.507-.753.888-.987.827-.352 1.339-.352.958.117 1.339.352.677.563.888.987.316.919.316 1.484-.105 1.056-.316 1.477a2.37 2.37 0 0 1-.888.984c-.381.234-.827.352-1.339.352zm.004-.891c.331 0 .606-.088.824-.263a1.54 1.54 0 0 0 .483-.7 2.78 2.78 0 0 0 .16-.962 2.77 2.77 0 0 0-.16-.959c-.104-.294-.265-.529-.483-.707s-.492-.266-.824-.266-.611.089-.831.266-.38.413-.486.707a2.83 2.83 0 0 0-.156.959 2.84 2.84 0 0 0 .156.962c.107.291.269.524.486.7s.497.263.831.263zm7.08-1.481V5.545h1.065V11h-1.044v-.945h-.057c-.126.291-.327.534-.604.728s-.617.288-1.026.288c-.35 0-.66-.077-.93-.231s-.478-.387-.632-.692-.227-.683-.227-1.133V5.545h1.062v3.342c0 .372.103.668.309.888s.473.33.802.33c.199 0 .397-.05.593-.149a1.25 1.25 0 0 0 .494-.451c.133-.201.198-.457.195-.767zm3.454-.977V11H61.25V5.545h1.019v.888h.067a1.56 1.56 0 0 1 .59-.696c.27-.175.61-.263 1.019-.263.372 0 .697.078.977.234s.496.384.65.689.231.683.231 1.133V11h-1.062V7.658c0-.395-.103-.704-.309-.927s-.489-.337-.849-.337a1.33 1.33 0 0 0-.657.16 1.15 1.15 0 0 0-.451.469c-.109.204-.163.45-.163.739zm6.857 3.345c-.44 0-.833-.112-1.179-.337a2.3 2.3 0 0 1-.81-.969c-.194-.421-.291-.927-.291-1.516s.098-1.094.295-1.513.471-.74.817-.962.737-.334 1.175-.334c.339 0 .611.057.817.17s.369.241.483.391.206.281.27.394h.064V3.727h1.062V11h-1.037v-.849h-.089a2.81 2.81 0 0 1-.277.398c-.118.149-.282.279-.49.391s-.478.167-.81.167zm.234-.905c.305 0 .563-.081.774-.241s.374-.389.483-.678.167-.625.167-1.009a2.77 2.77 0 0 0-.163-.994 1.46 1.46 0 0 0-.479-.664c-.211-.159-.471-.238-.781-.238-.32 0-.586.083-.799.249a1.52 1.52 0 0 0-.483.678c-.106.286-.16.61-.16.969s.054.692.163.984.27.522.483.692.481.252.796.252z"/></g><g transform="translate(0 21.657)"><g><path id="D" d="M0 2.219A2.22 2.22 0 0 1 2.219 0h119.204a2.22 2.22 0 0 1 2.218 2.219v8.875a2.22 2.22 0 0 1-2.218 2.219H2.219A2.22 2.22 0 0 1 0 11.094V2.219z" fill="#83bcc9" class="D"/><path id="E" transform="translate(124.751)" d="M0 2.219A2.22 2.22 0 0 1 2.219 0H132.02a2.22 2.22 0 0 1 2.219 2.219v8.875a2.22 2.22 0 0 1-2.219 2.219H2.219A2.22 2.22 0 0 1 0 11.094V2.219z" fill="#dbaf7b" class="D"/></g><g transform="translate(0 17.751)"><g id="F" transform="translate(0 1.109)" class="D"><g><g transform="translate(0 4.672)"><path d="M0 2.219A2.22 2.22 0 0 1 2.219 0h2.219a2.22 2.22 0 0 1 2.219 2.219v2.219a2.22 2.22 0 0 1-2.219 2.219H2.219A2.22 2.22 0 0 1 0 4.438V2.219z" fill="#83bcc9"/></g><path transform="translate(9.985 1.5)" d="M.532 8.651V7.603l3.086-4.876h.874v1.491h-.533L1.881 7.511v.057h4.308v1.083H.532zM4.001 10V8.331l.014-.469V2.727h1.243V10H4.001zm4.088 0l3.093-6.122v-.05h-3.59V2.727h4.954v1.126L9.457 10H8.089zm9.991-1.364v-.384c0-.282.059-.541.178-.778s.296-.427.526-.572.508-.217.835-.217c.336 0 .618.072.845.217a1.37 1.37 0 0 1 .515.568 1.72 1.72 0 0 1 .178.781v.384c0 .282-.059.541-.178.778a1.41 1.41 0 0 1-.522.572c-.227.144-.507.217-.838.217s-.612-.072-.842-.217a1.41 1.41 0 0 1-.522-.572c-.116-.237-.174-.496-.174-.778zm.927-.384v.384c0 .187.045.359.135.515s.249.234.476.234.387-.077.472-.231a1.04 1.04 0 0 0 .131-.518v-.384a1.09 1.09 0 0 0-.124-.518c-.083-.159-.243-.238-.479-.238-.223 0-.38.079-.472.238a1 1 0 0 0-.139.518zm-4.623-3.778v-.384c0-.284.06-.545.181-.781a1.41 1.41 0 0 1 .526-.568c.23-.144.508-.217.835-.217.334 0 .614.072.842.217a1.36 1.36 0 0 1 .518.568 1.75 1.75 0 0 1 .174.781v.384a1.72 1.72 0 0 1-.178.781c-.116.234-.289.423-.518.565s-.509.213-.838.213-.616-.071-.845-.213-.4-.331-.518-.568-.178-.496-.178-.778zm.934-.384v.384a1.04 1.04 0 0 0 .131.518c.09.154.249.231.476.231s.384-.077.469-.231a1.04 1.04 0 0 0 .131-.518v-.384a1.09 1.09 0 0 0-.124-.518c-.083-.159-.241-.238-.476-.238-.225 0-.382.079-.472.238s-.135.331-.135.518zM14.789 10l5-7.273h.888l-5 7.273h-.888z" class="C"/><g transform="translate(35.313)" class="E"><path d="M.799 12V4.727h4.56v.945H1.896v2.216h3.224v.941H1.896v2.227h3.505V12H.799zm6.678-5.455l1.204 2.124 1.214-2.124h1.161L9.356 9.273 11.071 12H9.91L8.681 9.962 7.456 12H6.291l1.697-2.727-1.676-2.727h1.165zm7.116 0v.852h-2.979v-.852h2.979zm-2.18-1.307h1.062v5.16c0 .206.031.361.092.465a.48.48 0 0 0 .238.21c.099.036.207.053.323.053.085 0 .16-.006.224-.018l.149-.028.192.877a1.79 1.79 0 0 1-.263.071 2.07 2.07 0 0 1-.426.043 1.87 1.87 0 0 1-.781-.149 1.34 1.34 0 0 1-.586-.483c-.149-.218-.224-.491-.224-.82v-5.38zM15.668 12V6.545h1.026v.866h.057a1.32 1.32 0 0 1 .525-.692c.253-.17.54-.256.859-.256l.234.007.217.018v1.016c-.043-.012-.118-.025-.227-.039a2.17 2.17 0 0 0-.327-.025c-.251 0-.475.053-.671.16s-.348.25-.462.437a1.18 1.18 0 0 0-.17.632V12h-1.062zm5.276.121c-.346 0-.658-.064-.937-.192a1.58 1.58 0 0 1-.664-.565c-.161-.246-.241-.548-.241-.905 0-.308.059-.561.178-.76a1.31 1.31 0 0 1 .479-.472c.201-.116.426-.204.675-.263s.502-.104.76-.135l.795-.092c.204-.026.352-.067.444-.124s.139-.149.139-.277V8.31c0-.31-.088-.55-.263-.721s-.431-.256-.774-.256c-.357 0-.639.079-.845.238s-.344.33-.423.522l-.998-.227c.118-.331.291-.599.518-.803s.494-.355.792-.447a3.09 3.09 0 0 1 .941-.142 3.32 3.32 0 0 1 .692.078c.246.05.476.142.689.277s.392.328.529.579.206.572.206.969V12h-1.037v-.746h-.043a1.51 1.51 0 0 1-.309.405 1.64 1.64 0 0 1-.529.33c-.215.088-.473.131-.774.131zm.231-.852c.294 0 .544-.058.753-.174a1.22 1.22 0 0 0 .479-.455 1.18 1.18 0 0 0 .167-.607V9.33c-.038.038-.111.073-.22.107a3.42 3.42 0 0 1-.366.082l-.401.06-.327.043c-.206.026-.394.07-.565.131a.97.97 0 0 0-.405.266c-.099.114-.149.265-.149.455 0 .263.097.462.291.597s.442.199.742.199zm7.504-6.541V12h-1.097V4.727h1.097zm3.959 1.818v.852h-2.979v-.852h2.979zm-2.18-1.307h1.062v5.16c0 .206.031.361.092.465s.141.172.238.21.207.053.323.053c.085 0 .16-.006.224-.018l.149-.028.192.877c-.062.024-.149.047-.263.071a2.07 2.07 0 0 1-.426.043 1.87 1.87 0 0 1-.781-.149 1.34 1.34 0 0 1-.586-.483c-.149-.218-.224-.491-.224-.82v-5.38zm5.547 6.871c-.537 0-1-.115-1.389-.344s-.684-.557-.895-.976-.312-.915-.312-1.481c0-.559.104-1.051.313-1.477s.504-.759.881-.998.821-.359 1.328-.359c.308 0 .606.051.895.153a2.17 2.17 0 0 1 .778.479c.23.218.411.501.543.849s.199.766.199 1.261v.376h-4.336v-.795h3.296c0-.279-.057-.527-.171-.742a1.29 1.29 0 0 0-.479-.515 1.34 1.34 0 0 0-.717-.188c-.298 0-.559.073-.781.22a1.48 1.48 0 0 0-.511.568 1.64 1.64 0 0 0-.178.756v.621c0 .365.064.675.192.93s.311.451.543.586a1.61 1.61 0 0 0 .813.199 1.69 1.69 0 0 0 .55-.085 1.19 1.19 0 0 0 .43-.263 1.14 1.14 0 0 0 .277-.43l1.005.181a1.82 1.82 0 0 1-.433.778 2.1 2.1 0 0 1-.778.515c-.31.121-.664.181-1.062.181zm3.418-.11V6.545h1.019v.888h.067a1.41 1.41 0 0 1 .558-.703c.258-.17.567-.256.927-.256s.67.085.916.256a1.5 1.5 0 0 1 .55.703h.057c.13-.291.337-.523.621-.696s.623-.263 1.016-.263c.495 0 .898.155 1.211.465s.472.778.472 1.403V12h-1.062V8.442c0-.369-.101-.637-.302-.803s-.441-.249-.721-.249c-.346 0-.614.107-.806.32s-.288.482-.288.813V12h-1.058V8.374c0-.296-.092-.534-.277-.714s-.425-.27-.721-.27a1.03 1.03 0 0 0-.557.16c-.168.104-.304.25-.408.437s-.153.404-.153.65V12h-1.062zm11.37 0V4.727h1.097v6.328h3.295V12h-4.393zm7.81.11c-.537 0-1-.115-1.389-.344s-.684-.557-.895-.976-.312-.915-.312-1.481c0-.559.104-1.051.313-1.477s.504-.759.881-.998.822-.359 1.328-.359c.308 0 .606.051.895.153s.548.262.778.479a2.25 2.25 0 0 1 .543.849c.133.346.199.766.199 1.261v.376h-4.336v-.795h3.295c0-.279-.057-.527-.17-.742a1.29 1.29 0 0 0-.479-.515 1.34 1.34 0 0 0-.717-.188c-.298 0-.559.073-.781.22a1.48 1.48 0 0 0-.511.568 1.64 1.64 0 0 0-.178.756v.621c0 .365.064.675.192.93s.311.451.543.586a1.61 1.61 0 0 0 .813.199 1.69 1.69 0 0 0 .55-.085 1.19 1.19 0 0 0 .43-.263c.121-.116.213-.259.277-.43l1.005.181a1.82 1.82 0 0 1-.433.778 2.1 2.1 0 0 1-.778.515c-.31.121-.664.181-1.062.181zm7.928-5.565L64.553 12h-1.136l-1.982-5.455h1.14l1.381 4.197h.057l1.378-4.197h1.14zm3.063 5.565c-.537 0-1-.115-1.389-.344s-.684-.557-.895-.976-.312-.915-.312-1.481c0-.559.104-1.051.313-1.477s.504-.759.881-.998.822-.359 1.328-.359c.308 0 .606.051.895.153s.548.262.778.479.411.501.543.849.199.766.199 1.261v.376h-4.336v-.795h3.295c0-.279-.057-.527-.17-.742a1.29 1.29 0 0 0-.479-.515 1.34 1.34 0 0 0-.717-.188c-.298 0-.559.073-.781.22a1.48 1.48 0 0 0-.511.568 1.64 1.64 0 0 0-.177.756v.621c0 .365.064.675.192.93s.311.451.543.586a1.61 1.61 0 0 0 .813.199 1.69 1.69 0 0 0 .55-.085 1.19 1.19 0 0 0 .43-.263 1.14 1.14 0 0 0 .277-.43l1.005.181a1.82 1.82 0 0 1-.433.778 2.1 2.1 0 0 1-.778.515c-.31.121-.664.181-1.062.181zm4.48-7.383V12h-1.062V4.727h1.062zM78.035 12V4.727h4.51v.945h-3.413v2.216h3.089v.941h-3.089V12h-1.097zm7.625.11c-.537 0-1-.115-1.388-.344s-.684-.557-.895-.976-.312-.915-.312-1.481c0-.559.104-1.051.313-1.477s.504-.759.881-.998.822-.359 1.328-.359c.308 0 .606.051.895.153a2.17 2.17 0 0 1 .778.479c.23.218.411.501.543.849s.199.766.199 1.261v.376h-4.336v-.795h3.296c0-.279-.057-.527-.171-.742a1.29 1.29 0 0 0-.479-.515 1.34 1.34 0 0 0-.717-.188c-.298 0-.559.073-.781.22a1.48 1.48 0 0 0-.511.568 1.64 1.64 0 0 0-.178.756v.621c0 .365.064.675.192.93s.311.451.543.586a1.61 1.61 0 0 0 .813.199 1.69 1.69 0 0 0 .55-.085 1.19 1.19 0 0 0 .43-.263 1.14 1.14 0 0 0 .277-.43l1.005.181a1.82 1.82 0 0 1-.433.778 2.1 2.1 0 0 1-.778.515 2.91 2.91 0 0 1-1.062.181zm5.769 0c-.537 0-1-.115-1.388-.344s-.684-.557-.895-.976-.312-.915-.312-1.481c0-.559.104-1.051.313-1.477s.504-.759.881-.998.822-.359 1.328-.359c.308 0 .606.051.895.153s.548.262.778.479a2.25 2.25 0 0 1 .543.849c.133.346.199.766.199 1.261v.376h-4.336v-.795h3.295c0-.279-.057-.527-.17-.742a1.29 1.29 0 0 0-.479-.515 1.34 1.34 0 0 0-.717-.188c-.298 0-.559.073-.781.22a1.48 1.48 0 0 0-.511.568 1.64 1.64 0 0 0-.178.756v.621c0 .365.064.675.192.93s.311.451.543.586a1.61 1.61 0 0 0 .813.199 1.69 1.69 0 0 0 .55-.085 1.19 1.19 0 0 0 .43-.263c.121-.116.213-.259.277-.43l1.005.181a1.82 1.82 0 0 1-.433.778 2.1 2.1 0 0 1-.778.515c-.31.121-.664.181-1.062.181z"/></g></g></g><g id="G" transform="translate(139.188 1.109)" class="D"><g><g transform="translate(0 4.672)"><path d="M0 2.219A2.22 2.22 0 0 1 2.219 0h2.219a2.22 2.22 0 0 1 2.219 2.219v2.219a2.22 2.22 0 0 1-2.219 2.219H2.219A2.22 2.22 0 0 1 0 4.438V2.219z" fill="#dbaf7b"/></g><path transform="translate(9.985 1.5)" d="M3.535 10.099c-.473 0-.897-.089-1.271-.266s-.671-.426-.891-.739-.334-.67-.348-1.072h1.278c.024.298.153.542.387.732s.516.281.845.281c.258 0 .488-.059.689-.178s.36-.283.476-.494.173-.451.17-.721-.056-.518-.174-.732a1.3 1.3 0 0 0-.487-.501c-.206-.123-.443-.185-.71-.185a1.69 1.69 0 0 0-.643.121c-.211.083-.378.192-.501.327l-1.19-.195.38-3.75h4.219v1.101H2.637l-.21 1.928h.043c.135-.159.326-.29.572-.394s.516-.16.81-.16c.44 0 .833.104 1.179.313a2.21 2.21 0 0 1 .817.852 2.54 2.54 0 0 1 .298 1.243c0 .481-.111.909-.334 1.286a2.36 2.36 0 0 1-.92.884c-.391.213-.843.32-1.357.32zm6.91 0c-.511 0-.966-.088-1.364-.263a2.28 2.28 0 0 1-.937-.732c-.23-.312-.352-.674-.366-1.083h1.335c.012.196.077.368.195.515a1.17 1.17 0 0 0 .472.337c.196.08.417.121.66.121a1.68 1.68 0 0 0 .693-.135c.201-.092.359-.22.472-.384s.169-.352.167-.565a.98.98 0 0 0-.171-.582 1.14 1.14 0 0 0-.504-.394c-.218-.095-.481-.142-.788-.142h-.643V5.778h.643c.253 0 .475-.044.664-.131s.342-.211.451-.369a.95.95 0 0 0 .16-.558c.002-.206-.044-.385-.138-.536s-.224-.273-.394-.359-.366-.128-.593-.128-.428.04-.618.121-.342.195-.458.344-.178.322-.185.526H7.931c.009-.407.127-.765.352-1.072s.53-.552.909-.724.804-.263 1.275-.263c.485 0 .907.091 1.264.273a2.06 2.06 0 0 1 .835.728 1.83 1.83 0 0 1 .295 1.012c.002.41-.118.753-.362 1.03a1.7 1.7 0 0 1-.952.543v.057c.511.071.903.26 1.175.568s.411.685.408 1.14c0 .407-.116.772-.348 1.094s-.547.571-.952.753-.864.273-1.385.273zm8.292-1.463v-.384c0-.282.059-.541.178-.778s.296-.427.526-.572.508-.217.834-.217c.336 0 .618.072.845.217a1.37 1.37 0 0 1 .515.568c.118.237.178.497.178.781v.384c0 .282-.059.541-.178.778a1.41 1.41 0 0 1-.522.572c-.227.144-.507.217-.838.217s-.612-.072-.842-.217a1.41 1.41 0 0 1-.522-.572c-.116-.237-.174-.496-.174-.778zm.927-.384v.384c0 .187.045.359.135.515s.249.234.476.234.387-.077.472-.231a1.04 1.04 0 0 0 .131-.518v-.384a1.09 1.09 0 0 0-.124-.518c-.083-.159-.243-.238-.479-.238-.223 0-.38.079-.472.238a1 1 0 0 0-.139.518zM15.04 4.474v-.384c0-.284.06-.545.181-.781a1.41 1.41 0 0 1 .526-.568c.23-.144.508-.217.834-.217.334 0 .614.072.842.217a1.36 1.36 0 0 1 .519.568 1.75 1.75 0 0 1 .174.781v.384a1.72 1.72 0 0 1-.178.781c-.116.234-.289.423-.518.565s-.509.213-.838.213-.615-.071-.845-.213-.4-.331-.518-.568-.178-.496-.178-.778zm.934-.384v.384a1.04 1.04 0 0 0 .131.518c.09.154.248.231.476.231s.384-.077.469-.231a1.04 1.04 0 0 0 .131-.518v-.384a1.09 1.09 0 0 0-.124-.518c-.083-.159-.242-.238-.476-.238-.225 0-.382.079-.472.238s-.135.331-.135.518zM15.445 10l5-7.273h.888l-5 7.273h-.888z" class="C"/><g transform="translate(36.313)" class="E"><path d="M2.223 12L.206 4.727H1.36l1.417 5.632h.067l1.474-5.632h1.143l1.474 5.636h.067l1.413-5.636h1.158L7.553 12H6.449L4.918 6.553h-.057L3.331 12H2.223zm7.824 0V6.545h1.026v.866h.057a1.32 1.32 0 0 1 .526-.692c.253-.17.54-.256.859-.256l.234.007.217.018v1.016c-.043-.012-.118-.025-.227-.039a2.17 2.17 0 0 0-.327-.025c-.251 0-.475.053-.671.16s-.348.25-.462.437a1.18 1.18 0 0 0-.17.632V12h-1.062zm5.84.11c-.511 0-.958-.117-1.339-.352a2.37 2.37 0 0 1-.888-.984c-.211-.421-.316-.914-.316-1.477s.105-1.061.316-1.484.507-.753.888-.987.827-.352 1.339-.352.958.117 1.339.352.677.563.888.987.316.919.316 1.484-.105 1.056-.316 1.477a2.37 2.37 0 0 1-.888.984c-.381.234-.827.352-1.339.352zm.004-.891c.331 0 .606-.088.824-.263a1.54 1.54 0 0 0 .483-.7c.107-.291.16-.612.16-.962s-.053-.668-.16-.959-.265-.529-.483-.707-.492-.266-.824-.266-.611.089-.831.266-.38.413-.486.707-.156.611-.156.959a2.84 2.84 0 0 0 .156.962c.106.291.269.524.486.7s.497.263.831.263zm4.686-2.457V12h-1.062V6.545h1.019v.888h.067a1.56 1.56 0 0 1 .59-.696c.27-.175.61-.263 1.019-.263.372 0 .697.078.977.234s.496.384.65.689.231.683.231 1.133V12h-1.062V8.658c0-.395-.103-.704-.309-.927s-.489-.337-.849-.337a1.33 1.33 0 0 0-.657.16 1.15 1.15 0 0 0-.451.469c-.109.204-.163.45-.163.739zm7.102 5.398c-.433 0-.806-.057-1.119-.171s-.563-.264-.76-.451-.343-.392-.44-.614l.913-.376a2.19 2.19 0 0 0 .256.33c.109.118.256.219.44.302s.427.124.721.124c.402 0 .735-.098.998-.295s.394-.504.394-.93v-1.072h-.067a2.43 2.43 0 0 1-.277.387c-.118.142-.282.265-.49.369s-.479.156-.813.156c-.431 0-.819-.101-1.165-.302s-.615-.503-.817-.899-.298-.887-.298-1.467.098-1.077.295-1.491.471-.732.817-.952.737-.334 1.175-.334c.339 0 .612.057.82.17s.37.241.486.391.21.281.274.394h.078v-.884h1.041v5.575c0 .469-.109.854-.327 1.154s-.513.523-.884.668a3.41 3.41 0 0 1-1.25.217zm-.011-3.122c.305 0 .563-.071.774-.213s.374-.35.483-.618.167-.593.167-.969c0-.367-.054-.69-.163-.969a1.44 1.44 0 0 0-.479-.653c-.211-.159-.471-.238-.781-.238-.32 0-.586.083-.799.249s-.374.386-.483.668-.16.597-.16.945c0 .357.054.671.163.941s.27.481.483.632.481.227.796.227zm6.427.962V4.727h2.592c.563 0 1.031.097 1.403.291s.653.463.838.806.277.735.277 1.183a2.39 2.39 0 0 1-.281 1.175c-.185.336-.464.598-.838.785s-.839.281-1.403.281h-1.964v-.945h1.864c.355 0 .644-.051.867-.153a1.01 1.01 0 0 0 .494-.444 1.46 1.46 0 0 0 .156-.7c0-.275-.053-.513-.16-.714s-.269-.355-.494-.462-.515-.163-.877-.163h-1.378V12h-1.097zm3.59-3.281L39.483 12h-1.25l-1.761-3.281h1.214zm4.257 3.402c-.346 0-.658-.064-.937-.192a1.58 1.58 0 0 1-.664-.565c-.161-.246-.242-.548-.242-.905 0-.308.059-.561.178-.76a1.31 1.31 0 0 1 .48-.472c.201-.116.426-.204.675-.263s.502-.104.76-.135l.796-.092c.204-.026.352-.067.444-.124s.139-.149.139-.277V8.31c0-.31-.088-.55-.263-.721s-.431-.256-.774-.256c-.358 0-.639.079-.845.238s-.345.33-.423.522l-.998-.227a1.92 1.92 0 0 1 .518-.803 2.1 2.1 0 0 1 .792-.447 3.09 3.09 0 0 1 .941-.142 3.32 3.32 0 0 1 .693.078c.246.05.476.142.689.277s.392.328.529.579.206.572.206.969V12h-1.037v-.746h-.043a1.51 1.51 0 0 1-.309.405 1.64 1.64 0 0 1-.529.33c-.215.088-.474.131-.774.131zm.231-.852c.294 0 .544-.058.753-.174a1.22 1.22 0 0 0 .479-.455 1.18 1.18 0 0 0 .167-.607V9.33c-.038.038-.111.073-.22.107a3.42 3.42 0 0 1-.366.082l-.401.06-.327.043a2.63 2.63 0 0 0-.565.131.97.97 0 0 0-.405.266c-.099.114-.149.265-.149.455 0 .263.097.462.291.597s.441.199.742.199zm6.321-4.723v.852h-2.979v-.852h2.979zm-2.18-1.307h1.062v5.16c0 .206.031.361.092.465s.141.172.238.21.207.053.323.053c.085 0 .16-.006.224-.018l.149-.028.192.877c-.061.024-.149.047-.263.071a2.07 2.07 0 0 1-.426.043 1.87 1.87 0 0 1-.781-.149 1.34 1.34 0 0 1-.586-.483c-.149-.218-.224-.491-.224-.82v-5.38zm5.547 6.871c-.537 0-1-.115-1.389-.344s-.684-.557-.895-.976-.312-.915-.312-1.481c0-.559.104-1.051.313-1.477s.504-.759.881-.998.822-.359 1.328-.359c.308 0 .606.051.895.153s.548.262.778.479.411.501.543.849.199.766.199 1.261v.376h-4.336v-.795h3.295c0-.279-.057-.527-.17-.742a1.29 1.29 0 0 0-.479-.515 1.34 1.34 0 0 0-.717-.188c-.298 0-.559.073-.781.22s-.391.334-.511.568a1.64 1.64 0 0 0-.178.756v.621c0 .365.064.675.192.93s.311.451.543.586a1.61 1.61 0 0 0 .813.199 1.69 1.69 0 0 0 .55-.085 1.19 1.19 0 0 0 .43-.263c.121-.116.213-.259.277-.43l1.005.181a1.82 1.82 0 0 1-.433.778 2.1 2.1 0 0 1-.778.515c-.31.121-.664.181-1.062.181z"/></g></g></g></g></g></g><g id="H" transform="translate(13 104)" class="D"><g clip-path="url(#U)"><g id="I" class="D"><path d="M0 4.221A4.22 4.22 0 0 1 4.221 0h250.558A4.22 4.22 0 0 1 259 4.221v18.996H0V4.221z" fill="#f7f6f9"/><g clip-path="url(#V)" transform="translate(9 4)" class="E"><g><g clip-path="url(#W)"><path transform="translate(4.221 2.111)" d="M4.372 5.091a1 1 0 0 0-.467-.754c-.273-.179-.607-.268-1.004-.268-.29 0-.543.047-.761.141s-.384.223-.505.387-.179.35-.179.559c0 .175.042.325.125.451s.194.227.326.31.271.148.415.201l.399.125.665.179a5.8 5.8 0 0 1 .569.185c.211.079.412.186.604.323s.354.307.479.518.189.47.189.777c0 .354-.093.673-.278.959s-.452.512-.805.681-.779.253-1.282.253c-.469 0-.875-.076-1.218-.227a1.94 1.94 0 0 1-.805-.633C.647 8.985.537 8.67.511 8.313h.818c.021.247.104.452.249.614a1.35 1.35 0 0 0 .556.358 2.25 2.25 0 0 0 .729.115c.303 0 .574-.049.815-.147s.431-.239.572-.415.211-.388.211-.626c0-.217-.061-.394-.182-.531s-.281-.247-.479-.332-.412-.16-.642-.224l-.805-.23c-.511-.147-.916-.357-1.214-.63S.69 5.634.69 5.193c0-.366.099-.686.297-.959s.469-.488.805-.639a2.72 2.72 0 0 1 1.135-.23c.422 0 .797.076 1.125.227s.588.354.78.614a1.53 1.53 0 0 1 .307.885h-.767zm4.026 5.011c-.473 0-.881-.104-1.224-.313s-.604-.505-.789-.882-.275-.82-.275-1.323.092-.946.275-1.33.443-.686.773-.901.72-.326 1.163-.326c.256 0 .508.043.757.128s.476.224.681.415.368.441.489.754.182.699.182 1.157v.32H6.646v-.652h3.017a1.61 1.61 0 0 0-.166-.741 1.25 1.25 0 0 0-.467-.515c-.2-.126-.437-.189-.71-.189-.3 0-.56.075-.78.224a1.47 1.47 0 0 0-.502.575 1.69 1.69 0 0 0-.176.761v.435c0 .371.064.685.192.943s.31.451.54.585.498.198.802.198c.198 0 .377-.028.537-.083a1.15 1.15 0 0 0 .419-.256 1.16 1.16 0 0 0 .272-.428l.729.205c-.077.247-.206.464-.387.652s-.405.33-.671.435a2.49 2.49 0 0 1-.898.153zm3.09-.102V5.091h.729v.741h.051a1.18 1.18 0 0 1 .486-.591 1.43 1.43 0 0 1 .793-.227l.208.003.188.01v.767c-.025-.006-.084-.016-.176-.029a1.73 1.73 0 0 0-.284-.022c-.239 0-.452.05-.639.15s-.332.234-.441.409-.16.37-.16.591V10h-.754zm7.422-4.909L17.095 10h-.767l-1.815-4.909h.818l1.355 3.912h.051l1.355-3.912h.818zM19.816 10V5.091h.754V10h-.754zm.384-5.727c-.147 0-.274-.05-.38-.15s-.157-.221-.157-.361.052-.261.157-.361.233-.15.38-.15.273.05.377.15.16.221.16.361-.053.261-.16.361-.23.15-.377.15zm3.657 5.83c-.46 0-.857-.109-1.189-.326s-.588-.517-.767-.898-.268-.817-.268-1.307c0-.499.092-.939.275-1.32s.443-.683.773-.898.72-.326 1.163-.326c.345 0 .656.064.933.192s.504.307.681.537.287.499.329.805h-.754a1.17 1.17 0 0 0-.384-.594c-.196-.175-.46-.262-.793-.262-.294 0-.552.077-.773.23s-.391.365-.515.642-.182.598-.182.968c0 .379.06.71.179.991s.292.5.511.655.482.233.78.233c.196 0 .374-.034.534-.102a1.1 1.1 0 0 0 .406-.294c.111-.128.19-.281.236-.46h.754c-.043.29-.148.551-.317.783s-.387.413-.662.55-.59.201-.952.201zm5.001 0c-.473 0-.881-.104-1.224-.313s-.604-.505-.789-.882-.275-.82-.275-1.323.092-.946.275-1.33.443-.686.774-.901.72-.326 1.163-.326c.256 0 .508.043.758.128s.476.224.681.415.368.441.489.754.182.699.182 1.157v.32h-3.784v-.652h3.017a1.61 1.61 0 0 0-.166-.741 1.25 1.25 0 0 0-.467-.515c-.2-.126-.437-.189-.709-.189-.3 0-.56.075-.78.224a1.47 1.47 0 0 0-.502.575 1.69 1.69 0 0 0-.176.761v.435c0 .371.064.685.192.943s.31.451.54.585.497.198.802.198a1.63 1.63 0 0 0 .537-.083 1.15 1.15 0 0 0 .419-.256 1.16 1.16 0 0 0 .272-.428l.729.205c-.077.247-.206.464-.387.652s-.405.33-.671.435a2.49 2.49 0 0 1-.898.153z"/></g></g></g><g clip-path="url(#X)" transform="translate(79 4)" class="E"><g transform="translate(6.557)"><g clip-path="url(#Y)"><path transform="translate(4.221 2.111)" d="M6.315 6.727c0 .69-.125 1.287-.374 1.79s-.591.891-1.026 1.163-.931.409-1.489.409-1.055-.136-1.489-.409S1.16 9.02.911 8.517.537 7.418.537 6.727.662 5.44.911 4.938s.591-.891 1.026-1.163.931-.409 1.489-.409 1.055.136 1.489.409.777.661 1.026 1.163.374 1.099.374 1.79zm-.767 0c0-.567-.095-1.045-.284-1.435s-.442-.685-.764-.885a1.98 1.98 0 0 0-1.074-.3c-.396 0-.755.1-1.077.3s-.574.495-.764.885-.281.868-.281 1.435.094 1.045.281 1.435.444.685.764.885.681.3 1.077.3a1.98 1.98 0 0 0 1.074-.3c.322-.2.576-.495.764-.885s.284-.868.284-1.435zM7.456 10V5.091h.729v.741h.051a1.18 1.18 0 0 1 .486-.591 1.43 1.43 0 0 1 .793-.227l.208.003.189.01v.767a2.24 2.24 0 0 0-.176-.029 1.73 1.73 0 0 0-.284-.022c-.239 0-.452.05-.639.15s-.332.234-.441.409-.16.37-.16.591V10h-.754zm4.963.102c-.409 0-.77-.103-1.083-.31s-.558-.503-.735-.882-.265-.832-.265-1.352.088-.963.265-1.342.423-.672.738-.879.68-.31 1.093-.31c.32 0 .572.053.758.16s.33.224.428.358l.233.326h.064V3.455h.754V10h-.729v-.754h-.089a4.83 4.83 0 0 1-.236.339c-.102.134-.248.255-.438.361s-.442.157-.758.157zm.102-.678c.303 0 .558-.079.767-.237a1.48 1.48 0 0 0 .476-.662c.109-.283.163-.61.163-.981s-.053-.687-.16-.962a1.4 1.4 0 0 0-.473-.646c-.209-.156-.467-.233-.773-.233-.32 0-.586.082-.799.246s-.37.382-.476.662a2.63 2.63 0 0 0-.157.933c0 .349.053.667.16.952s.268.509.479.678.477.249.793.249zm5.602.678c-.473 0-.881-.104-1.224-.313s-.604-.505-.789-.882-.275-.82-.275-1.323.092-.946.275-1.33.443-.686.773-.901.72-.326 1.163-.326c.256 0 .508.043.758.128s.476.224.681.415.368.441.489.754.182.699.182 1.157v.32h-3.784v-.652h3.017a1.61 1.61 0 0 0-.166-.741 1.25 1.25 0 0 0-.467-.515c-.2-.126-.437-.189-.71-.189-.3 0-.56.075-.78.224a1.47 1.47 0 0 0-.502.575 1.69 1.69 0 0 0-.176.761v.435c0 .371.064.685.192.943s.31.451.54.585.497.198.802.198a1.63 1.63 0 0 0 .537-.083 1.15 1.15 0 0 0 .419-.256 1.16 1.16 0 0 0 .272-.428l.729.205c-.077.247-.206.464-.387.652s-.405.33-.671.435a2.49 2.49 0 0 1-.898.153zm3.09-.102V5.091h.729v.741h.051a1.18 1.18 0 0 1 .486-.591 1.43 1.43 0 0 1 .793-.227l.208.003.189.01v.767c-.026-.006-.084-.016-.176-.029a1.73 1.73 0 0 0-.284-.022c-.239 0-.452.05-.639.15s-.332.234-.441.409-.16.37-.16.591V10h-.754zm6.736-3.81l-.678.192a1.26 1.26 0 0 0-.189-.329c-.081-.109-.192-.198-.332-.268s-.321-.105-.54-.105c-.3 0-.551.069-.751.208s-.297.31-.297.521c0 .188.068.336.205.444s.349.199.639.272l.729.179c.439.107.766.27.981.489s.323.498.323.841c0 .281-.081.533-.243.754a1.61 1.61 0 0 1-.671.524c-.288.128-.622.192-1.004.192-.501 0-.915-.109-1.243-.326s-.536-.535-.623-.952l.716-.179c.068.264.197.462.387.594s.442.198.751.198c.352 0 .631-.075.837-.224s.313-.332.313-.543a.57.57 0 0 0-.179-.428c-.119-.117-.302-.205-.55-.262l-.818-.192c-.45-.107-.78-.272-.991-.495s-.313-.508-.313-.847c0-.277.078-.522.233-.735s.372-.38.642-.502.582-.182.927-.182c.486 0 .867.107 1.144.32s.477.494.595.844zm3.845 1.048c0-.805.104-1.546.313-2.221a6.93 6.93 0 0 1 .901-1.87h.665a4.12 4.12 0 0 0-.431.78 7.6 7.6 0 0 0-.348 1.013c-.1.366-.179.746-.236 1.138s-.083.779-.083 1.16c0 .507.049 1.022.147 1.544s.23 1.007.396 1.454.352.812.556 1.093h-.665c-.39-.569-.69-1.191-.901-1.866s-.313-1.419-.313-2.224zM37.138 10l1.074-6.545h.639L37.777 10h-.639zm-2.979-1.815l.102-.639h4.883l-.102.639h-4.883zM34.837 10l1.074-6.545h.639L35.476 10h-.639zm-.294-4.091l.102-.639h4.884l-.102.639h-4.884zm7.352 1.33c0 .805-.105 1.547-.316 2.224s-.508 1.298-.898 1.866h-.665a4 4 0 0 0 .428-.78c.134-.307.251-.643.352-1.01s.178-.749.233-1.141.086-.781.086-1.16c0-.507-.049-1.022-.147-1.544s-.23-1.007-.396-1.454-.352-.812-.556-1.093h.665a6.86 6.86 0 0 1 .898 1.87c.211.675.316 1.416.316 2.221z"/></g></g></g><g clip-path="url(#Z)" transform="translate(141 4.313)" class="E"><g transform="translate(6.434)"><g clip-path="url(#a)"><path transform="translate(4.221 2.111)" d="M.793 10V3.455h3.95v.703H1.585v2.212h2.953v.703H1.585v2.224h3.209V10H.793zm5.187 0V5.091h.729v.741h.051a1.18 1.18 0 0 1 .486-.591 1.43 1.43 0 0 1 .793-.227l.208.003.189.01v.767a2.24 2.24 0 0 0-.176-.029 1.73 1.73 0 0 0-.284-.022c-.239 0-.452.05-.639.15s-.332.234-.441.409-.16.37-.16.591V10h-.754zm3.259 0V5.091h.729v.741h.051a1.18 1.18 0 0 1 .486-.591 1.43 1.43 0 0 1 .793-.227l.208.003.188.01v.767c-.025-.006-.084-.016-.176-.029a1.73 1.73 0 0 0-.284-.022c-.239 0-.452.05-.639.15s-.332.234-.441.409-.16.37-.16.591V10h-.754zm5.104.102a2.14 2.14 0 0 1-1.167-.316 2.15 2.15 0 0 1-.78-.885c-.185-.379-.278-.822-.278-1.33s.093-.958.278-1.339.447-.678.78-.888a2.14 2.14 0 0 1 1.167-.316c.443 0 .831.105 1.163.316s.594.507.78.888.281.828.281 1.339-.094.95-.281 1.33a2.12 2.12 0 0 1-.78.885c-.332.211-.72.316-1.163.316zm0-.678c.337 0 .614-.086.831-.259s.378-.399.483-.681.157-.586.157-.914-.052-.634-.157-.917-.265-.512-.483-.687-.494-.262-.831-.262-.614.087-.831.262-.378.404-.483.687a2.63 2.63 0 0 0-.157.917c0 .328.052.633.157.914s.265.508.483.681.494.259.831.259zm3.286.575V5.091h.729v.741h.051a1.18 1.18 0 0 1 .486-.591 1.43 1.43 0 0 1 .793-.227l.208.003.189.01v.767c-.026-.006-.084-.016-.176-.029a1.73 1.73 0 0 0-.284-.022c-.239 0-.452.05-.639.15s-.332.234-.441.409-.16.37-.16.591V10h-.754zm6.736-3.81l-.677.192a1.26 1.26 0 0 0-.189-.329c-.081-.109-.192-.198-.332-.268s-.321-.105-.54-.105c-.3 0-.551.069-.751.208s-.297.31-.297.521c0 .188.068.336.204.444s.349.199.639.272l.729.179c.439.107.766.27.981.489s.323.498.323.841c0 .281-.081.533-.243.754a1.61 1.61 0 0 1-.671.524 2.45 2.45 0 0 1-1.003.192c-.501 0-.915-.109-1.243-.326s-.536-.535-.623-.952l.716-.179c.068.264.197.462.387.594s.442.198.751.198c.352 0 .631-.075.837-.224s.313-.332.313-.543a.57.57 0 0 0-.179-.428c-.119-.117-.303-.205-.55-.262l-.818-.192c-.45-.107-.78-.272-.991-.495s-.313-.508-.313-.847c0-.277.078-.522.233-.735s.372-.38.642-.502.582-.182.927-.182c.486 0 .867.107 1.144.32s.477.494.594.844zm3.845 1.048c0-.805.104-1.546.313-2.221a6.93 6.93 0 0 1 .901-1.87h.665c-.153.211-.297.471-.431.78s-.248.645-.348 1.013-.179.746-.236 1.138-.083.779-.083 1.16c0 .507.049 1.022.147 1.544s.23 1.007.396 1.454.352.812.556 1.093h-.665a6.94 6.94 0 0 1-.901-1.866c-.209-.678-.313-1.419-.313-2.224zM33.552 10l1.074-6.545h.639L34.191 10h-.639zm-2.979-1.815l.102-.639h4.884l-.102.639h-4.884zM31.251 10l1.074-6.545h.639L31.89 10h-.639zm-.294-4.091l.102-.639h4.883l-.102.639h-4.883zm7.352 1.33c0 .805-.105 1.547-.316 2.224s-.508 1.298-.898 1.866h-.665a4 4 0 0 0 .428-.78c.134-.307.251-.643.352-1.01a9.33 9.33 0 0 0 .233-1.141 8.03 8.03 0 0 0 .086-1.16c0-.507-.049-1.022-.147-1.544s-.23-1.007-.396-1.454-.352-.812-.556-1.093h.665a6.86 6.86 0 0 1 .898 1.87c.211.675.316 1.416.316 2.221z"/></g></g></g><g clip-path="url(#b)" transform="translate(192 4.313)"><g transform="translate(14.877)"><g clip-path="url(#c)"><path d="M0 2.111A2.11 2.11 0 0 1 2.111 0h44.221a2.11 2.11 0 0 1 2.111 2.111v13a2.11 2.11 0 0 1-2.111 2.111H2.111A2.11 2.11 0 0 1 0 15.111v-13z" fill="#eeecfa"/><path transform="translate(4.221 2.111)" d="M.793 10V3.455h3.95v.703H1.585v2.212h2.953v.703H1.585v2.224h3.209V10H.793zm5.187 0V5.091h.729v.741h.051a1.18 1.18 0 0 1 .486-.591 1.43 1.43 0 0 1 .793-.227l.208.003.189.01v.767a2.24 2.24 0 0 0-.176-.029 1.73 1.73 0 0 0-.284-.022c-.239 0-.452.05-.639.15s-.332.234-.441.409-.16.37-.16.591V10h-.754zm3.259 0V5.091h.729v.741h.051a1.18 1.18 0 0 1 .486-.591 1.43 1.43 0 0 1 .793-.227l.208.003.188.01v.767c-.025-.006-.084-.016-.176-.029a1.73 1.73 0 0 0-.284-.022c-.239 0-.452.05-.639.15s-.332.234-.441.409-.16.37-.16.591V10h-.754zm5.104.102a2.14 2.14 0 0 1-1.167-.316 2.15 2.15 0 0 1-.78-.885c-.185-.379-.278-.822-.278-1.33s.093-.958.278-1.339.447-.678.78-.888a2.14 2.14 0 0 1 1.167-.316c.443 0 .831.105 1.163.316s.594.507.78.888.281.828.281 1.339-.094.95-.281 1.33a2.12 2.12 0 0 1-.78.885c-.332.211-.72.316-1.163.316zm0-.678c.337 0 .614-.086.831-.259s.378-.399.483-.681.157-.586.157-.914-.052-.634-.157-.917-.265-.512-.483-.687-.494-.262-.831-.262-.614.087-.831.262-.378.404-.483.687a2.63 2.63 0 0 0-.157.917c0 .328.052.633.157.914s.265.508.483.681.494.259.831.259zm3.286.575V5.091h.729v.741h.051a1.18 1.18 0 0 1 .486-.591 1.43 1.43 0 0 1 .793-.227l.208.003.189.01v.767c-.026-.006-.084-.016-.176-.029a1.73 1.73 0 0 0-.284-.022c-.239 0-.452.05-.639.15s-.332.234-.441.409-.16.37-.16.591V10h-.754zm6.736-3.81l-.677.192a1.26 1.26 0 0 0-.189-.329c-.081-.109-.192-.198-.332-.268s-.321-.105-.54-.105c-.3 0-.551.069-.751.208s-.297.31-.297.521c0 .188.068.336.204.444s.349.199.639.272l.729.179c.439.107.766.27.981.489s.323.498.323.841c0 .281-.081.533-.243.754a1.61 1.61 0 0 1-.671.524 2.45 2.45 0 0 1-1.003.192c-.501 0-.915-.109-1.243-.326s-.536-.535-.623-.952l.716-.179c.068.264.197.462.387.594s.442.198.751.198c.352 0 .631-.075.837-.224s.313-.332.313-.543a.57.57 0 0 0-.179-.428c-.119-.117-.303-.205-.55-.262l-.818-.192c-.45-.107-.78-.272-.991-.495s-.313-.508-.313-.847c0-.277.078-.522.233-.735s.372-.38.642-.502.582-.182.927-.182c.486 0 .867.107 1.144.32s.477.494.594.844zm3.845.537c0-.805.104-1.546.313-2.221a6.93 6.93 0 0 1 .901-1.87h.665c-.153.211-.297.471-.431.78s-.248.645-.348 1.013-.179.746-.236 1.138-.083.779-.083 1.16c0 .507.049 1.022.147 1.544s.23 1.007.396 1.454.352.812.556 1.093h-.665c-.39-.569-.69-1.191-.901-1.866s-.313-1.419-.313-2.224zm4.82 4.091V2.636h.524v8.182h-.524zm1.764-5.727a1 1 0 0 0-.467-.754c-.273-.179-.607-.268-1.004-.268-.29 0-.543.047-.761.141s-.383.223-.505.387-.179.35-.179.559c0 .175.042.325.125.451s.194.227.326.31.271.148.416.201l.399.125.665.179c.17.045.36.107.569.185s.412.186.604.323.354.307.479.518.188.47.188.777c0 .354-.093.673-.278.959s-.452.512-.805.681-.779.253-1.282.253c-.469 0-.875-.076-1.218-.227a1.94 1.94 0 0 1-.805-.633c-.194-.271-.304-.585-.329-.943h.818c.021.247.104.452.249.614a1.35 1.35 0 0 0 .556.358 2.25 2.25 0 0 0 .729.115c.303 0 .574-.049.815-.147a1.4 1.4 0 0 0 .572-.415c.141-.179.211-.388.211-.626 0-.217-.061-.394-.182-.531s-.281-.247-.479-.332-.412-.16-.642-.224l-.805-.23c-.511-.147-.916-.357-1.215-.63s-.447-.63-.447-1.071c0-.366.099-.686.297-.959s.469-.488.805-.639a2.72 2.72 0 0 1 1.135-.23c.422 0 .797.076 1.125.227s.588.354.78.614a1.53 1.53 0 0 1 .307.885h-.767zm3.578 1.636c0 .805-.105 1.547-.316 2.224a6.87 6.87 0 0 1-.898 1.866h-.665c.153-.211.296-.471.428-.78a7.35 7.35 0 0 0 .352-1.01c.1-.369.178-.749.233-1.141a8.03 8.03 0 0 0 .086-1.16c0-.507-.049-1.022-.147-1.544s-.23-1.007-.396-1.454a4.57 4.57 0 0 0-.556-1.093h.665a6.86 6.86 0 0 1 .898 1.87c.211.675.316 1.416.316 2.221z" class="E"/></g></g></g></g><g id="J" transform="translate(0 23.217)" class="D"><g clip-path="url(#d)"><mask id="K" class="B"><path d="M0 0h259v29.549H0V0z"/></mask><path d="M0 0h259v29.549H0V0z" class="B"/><g transform="translate(9.959 9.59)" class="C"><g><g transform="translate(4.221)"><path d="M.881 11V3.727h2.457c.571 0 1.037.103 1.399.309s.634.479.81.827.263.736.263 1.165-.088.818-.263 1.168-.44.63-.803.838-.826.309-1.392.309H1.591v-.781h1.733c.391 0 .704-.067.941-.202s.408-.317.515-.547.163-.494.163-.785-.054-.552-.163-.781-.279-.41-.518-.54-.556-.199-.952-.199H1.761V11H.881zm6.134 0V5.545h.838V11h-.838zm.426-6.364c-.163 0-.304-.056-.423-.167s-.174-.245-.174-.401.058-.29.174-.401.259-.167.423-.167.303.056.419.167a.53.53 0 0 1 .178.401.53.53 0 0 1-.178.401c-.116.111-.256.167-.419.167zm4.063 6.477c-.511 0-.952-.121-1.321-.362a2.36 2.36 0 0 1-.852-.998c-.199-.424-.298-.908-.298-1.452 0-.554.102-1.043.305-1.467s.492-.759.859-.998.8-.362 1.293-.362c.383 0 .729.071 1.037.213s.56.341.756.597a1.86 1.86 0 0 1 .366.895h-.838c-.064-.249-.206-.469-.426-.661s-.511-.291-.881-.291c-.327 0-.613.085-.859.256s-.434.406-.572.714-.202.664-.202 1.076c0 .421.066.788.199 1.101s.324.555.568.728a1.47 1.47 0 0 0 .867.259c.218 0 .415-.038.593-.114s.328-.185.451-.327.211-.312.263-.511h.838a1.94 1.94 0 0 1-.351.87c-.185.256-.43.459-.735.611s-.656.224-1.058.224zm4.051-2.102l-.014-1.037h.171l2.386-2.429h1.037l-2.543 2.571h-.071l-.966.895zM14.774 11V3.727h.838V11h-.838zm3.466 0l-2.131-2.699.597-.582L19.305 11H18.24zm6.191.128c-.346 0-.659-.065-.941-.195s-.505-.323-.671-.572-.248-.554-.248-.909c0-.312.061-.566.185-.76s.288-.35.494-.462.433-.194.682-.249l.756-.135.806-.096c.208-.024.36-.063.455-.117s.146-.149.146-.284v-.028c0-.35-.096-.623-.288-.817s-.477-.291-.863-.291c-.4 0-.714.088-.941.263s-.387.362-.479.561l-.796-.284c.142-.331.331-.589.568-.774a2.13 2.13 0 0 1 .781-.391c.284-.076.563-.114.838-.114a3.32 3.32 0 0 1 .604.064c.23.04.451.124.664.252s.394.321.536.579.213.604.213 1.037V11h-.838v-.739h-.043c-.057.118-.152.245-.284.38a1.64 1.64 0 0 1-.529.345c-.22.095-.489.142-.806.142zm.128-.753c.331 0 .611-.065.838-.195a1.33 1.33 0 0 0 .518-.504c.118-.206.178-.423.178-.65v-.767c-.035.043-.114.082-.234.117s-.256.063-.412.089l-.451.064-.352.043a3.2 3.2 0 0 0-.611.138c-.187.062-.338.155-.455.281s-.17.291-.17.504a.75.75 0 0 0 .323.66c.218.147.494.22.827.22zm4.64-2.656V11h-.838V5.545h.81v.852h.071c.128-.277.322-.5.582-.668s.597-.256 1.009-.256c.369 0 .692.076.97.227a1.53 1.53 0 0 1 .646.682c.154.303.231.687.231 1.151V11h-.838V7.591c0-.428-.111-.762-.334-1.001s-.528-.362-.916-.362c-.267 0-.507.058-.717.174s-.373.285-.494.508-.181.492-.181.81zm6.971 3.395c-.455 0-.856-.115-1.204-.344s-.62-.559-.817-.98-.295-.924-.295-1.502.098-1.07.295-1.491.47-.747.82-.977.755-.344 1.215-.344c.355 0 .636.059.842.178s.367.249.476.398l.259.362h.071V3.727h.838V11h-.81v-.838h-.099c-.062.1-.149.225-.263.377s-.276.283-.486.401-.491.174-.842.174zm.114-.753c.336 0 .62-.088.852-.263s.408-.423.529-.735.181-.678.181-1.09a2.95 2.95 0 0 0-.177-1.069c-.118-.308-.294-.547-.526-.717s-.518-.259-.859-.259c-.355 0-.651.091-.888.273s-.411.425-.529.735-.174.653-.174 1.037.059.741.178 1.058.298.566.533.753.53.277.881.277zm6.764.639V3.727h2.457c.571 0 1.037.103 1.399.309s.635.479.81.827.263.736.263 1.165-.088.818-.263 1.168-.44.63-.803.838-.826.309-1.392.309h-1.761v-.781h1.733c.391 0 .704-.067.941-.202s.408-.317.515-.547.163-.494.163-.785-.054-.552-.163-.781-.279-.41-.518-.54-.556-.199-.952-.199h-1.548V11h-.881zm7.739.128c-.346 0-.659-.065-.941-.195s-.505-.323-.671-.572-.249-.554-.249-.909c0-.312.062-.566.185-.76s.288-.35.494-.462.433-.194.682-.249l.756-.135.806-.096c.208-.024.36-.063.455-.117s.146-.149.146-.284v-.028c0-.35-.096-.623-.288-.817s-.477-.291-.863-.291c-.4 0-.714.088-.941.263s-.387.362-.479.561l-.795-.284c.142-.331.331-.589.568-.774a2.13 2.13 0 0 1 .781-.391c.284-.076.563-.114.838-.114a3.32 3.32 0 0 1 .604.064 1.93 1.93 0 0 1 .664.252c.215.128.394.321.536.579s.213.604.213 1.037V11h-.838v-.739h-.043c-.057.118-.152.245-.284.38s-.309.25-.529.345-.489.142-.806.142zm.128-.753c.331 0 .611-.065.838-.195a1.33 1.33 0 0 0 .519-.504c.118-.206.178-.423.178-.65v-.767c-.036.043-.114.082-.234.117s-.256.063-.412.089l-.451.064-.352.043a3.2 3.2 0 0 0-.611.138c-.187.062-.339.155-.455.281s-.17.291-.17.504c0 .291.108.511.323.66s.494.22.828.22zm6.018.739c-.511 0-.952-.121-1.321-.362a2.36 2.36 0 0 1-.852-.998c-.199-.424-.298-.908-.298-1.452 0-.554.102-1.043.305-1.467s.492-.759.859-.998.8-.362 1.293-.362c.383 0 .729.071 1.037.213s.56.341.756.597a1.86 1.86 0 0 1 .366.895h-.838a1.3 1.3 0 0 0-.426-.661c-.218-.194-.511-.291-.881-.291-.327 0-.613.085-.859.256s-.434.406-.572.714-.202.664-.202 1.076c0 .421.066.788.199 1.101s.324.555.568.728a1.47 1.47 0 0 0 .867.259c.218 0 .415-.038.593-.114s.328-.185.451-.327.211-.312.263-.511h.838a1.94 1.94 0 0 1-.352.87c-.185.256-.43.459-.735.611s-.656.224-1.058.224zm4.051-2.102l-.014-1.037h.17l2.386-2.429h1.037L62.02 8.116h-.071l-.966.895zM60.202 11V3.727h.838V11h-.838zm3.466 0l-2.131-2.699.597-.582L64.733 11h-1.065z"/></g></g></g><g transform="translate(60.123 9.59)" class="C"><g><g transform="translate(4.221)"><path transform="translate(35.434)" d="M3.168 11.099a2.72 2.72 0 0 1-.895-.17c-.298-.109-.571-.292-.817-.55s-.444-.612-.593-1.055S.639 8.32.639 7.648c0-.644.06-1.214.181-1.712s.296-.92.526-1.261.507-.604.831-.781.695-.266 1.104-.266a2.34 2.34 0 0 1 1.087.245 2.07 2.07 0 0 1 .781.675 2.36 2.36 0 0 1 .391.998h-.866c-.08-.327-.237-.598-.469-.813s-.54-.323-.923-.323c-.563 0-1.007.245-1.332.735s-.484 1.178-.486 2.063h.057c.133-.201.29-.373.472-.515a2.13 2.13 0 0 1 .611-.334 2.12 2.12 0 0 1 .707-.117c.417 0 .798.104 1.143.313s.623.491.831.856.313.778.313 1.246c0 .45-.101.862-.302 1.236a2.3 2.3 0 0 1-.849.888c-.362.218-.788.324-1.278.32zm0-.781c.298 0 .566-.075.803-.224a1.6 1.6 0 0 0 .565-.6c.14-.251.21-.53.21-.838 0-.301-.067-.574-.202-.82s-.316-.446-.55-.593-.497-.22-.795-.22c-.225 0-.434.045-.629.135a1.62 1.62 0 0 0-.511.362 1.75 1.75 0 0 0-.341.529c-.083.196-.124.404-.124.621 0 .289.067.559.202.81s.324.453.561.607a1.47 1.47 0 0 0 .813.231zM9.45 3.727V11h-.881V4.651h-.043L6.751 5.83v-.895l1.818-1.207h.881z"/></g></g></g><g transform="translate(120.277 9.59)" class="C"><g><g transform="translate(4.221)"><path transform="translate(35.434)" d="M3.31 3.727V11h-.881V4.651h-.043L.611 5.83v-.895l1.818-1.207h.881zM5.301 11v-.639l2.401-2.628.696-.803c.182-.23.317-.445.405-.646s.135-.417.135-.639a1.18 1.18 0 0 0-.185-.664c-.121-.187-.286-.331-.497-.433a1.61 1.61 0 0 0-.71-.153 1.48 1.48 0 0 0-.732.174 1.2 1.2 0 0 0-.479.479c-.111.206-.167.447-.167.724H5.33c0-.426.098-.8.295-1.122s.464-.573.803-.753a2.42 2.42 0 0 1 1.147-.27c.426 0 .804.09 1.133.27a2.03 2.03 0 0 1 .774.728c.187.305.281.645.281 1.019 0 .268-.049.529-.146.785s-.26.536-.497.849-.56.689-.977 1.136l-1.634 1.747v.057h3.381V11H5.301z"/></g></g></g><g id="L" transform="translate(196 9.59)" class="D F"><g><g transform="translate(9.6)"><g><g clip-path="url(#e)" transform="translate(0 3.279)" class="G"><g clip-path="url(#f)" transform="translate(-.221 -.221)"><path transform="translate(1.319 1.319)" d="M2.902 0c.146 0 .264.118.264.264v2.374H5.54c.146 0 .264.118.264.264s-.118.264-.264.264H3.166V5.54c0 .146-.118.264-.264.264s-.264-.118-.264-.264V3.166H.264C.118 3.166 0 3.048 0 2.902s.118-.264.264-.264h2.374V.264c0-.146.118-.264.264-.264z"/></g></g><path transform="translate(9.498)" d="M2.898 11.909V2.818h.582v9.091h-.582zm1.96-6.364c-.043-.36-.215-.639-.518-.838s-.675-.298-1.115-.298a2.12 2.12 0 0 0-.845.156 1.35 1.35 0 0 0-.561.43 1.03 1.03 0 0 0-.199.621c0 .194.046.361.138.501a1.23 1.23 0 0 0 .362.344c.147.09.301.165.462.224l.444.138.739.199a6.44 6.44 0 0 1 .632.206 2.92 2.92 0 0 1 .671.359c.215.149.393.341.533.575s.21.522.21.863c0 .393-.103.748-.309 1.065s-.502.569-.895.756-.865.281-1.424.281c-.521 0-.972-.084-1.353-.252s-.677-.402-.895-.703-.337-.65-.366-1.048h.909c.024.275.116.502.277.682a1.5 1.5 0 0 0 .618.398 2.5 2.5 0 0 0 .81.128c.336 0 .638-.054.906-.163s.479-.265.636-.462.234-.431.234-.696c0-.241-.067-.438-.202-.589s-.312-.275-.533-.369-.458-.178-.714-.249l-.895-.256c-.568-.163-1.018-.397-1.349-.7s-.497-.7-.497-1.19c0-.407.11-.762.33-1.065s.521-.542.895-.71.797-.256 1.261-.256.885.084 1.25.252.653.393.866.682a1.7 1.7 0 0 1 .341.984h-.852zm4.445 5.554c-.417 0-.792-.083-1.126-.248a2.09 2.09 0 0 1-.803-.682c-.201-.289-.311-.618-.33-.987h.852c.033.329.182.601.447.817s.587.32.959.32c.298 0 .563-.07.795-.209a1.48 1.48 0 0 0 .55-.575c.135-.246.202-.524.202-.835 0-.317-.07-.6-.21-.849s-.327-.449-.568-.593-.517-.218-.827-.22c-.223-.002-.451.032-.685.103s-.427.157-.579.266l-.824-.099.44-3.58h3.778v.781h-3.04l-.256 2.145h.043c.149-.118.336-.217.561-.295s.459-.117.703-.117c.445 0 .842.107 1.19.32a2.23 2.23 0 0 1 .824.866 2.57 2.57 0 0 1 .302 1.257 2.46 2.46 0 0 1-.312 1.243c-.206.362-.49.649-.852.859s-.774.313-1.236.313zm6.169 0c-.469 0-.887-.08-1.254-.241s-.655-.385-.87-.671-.329-.624-.348-1.005h.895c.019.234.099.437.241.607s.328.298.558.391a2.03 2.03 0 0 0 .764.138c.313 0 .589-.054.831-.163s.431-.26.568-.455a1.14 1.14 0 0 0 .206-.675c0-.268-.066-.503-.199-.707s-.327-.367-.582-.483-.568-.174-.937-.174h-.582v-.781h.582c.289 0 .542-.052.76-.156a1.22 1.22 0 0 0 .515-.44 1.18 1.18 0 0 0 .188-.668 1.23 1.23 0 0 0-.163-.643c-.109-.182-.263-.324-.462-.426s-.428-.153-.696-.153c-.251 0-.488.046-.71.138s-.4.221-.54.394-.216.376-.227.618h-.852a1.73 1.73 0 0 1 .345-1.001c.215-.289.497-.514.845-.675a2.73 2.73 0 0 1 1.154-.241c.45 0 .836.091 1.158.273s.569.418.742.714a1.87 1.87 0 0 1 .259.959c0 .41-.108.759-.323 1.048s-.503.489-.87.6v.057c.459.076.818.271 1.076.586s.387.7.387 1.161c0 .395-.108.75-.323 1.065s-.504.559-.874.739-.79.27-1.261.27zm6.083 0c-.417 0-.792-.083-1.126-.248a2.09 2.09 0 0 1-.803-.682c-.201-.289-.311-.618-.33-.987h.852c.033.329.182.601.447.817s.587.32.959.32c.298 0 .563-.07.795-.209a1.48 1.48 0 0 0 .55-.575c.135-.246.202-.524.202-.835 0-.317-.07-.6-.21-.849s-.327-.449-.568-.593-.517-.218-.827-.22c-.223-.002-.451.032-.685.103s-.427.157-.579.266l-.824-.099.44-3.58h3.779v.781h-3.04l-.256 2.145h.043c.149-.118.336-.217.561-.295s.459-.117.703-.117c.445 0 .842.107 1.19.32a2.23 2.23 0 0 1 .824.866c.201.367.302.786.302 1.257a2.46 2.46 0 0 1-.312 1.243c-.206.362-.49.649-.852.859s-.774.313-1.236.313zm4.063-.043c-.175 0-.325-.063-.451-.188s-.188-.276-.188-.451.063-.325.188-.451.276-.188.451-.188.326.063.451.188.188.276.188.451a.6.6 0 0 1-.089.32c-.057.097-.134.175-.231.234a.61.61 0 0 1-.32.085zM27.645 11v-.639l2.401-2.628.696-.803a2.97 2.97 0 0 0 .405-.646c.09-.204.135-.417.135-.639a1.18 1.18 0 0 0-.185-.664c-.121-.187-.286-.331-.497-.433s-.448-.153-.71-.153a1.48 1.48 0 0 0-.732.174c-.206.114-.366.273-.479.479s-.167.447-.167.724h-.838c0-.426.098-.8.295-1.122s.464-.573.803-.753a2.42 2.42 0 0 1 1.147-.27c.426 0 .804.09 1.133.27a2.03 2.03 0 0 1 .774.728c.187.305.281.645.281 1.019 0 .268-.049.529-.146.785s-.26.536-.497.849-.56.689-.977 1.136l-1.634 1.747v.057h3.381V11h-4.588zm8.327.099c-.535 0-.991-.146-1.367-.437s-.664-.718-.863-1.275-.298-1.233-.298-2.024.099-1.457.298-2.014.49-.985.866-1.278.833-.444 1.364-.444.984.148 1.36.444.668.72.866 1.278.302 1.228.302 2.014-.099 1.465-.298 2.024-.486.981-.863 1.275-.832.437-1.367.437zm0-.781c.53 0 .942-.256 1.236-.767s.44-1.241.44-2.187c0-.63-.068-1.166-.202-1.609s-.324-.78-.575-1.012a1.27 1.27 0 0 0-.898-.348c-.526 0-.936.259-1.232.778s-.444 1.246-.444 2.191c0 .63.066 1.165.199 1.605s.323.775.572 1.005.553.344.906.344z"/></g></g></g></g></g><path d="M259 29.549v-.528H0v.528.528h259v-.528z" mask="url(#K)" class="C H"/></g><g id="M" transform="translate(0 52.766)" class="D"><g clip-path="url(#g)"><mask id="N" class="B"><path d="M0 0h259v29.549H0V0z"/></mask><path d="M0 0h259v29.549H0V0z" class="B"/><g transform="translate(9.959 9.59)" class="C"><g><g transform="translate(4.221)"><path d="M.881 11V3.727h4.361v.781h-3.48v2.457h3.153v.781H1.761V11H.881zm5.597 0V5.545h.81v.824h.057a1.31 1.31 0 0 1 .54-.657 1.59 1.59 0 0 1 .881-.252l.231.004.21.011v.852a2.49 2.49 0 0 0-.195-.032 1.92 1.92 0 0 0-.316-.025c-.265 0-.502.056-.71.167a1.26 1.26 0 0 0-.49.455c-.118.192-.178.411-.178.657V11h-.838zm5.742.114c-.526 0-.979-.116-1.36-.348s-.671-.561-.877-.98-.305-.911-.305-1.47.102-1.051.305-1.477.492-.762.859-1.001.8-.362 1.293-.362c.284 0 .565.047.842.142s.529.249.756.462.408.49.543.838.202.777.202 1.286v.355h-4.205v-.724h3.352c0-.308-.062-.582-.185-.824a1.39 1.39 0 0 0-.518-.572c-.223-.14-.485-.21-.788-.21-.334 0-.623.083-.867.249s-.427.376-.557.639a1.88 1.88 0 0 0-.195.845v.483c0 .412.071.761.213 1.048s.345.501.6.65.553.22.891.22c.22 0 .419-.031.597-.092a1.28 1.28 0 0 0 .465-.284 1.29 1.29 0 0 0 .302-.476l.81.227c-.085.275-.228.516-.43.724s-.45.367-.746.483-.629.17-.998.17zM15.653 11V5.545h.838V11h-.838zm.426-6.364c-.163 0-.304-.056-.423-.167s-.174-.245-.174-.401.058-.29.174-.401.259-.167.423-.167.303.056.419.167a.53.53 0 0 1 .177.401.53.53 0 0 1-.177.401c-.116.111-.256.167-.419.167zm4.049 8.523c-.405 0-.753-.052-1.044-.156s-.534-.237-.728-.405-.344-.343-.458-.533l.668-.469.288.341c.116.13.275.243.476.337s.47.146.799.146c.44 0 .804-.107 1.09-.32s.43-.547.43-1.001V9.991h-.071a4.49 4.49 0 0 1-.263.369 1.49 1.49 0 0 1-.483.387c-.208.111-.49.167-.845.167-.44 0-.836-.104-1.186-.312s-.624-.511-.827-.909-.302-.881-.302-1.449c0-.559.098-1.045.295-1.46s.47-.739.82-.966.755-.344 1.215-.344c.355 0 .637.059.845.178s.372.249.483.398l.263.362h.085v-.866h.81v5.611c0 .469-.107.85-.32 1.143a1.82 1.82 0 0 1-.852.65c-.355.14-.75.21-1.186.21zm-.028-2.997c.336 0 .62-.077.852-.231s.408-.375.529-.664.181-.634.181-1.037c0-.393-.059-.74-.178-1.04s-.294-.536-.526-.707-.518-.256-.859-.256c-.355 0-.651.09-.888.27s-.411.421-.529.724a2.8 2.8 0 0 0-.174 1.009c0 .379.059.714.178 1.005a1.54 1.54 0 0 0 .533.682c.237.163.53.245.881.245zm4.659-2.443V11h-.838V3.727h.838v2.67h.071a1.54 1.54 0 0 1 .575-.671c.258-.168.601-.252 1.03-.252.372 0 .697.075.977.224s.496.373.65.678.234.689.234 1.158V11h-.838V7.591c0-.433-.112-.768-.337-1.005s-.532-.359-.927-.359c-.275 0-.521.058-.739.174a1.27 1.27 0 0 0-.511.508c-.123.223-.185.492-.185.81zM32.1 5.545v.71h-2.827v-.71H32.1zm-2.003-1.307h.838v5.199c0 .237.034.414.103.533s.161.194.27.234.229.057.352.057c.092 0 .168-.005.227-.014l.142-.028.17.753c-.057.021-.136.043-.238.064a1.75 1.75 0 0 1-.387.035c-.237 0-.469-.051-.696-.153a1.38 1.38 0 0 1-.561-.465c-.147-.208-.22-.471-.22-.788V4.239z"/></g></g></g><g transform="translate(60.123 9.59)" class="C"><g><g transform="translate(4.221)"><path transform="translate(33.434)" d="M.582 9.509v-.724l3.196-5.057h.526v1.122h-.355L1.534 8.67v.057h4.304v.781H.582zM4.006 11V9.288v-.337-5.224h.838V11h-.838zm2.893-1.491v-.724l3.196-5.057h.526v1.122h-.355L7.85 8.67v.057h4.304v.781H6.898zM10.322 11V9.288v-.337-5.224h.838V11h-.838z"/></g></g></g><g transform="translate(120.277 9.59)" class="C"><g><g transform="translate(4.221)"><path transform="translate(39.434)" d="M3.068 3.628c.298.002.597.059.895.17a2.18 2.18 0 0 1 .817.554c.246.256.444.605.593 1.048s.224.998.224 1.665c0 .646-.062 1.22-.185 1.722s-.296.921-.526 1.264a2.33 2.33 0 0 1-.831.781c-.324.178-.691.266-1.101.266s-.771-.08-1.09-.241a2.14 2.14 0 0 1-.781-.678c-.201-.291-.33-.629-.387-1.012h.866c.078.334.233.61.465.827s.543.323.927.323c.561 0 1.004-.245 1.328-.735s.49-1.183.49-2.077h-.057a2.23 2.23 0 0 1-.472.515 2.08 2.08 0 0 1-.607.334 2.13 2.13 0 0 1-.71.117 2.21 2.21 0 0 1-1.147-.309c-.346-.208-.623-.494-.831-.856s-.309-.781-.309-1.25c0-.445.099-.852.298-1.222s.483-.668.845-.888.793-.327 1.286-.32zm0 .781a1.49 1.49 0 0 0-.806.224 1.61 1.61 0 0 0-.565.597c-.137.249-.206.524-.206.827a1.73 1.73 0 0 0 .199.827 1.59 1.59 0 0 0 .55.589c.234.144.501.217.799.217a1.51 1.51 0 0 0 .629-.131 1.63 1.63 0 0 0 .508-.366c.147-.156.262-.333.344-.529a1.6 1.6 0 0 0 .124-.621c0-.284-.069-.55-.206-.799s-.322-.45-.561-.604-.507-.231-.81-.231z"/></g></g></g><g id="O" transform="translate(196 9.59)" class="D F"><g><g transform="translate(11.6)"><g><g clip-path="url(#h)" transform="translate(0 3.279)" class="G"><g clip-path="url(#i)" transform="translate(-.221 -.221)"><path transform="translate(1.319 1.319)" d="M2.902 0c.146 0 .264.118.264.264v2.374H5.54c.146 0 .264.118.264.264s-.118.264-.264.264H3.166V5.54c0 .146-.118.264-.264.264s-.264-.118-.264-.264V3.166H.264C.118 3.166 0 3.048 0 2.902s.118-.264.264-.264h2.374V.264c0-.146.118-.264.264-.264z"/></g></g><path transform="translate(9.498)" d="M2.898 11.909V2.818h.582v9.091h-.582zm1.96-6.364c-.043-.36-.215-.639-.518-.838s-.675-.298-1.115-.298a2.12 2.12 0 0 0-.845.156 1.35 1.35 0 0 0-.561.43 1.03 1.03 0 0 0-.199.621c0 .194.046.361.138.501a1.23 1.23 0 0 0 .362.344c.147.09.301.165.462.224l.444.138.739.199a6.44 6.44 0 0 1 .632.206 2.92 2.92 0 0 1 .671.359c.215.149.393.341.533.575s.21.522.21.863c0 .393-.103.748-.309 1.065s-.502.569-.895.756-.865.281-1.424.281c-.521 0-.972-.084-1.353-.252s-.677-.402-.895-.703-.337-.65-.366-1.048h.909c.024.275.116.502.277.682a1.5 1.5 0 0 0 .618.398 2.5 2.5 0 0 0 .81.128c.336 0 .638-.054.906-.163s.479-.265.636-.462.234-.431.234-.696c0-.241-.067-.438-.202-.589s-.312-.275-.533-.369-.458-.178-.714-.249l-.895-.256c-.568-.163-1.018-.397-1.349-.7s-.497-.7-.497-1.19c0-.407.11-.762.33-1.065s.521-.542.895-.71.797-.256 1.261-.256.885.084 1.25.252.653.393.866.682a1.7 1.7 0 0 1 .341.984h-.852zm4.629 5.554c-.469 0-.887-.08-1.254-.241s-.655-.385-.87-.671-.329-.624-.348-1.005h.895c.019.234.099.437.241.607s.328.298.558.391a2.03 2.03 0 0 0 .764.138c.313 0 .59-.054.831-.163s.431-.26.568-.455a1.14 1.14 0 0 0 .206-.675c0-.268-.066-.503-.199-.707s-.327-.367-.582-.483-.568-.174-.937-.174h-.582v-.781h.582c.289 0 .542-.052.76-.156a1.22 1.22 0 0 0 .515-.44 1.18 1.18 0 0 0 .188-.668 1.23 1.23 0 0 0-.163-.643c-.109-.182-.263-.324-.462-.426s-.428-.153-.696-.153c-.251 0-.488.046-.71.138s-.4.221-.54.394-.215.376-.227.618h-.852a1.73 1.73 0 0 1 .344-1.001c.215-.289.497-.514.845-.675a2.73 2.73 0 0 1 1.154-.241c.45 0 .836.091 1.158.273s.569.418.742.714a1.87 1.87 0 0 1 .259.959c0 .41-.108.759-.323 1.048s-.503.489-.87.6v.057c.459.076.818.271 1.076.586s.387.7.387 1.161c0 .395-.108.75-.323 1.065s-.504.559-.874.739-.79.27-1.261.27zm6.367-7.372V11h-.881V4.651h-.043L13.155 5.83v-.895l1.818-1.207h.881zm4.264 7.372c-.417 0-.792-.083-1.126-.248a2.09 2.09 0 0 1-.802-.682c-.201-.289-.311-.618-.33-.987h.852c.033.329.182.601.447.817s.587.32.959.32c.298 0 .564-.07.796-.209a1.48 1.48 0 0 0 .55-.575c.135-.246.202-.524.202-.835 0-.317-.07-.6-.209-.849s-.327-.449-.568-.593-.517-.218-.827-.22c-.223-.002-.451.032-.685.103s-.427.157-.579.266l-.824-.099.44-3.58h3.778v.781h-3.04l-.256 2.145h.043c.149-.118.336-.217.561-.295a2.13 2.13 0 0 1 .703-.117c.445 0 .842.107 1.19.32a2.23 2.23 0 0 1 .824.866c.201.367.302.786.302 1.257a2.46 2.46 0 0 1-.312 1.243c-.206.362-.49.649-.852.859s-.774.313-1.236.313zm4.063-.043c-.175 0-.326-.063-.451-.188s-.188-.276-.188-.451.063-.325.188-.451.276-.188.451-.188.325.063.451.188.188.276.188.451a.6.6 0 0 1-.089.32c-.057.097-.134.175-.231.234a.61.61 0 0 1-.32.085zm4.147.043c-.535 0-.991-.146-1.367-.437s-.664-.718-.863-1.275-.298-1.233-.298-2.024.099-1.457.298-2.014.49-.985.867-1.278.833-.444 1.364-.444.984.148 1.36.444.668.72.867 1.278.302 1.228.302 2.014-.099 1.465-.298 2.024-.486.981-.863 1.275-.832.437-1.367.437zm0-.781c.53 0 .942-.256 1.236-.767s.44-1.241.44-2.187c0-.63-.067-1.166-.203-1.609s-.324-.78-.575-1.012a1.27 1.27 0 0 0-.899-.348c-.525 0-.936.259-1.232.778s-.444 1.246-.444 2.191c0 .63.066 1.165.199 1.605s.323.775.572 1.005.553.344.906.344zm6.15.781c-.535 0-.991-.146-1.367-.437s-.664-.718-.863-1.275-.298-1.233-.298-2.024.099-1.457.298-2.014.49-.985.867-1.278.833-.444 1.364-.444.984.148 1.36.444.668.72.867 1.278.302 1.228.302 2.014-.099 1.465-.298 2.024-.486.981-.863 1.275-.832.437-1.367.437zm0-.781c.53 0 .942-.256 1.236-.767s.44-1.241.44-2.187c0-.63-.068-1.166-.203-1.609s-.324-.78-.575-1.012a1.27 1.27 0 0 0-.899-.348c-.526 0-.936.259-1.232.778s-.444 1.246-.444 2.191c0 .63.066 1.165.199 1.605s.323.775.572 1.005.553.344.905.344z"/></g></g></g></g></g><path d="M259 29.549v-.528H0v.528.528h259v-.528z" mask="url(#N)" class="C H"/></g><g id="P" transform="translate(0 82.315)" class="D"><g clip-path="url(#j)"><mask id="Q" class="B"><path d="M0 0h259v29.549H0V0z"/></mask><path d="M0 0h259v29.549H0V0z" class="B"/><g transform="translate(9.959 9.59)" class="C"><g><g transform="translate(4.221)"><path d="M.651 8V2.627h3.221v.577H1.301V5.02h2.33v.577h-2.33V8H.651zm4.135 0V3.971h.598v.609h.042c.073-.199.206-.361.399-.485s.409-.186.651-.186l.171.003.155.008v.63c-.021-.005-.069-.013-.144-.024a1.42 1.42 0 0 0-.233-.018c-.196 0-.371.041-.525.123a.93.93 0 0 0-.362.336c-.087.142-.131.303-.131.485V8h-.619zm4.241.084c-.388 0-.723-.086-1.005-.257s-.496-.414-.648-.724-.226-.673-.226-1.086.075-.777.226-1.091a1.78 1.78 0 0 1 .635-.74c.273-.178.591-.268.955-.268a1.91 1.91 0 0 1 .622.105 1.54 1.54 0 0 1 .559.341c.168.156.302.362.401.619s.149.574.149.95v.262H7.589V5.66h2.476a1.32 1.32 0 0 0-.136-.609 1.03 1.03 0 0 0-.383-.422c-.164-.103-.359-.155-.582-.155a1.11 1.11 0 0 0-.64.184 1.21 1.21 0 0 0-.412.472c-.096.194-.144.402-.144.624v.357c0 .304.052.562.157.774s.254.37.443.48a1.3 1.3 0 0 0 .658.163 1.34 1.34 0 0 0 .441-.068c.133-.047.247-.117.344-.21s.171-.212.223-.352l.598.168c-.063.203-.169.381-.317.535s-.332.271-.551.357-.464.126-.737.126zM11.563 8V3.971h.619V8h-.619zm.315-4.701a.44.44 0 0 1-.312-.123c-.086-.082-.129-.181-.129-.296s.043-.214.129-.296a.44.44 0 0 1 .312-.123.43.43 0 0 1 .309.123c.088.082.131.181.131.296s-.044.214-.131.296a.43.43 0 0 1-.309.123zm2.991 6.296c-.299 0-.556-.038-.771-.115s-.394-.175-.538-.299-.255-.254-.338-.393l.493-.346a3.89 3.89 0 0 0 .212.252c.086.096.203.179.352.249s.347.108.59.108c.325 0 .594-.079.805-.236s.317-.404.317-.74v-.818h-.053c-.045.073-.11.164-.194.273a1.1 1.1 0 0 1-.357.286c-.154.082-.362.123-.624.123a1.68 1.68 0 0 1-.876-.231 1.62 1.62 0 0 1-.611-.672c-.149-.294-.223-.651-.223-1.07 0-.413.073-.772.218-1.078a1.68 1.68 0 0 1 .606-.714 1.6 1.6 0 0 1 .897-.254c.262 0 .47.044.624.131s.275.184.357.294l.194.268h.063v-.64h.598v4.145c0 .346-.079.628-.236.845s-.366.379-.63.48-.554.155-.876.155zm-.021-2.214c.248 0 .458-.057.63-.171a1.06 1.06 0 0 0 .391-.491c.089-.213.134-.469.134-.766 0-.29-.044-.547-.131-.769s-.217-.396-.388-.522-.383-.189-.635-.189c-.262 0-.481.066-.656.199s-.303.311-.391.535a2.07 2.07 0 0 0-.129.745 1.96 1.96 0 0 0 .131.742c.089.213.22.381.393.504s.392.181.651.181zm3.441-1.805V8h-.619V2.627h.619V4.6h.052a1.14 1.14 0 0 1 .425-.496c.191-.124.444-.186.761-.186.275 0 .515.055.721.165a1.11 1.11 0 0 1 .48.501c.115.224.173.509.173.855V8h-.619V5.482c0-.32-.083-.568-.249-.742s-.393-.265-.685-.265c-.203 0-.385.043-.546.129a.94.94 0 0 0-.378.375 1.22 1.22 0 0 0-.136.598zm5.424-1.605v.525h-2.088v-.525h2.088zm-1.48-.965h.619v3.841c0 .175.025.306.076.393s.119.143.199.173a.8.8 0 0 0 .26.042 1.1 1.1 0 0 0 .168-.01l.105-.021.126.556a1.26 1.26 0 0 1-.176.047c-.075.017-.171.026-.286.026-.175 0-.346-.038-.514-.113a1.02 1.02 0 0 1-.414-.344c-.108-.154-.163-.348-.163-.582V3.005z"/></g></g></g><g transform="translate(60.123 9.59)" class="C"><g><g transform="translate(4.221)"><path transform="translate(36.434)" d="M.43 6.898v-.535l2.361-3.736h.388v.829h-.262L1.133 6.279v.042h3.179v.577H.43zM2.959 8V6.736v-.249-3.859h.619V8h-.619zm2.137-1.102v-.535l2.361-3.736h.388v.829h-.262L5.799 6.279v.042h3.179v.577H5.096zM7.625 8V6.736v-.249-3.859h.619V8h-.619z"/></g></g></g><g transform="translate(120.277 9.59)" class="C"><g><g transform="translate(4.221)"><path transform="translate(41.434)" d="M2.267 2.554c.22.002.441.044.661.126a1.61 1.61 0 0 1 .603.409c.182.189.328.447.438.774s.165.737.165 1.23c0 .477-.045.902-.136 1.272s-.219.68-.388.934a1.72 1.72 0 0 1-.614.577c-.24.131-.511.197-.813.197s-.569-.059-.805-.178A1.58 1.58 0 0 1 .8 7.394C.651 7.179.556 6.93.514 6.646h.64c.058.247.172.45.344.611s.401.239.685.239c.414 0 .742-.181.981-.543s.362-.874.362-1.535h-.042c-.098.147-.214.274-.349.38s-.284.189-.449.247-.339.087-.525.087c-.308 0-.59-.076-.847-.228A1.73 1.73 0 0 1 .7 5.272c-.152-.269-.228-.577-.228-.923 0-.329.073-.63.22-.902s.357-.493.624-.656.586-.241.95-.236zm0 .577a1.1 1.1 0 0 0-.595.165 1.19 1.19 0 0 0-.417.441c-.101.184-.152.387-.152.611a1.28 1.28 0 0 0 .147.611c.1.182.235.327.407.435s.37.16.59.16c.166 0 .321-.032.464-.097s.268-.157.375-.27a1.31 1.31 0 0 0 .254-.391 1.18 1.18 0 0 0 .092-.459 1.2 1.2 0 0 0-.152-.59 1.21 1.21 0 0 0-.414-.446c-.175-.114-.374-.171-.598-.171z"/></g></g></g><g transform="translate(179.904 9.59)" class="F"><g><g transform="translate(21.6)"><g><g clip-path="url(#k)" transform="translate(0 1.279)" class="G"><g clip-path="url(#l)" transform="translate(-.221 -.221)"><path transform="translate(1.319 1.319)" d="M2.902 0c.146 0 .264.118.264.264v2.374H5.54c.146 0 .264.118.264.264s-.118.264-.264.264H3.166V5.54c0 .146-.118.264-.264.264s-.264-.118-.264-.264V3.166H.264C.118 3.166 0 3.048 0 2.902s.118-.264.264-.264h2.374V.264c0-.146.118-.264.264-.264z"/></g></g><path transform="translate(9.498)" d="M2.141 8.672V1.956h.43v6.716h-.43zm1.448-4.701c-.031-.266-.159-.472-.383-.619s-.498-.22-.824-.22c-.238 0-.446.038-.624.115s-.315.183-.414.317a.76.76 0 0 0-.147.459c0 .143.034.267.102.37a.91.91 0 0 0 .268.254c.108.066.222.122.341.165l.328.102.546.147c.14.037.296.087.467.152s.338.153.496.265a1.35 1.35 0 0 1 .394.425c.103.173.155.386.155.637 0 .29-.076.553-.228.787s-.371.421-.661.559-.639.207-1.052.207c-.385 0-.718-.062-.999-.186s-.5-.297-.661-.519-.249-.48-.27-.774h.672a.84.84 0 0 0 .205.504 1.11 1.11 0 0 0 .456.294 1.85 1.85 0 0 0 .598.094 1.76 1.76 0 0 0 .669-.121c.198-.082.354-.196.47-.341s.173-.318.173-.514a.63.63 0 0 0-.15-.435c-.1-.112-.231-.203-.393-.273s-.338-.131-.527-.184l-.661-.189c-.42-.121-.752-.293-.997-.517s-.367-.517-.367-.879c0-.301.081-.563.244-.787a1.62 1.62 0 0 1 .661-.525c.278-.126.588-.189.931-.189s.654.062.923.186.483.29.64.504.243.456.252.727h-.63zm3.42 4.103c-.346 0-.655-.059-.926-.178s-.484-.284-.643-.496-.243-.461-.257-.742h.661a.78.78 0 0 0 .178.449 1.03 1.03 0 0 0 .412.289 1.5 1.5 0 0 0 .564.102 1.48 1.48 0 0 0 .614-.121c.178-.08.318-.192.42-.336a.84.84 0 0 0 .152-.498c0-.198-.049-.372-.147-.522s-.241-.271-.43-.357-.42-.129-.693-.129h-.43v-.577h.43c.213 0 .4-.038.561-.115a.9.9 0 0 0 .38-.325c.093-.14.139-.304.139-.493 0-.182-.04-.34-.121-.475s-.194-.24-.341-.315-.317-.113-.514-.113c-.185 0-.36.034-.525.102s-.296.164-.399.291-.159.278-.168.456h-.63a1.28 1.28 0 0 1 .254-.74 1.6 1.6 0 0 1 .624-.498c.259-.119.543-.178.853-.178.332 0 .617.067.855.202a1.42 1.42 0 0 1 .548.527 1.38 1.38 0 0 1 .191.708c0 .303-.08.561-.239.774a1.21 1.21 0 0 1-.643.443v.042c.339.056.604.2.795.433s.286.517.286.858a1.36 1.36 0 0 1-.239.787 1.62 1.62 0 0 1-.645.546 2.1 2.1 0 0 1-.931.199zm4.703-5.446V8h-.651V3.31h-.031l-1.312.871v-.661l1.343-.892h.651zm3.15 5.446c-.308 0-.585-.061-.832-.184s-.444-.29-.593-.504a1.37 1.37 0 0 1-.244-.729h.63c.024.243.135.444.33.603s.434.236.708.236c.22 0 .416-.052.588-.155s.309-.245.407-.425.15-.387.15-.616c0-.234-.052-.443-.155-.627s-.241-.331-.42-.438-.382-.161-.611-.163a1.68 1.68 0 0 0-.506.076 1.41 1.41 0 0 0-.428.197l-.609-.073.325-2.644h2.791v.577h-2.245l-.189 1.584h.031a1.4 1.4 0 0 1 .415-.218 1.57 1.57 0 0 1 .519-.087 1.65 1.65 0 0 1 1.487.876c.149.271.223.581.223.929 0 .343-.077.649-.231.918s-.362.479-.63.635-.572.231-.913.231zm3.001-.031c-.129 0-.24-.046-.333-.139s-.139-.204-.139-.333.046-.24.139-.333.204-.139.333-.139.241.046.333.139.139.204.139.333c0 .086-.022.164-.066.236a.49.49 0 0 1-.171.173.45.45 0 0 1-.236.063zm3.064.031c-.395 0-.732-.108-1.01-.323s-.491-.531-.637-.942-.22-.911-.22-1.495.073-1.076.22-1.487.362-.728.64-.944.616-.328 1.007-.328.727.109 1.005.328.493.532.64.944.223.907.223 1.487-.073 1.083-.22 1.495-.359.725-.638.942-.615.323-1.01.323zm0-.577c.392 0 .696-.189.913-.567s.325-.916.325-1.616c0-.465-.05-.861-.15-1.188s-.24-.576-.425-.748-.405-.257-.664-.257c-.388 0-.692.192-.91.575s-.328.921-.328 1.619c0 .465.049.86.147 1.186s.239.573.422.742.408.254.669.254zm4.543.577c-.395 0-.732-.108-1.01-.323s-.491-.531-.637-.942-.22-.911-.22-1.495.073-1.076.22-1.487.362-.728.64-.944.616-.328 1.007-.328.727.109 1.005.328.493.532.64.944.223.907.223 1.487-.073 1.083-.22 1.495-.359.725-.637.942-.615.323-1.01.323zm0-.577c.392 0 .696-.189.913-.567s.325-.916.325-1.616c0-.465-.05-.861-.15-1.188s-.24-.576-.425-.748-.405-.257-.664-.257c-.388 0-.692.192-.91.575s-.328.921-.328 1.619c0 .465.049.86.147 1.186s.239.573.422.742.408.254.669.254z"/></g></g></g></g></g><path d="M259 29.549v-.528H0v.528.528h259v-.528z" mask="url(#Q)" class="C H"/></g></g><path d="M4.222.448h250.556c2.084 0 3.774 1.689 3.774 3.773v94.557c0 2.084-1.69 3.774-3.774 3.774H4.222c-2.084 0-3.773-1.69-3.773-3.774V4.222C.448 2.138 2.138.448 4.222.448z" stroke="#10103e" stroke-opacity=".1" class="I"/></g><path transform="translate(0 157)" fill="url(#R)" d="M0 0h284v37H0z"/></g><rect x=".448" y=".448" width="283.509" height="192.701" rx="6.718" stroke="#d6d4e8" class="I"/></g></g><defs><linearGradient id="R" x1="142" y1="0" x2="142" y2="37" gradientUnits="userSpaceOnUse"><stop stop-color="#fff" stop-opacity="0"/><stop offset="1" stop-color="#fff"/></linearGradient><clipPath id="S"><rect width="336" height="256" rx="12" class="B"/></clipPath><clipPath id="T"><rect width="284.405" height="193.597" rx="7.166" class="B"/></clipPath><clipPath id="U"><path d="M0 4.221A4.22 4.22 0 0 1 4.221 0h250.558A4.22 4.22 0 0 1 259 4.221v94.557a4.22 4.22 0 0 1-4.221 4.221H4.221A4.22 4.22 0 0 1 0 98.779V4.221z" class="B"/></clipPath><clipPath id="V"><path d="M0 0h41v17.221H0z" class="B"/></clipPath><clipPath id="W"><path d="M0 2.111A2.11 2.11 0 0 1 2.111 0h36.221a2.11 2.11 0 0 1 2.111 2.111v13a2.11 2.11 0 0 1-2.111 2.111H2.111A2.11 2.11 0 0 1 0 15.111v-13z" class="B"/></clipPath><clipPath id="X"><path d="M0 0h58v17.221H0z" class="B"/></clipPath><clipPath id="Y"><path d="M0 2.111A2.11 2.11 0 0 1 2.111 0h47.221a2.11 2.11 0 0 1 2.111 2.111v13a2.11 2.11 0 0 1-2.111 2.111H2.111A2.11 2.11 0 0 1 0 15.111v-13z" class="B"/></clipPath><clipPath id="Z"><path d="M0 0h54.877v17.221H0z" class="B"/></clipPath><clipPath id="a"><path d="M0 2.111A2.11 2.11 0 0 1 2.111 0h44.221a2.11 2.11 0 0 1 2.111 2.111v13a2.11 2.11 0 0 1-2.111 2.111H2.111A2.11 2.11 0 0 1 0 15.111v-13z" class="B"/></clipPath><clipPath id="b"><path d="M0 0h63.319v17.221H0z" class="B"/></clipPath><clipPath id="c"><path d="M0 2.111A2.11 2.11 0 0 1 2.111 0h44.221a2.11 2.11 0 0 1 2.111 2.111v13a2.11 2.11 0 0 1-2.111 2.111H2.111A2.11 2.11 0 0 1 0 15.111v-13z" class="B"/></clipPath><clipPath id="d"><path d="M0 0h259v29.549H0V0z" class="B"/></clipPath><clipPath id="e"><path d="M0 0h8.443v8.443H0z" class="B"/></clipPath><clipPath id="f"><path d="M0 0h8.443v8.443H0z" class="B"/></clipPath><clipPath id="g"><path d="M0 0h259v29.549H0V0z" class="B"/></clipPath><clipPath id="h"><path d="M0 0h8.443v8.443H0z" class="B"/></clipPath><clipPath id="i"><path d="M0 0h8.443v8.443H0z" class="B"/></clipPath><clipPath id="j"><path d="M0 0h259v29.549H0V0z" class="B"/></clipPath><clipPath id="k"><path d="M0 0h8.443v8.443H0z" class="B"/></clipPath><clipPath id="l"><path d="M0 0h8.443v8.443H0z" class="B"/></clipPath></defs></svg>