<svg xmlns="http://www.w3.org/2000/svg" viewBox="0 0 624 532" preserveAspectRatio="xMidYMid meet" fill="none" width="100%" height="auto" xmlns:v="https://vecta.io/nano"><style><![CDATA[#A{transform-origin:0 0;animation:kf_Frame_2147224935_transform_0 2s linear 1 forwards, kf_Frame_2147224935_opacity_0 2s linear 1 forwards}#C{transform-origin:0 0;animation:kf_service-row_transform_0 2s linear 1 forwards, kf_service-row_opacity_0 2s linear 1 forwards}#E{transform-origin:0 0;animation:kf_service-row_2_transform_0 2s linear 1 forwards, kf_service-row_2_opacity_0 2s linear 1 forwards}#G{transform-origin:0 0;animation:kf_service-row_3_transform_0 2s linear 1 forwards, kf_service-row_3_opacity_0 2s linear 1 forwards}@keyframes kf_Frame_2147224935_transform_0{0%{animation-timing-function:ease-out;transform:translateY(74px) translateX(0px) translateY(15px)}12.11%{transform:translateY(74px) translateX(0px) translateY(0px)}100%{transform:translateY(74px) translateX(0px) translateY(0px)}} @keyframes kf_Frame_2147224935_opacity_0{0%{animation-timing-function:cubic-bezier(0.5, 0, 0.5, 1);opacity:0}12.11%{animation-timing-function:linear;opacity:1}100%{opacity:1}} @keyframes kf_service-row_transform_0{0%{transform:translateY(154px) translateX(0px) translateY(13px)}12.11%{animation-timing-function:ease-out;transform:translateY(154px) translateX(0px) translateY(13px)}24.33%{transform:translateY(154px) translateX(0px) translateY(0px)}100%{transform:translateY(154px) translateX(0px) translateY(0px)}} @keyframes kf_service-row_opacity_0{0%{animation-timing-function:linear;opacity:0}12.11%{animation-timing-function:cubic-bezier(0.5, 0, 0.5, 1);opacity:0}24.33%{animation-timing-function:linear;opacity:1}100%{opacity:1}} @keyframes kf_service-row_2_transform_0{0%{transform:translateY(236px) translateX(0px) translateY(24px)}24.33%{animation-timing-function:ease-out;transform:translateY(236px) translateX(0px) translateY(24px)}36.35%{transform:translateY(236px) translateX(0px) translateY(0px)}100%{transform:translateY(236px) translateX(0px) translateY(0px)}} @keyframes kf_service-row_2_opacity_0{0%{animation-timing-function:linear;opacity:0}24.33%{animation-timing-function:cubic-bezier(0.5, 0, 0.5, 1);opacity:0}36.35%{animation-timing-function:linear;opacity:1}100%{opacity:1}} @keyframes kf_service-row_3_transform_0{0%{transform:translateY(318px) translateX(0px) translateY(21px)}36.35%{animation-timing-function:ease-out;transform:translateY(318px) translateX(0px) translateY(21px)}48.36%{transform:translateY(318px) translateX(0px) translateY(0px)}100%{transform:translateY(318px) translateX(0px) translateY(0px)}} @keyframes kf_service-row_3_opacity_0{0%{animation-timing-function:linear;opacity:0}36.35%{animation-timing-function:cubic-bezier(0.5, 0, 0.5, 1);opacity:0}48.36%{animation-timing-function:linear;opacity:1}100%{opacity:1}}.B{fill:#10103e}.C{fill:#fff}.D{fill-opacity:.1}.E{fill:#fbd8d6}.F{fill:#aa261b}]]></style><g clip-path="url(#J)"><g transform="translate(64 76)"><g clip-path="url(#K)"><rect width="496" height="380" rx="8" class="C"/><g fill="#61608b"><path d="M30.752 34.857a1.67 1.67 0 0 0-.778-1.257c-.455-.298-1.012-.447-1.673-.447-.483 0-.906.078-1.268.234s-.639.371-.842.645-.298.584-.298.932a1.33 1.33 0 0 0 .208.751 1.85 1.85 0 0 0 .543.517c.22.139.451.247.692.336l.666.208 1.108.298a9.89 9.89 0 0 1 .948.309 4.38 4.38 0 0 1 1.007.538 2.74 2.74 0 0 1 .799.863c.21.351.314.783.314 1.294a2.87 2.87 0 0 1-.463 1.598c-.305.476-.753.854-1.342 1.135s-1.298.421-2.136.421c-.781 0-1.458-.126-2.029-.378s-1.016-.604-1.342-1.055-.506-.975-.549-1.571h1.364c.036.412.174.753.415 1.023a2.25 2.25 0 0 0 .927.597 3.75 3.75 0 0 0 1.214.192 3.58 3.58 0 0 0 1.358-.245 2.3 2.3 0 0 0 .953-.692 1.64 1.64 0 0 0 .352-1.044c0-.362-.101-.657-.304-.884s-.469-.412-.799-.554a8.44 8.44 0 0 0-1.071-.373l-1.342-.384c-.852-.245-1.527-.595-2.024-1.049s-.746-1.049-.746-1.784c0-.611.165-1.143.495-1.598a3.29 3.29 0 0 1 1.342-1.065c.565-.256 1.195-.384 1.891-.384.703 0 1.328.126 1.875.378s.98.589 1.3 1.023.494.925.511 1.476H30.75zm6.709 8.352c-.788 0-1.468-.174-2.04-.522s-1.007-.842-1.316-1.47-.458-1.367-.458-2.205.153-1.577.458-2.216.739-1.143 1.289-1.502 1.2-.543 1.939-.543a3.88 3.88 0 0 1 1.262.213c.416.142.794.373 1.135.692s.612.735.815 1.257.304 1.165.304 1.928v.533h-6.307v-1.087h5.028c0-.462-.092-.874-.277-1.236s-.44-.648-.778-.858-.728-.314-1.183-.314c-.501 0-.934.124-1.3.373a2.45 2.45 0 0 0-.836.959 2.82 2.82 0 0 0-.293 1.268v.725c0 .618.106 1.142.32 1.571s.517.751.9.975.829.33 1.337.33a2.72 2.72 0 0 0 .895-.139c.27-.096.503-.238.698-.426s.346-.43.453-.714l1.214.341a2.69 2.69 0 0 1-.645 1.087 3.14 3.14 0 0 1-1.119.725 4.15 4.15 0 0 1-1.497.256zm5.15-.17v-8.182h1.215v1.236h.085a1.96 1.96 0 0 1 .81-.985c.391-.252.831-.378 1.321-.378l.346.005.314.016v1.278c-.043-.011-.14-.027-.293-.048a2.89 2.89 0 0 0-.474-.037c-.398 0-.753.084-1.065.25s-.554.391-.735.682-.266.616-.266.985v5.178h-1.257zm12.37-8.182l-3.026 8.182h-1.278l-3.026-8.182h1.364l2.258 6.52h.085l2.258-6.52h1.364zm1.509 8.182v-8.182h1.257v8.182H56.49zm.639-9.545c-.245 0-.456-.083-.634-.25a.79.79 0 0 1-.261-.602c0-.234.087-.435.261-.602s.389-.25.634-.25.454.083.629.25.266.368.266.602a.8.8 0 0 1-.266.602.88.88 0 0 1-.629.25zm6.094 9.716c-.767 0-1.428-.181-1.981-.543a3.54 3.54 0 0 1-1.279-1.497c-.298-.636-.447-1.362-.447-2.179 0-.831.153-1.564.458-2.2s.739-1.138 1.289-1.497 1.2-.543 1.939-.543a3.67 3.67 0 0 1 1.555.32 2.98 2.98 0 0 1 1.135.895 2.79 2.79 0 0 1 .549 1.342h-1.257c-.096-.373-.309-.703-.639-.991s-.767-.437-1.321-.437c-.49 0-.92.128-1.289.383s-.652.609-.858 1.071-.304.996-.304 1.614c0 .632.099 1.183.298 1.651s.486.833.852 1.092.802.389 1.3.389a2.25 2.25 0 0 0 .889-.17c.266-.113.492-.277.677-.49s.316-.469.394-.767h1.257c-.071.483-.247.918-.527 1.305s-.645.689-1.103.916-.984.336-1.587.336zm8.335 0c-.788 0-1.468-.174-2.04-.522s-1.007-.842-1.316-1.47-.458-1.367-.458-2.205.153-1.577.458-2.216.739-1.143 1.289-1.502 1.2-.543 1.939-.543a3.88 3.88 0 0 1 1.262.213 3.14 3.14 0 0 1 1.135.692c.341.319.613.735.815 1.257s.304 1.165.304 1.928v.533h-6.307v-1.087h5.028c0-.462-.092-.874-.277-1.236s-.44-.648-.778-.858-.728-.314-1.183-.314c-.501 0-.934.124-1.3.373a2.45 2.45 0 0 0-.836.959A2.82 2.82 0 0 0 69 38.48v.725c0 .618.106 1.142.32 1.571s.517.751.9.975.829.33 1.337.33a2.72 2.72 0 0 0 .895-.139c.27-.096.502-.238.698-.426s.346-.43.453-.714l1.215.341a2.7 2.7 0 0 1-.645 1.087 3.14 3.14 0 0 1-1.119.725 4.15 4.15 0 0 1-1.497.256zm116.43.157V32.458h6.584v1.172h-5.263v3.686h4.922v1.172h-4.922v3.707h5.348v1.172h-6.669zm9.582-8.182l1.96 3.345 1.96-3.345h1.449l-2.642 4.091 2.642 4.091h-1.449l-1.96-3.175-1.96 3.175h-1.449l2.599-4.091-2.599-4.091h1.449zm7.013 11.25v-11.25h1.215v1.3h.149l.384-.543c.167-.224.405-.423.714-.597s.735-.266 1.268-.266c.689 0 1.296.172 1.822.517s.936.833 1.231 1.465.442 1.378.442 2.237c0 .866-.147 1.617-.442 2.253s-.703 1.122-1.225 1.47-1.124.517-1.806.517c-.526 0-.946-.087-1.262-.261s-.559-.378-.73-.602l-.394-.565h-.106v4.325h-1.257zm1.236-7.159c0 .618.09 1.163.272 1.635s.446.836.794 1.103.774.394 1.278.394c.526 0 .964-.139 1.316-.416s.621-.657.799-1.129.272-1.005.272-1.587c0-.575-.089-1.094-.266-1.555s-.439-.833-.794-1.103-.794-.41-1.326-.41c-.511 0-.941.13-1.289.389s-.611.614-.788 1.076-.266.992-.266 1.603zm11.185 4.261c-.788 0-1.468-.174-2.04-.522s-1.007-.842-1.316-1.47-.458-1.367-.458-2.205.153-1.577.458-2.216.739-1.143 1.289-1.502 1.2-.543 1.939-.543a3.88 3.88 0 0 1 1.262.213c.416.142.794.373 1.135.692s.613.735.815 1.257.304 1.165.304 1.928v.533h-6.307v-1.087h5.028c0-.462-.092-.874-.277-1.236s-.44-.648-.778-.858-.728-.314-1.182-.314c-.501 0-.934.124-1.3.373a2.45 2.45 0 0 0-.836.959 2.82 2.82 0 0 0-.293 1.268v.725c0 .618.106 1.142.32 1.571s.517.751.9.975.829.33 1.337.33a2.72 2.72 0 0 0 .895-.139c.27-.096.502-.238.698-.426s.346-.43.453-.714l1.215.341a2.7 2.7 0 0 1-.645 1.087 3.14 3.14 0 0 1-1.119.725 4.15 4.15 0 0 1-1.497.256zm8.474 0c-.767 0-1.428-.181-1.982-.543a3.54 3.54 0 0 1-1.278-1.497c-.298-.636-.447-1.362-.447-2.179 0-.831.153-1.564.458-2.2s.739-1.138 1.289-1.497 1.2-.543 1.939-.543c.575 0 1.094.107 1.555.32a2.98 2.98 0 0 1 1.135.895 2.79 2.79 0 0 1 .549 1.342h-1.257c-.096-.373-.309-.703-.639-.991s-.767-.437-1.321-.437c-.49 0-.92.128-1.289.383s-.652.609-.858 1.071-.304.996-.304 1.614c0 .632.099 1.183.298 1.651a2.51 2.51 0 0 0 .852 1.092c.365.259.803.389 1.3.389a2.25 2.25 0 0 0 .889-.17c.266-.113.492-.277.677-.49s.316-.469.394-.767h1.257a2.91 2.91 0 0 1-.527 1.305c-.277.383-.644.689-1.103.916s-.984.336-1.587.336zm8.463-8.352v1.065h-4.24v-1.065h4.24zm-3.004-1.96h1.257v7.798c0 .355.052.621.155.799a.8.8 0 0 0 .405.352 1.62 1.62 0 0 0 .527.085 2.23 2.23 0 0 0 .341-.021l.213-.043.256 1.129a2.57 2.57 0 0 1-.357.096c-.153.035-.346.053-.581.053a2.53 2.53 0 0 1-1.044-.229c-.337-.153-.618-.385-.842-.698s-.33-.707-.33-1.183v-8.139zm8.088 10.313c-.788 0-1.468-.174-2.04-.522s-1.007-.842-1.316-1.47-.458-1.367-.458-2.205.153-1.577.458-2.216.739-1.143 1.289-1.502 1.2-.543 1.939-.543a3.88 3.88 0 0 1 1.262.213c.416.142.794.373 1.135.692s.613.735.815 1.257.304 1.165.304 1.928v.533h-6.307v-1.087h5.028c0-.462-.092-.874-.277-1.236s-.44-.648-.778-.858-.728-.314-1.182-.314c-.501 0-.934.124-1.3.373a2.45 2.45 0 0 0-.836.959 2.82 2.82 0 0 0-.293 1.268v.725c0 .618.107 1.142.32 1.571a2.27 2.27 0 0 0 .9.975c.383.224.829.33 1.337.33a2.72 2.72 0 0 0 .895-.139c.27-.096.502-.238.698-.426s.346-.43.453-.714l1.214.341a2.7 2.7 0 0 1-.645 1.087 3.14 3.14 0 0 1-1.119.725 4.15 4.15 0 0 1-1.497.256zm8.24 0c-.682 0-1.284-.172-1.806-.517s-.93-.838-1.225-1.47-.442-1.387-.442-2.253c0-.859.147-1.605.442-2.237s.705-1.12 1.23-1.465 1.133-.517 1.822-.517c.533 0 .954.089 1.262.266s.55.373.714.597l.389.543h.107v-4.027h1.257v10.909H249.8V42.11h-.149a8.06 8.06 0 0 1-.394.565c-.171.224-.414.424-.73.602s-.737.261-1.262.261zm.17-1.129c.504 0 .93-.131 1.278-.394s.613-.634.794-1.103.272-1.017.272-1.635c0-.611-.089-1.145-.266-1.603s-.44-.82-.788-1.076-.778-.389-1.289-.389c-.533 0-.976.137-1.332.41s-.616.637-.794 1.103-.261.98-.261 1.555c0 .582.089 1.111.266 1.587s.447.849.799 1.129.796.416 1.321.416zM381.908 32.13v10.909h-1.321V32.13h1.321zm3.585 5.987v4.922h-1.257v-8.182h1.214v1.278h.107c.192-.415.483-.749.874-1.001s.895-.384 1.513-.384c.554 0 1.039.114 1.454.341a2.31 2.31 0 0 1 .969 1.023c.23.458.346 1.03.346 1.726v5.199h-1.257v-5.114c0-.643-.167-1.143-.501-1.502s-.792-.543-1.374-.543c-.401 0-.76.087-1.076.261s-.559.428-.74.762-.272.739-.272 1.214zm13.765-3.26l-3.026 8.182h-1.278l-3.026-8.182h1.364l2.258 6.52h.085l2.259-6.52h1.364zm4.54 8.352c-.739 0-1.387-.176-1.944-.527s-.987-.843-1.3-1.476-.463-1.371-.463-2.216c0-.852.154-1.596.463-2.232s.746-1.129 1.3-1.481 1.206-.527 1.944-.527 1.385.176 1.939.527.991.845 1.3 1.481.469 1.38.469 2.232c0 .845-.156 1.584-.469 2.216s-.742 1.124-1.3 1.476-1.2.527-1.939.527zm0-1.129c.561 0 1.023-.144 1.385-.431a2.54 2.54 0 0 0 .804-1.135c.174-.469.261-.977.261-1.523s-.087-1.056-.261-1.529-.442-.854-.804-1.145-.824-.437-1.385-.437-1.023.146-1.385.437-.63.673-.804 1.145-.261.982-.261 1.529.087 1.055.261 1.523.442.847.804 1.135.824.431 1.385.431zm5.476.959v-8.182h1.257v8.182h-1.257zm.639-9.545c-.245 0-.456-.083-.634-.25a.79.79 0 0 1-.261-.602c0-.234.087-.435.261-.602s.389-.25.634-.25.454.083.628.25a.81.81 0 0 1 .266.602.8.8 0 0 1-.266.602.88.88 0 0 1-.628.25zm6.094 9.716c-.767 0-1.428-.181-1.982-.543a3.54 3.54 0 0 1-1.278-1.497c-.298-.636-.447-1.362-.447-2.179 0-.831.153-1.564.458-2.2a3.62 3.62 0 0 1 1.289-1.497c.554-.362 1.2-.543 1.939-.543.575 0 1.094.107 1.555.32a2.98 2.98 0 0 1 1.135.895 2.79 2.79 0 0 1 .549 1.342h-1.257c-.096-.373-.309-.703-.639-.991s-.767-.437-1.321-.437c-.49 0-.92.128-1.289.383s-.652.609-.858 1.071-.304.996-.304 1.614c0 .632.099 1.183.298 1.651a2.51 2.51 0 0 0 .852 1.092c.365.259.803.389 1.3.389a2.26 2.26 0 0 0 .89-.17c.267-.113.492-.277.677-.49a1.88 1.88 0 0 0 .394-.767h1.257c-.071.483-.247.918-.527 1.305a2.93 2.93 0 0 1-1.103.916c-.459.227-.984.336-1.587.336zm8.335 0c-.788 0-1.468-.174-2.04-.522s-1.007-.842-1.316-1.47-.458-1.367-.458-2.205.153-1.577.458-2.216.739-1.143 1.289-1.502 1.2-.543 1.939-.543a3.88 3.88 0 0 1 1.262.213c.416.142.794.373 1.135.692s.613.735.815 1.257.304 1.165.304 1.928v.533h-6.307v-1.087h5.028c0-.462-.092-.874-.277-1.236s-.44-.648-.778-.858-.728-.314-1.183-.314c-.501 0-.934.124-1.3.373a2.45 2.45 0 0 0-.836.959 2.82 2.82 0 0 0-.293 1.268v.725c0 .618.107 1.142.32 1.571a2.27 2.27 0 0 0 .9.975c.383.224.829.33 1.337.33a2.72 2.72 0 0 0 .895-.139c.27-.096.502-.238.698-.426s.346-.43.453-.714l1.214.341c-.128.412-.343.774-.644 1.087s-.675.55-1.119.725a4.15 4.15 0 0 1-1.497.256zm8.24 0c-.682 0-1.284-.172-1.806-.517s-.93-.838-1.225-1.47-.442-1.387-.442-2.253c0-.859.147-1.605.442-2.237s.705-1.12 1.231-1.465 1.133-.517 1.822-.517c.533 0 .954.089 1.262.266s.55.373.714.597l.389.543h.107V32.13h1.257v10.909h-1.214v-1.257h-.149a8.3 8.3 0 0 1-.394.565c-.17.228-.414.424-.73.602s-.737.261-1.262.261zm.171-1.129c.504 0 .93-.131 1.278-.394s.613-.634.794-1.103.272-1.017.272-1.635c0-.611-.089-1.145-.266-1.603s-.44-.82-.788-1.076-.778-.389-1.289-.389c-.533 0-.977.137-1.332.41s-.616.637-.794 1.103-.261.98-.261 1.555c0 .582.089 1.111.266 1.587s.447.849.799 1.129.796.416 1.321.416z"/></g><g id="A" transform="translate(0 74)"><mask id="B" class="C"><path d="M0 0H496V80H0V0Z"/></mask><path d="M0 0v1h496V0-1H0v1z" mask="url(#B)" class="B D"/><path transform="translate(24 28)" d="M1.497 19V6.636H5.82c.861 0 1.572.149 2.131.447s.976.69 1.25 1.189.411 1.044.411 1.648c0 .531-.095.97-.284 1.316s-.431.62-.737.821a3.35 3.35 0 0 1-.984.447v.121c.378.024.759.157 1.141.398s.702.588.96 1.038.386 1.002.386 1.654a3.32 3.32 0 0 1-.423 1.672c-.282.495-.726.887-1.334 1.177S6.938 19 5.964 19H1.497zm1.497-1.328h2.97c.978 0 1.672-.189 2.083-.568s.622-.845.622-1.388c0-.419-.107-.805-.32-1.159s-.517-.644-.912-.857-.861-.326-1.401-.326H2.994v4.298zm0-5.602h2.777a2.74 2.74 0 0 0 1.219-.266c.366-.177.656-.427.869-.749a1.98 1.98 0 0 0 .326-1.135 1.88 1.88 0 0 0-.567-1.382c-.378-.382-.978-.574-1.799-.574H2.994v4.105zm11.925 7.148c-.588 0-1.121-.111-1.6-.332s-.859-.549-1.141-.972-.422-.942-.422-1.546c0-.531.105-.962.314-1.292s.489-.596.839-.785a4.41 4.41 0 0 1 1.159-.423l1.286-.229 1.37-.163c.354-.04.612-.107.773-.199s.247-.254.247-.483v-.048c0-.596-.163-1.058-.489-1.388s-.811-.495-1.467-.495c-.68 0-1.213.149-1.6.447s-.658.616-.815.954l-1.352-.483c.242-.563.563-1.002.966-1.316a3.62 3.62 0 0 1 1.328-.664c.483-.129.958-.193 1.425-.193.298 0 .64.036 1.026.109s.767.211 1.129.429.67.545.912.984.362 1.026.362 1.763V19h-1.425v-1.256h-.072c-.097.201-.258.417-.483.646s-.525.425-.899.586-.831.241-1.37.241zm.217-1.28c.564 0 1.038-.111 1.425-.332a2.26 2.26 0 0 0 .881-.857c.201-.35.302-.718.302-1.105V14.34c-.06.072-.193.139-.398.199s-.435.107-.7.151l-.767.109-.598.072a5.44 5.44 0 0 0-1.038.236 1.79 1.79 0 0 0-.773.477c-.193.209-.29.495-.29.857 0 .495.183.869.549 1.123s.839.374 1.407.374zm13.031-6.133l-1.28.362c-.081-.213-.199-.421-.356-.622s-.362-.374-.628-.507-.606-.199-1.02-.199c-.568 0-1.04.131-1.419.392s-.561.586-.561.984c0 .354.129.634.386.839s.66.376 1.207.513l1.377.338c.829.201 1.447.509 1.853.924s.61.94.61 1.588c0 .531-.153 1.006-.459 1.425s-.724.749-1.268.99-1.175.362-1.896.362c-.946 0-1.729-.205-2.348-.616s-1.012-1.01-1.177-1.799l1.352-.338c.129.499.372.873.73 1.123s.835.374 1.419.374c.664 0 1.191-.141 1.582-.423s.592-.628.592-1.026c0-.322-.113-.592-.338-.809s-.572-.386-1.038-.495l-1.546-.362c-.849-.201-1.473-.513-1.871-.936s-.592-.96-.592-1.6c0-.523.147-.986.441-1.388s.702-.718 1.213-.948 1.099-.344 1.751-.344c.918 0 1.638.201 2.161.604s.901.934 1.123 1.594zm6.031 7.389c-.893 0-1.664-.197-2.312-.592s-1.141-.954-1.491-1.666-.519-1.55-.519-2.499.173-1.787.519-2.511.837-1.296 1.461-1.702 1.36-.616 2.197-.616c.483 0 .96.081 1.431.241s.9.423 1.286.785.694.833.924 1.425.344 1.32.344 2.185v.604h-7.148v-1.232h5.699a3.04 3.04 0 0 0-.314-1.401c-.205-.41-.499-.734-.881-.972s-.825-.356-1.34-.356c-.567 0-1.058.141-1.473.422a2.78 2.78 0 0 0-.948 1.087c-.221.447-.332.926-.332 1.437v.821c0 .7.121 1.294.362 1.781s.586.851 1.02 1.105.94.374 1.515.374c.374 0 .712-.052 1.014-.157a2.17 2.17 0 0 0 .791-.483c.221-.217.392-.487.513-.809l1.376.386a3.05 3.05 0 0 1-.73 1.232c-.342.35-.765.624-1.268.821s-1.069.29-1.696.29zM44.841 19V6.636h7.413v1.328h-5.916v4.178h5.361v1.328h-5.361V19h-1.497zm9.515 0V9.727h1.376v1.401h.097c.169-.459.475-.831.918-1.117a2.7 2.7 0 0 1 1.497-.429l.392.006.356.018v1.449c-.048-.012-.159-.03-.332-.054s-.348-.042-.537-.042c-.451 0-.853.095-1.207.284a2.14 2.14 0 0 0-.833.773c-.201.326-.302.698-.302 1.117V19h-1.425zm9.761.193c-.893 0-1.664-.197-2.312-.592a3.97 3.97 0 0 1-1.491-1.666c-.346-.716-.519-1.55-.519-2.499s.173-1.787.519-2.511.837-1.296 1.461-1.702 1.36-.616 2.197-.616c.483 0 .96.081 1.431.241s.9.423 1.286.785.694.833.924 1.425.344 1.32.344 2.185v.604h-7.148v-1.232h5.699a3.04 3.04 0 0 0-.314-1.401c-.205-.41-.499-.734-.881-.972s-.825-.356-1.34-.356c-.567 0-1.058.141-1.473.422a2.78 2.78 0 0 0-.948 1.087c-.221.447-.332.926-.332 1.437v.821c0 .7.121 1.294.362 1.781s.586.851 1.02 1.105.94.374 1.515.374c.374 0 .712-.052 1.014-.157a2.17 2.17 0 0 0 .791-.483c.221-.217.392-.487.513-.809l1.376.386c-.145.467-.388.877-.73 1.232s-.765.624-1.268.821-1.069.29-1.696.29zM69.953 19V9.727h1.425V19h-1.425zm.724-10.818a1.01 1.01 0 0 1-.718-.284.91.91 0 0 1-.296-.682.91.91 0 0 1 .296-.682 1.01 1.01 0 0 1 .718-.284.99.99 0 0 1 .712.284c.201.189.302.417.302.682s-.101.493-.302.682a.99.99 0 0 1-.712.284zm6.883 14.489c-.688 0-1.28-.089-1.775-.266s-.908-.402-1.238-.688-.586-.584-.779-.905l1.135-.797c.129.169.292.362.489.58s.467.412.809.573.799.247 1.358.247c.749 0 1.366-.181 1.853-.543s.73-.93.73-1.702v-1.884h-.121c-.105.169-.254.378-.447.628s-.463.465-.821.658-.833.284-1.437.284a3.87 3.87 0 0 1-2.016-.531c-.592-.354-1.061-.869-1.407-1.545s-.513-1.497-.513-2.463c0-.95.167-1.777.501-2.481s.799-1.256 1.395-1.642 1.284-.586 2.065-.586c.604 0 1.083.101 1.437.302s.632.423.821.676l.447.616h.145V9.727h1.376v9.538c0 .797-.181 1.445-.543 1.944s-.841.871-1.449 1.105-1.276.356-2.016.356zm-.048-5.095c.572 0 1.055-.131 1.449-.392s.694-.638.899-1.129.308-1.079.308-1.763c0-.668-.101-1.258-.302-1.769s-.499-.912-.894-1.201-.881-.435-1.461-.435c-.604 0-1.107.153-1.509.459s-.698.716-.9 1.232-.296 1.087-.296 1.714c0 .644.101 1.213.302 1.708s.507.877.905 1.159.901.417 1.497.417zm7.919-4.153V19h-1.425V6.636h1.425v4.54h.121a2.62 2.62 0 0 1 .978-1.141c.439-.286 1.022-.429 1.751-.429.632 0 1.185.127 1.66.38s.843.634 1.105 1.153.398 1.171.398 1.968V19h-1.425v-5.796c0-.736-.191-1.306-.573-1.708s-.903-.61-1.576-.61c-.467 0-.886.099-1.256.296a2.16 2.16 0 0 0-.869.863c-.209.378-.314.837-.314 1.376zm12.482-3.695v1.207h-4.805V9.727h4.805zm-3.405-2.222h1.425v8.838c0 .402.058.704.175.906s.274.33.459.398a1.84 1.84 0 0 0 .598.097c.157 0 .286-.008.386-.024l.241-.048.29 1.28c-.097.036-.231.072-.404.109s-.392.06-.658.06a2.87 2.87 0 0 1-1.183-.259 2.35 2.35 0 0 1-.954-.791c-.249-.354-.374-.801-.374-1.34V7.506z" class="B"/><path transform="translate(188 28)" d="M4.926 20.546V5.091h.99v15.455h-.99zM8.259 9.727c-.072-.612-.366-1.087-.881-1.425s-1.147-.507-1.896-.507c-.547 0-1.026.089-1.437.266s-.724.421-.954.73a1.75 1.75 0 0 0-.338 1.056c0 .33.078.614.235.851a2.09 2.09 0 0 0 .616.586 4.41 4.41 0 0 0 .785.38l.755.236 1.256.338c.322.085.68.201 1.075.35a4.96 4.96 0 0 1 1.141.61c.366.254.668.58.906.978s.356.887.356 1.467c0 .668-.175 1.272-.525 1.811s-.853.968-1.521 1.286-1.471.477-2.421.477c-.885 0-1.652-.143-2.3-.429s-1.151-.684-1.521-1.195a3.41 3.41 0 0 1-.622-1.781h1.545c.04.467.197.853.471 1.159a2.55 2.55 0 0 0 1.05.676c.427.145.885.217 1.376.217.572 0 1.085-.093 1.539-.278s.815-.451 1.081-.785a1.86 1.86 0 0 0 .398-1.183c0-.411-.115-.745-.344-1.002s-.531-.467-.906-.628-.779-.302-1.213-.422l-1.521-.435c-.966-.278-1.731-.674-2.294-1.189s-.845-1.189-.845-2.022c0-.692.187-1.296.561-1.811s.885-.922 1.521-1.207 1.354-.435 2.143-.435c.797 0 1.505.143 2.125.429s1.111.668 1.473 1.159.559 1.048.58 1.672H8.259zm8.039-3.091V19H14.8V8.206h-.072l-3.018 2.004V8.689L14.8 6.636h1.497zm7.732 0V19h-1.497V8.206h-.072l-3.018 2.004V8.689l3.091-2.053h1.497zm7.346 12.533c-.829 0-1.562-.147-2.197-.441s-1.125-.706-1.479-1.226-.529-1.119-.525-1.787c-.004-.523.099-1.006.308-1.449s.495-.819.857-1.117.775-.493 1.226-.573v-.072c-.592-.153-1.062-.485-1.413-.996s-.523-1.101-.519-1.757c-.004-.628.155-1.189.477-1.684s.765-.885 1.328-1.171 1.213-.429 1.938-.429c.716 0 1.356.143 1.92.429s1.006.676 1.328 1.171a3.03 3.03 0 0 1 .495 1.684c-.004.656-.183 1.242-.537 1.757s-.815.843-1.395.996v.072c.447.08.849.272 1.207.573a3.25 3.25 0 0 1 .857 1.117c.213.443.322.926.326 1.449-.004.668-.185 1.264-.543 1.787s-.847.928-1.479 1.226-1.354.441-2.179.441zm0-1.328c.559 0 1.042-.091 1.449-.272s.72-.437.942-.767.334-.716.338-1.159c-.004-.467-.125-.879-.362-1.238s-.561-.64-.972-.845-.871-.308-1.395-.308-.998.103-1.413.308-.735.487-.972.845-.348.771-.344 1.238c-.004.443.103.829.32 1.159s.537.585.948.767.898.272 1.461.272zm0-5.868c.443 0 .835-.089 1.177-.266a2.02 2.02 0 0 0 .815-.743c.197-.318.298-.69.302-1.117-.004-.419-.103-.783-.296-1.093a1.92 1.92 0 0 0-.803-.724c-.342-.173-.741-.26-1.195-.26-.463 0-.867.087-1.213.26s-.614.411-.803.724-.282.674-.278 1.093c-.004.427.091.799.284 1.117a2.02 2.02 0 0 0 .815.743c.346.177.745.266 1.195.266zm8.113 5.337l-.097.652a13.14 13.14 0 0 1-.314 1.473l-.429 1.479-.368 1.105h-1.087l.205-1.02.253-1.419.217-1.594.072-.676h1.545zm2.156-.845v-1.232l5.433-8.597h.894v1.908h-.604l-4.105 6.496v.097h7.317v1.328h-8.935zM47.464 19v-2.91-.573-8.88h1.425V19h-1.425zm5.207 0v-1.087l4.081-4.467 1.183-1.364c.31-.39.539-.757.688-1.099a2.66 2.66 0 0 0 .229-1.087c0-.435-.105-.811-.314-1.129s-.487-.563-.845-.737a2.74 2.74 0 0 0-1.207-.26c-.475 0-.889.099-1.244.296s-.622.465-.815.815-.284.761-.284 1.232h-1.425c0-.724.167-1.36.501-1.908a3.48 3.48 0 0 1 1.364-1.28c.58-.306 1.23-.459 1.95-.459s1.366.153 1.926.459a3.45 3.45 0 0 1 1.316 1.238 3.25 3.25 0 0 1 .477 1.733 3.73 3.73 0 0 1-.248 1.334c-.161.431-.443.912-.845 1.443s-.952 1.171-1.66 1.932l-2.777 2.97v.097h5.747V19h-7.8zm14.156.169c-.91 0-1.684-.247-2.324-.742s-1.129-1.222-1.467-2.167-.507-2.097-.507-3.441c0-1.336.169-2.477.507-3.423s.833-1.674 1.473-2.173 1.417-.755 2.318-.755 1.672.252 2.312.755 1.135 1.223 1.473 2.173.513 2.087.513 3.423c0 1.344-.169 2.491-.507 3.441s-.827 1.668-1.467 2.167-1.415.742-2.324.742zm0-1.328c.901 0 1.602-.435 2.101-1.304s.749-2.109.749-3.719c0-1.071-.115-1.982-.344-2.735s-.551-1.326-.978-1.721-.932-.592-1.527-.592c-.894 0-1.592.441-2.095 1.322s-.755 2.119-.755 3.725c0 1.071.113 1.98.338 2.729s.549 1.318.972 1.708a2.2 2.2 0 0 0 1.539.586z" class="B"/><g transform="translate(311 29.5)"><g transform="translate(1.5)"><g clip-path="url(#L)"><rect width="28" height="22" rx="5.867" class="E"/><path transform="translate(9.64 6.017)" d="M0 5.525V4.442L8.721 0v1.733l-6.69 3.223.054-.108v.271l-.054-.108 6.69 3.223v1.733L0 5.525z" class="F"/></g></g></g><path transform="translate(380 28)" d="M4.926 20.546V5.091h.99v15.455h-.99zM8.259 9.727c-.072-.612-.366-1.087-.881-1.425s-1.147-.507-1.896-.507c-.547 0-1.026.089-1.437.266s-.724.421-.954.73a1.75 1.75 0 0 0-.338 1.056c0 .33.078.614.235.851a2.09 2.09 0 0 0 .616.586 4.41 4.41 0 0 0 .785.38l.755.236 1.256.338c.322.085.68.201 1.075.35a4.96 4.96 0 0 1 1.141.61c.366.254.668.58.906.978s.356.887.356 1.467c0 .668-.175 1.272-.525 1.811s-.853.968-1.521 1.286-1.471.477-2.421.477c-.885 0-1.652-.143-2.3-.429s-1.151-.684-1.521-1.195a3.41 3.41 0 0 1-.622-1.781h1.545c.04.467.197.853.471 1.159a2.55 2.55 0 0 0 1.05.676c.427.145.885.217 1.376.217.572 0 1.085-.093 1.539-.278s.815-.451 1.081-.785a1.86 1.86 0 0 0 .398-1.183c0-.411-.115-.745-.344-1.002s-.531-.467-.906-.628-.779-.302-1.213-.422l-1.521-.435c-.966-.278-1.731-.674-2.294-1.189s-.845-1.189-.845-2.022c0-.692.187-1.296.561-1.811s.885-.922 1.521-1.207 1.354-.435 2.143-.435c.797 0 1.505.143 2.125.429s1.111.668 1.473 1.159.559 1.048.58 1.672H8.259zm8.039-3.091V19H14.8V8.206h-.072l-3.018 2.004V8.689L14.8 6.636h1.497zm7.563 12.533c-.797 0-1.507-.137-2.131-.41s-1.113-.654-1.479-1.141-.559-1.06-.592-1.708h1.521c.032.398.169.742.41 1.032s.557.507.948.664a3.45 3.45 0 0 0 1.298.235c.531 0 1.002-.093 1.413-.278s.733-.443.966-.773.35-.712.35-1.147c0-.455-.113-.855-.338-1.201s-.555-.624-.99-.821-.966-.296-1.594-.296h-.99v-1.328h.99c.491 0 .922-.089 1.292-.266s.666-.427.875-.748.32-.7.32-1.135c0-.419-.093-.783-.278-1.093a1.9 1.9 0 0 0-.785-.724c-.334-.173-.728-.26-1.183-.26a3.12 3.12 0 0 0-1.207.235 2.25 2.25 0 0 0-.918.67c-.237.29-.366.64-.386 1.05h-1.449c.024-.648.219-1.215.586-1.702s.845-.873 1.437-1.147 1.25-.411 1.962-.411c.765 0 1.421.155 1.968.465s.968.71 1.262 1.213.441 1.046.441 1.63c0 .696-.183 1.29-.549 1.781s-.855.831-1.479 1.02v.097c.781.129 1.391.461 1.829.996s.658 1.189.658 1.974a3.13 3.13 0 0 1-.549 1.811 3.73 3.73 0 0 1-1.485 1.256c-.628.306-1.342.459-2.143.459zm6.187-2.704v-1.232l5.433-8.597h.893v1.908h-.604l-4.105 6.496v.097h7.317v1.328h-8.935zM35.867 19v-2.91-.573-8.88h1.425V19h-1.425zm6.776-1.69l-.097.652a13.14 13.14 0 0 1-.314 1.473l-.429 1.479-.368 1.105h-1.087l.205-1.02.253-1.419.217-1.594.072-.676h1.545zm6.024 1.859c-.829 0-1.562-.147-2.197-.441s-1.125-.706-1.479-1.226-.529-1.119-.525-1.787c-.004-.523.099-1.006.308-1.449s.495-.819.857-1.117.775-.493 1.225-.573v-.072c-.592-.153-1.062-.485-1.413-.996s-.523-1.101-.519-1.757c-.004-.628.155-1.189.477-1.684s.765-.885 1.328-1.171 1.213-.429 1.938-.429c.716 0 1.356.143 1.92.429s1.006.676 1.328 1.171a3.03 3.03 0 0 1 .495 1.684 3.06 3.06 0 0 1-.537 1.757c-.35.511-.815.843-1.395.996v.072c.447.08.849.272 1.207.573a3.25 3.25 0 0 1 .857 1.117c.213.443.322.926.326 1.449-.004.668-.185 1.264-.543 1.787s-.847.928-1.479 1.226-1.354.441-2.179.441zm0-1.328c.559 0 1.042-.091 1.449-.272s.72-.437.942-.767.334-.716.338-1.159c-.004-.467-.125-.879-.362-1.238s-.561-.64-.972-.845-.871-.308-1.395-.308-.998.103-1.413.308-.734.487-.972.845a2.18 2.18 0 0 0-.344 1.238c-.004.443.103.829.32 1.159s.537.585.948.767.898.272 1.461.272zm0-5.868c.443 0 .835-.089 1.177-.266a2.02 2.02 0 0 0 .815-.743c.197-.318.298-.69.302-1.117-.004-.419-.103-.783-.296-1.093a1.92 1.92 0 0 0-.803-.724c-.342-.173-.74-.26-1.195-.26-.463 0-.867.087-1.213.26a1.87 1.87 0 0 0-.803.724c-.189.31-.282.674-.278 1.093-.004.427.09.799.284 1.117a2.02 2.02 0 0 0 .815.743c.346.177.745.266 1.195.266zM55.398 19l5.53-10.939v-.097h-6.375V6.636h7.92v1.401L56.968 19h-1.57zm12.923.169c-.91 0-1.684-.247-2.324-.742s-1.129-1.222-1.467-2.167-.507-2.097-.507-3.441c0-1.336.169-2.477.507-3.423s.833-1.674 1.473-2.173 1.417-.755 2.318-.755 1.672.252 2.312.755 1.135 1.223 1.473 2.173.513 2.087.513 3.423c0 1.344-.169 2.491-.507 3.441s-.827 1.668-1.467 2.167-1.415.742-2.324.742zm0-1.328c.902 0 1.602-.435 2.101-1.304s.749-2.109.749-3.719c0-1.071-.115-1.982-.344-2.735s-.551-1.326-.978-1.721-.932-.592-1.527-.592c-.893 0-1.592.441-2.095 1.322s-.755 2.119-.755 3.725c0 1.071.113 1.98.338 2.729s.549 1.318.972 1.708a2.2 2.2 0 0 0 1.539.586z" class="B"/></g><g id="C" transform="translate(0 154)"><mask id="D" class="C"><path d="M0 0H496V82H0V0Z"/></mask><path d="M0 0H496V82H0V0Z" class="C"/><path d="M0 0v1.467h496V0-1.467H0V0z" mask="url(#D)" class="B D"/><g transform="translate(11.731 26.953)" class="B"><g><g transform="translate(11.733)"><path d="M2.004 19H.435l4.54-12.364H6.52L11.06 19H9.49L5.795 8.592h-.097L2.004 19zm.58-4.829h6.327v1.328H2.584v-1.328zm13.805 5.023c-.869 0-1.618-.205-2.246-.616s-1.111-.976-1.449-1.696-.507-1.543-.507-2.469c0-.942.173-1.773.519-2.493s.837-1.29 1.461-1.696 1.36-.616 2.198-.616c.652 0 1.239.121 1.763.362s.952.58 1.286 1.014.541.942.622 1.521h-1.425c-.109-.423-.35-.797-.724-1.123s-.869-.495-1.497-.495c-.555 0-1.042.145-1.461.435s-.739.69-.972 1.213-.344 1.129-.344 1.829c0 .716.113 1.34.338 1.871s.551.944.966 1.238.91.441 1.473.441c.37 0 .706-.064 1.008-.193a2.08 2.08 0 0 0 .767-.555 2.13 2.13 0 0 0 .447-.869h1.425a3.3 3.3 0 0 1-.598 1.479 3.34 3.34 0 0 1-1.25 1.038c-.515.254-1.115.38-1.799.38zm9.326 0c-.869 0-1.618-.205-2.246-.616s-1.111-.976-1.449-1.696-.507-1.543-.507-2.469c0-.942.173-1.773.519-2.493s.837-1.29 1.461-1.696 1.36-.616 2.197-.616c.652 0 1.24.121 1.763.362s.952.58 1.286 1.014.541.942.622 1.521h-1.425c-.109-.423-.35-.797-.724-1.123s-.869-.495-1.497-.495c-.555 0-1.042.145-1.461.435s-.739.69-.972 1.213-.344 1.129-.344 1.829c0 .716.113 1.34.338 1.871s.551.944.966 1.238.91.441 1.473.441c.37 0 .706-.064 1.008-.193a2.08 2.08 0 0 0 .767-.555 2.13 2.13 0 0 0 .447-.869h1.425a3.3 3.3 0 0 1-.598 1.479c-.314.435-.73.781-1.25 1.038s-1.115.38-1.799.38zm9.447 0c-.893 0-1.664-.197-2.312-.592a3.97 3.97 0 0 1-1.491-1.666c-.346-.716-.519-1.55-.519-2.499s.173-1.787.519-2.511.837-1.296 1.461-1.702 1.36-.616 2.197-.616c.483 0 .96.081 1.431.241s.9.423 1.286.785.694.833.924 1.425.344 1.32.344 2.185v.604h-7.148v-1.232h5.699a3.04 3.04 0 0 0-.314-1.401c-.205-.41-.499-.734-.881-.972s-.825-.356-1.34-.356c-.567 0-1.058.141-1.473.422a2.78 2.78 0 0 0-.948 1.087c-.221.447-.332.926-.332 1.437v.821c0 .7.121 1.294.362 1.781s.586.851 1.02 1.105.94.374 1.515.374c.374 0 .712-.052 1.014-.157a2.17 2.17 0 0 0 .791-.483c.221-.217.392-.487.513-.809l1.376.386a3.05 3.05 0 0 1-.73 1.232c-.342.35-.765.624-1.268.821s-1.069.29-1.696.29zm12.405-7.389l-1.28.362a2.38 2.38 0 0 0-.356-.622 1.73 1.73 0 0 0-.628-.507c-.266-.133-.606-.199-1.02-.199-.567 0-1.04.131-1.419.392s-.561.586-.561.984c0 .354.129.634.386.839s.66.376 1.207.513l1.376.338c.829.201 1.447.509 1.853.924s.61.94.61 1.588c0 .531-.153 1.006-.459 1.425s-.724.749-1.268.99-1.175.362-1.896.362c-.946 0-1.728-.205-2.348-.616s-1.012-1.01-1.177-1.799l1.352-.338c.129.499.372.873.73 1.123s.835.374 1.419.374c.664 0 1.191-.141 1.582-.423s.592-.628.592-1.026c0-.322-.113-.592-.338-.809s-.572-.386-1.038-.495l-1.546-.362c-.849-.201-1.473-.513-1.871-.936s-.592-.96-.592-1.6c0-.523.147-.986.441-1.388a3 3 0 0 1 1.214-.948c.515-.229 1.099-.344 1.751-.344.918 0 1.638.201 2.161.604s.901.934 1.123 1.594zm8.712 0l-1.28.362a2.38 2.38 0 0 0-.356-.622c-.153-.205-.362-.374-.628-.507s-.606-.199-1.02-.199c-.568 0-1.04.131-1.419.392s-.561.586-.561.984c0 .354.129.634.386.839s.66.376 1.207.513l1.377.338c.829.201 1.447.509 1.853.924s.61.94.61 1.588c0 .531-.153 1.006-.459 1.425s-.724.749-1.268.99-1.175.362-1.896.362c-.946 0-1.729-.205-2.348-.616s-1.012-1.01-1.177-1.799l1.352-.338c.129.499.372.873.73 1.123s.835.374 1.419.374c.664 0 1.191-.141 1.582-.423s.592-.628.592-1.026c0-.322-.113-.592-.338-.809s-.572-.386-1.038-.495l-1.545-.362c-.849-.201-1.473-.513-1.871-.936s-.592-.96-.592-1.6c0-.523.147-.986.441-1.388s.702-.718 1.213-.948 1.099-.344 1.751-.344c.918 0 1.638.201 2.161.604s.901.934 1.123 1.594zm5.911 7.389c-.837 0-1.572-.199-2.204-.598a4.06 4.06 0 0 1-1.473-1.672c-.35-.716-.525-1.554-.525-2.511 0-.966.175-1.809.525-2.529s.845-1.28 1.473-1.678 1.366-.598 2.204-.598 1.57.199 2.197.598 1.123.958 1.473 1.678.531 1.563.531 2.529c0 .958-.177 1.795-.531 2.511s-.841 1.274-1.473 1.672-1.36.598-2.197.598zm0-1.28c.636 0 1.159-.163 1.57-.489s.714-.755.912-1.286.296-1.107.296-1.727-.099-1.197-.296-1.733a2.92 2.92 0 0 0-.912-1.298c-.411-.33-.934-.495-1.57-.495s-1.159.165-1.57.495a2.92 2.92 0 0 0-.912 1.298c-.197.535-.296 1.113-.296 1.733s.099 1.195.296 1.727.501.96.912 1.286.934.489 1.57.489zM68.396 19V9.727h1.376v1.401h.097c.169-.459.475-.831.918-1.117a2.7 2.7 0 0 1 1.497-.429l.392.006.356.018v1.449a4.2 4.2 0 0 0-.332-.054c-.169-.028-.348-.042-.537-.042-.451 0-.853.095-1.207.284a2.14 2.14 0 0 0-.833.773c-.201.326-.302.698-.302 1.117V19h-1.425zm6.155 0V9.727h1.425V19h-1.425zm.724-10.818c-.278 0-.517-.095-.718-.284a.91.91 0 0 1-.296-.682.91.91 0 0 1 .296-.682c.201-.189.441-.284.718-.284a.99.99 0 0 1 .712.284c.201.189.302.417.302.682s-.101.493-.302.682a.99.99 0 0 1-.712.284zm5.868 11.035c-.588 0-1.121-.111-1.6-.332s-.859-.549-1.141-.972-.423-.942-.423-1.546c0-.531.105-.962.314-1.292s.489-.596.839-.785a4.41 4.41 0 0 1 1.159-.423l1.286-.229 1.37-.163c.354-.04.612-.107.773-.199s.248-.254.248-.483v-.048c0-.596-.163-1.058-.489-1.388s-.811-.495-1.467-.495c-.68 0-1.213.149-1.6.447s-.658.616-.815.954l-1.352-.483c.242-.563.564-1.002.966-1.316a3.62 3.62 0 0 1 1.328-.664c.483-.129.958-.193 1.425-.193.298 0 .64.036 1.026.109s.767.211 1.129.429.67.545.912.984.362 1.026.362 1.763V19H83.97v-1.256h-.073c-.097.201-.258.417-.483.646s-.525.425-.899.586-.831.241-1.37.241zm.217-1.28c.563 0 1.038-.111 1.425-.332a2.26 2.26 0 0 0 .881-.857c.201-.35.302-.718.302-1.105V14.34c-.06.072-.193.139-.398.199s-.435.107-.7.151l-.767.109-.598.072a5.44 5.44 0 0 0-1.038.236 1.79 1.79 0 0 0-.773.477c-.193.209-.29.495-.29.857 0 .495.183.869.549 1.123s.839.374 1.407.374zm7.888-11.301V19h-1.425V6.636h1.425zm3.671 0v4.25h-1.328v-4.25h1.328zm8.936 5.168l-1.28.362a2.39 2.39 0 0 0-.356-.622 1.73 1.73 0 0 0-.628-.507c-.266-.133-.606-.199-1.02-.199-.567 0-1.04.131-1.419.392s-.561.586-.561.984c0 .354.129.634.386.839s.66.376 1.207.513l1.376.338c.829.201 1.446.509 1.853.924s.61.94.61 1.588c0 .531-.153 1.006-.459 1.425s-.725.749-1.268.99-1.175.362-1.895.362c-.946 0-1.729-.205-2.348-.616s-1.012-1.01-1.177-1.799l1.352-.338c.129.499.372.873.73 1.123s.835.374 1.419.374c.664 0 1.191-.141 1.582-.423s.592-.628.592-1.026a1.08 1.08 0 0 0-.338-.809c-.226-.221-.572-.386-1.039-.495l-1.546-.362c-.849-.201-1.473-.513-1.871-.936s-.592-.96-.592-1.6c0-.523.147-.986.441-1.388s.702-.718 1.213-.948 1.099-.344 1.751-.344c.918 0 1.638.201 2.162.604a3.26 3.26 0 0 1 1.123 1.594z"/></g></g></g><g transform="translate(177.395 26.953)" class="B"><g><g transform="translate(11.733)"><path d="M4.926 20.546V5.091h.99v15.455h-.99zM8.259 9.727c-.072-.612-.366-1.087-.881-1.425s-1.147-.507-1.896-.507c-.547 0-1.026.089-1.437.266s-.724.421-.954.73a1.75 1.75 0 0 0-.338 1.056c0 .33.078.614.235.851a2.09 2.09 0 0 0 .616.586 4.41 4.41 0 0 0 .785.38l.755.236 1.256.338c.322.085.68.201 1.075.35a4.96 4.96 0 0 1 1.141.61c.366.254.668.58.906.978s.356.887.356 1.467c0 .668-.175 1.272-.525 1.811s-.853.968-1.521 1.286-1.471.477-2.421.477c-.885 0-1.652-.143-2.3-.429s-1.151-.684-1.521-1.195a3.41 3.41 0 0 1-.622-1.781h1.545c.04.467.197.853.471 1.159a2.55 2.55 0 0 0 1.05.676c.427.145.885.217 1.376.217.572 0 1.085-.093 1.539-.278s.815-.451 1.081-.785a1.86 1.86 0 0 0 .398-1.183c0-.411-.115-.745-.344-1.002s-.531-.467-.906-.628-.779-.302-1.213-.422l-1.521-.435c-.966-.278-1.731-.674-2.294-1.189s-.845-1.189-.845-2.022c0-.692.187-1.296.561-1.811s.885-.922 1.521-1.207 1.354-.435 2.143-.435c.797 0 1.505.143 2.125.429s1.111.668 1.473 1.159.559 1.048.58 1.672H8.259zM11.951 19v-1.087l4.081-4.467 1.183-1.364c.31-.39.539-.757.688-1.099a2.66 2.66 0 0 0 .229-1.087c0-.435-.105-.811-.314-1.129s-.487-.563-.845-.737a2.74 2.74 0 0 0-1.207-.26c-.475 0-.889.099-1.244.296s-.622.465-.815.815-.284.761-.284 1.232h-1.425c0-.724.167-1.36.501-1.908a3.48 3.48 0 0 1 1.364-1.28c.579-.306 1.229-.459 1.95-.459s1.366.153 1.926.459a3.45 3.45 0 0 1 1.316 1.238 3.25 3.25 0 0 1 .477 1.733 3.73 3.73 0 0 1-.248 1.334c-.161.431-.443.912-.845 1.443s-.952 1.171-1.66 1.932l-2.777 2.97v.097h5.747V19h-7.8zm9.568-2.535v-1.232l5.433-8.597h.893v1.908h-.604l-4.105 6.496v.097h7.317v1.328h-8.935zM27.338 19v-2.91-.573-8.88h1.425V19h-1.425zm6.776-1.69l-.097.652a13.14 13.14 0 0 1-.314 1.473l-.429 1.479-.368 1.105h-1.087l.205-1.02.254-1.419.217-1.594.073-.676h1.545zm6.06 1.859c-.708 0-1.346-.141-1.914-.423s-1.022-.668-1.364-1.159-.529-1.05-.562-1.678h1.449c.056.559.31 1.022.761 1.388s.998.543 1.63.543a2.57 2.57 0 0 0 1.352-.356c.398-.237.71-.563.936-.978s.344-.891.344-1.419c0-.539-.119-1.02-.356-1.443s-.555-.763-.966-1.008-.879-.37-1.407-.374c-.378-.004-.767.054-1.165.175s-.726.268-.984.453l-1.401-.169.749-6.085h6.423v1.328h-5.168l-.435 3.646h.072c.254-.201.572-.368.954-.501s.781-.199 1.195-.199c.757 0 1.431.181 2.022.543s1.063.849 1.401 1.473.513 1.336.513 2.137c0 .789-.177 1.493-.531 2.113s-.833 1.103-1.449 1.461-1.316.531-2.101.531zm10.414 0c-.507-.008-1.014-.105-1.521-.29s-.97-.497-1.389-.936-.755-1.04-1.008-1.793-.38-1.707-.38-2.85c0-1.095.103-2.065.308-2.91s.503-1.564.893-2.143.861-1.026 1.413-1.328 1.181-.453 1.878-.453 1.308.139 1.847.417.986.656 1.328 1.147.563 1.056.664 1.696h-1.473a2.73 2.73 0 0 0-.797-1.382c-.394-.366-.918-.549-1.57-.549-.958 0-1.713.417-2.264 1.25s-.823 2.002-.827 3.508h.096c.225-.342.493-.634.803-.875a3.62 3.62 0 0 1 1.038-.567 3.6 3.6 0 0 1 1.201-.199c.708 0 1.356.177 1.944.531s1.058.835 1.413 1.455.531 1.322.531 2.119c0 .765-.171 1.465-.513 2.101a3.91 3.91 0 0 1-1.443 1.509c-.616.37-1.34.551-2.173.543zm0-1.328c.507 0 .962-.127 1.364-.38a2.72 2.72 0 0 0 .96-1.02c.237-.427.356-.902.356-1.425 0-.511-.115-.976-.344-1.394s-.537-.759-.936-1.008-.845-.374-1.352-.374a2.51 2.51 0 0 0-1.069.229 2.76 2.76 0 0 0-.869.616c-.245.262-.439.561-.579.899a2.69 2.69 0 0 0-.211 1.056 2.86 2.86 0 0 0 .344 1.376c.233.427.551.771.954 1.032s.867.392 1.383.392zm10.366 1.328c-.91 0-1.684-.247-2.324-.742s-1.129-1.222-1.467-2.167-.507-2.097-.507-3.441c0-1.336.169-2.477.507-3.423s.833-1.674 1.473-2.173 1.417-.755 2.318-.755 1.672.252 2.312.755 1.135 1.223 1.473 2.173.513 2.087.513 3.423c0 1.344-.169 2.491-.507 3.441s-.827 1.668-1.467 2.167-1.415.742-2.324.742zm0-1.328c.901 0 1.602-.435 2.101-1.304s.749-2.109.749-3.719c0-1.071-.115-1.982-.344-2.735s-.551-1.326-.978-1.721-.932-.592-1.527-.592c-.893 0-1.592.441-2.095 1.322s-.755 2.119-.755 3.725c0 1.071.113 1.98.338 2.729s.549 1.318.972 1.708a2.2 2.2 0 0 0 1.539.586z"/></g></g></g><g transform="translate(300.328 26.953)"><g transform="translate(10.839 4.4)"><g clip-path="url(#M)"><rect width="31.122" height="23.342" rx="6.224" fill="#d3edcf"/><path transform="translate(10.115 8.559)" d="M0 1.664V0h10.893v1.664H0zm0 4.56V4.56h10.893v1.664H0z" fill="#3a802f"/></g></g></g><g transform="translate(367.238 29.184)" class="B"><g><g transform="translate(11.733)"><path d="M4.926 20.546V5.091h.99v15.455h-.99zM8.259 9.727c-.072-.612-.366-1.087-.881-1.425s-1.147-.507-1.896-.507c-.547 0-1.026.089-1.437.266s-.724.421-.954.73a1.75 1.75 0 0 0-.338 1.056c0 .33.078.614.235.851a2.09 2.09 0 0 0 .616.586 4.41 4.41 0 0 0 .785.38l.755.236 1.256.338c.322.085.68.201 1.075.35a4.96 4.96 0 0 1 1.141.61c.366.254.668.58.906.978s.356.887.356 1.467c0 .668-.175 1.272-.525 1.811s-.853.968-1.521 1.286-1.471.477-2.421.477c-.885 0-1.652-.143-2.3-.429s-1.151-.684-1.521-1.195a3.41 3.41 0 0 1-.622-1.781h1.545c.04.467.197.853.471 1.159a2.55 2.55 0 0 0 1.05.676c.427.145.885.217 1.376.217.572 0 1.085-.093 1.539-.278s.815-.451 1.081-.785a1.86 1.86 0 0 0 .398-1.183c0-.411-.115-.745-.344-1.002s-.531-.467-.906-.628-.779-.302-1.213-.422l-1.521-.435c-.966-.278-1.731-.674-2.294-1.189s-.845-1.189-.845-2.022c0-.692.187-1.296.561-1.811s.885-.922 1.521-1.207 1.354-.435 2.143-.435c.797 0 1.505.143 2.125.429s1.111.668 1.473 1.159.559 1.048.58 1.672H8.259zM11.951 19v-1.087l4.081-4.467 1.183-1.364c.31-.39.539-.757.688-1.099a2.66 2.66 0 0 0 .229-1.087c0-.435-.105-.811-.314-1.129s-.487-.563-.845-.737a2.74 2.74 0 0 0-1.207-.26c-.475 0-.889.099-1.244.296s-.622.465-.815.815-.284.761-.284 1.232h-1.425c0-.724.167-1.36.501-1.908a3.48 3.48 0 0 1 1.364-1.28c.579-.306 1.229-.459 1.95-.459s1.366.153 1.926.459a3.45 3.45 0 0 1 1.316 1.238 3.25 3.25 0 0 1 .477 1.733 3.73 3.73 0 0 1-.248 1.334c-.161.431-.443.912-.845 1.443s-.952 1.171-1.66 1.932l-2.777 2.97v.097h5.747V19h-7.8zm9.568-2.535v-1.232l5.433-8.597h.893v1.908h-.604l-4.105 6.496v.097h7.317v1.328h-8.935zM27.338 19v-2.91-.573-8.88h1.425V19h-1.425zm6.776-1.69l-.097.652a13.14 13.14 0 0 1-.314 1.473l-.429 1.479-.368 1.105h-1.087l.205-1.02.254-1.419.217-1.594.073-.676h1.545zm6.06 1.859c-.708 0-1.346-.141-1.914-.423s-1.022-.668-1.364-1.159-.529-1.05-.562-1.678h1.449c.056.559.31 1.022.761 1.388s.998.543 1.63.543a2.57 2.57 0 0 0 1.352-.356c.398-.237.71-.563.936-.978s.344-.891.344-1.419c0-.539-.119-1.02-.356-1.443s-.555-.763-.966-1.008-.879-.37-1.407-.374c-.378-.004-.767.054-1.165.175s-.726.268-.984.453l-1.401-.169.749-6.085h6.423v1.328h-5.168l-.435 3.646h.072c.254-.201.572-.368.954-.501s.781-.199 1.195-.199c.757 0 1.431.181 2.022.543s1.063.849 1.401 1.473.513 1.336.513 2.137c0 .789-.177 1.493-.531 2.113s-.833 1.103-1.449 1.461-1.316.531-2.101.531zm10.414 0c-.507-.008-1.014-.105-1.521-.29s-.97-.497-1.389-.936-.755-1.04-1.008-1.793-.38-1.707-.38-2.85c0-1.095.103-2.065.308-2.91s.503-1.564.893-2.143.861-1.026 1.413-1.328 1.181-.453 1.878-.453 1.308.139 1.847.417.986.656 1.328 1.147.563 1.056.664 1.696h-1.473a2.73 2.73 0 0 0-.797-1.382c-.394-.366-.918-.549-1.57-.549-.958 0-1.713.417-2.264 1.25s-.823 2.002-.827 3.508h.096c.225-.342.493-.634.803-.875a3.62 3.62 0 0 1 1.038-.567 3.6 3.6 0 0 1 1.201-.199c.708 0 1.356.177 1.944.531s1.058.835 1.413 1.455.531 1.322.531 2.119c0 .765-.171 1.465-.513 2.101a3.91 3.91 0 0 1-1.443 1.509c-.616.37-1.34.551-2.173.543zm0-1.328c.507 0 .962-.127 1.364-.38a2.72 2.72 0 0 0 .96-1.02c.237-.427.356-.902.356-1.425 0-.511-.115-.976-.344-1.394s-.537-.759-.936-1.008-.845-.374-1.352-.374a2.51 2.51 0 0 0-1.069.229 2.76 2.76 0 0 0-.869.616c-.245.262-.439.561-.579.899a2.69 2.69 0 0 0-.211 1.056 2.86 2.86 0 0 0 .344 1.376c.233.427.551.771.954 1.032s.867.392 1.383.392zm10.366 1.328c-.91 0-1.684-.247-2.324-.742s-1.129-1.222-1.467-2.167-.507-2.097-.507-3.441c0-1.336.169-2.477.507-3.423s.833-1.674 1.473-2.173 1.417-.755 2.318-.755 1.672.252 2.312.755 1.135 1.223 1.473 2.173.513 2.087.513 3.423c0 1.344-.169 2.491-.507 3.441s-.827 1.668-1.467 2.167-1.415.742-2.324.742zm0-1.328c.901 0 1.602-.435 2.101-1.304s.749-2.109.749-3.719c0-1.071-.115-1.982-.344-2.735s-.551-1.326-.978-1.721-.932-.592-1.527-.592c-.893 0-1.592.441-2.095 1.322s-.755 2.119-.755 3.725c0 1.071.113 1.98.338 2.729s.549 1.318.972 1.708a2.2 2.2 0 0 0 1.539.586z"/></g></g></g></g><g id="E" transform="translate(0 236)"><mask id="F" class="C"><path d="M0 0H496V82H0V0Z"/></mask><path d="M0 0H496V82H0V0Z" class="C"/><path d="M0 0v1.467h496V0-1.467H0V0z" mask="url(#F)" class="B D"/><g transform="translate(11.731 26.426)" class="B"><g><g transform="translate(11.733)"><path d="M1.497 19V6.636h7.413v1.328H2.994v4.178h5.361v1.328H2.994V19H1.497zm14.877-3.791V9.727h1.425V19h-1.425v-1.57h-.097c-.217.471-.555.871-1.014 1.201s-1.038.489-1.739.489c-.58 0-1.095-.127-1.546-.38s-.805-.644-1.062-1.159-.386-1.173-.386-1.962V9.727h1.425v5.795c0 .676.189 1.215.567 1.618s.869.604 1.461.604c.354 0 .714-.09 1.081-.272s.68-.459.93-.833.38-.851.38-1.431zm5.289-8.572V19h-1.425V6.636h1.425zm6.569 3.091v1.207h-4.998V9.727h4.999zM24.73 19V8.447c0-.531.125-.974.374-1.328a2.32 2.32 0 0 1 .972-.797c.399-.177.819-.266 1.262-.266.35 0 .636.028.857.085s.386.109.495.157l-.41 1.232-.302-.091a1.83 1.83 0 0 0-.495-.054c-.471 0-.811.119-1.02.356s-.308.586-.308 1.044V19H24.73zm5.328 0V9.727h1.425V19h-1.425zm.725-10.818a1.01 1.01 0 0 1-.718-.284.91.91 0 0 1-.296-.682.91.91 0 0 1 .296-.682 1.01 1.01 0 0 1 .718-.284.99.99 0 0 1 .712.284c.201.189.302.417.302.682s-.101.493-.302.682a.99.99 0 0 1-.712.284zm4.564-1.545V19h-1.425V6.636h1.425zm3.864 0V19h-1.425V6.636h1.425zM41.651 19V9.727h1.376v1.449h.121a2.33 2.33 0 0 1 .936-1.153c.431-.278.948-.417 1.551-.417.612 0 1.121.139 1.527.417s.731.658.96 1.153h.097a2.7 2.7 0 0 1 1.069-1.141c.475-.286 1.044-.429 1.709-.429.829 0 1.507.26 2.034.779s.791 1.318.791 2.409V19h-1.425v-6.206c0-.684-.187-1.173-.561-1.467s-.815-.441-1.322-.441c-.652 0-1.157.197-1.515.592s-.537.885-.537 1.485V19h-1.449v-6.351c0-.527-.171-.952-.513-1.274s-.783-.489-1.322-.489c-.37 0-.716.099-1.038.296s-.575.471-.773.821-.29.747-.29 1.201V19h-1.425zm18.493.193c-.894 0-1.664-.197-2.312-.592s-1.141-.954-1.491-1.666-.519-1.55-.519-2.499.173-1.787.519-2.511.837-1.296 1.461-1.702 1.36-.616 2.197-.616c.483 0 .96.081 1.431.241s.899.423 1.286.785.694.833.924 1.425.344 1.32.344 2.185v.604h-7.148v-1.232h5.699c0-.523-.105-.99-.314-1.401s-.499-.734-.881-.972-.825-.356-1.34-.356c-.568 0-1.059.141-1.473.422a2.78 2.78 0 0 0-.948 1.087 3.19 3.19 0 0 0-.332 1.437v.821c0 .7.121 1.294.362 1.781s.586.851 1.02 1.105.94.374 1.515.374c.374 0 .712-.052 1.014-.157s.569-.27.791-.483.392-.487.513-.809l1.377.386a3.05 3.05 0 0 1-.73 1.232c-.342.35-.765.624-1.268.821s-1.069.29-1.696.29zm7.261-5.771V19h-1.425V9.727h1.376v1.449h.121c.217-.471.547-.849.99-1.135s1.014-.435 1.715-.435c.628 0 1.177.129 1.648.386s.837.64 1.099 1.159.392 1.167.392 1.956V19h-1.425v-5.796c0-.728-.189-1.296-.567-1.702s-.898-.616-1.558-.616c-.455 0-.861.099-1.219.296s-.634.485-.839.863-.308.837-.308 1.376zm12.382-3.695v1.207h-4.805V9.727h4.805zm-3.405-2.222h1.425v8.838c0 .402.058.704.175.906s.274.33.459.398a1.84 1.84 0 0 0 .598.097c.157 0 .286-.008.386-.024l.242-.048.29 1.28c-.097.036-.231.072-.404.109s-.392.06-.658.06a2.87 2.87 0 0 1-1.183-.259 2.35 2.35 0 0 1-.954-.791c-.249-.354-.374-.801-.374-1.34V7.506z"/></g></g></g><g transform="translate(177.395 26.426)" class="B"><g><g transform="translate(11.733)"><path d="M4.926 20.546V5.091h.99v15.455h-.99zM8.259 9.727c-.072-.612-.366-1.087-.881-1.425s-1.147-.507-1.896-.507c-.547 0-1.026.089-1.437.266s-.724.421-.954.73a1.75 1.75 0 0 0-.338 1.056c0 .33.078.614.235.851a2.09 2.09 0 0 0 .616.586 4.41 4.41 0 0 0 .785.38l.755.236 1.256.338c.322.085.68.201 1.075.35a4.96 4.96 0 0 1 1.141.61c.366.254.668.58.906.978s.356.887.356 1.467c0 .668-.175 1.272-.525 1.811s-.853.968-1.521 1.286-1.471.477-2.421.477c-.885 0-1.652-.143-2.3-.429s-1.151-.684-1.521-1.195a3.41 3.41 0 0 1-.622-1.781h1.545c.04.467.197.853.471 1.159a2.55 2.55 0 0 0 1.05.676c.427.145.885.217 1.376.217.572 0 1.085-.093 1.539-.278s.815-.451 1.081-.785a1.86 1.86 0 0 0 .398-1.183c0-.411-.115-.745-.344-1.002s-.531-.467-.906-.628-.779-.302-1.213-.422l-1.521-.435c-.966-.278-1.731-.674-2.294-1.189s-.845-1.189-.845-2.022c0-.692.187-1.296.561-1.811s.885-.922 1.521-1.207 1.354-.435 2.143-.435c.797 0 1.505.143 2.125.429s1.111.668 1.473 1.159.559 1.048.58 1.672H8.259zM12.337 19l5.53-10.939v-.097h-6.375V6.636h7.92v1.401L13.907 19h-1.57zm12.995.169c-.507-.008-1.014-.105-1.521-.29s-.97-.497-1.388-.936-.755-1.04-1.008-1.793-.38-1.707-.38-2.85c0-1.095.103-2.065.308-2.91s.503-1.564.893-2.143.861-1.026 1.413-1.328 1.181-.453 1.878-.453 1.308.139 1.847.417.986.656 1.328 1.147.563 1.056.664 1.696h-1.473a2.73 2.73 0 0 0-.797-1.382c-.394-.366-.918-.549-1.57-.549-.958 0-1.712.417-2.264 1.25s-.823 2.002-.827 3.508h.097c.225-.342.493-.634.803-.875a3.62 3.62 0 0 1 1.038-.567 3.6 3.6 0 0 1 1.201-.199c.708 0 1.356.177 1.944.531s1.059.835 1.413 1.455.531 1.322.531 2.119c0 .765-.171 1.465-.513 2.101a3.91 3.91 0 0 1-1.443 1.509c-.616.37-1.34.551-2.173.543zm0-1.328c.507 0 .962-.127 1.364-.38a2.72 2.72 0 0 0 .96-1.02 2.88 2.88 0 0 0 .356-1.425c0-.511-.115-.976-.344-1.394s-.537-.759-.936-1.008-.845-.374-1.352-.374a2.51 2.51 0 0 0-1.068.229 2.76 2.76 0 0 0-.869.616c-.245.262-.439.561-.58.899s-.211.686-.211 1.056a2.86 2.86 0 0 0 .344 1.376 2.83 2.83 0 0 0 .954 1.032c.407.262.867.392 1.383.392zm7.901-.531l-.097.652a13.14 13.14 0 0 1-.314 1.473l-.429 1.479-.368 1.105h-1.087l.205-1.02.253-1.419.217-1.594.072-.676h1.545zm6.158 1.859c-.797 0-1.507-.137-2.131-.41s-1.113-.654-1.479-1.141-.559-1.06-.592-1.708h1.521c.032.398.169.742.411 1.032s.557.507.948.664a3.45 3.45 0 0 0 1.298.235c.531 0 1.002-.093 1.413-.278s.733-.443.966-.773.35-.712.35-1.147c0-.455-.113-.855-.338-1.201s-.555-.624-.99-.821-.966-.296-1.594-.296h-.99v-1.328h.99c.491 0 .922-.089 1.292-.266s.666-.427.875-.748.32-.7.32-1.135c0-.419-.092-.783-.278-1.093a1.9 1.9 0 0 0-.785-.724c-.334-.173-.728-.26-1.183-.26a3.12 3.12 0 0 0-1.207.235c-.374.153-.68.376-.918.67s-.366.64-.386 1.05h-1.449c.024-.648.219-1.215.586-1.702s.845-.873 1.437-1.147 1.25-.411 1.962-.411c.765 0 1.421.155 1.968.465s.968.71 1.262 1.213.441 1.046.441 1.63c0 .696-.183 1.29-.549 1.781s-.855.831-1.479 1.02v.097c.781.129 1.39.461 1.829.996s.658 1.189.658 1.974a3.13 3.13 0 0 1-.549 1.811 3.73 3.73 0 0 1-1.485 1.256c-.628.306-1.342.459-2.143.459zm10.437 0c-.829 0-1.561-.147-2.197-.441s-1.125-.706-1.479-1.226-.529-1.119-.525-1.787c-.004-.523.099-1.006.308-1.449s.495-.819.857-1.117.775-.493 1.225-.573v-.072c-.592-.153-1.062-.485-1.413-.996s-.523-1.101-.519-1.757c-.004-.628.155-1.189.477-1.684s.765-.885 1.328-1.171 1.213-.429 1.938-.429c.716 0 1.356.143 1.92.429s1.006.676 1.328 1.171a3.03 3.03 0 0 1 .495 1.684 3.06 3.06 0 0 1-.537 1.757c-.35.511-.815.843-1.395.996v.072c.447.08.849.272 1.207.573a3.25 3.25 0 0 1 .857 1.117c.213.443.322.926.326 1.449-.004.668-.185 1.264-.543 1.787s-.847.928-1.479 1.226-1.354.441-2.179.441zm0-1.328c.559 0 1.042-.091 1.449-.272s.72-.437.942-.767.334-.716.338-1.159c-.004-.467-.125-.879-.362-1.238s-.561-.64-.972-.845-.871-.308-1.395-.308-.998.103-1.413.308-.735.487-.972.845a2.18 2.18 0 0 0-.344 1.238c-.004.443.103.829.32 1.159s.537.585.948.767.897.272 1.461.272zm0-5.868c.443 0 .835-.089 1.177-.266a2.02 2.02 0 0 0 .815-.743c.197-.318.298-.69.302-1.117-.004-.419-.103-.783-.296-1.093a1.92 1.92 0 0 0-.803-.724c-.342-.173-.741-.26-1.195-.26-.463 0-.867.087-1.213.26s-.614.411-.803.724-.282.674-.278 1.093a2.07 2.07 0 0 0 .284 1.117 2.02 2.02 0 0 0 .815.743c.346.177.745.266 1.195.266zm10.378 7.196c-.91 0-1.684-.247-2.324-.742s-1.129-1.222-1.467-2.167-.507-2.097-.507-3.441c0-1.336.169-2.477.507-3.423s.833-1.674 1.473-2.173 1.417-.755 2.318-.755 1.672.252 2.312.755 1.135 1.223 1.473 2.173.513 2.087.513 3.423c0 1.344-.169 2.491-.507 3.441s-.827 1.668-1.467 2.167-1.415.742-2.324.742zm0-1.328c.901 0 1.602-.435 2.101-1.304s.749-2.109.749-3.719c0-1.071-.115-1.982-.344-2.735s-.551-1.326-.978-1.721-.932-.592-1.527-.592c-.894 0-1.592.441-2.095 1.322s-.755 2.119-.755 3.725c0 1.071.113 1.98.338 2.729s.549 1.318.972 1.708a2.2 2.2 0 0 0 1.54.586z"/></g></g></g><g transform="translate(300.328 26.426)"><g transform="translate(11.733 4.4)"><g clip-path="url(#N)"><rect width="29.333" height="22" rx="5.867" class="E"/><path transform="translate(10.306 6.017)" d="M0 5.525V4.442L8.721 0v1.733l-6.69 3.223.054-.108v.271l-.054-.108 6.69 3.223v1.733L0 5.525z" class="F"/></g></g></g><g transform="translate(367.238 28.656)" class="B"><g><g transform="translate(11.733)"><path d="M4.926 20.546V5.091h.99v15.455h-.99zM8.259 9.727c-.072-.612-.366-1.087-.881-1.425s-1.147-.507-1.896-.507c-.547 0-1.026.089-1.437.266s-.724.421-.954.73a1.75 1.75 0 0 0-.338 1.056c0 .33.078.614.235.851a2.09 2.09 0 0 0 .616.586 4.41 4.41 0 0 0 .785.38l.755.236 1.256.338c.322.085.68.201 1.075.35a4.96 4.96 0 0 1 1.141.61c.366.254.668.58.906.978s.356.887.356 1.467c0 .668-.175 1.272-.525 1.811s-.853.968-1.521 1.286-1.471.477-2.421.477c-.885 0-1.652-.143-2.3-.429s-1.151-.684-1.521-1.195a3.41 3.41 0 0 1-.622-1.781h1.545c.04.467.197.853.471 1.159a2.55 2.55 0 0 0 1.05.676c.427.145.885.217 1.376.217.572 0 1.085-.093 1.539-.278s.815-.451 1.081-.785a1.86 1.86 0 0 0 .398-1.183c0-.411-.115-.745-.344-1.002s-.531-.467-.906-.628-.779-.302-1.213-.422l-1.521-.435c-.966-.278-1.731-.674-2.294-1.189s-.845-1.189-.845-2.022c0-.692.187-1.296.561-1.811s.885-.922 1.521-1.207 1.354-.435 2.143-.435c.797 0 1.505.143 2.125.429s1.111.668 1.473 1.159.559 1.048.58 1.672H8.259zm7.628-3.26a4.43 4.43 0 0 1 1.521.29c.507.189.97.503 1.389.942s.755 1.028 1.008 1.781.38 1.696.38 2.831c0 1.099-.105 2.075-.314 2.928s-.503 1.566-.893 2.149-.857 1.026-1.413 1.328-1.175.453-1.872.453-1.31-.137-1.853-.41-.982-.662-1.328-1.153-.562-1.069-.658-1.721h1.473c.133.568.396 1.036.791 1.407s.924.549 1.576.549c.954 0 1.706-.417 2.258-1.25s.833-2.01.833-3.532h-.097c-.225.338-.493.63-.803.875s-.654.435-1.032.567a3.62 3.62 0 0 1-1.207.199c-.708 0-1.358-.175-1.95-.525s-1.059-.839-1.413-1.455-.525-1.328-.525-2.125c0-.757.169-1.449.507-2.077a3.92 3.92 0 0 1 1.437-1.509c.62-.374 1.348-.555 2.185-.543zm0 1.328c-.507 0-.964.127-1.37.38s-.722.588-.96 1.014a2.86 2.86 0 0 0-.35 1.407 2.94 2.94 0 0 0 .338 1.407 2.7 2.7 0 0 0 .936 1.002c.399.245.851.368 1.358.368.382 0 .739-.075 1.069-.223a2.77 2.77 0 0 0 .863-.622c.25-.266.445-.566.585-.899a2.72 2.72 0 0 0 .211-1.056c0-.483-.117-.936-.35-1.358a2.78 2.78 0 0 0-.954-1.026c-.402-.262-.861-.392-1.376-.392zm10.849-1.159V19h-1.497V8.206h-.072l-3.018 2.004V8.689l3.091-2.053h1.497zM31.54 17.31l-.097.652c-.068.459-.173.95-.314 1.473l-.429 1.479-.368 1.105h-1.087l.205-1.02.253-1.419.217-1.594.072-.676h1.546zM34.123 19l5.53-10.939v-.097h-6.375V6.636h7.92v1.401L35.693 19h-1.57zm7.87-2.535v-1.232l5.433-8.597h.893v1.908h-.604l-4.105 6.496v.097h7.317v1.328h-8.935zM47.812 19v-2.91-.573-8.88h1.425V19h-1.425zm9.24.169c-.91 0-1.684-.247-2.324-.742s-1.129-1.222-1.467-2.167-.507-2.097-.507-3.441c0-1.336.169-2.477.507-3.423s.833-1.674 1.473-2.173 1.417-.755 2.318-.755 1.672.252 2.312.755 1.135 1.223 1.473 2.173.513 2.087.513 3.423c0 1.344-.169 2.491-.507 3.441s-.827 1.668-1.467 2.167-1.415.742-2.324.742zm0-1.328c.901 0 1.602-.435 2.101-1.304s.749-2.109.749-3.719c0-1.071-.115-1.982-.344-2.735s-.551-1.326-.978-1.721-.932-.592-1.527-.592c-.894 0-1.592.441-2.095 1.322s-.755 2.119-.755 3.725c0 1.071.113 1.98.338 2.729s.549 1.318.972 1.708a2.2 2.2 0 0 0 1.54.586z"/></g></g></g></g><g id="G" transform="translate(0 318)"><mask id="H" class="C"><path d="M0 0H496V82H0V0Z"/></mask><path d="M0 0H496V82H0V0Z" class="C"/><path d="M0 0v1.467h496V0-1.467H0V0z" mask="url(#H)" class="B D"/><g transform="translate(11.731 26.426)" class="B"><g><g transform="translate(11.733)"><path d="M1.497 19V6.636H5.82c.861 0 1.572.149 2.131.447s.976.69 1.25 1.189.411 1.044.411 1.648c0 .531-.095.97-.284 1.316s-.431.62-.737.821a3.35 3.35 0 0 1-.984.447v.121c.378.024.759.157 1.141.398s.702.588.96 1.038.386 1.002.386 1.654a3.32 3.32 0 0 1-.423 1.672c-.282.495-.726.887-1.334 1.177S6.938 19 5.964 19H1.497zm1.497-1.328h2.97c.978 0 1.672-.189 2.083-.568s.622-.845.622-1.388c0-.419-.107-.805-.32-1.159s-.517-.644-.912-.857-.861-.326-1.401-.326H2.994v4.298zm0-5.602h2.777a2.74 2.74 0 0 0 1.219-.266c.366-.177.656-.427.869-.749a1.98 1.98 0 0 0 .326-1.135 1.88 1.88 0 0 0-.567-1.382c-.378-.382-.978-.574-1.799-.574H2.994v4.105zm11.925 7.148c-.588 0-1.121-.111-1.6-.332s-.859-.549-1.141-.972-.422-.942-.422-1.546c0-.531.105-.962.314-1.292s.489-.596.839-.785a4.41 4.41 0 0 1 1.159-.423l1.286-.229 1.37-.163c.354-.04.612-.107.773-.199s.247-.254.247-.483v-.048c0-.596-.163-1.058-.489-1.388s-.811-.495-1.467-.495c-.68 0-1.213.149-1.6.447s-.658.616-.815.954l-1.352-.483c.242-.563.563-1.002.966-1.316a3.62 3.62 0 0 1 1.328-.664c.483-.129.958-.193 1.425-.193.298 0 .64.036 1.026.109s.767.211 1.129.429.67.545.912.984.362 1.026.362 1.763V19h-1.425v-1.256h-.072c-.097.201-.258.417-.483.646s-.525.425-.899.586-.831.241-1.37.241zm.217-1.28c.564 0 1.038-.111 1.425-.332a2.26 2.26 0 0 0 .881-.857c.201-.35.302-.718.302-1.105V14.34c-.06.072-.193.139-.398.199s-.435.107-.7.151l-.767.109-.598.072a5.44 5.44 0 0 0-1.038.236 1.79 1.79 0 0 0-.773.477c-.193.209-.29.495-.29.857 0 .495.183.869.549 1.123s.839.374 1.407.374zm13.031-6.133l-1.28.362c-.081-.213-.199-.421-.356-.622s-.362-.374-.628-.507-.606-.199-1.02-.199c-.568 0-1.04.131-1.419.392s-.561.586-.561.984c0 .354.129.634.386.839s.66.376 1.207.513l1.377.338c.829.201 1.447.509 1.853.924s.61.94.61 1.588c0 .531-.153 1.006-.459 1.425s-.724.749-1.268.99-1.175.362-1.896.362c-.946 0-1.729-.205-2.348-.616s-1.012-1.01-1.177-1.799l1.352-.338c.129.499.372.873.73 1.123s.835.374 1.419.374c.664 0 1.191-.141 1.582-.423s.592-.628.592-1.026c0-.322-.113-.592-.338-.809s-.572-.386-1.038-.495l-1.546-.362c-.849-.201-1.473-.513-1.871-.936s-.592-.96-.592-1.6c0-.523.147-.986.441-1.388s.702-.718 1.213-.948 1.099-.344 1.751-.344c.918 0 1.638.201 2.161.604s.901.934 1.123 1.594zm6.031 7.389c-.893 0-1.664-.197-2.312-.592s-1.141-.954-1.491-1.666-.519-1.55-.519-2.499.173-1.787.519-2.511.837-1.296 1.461-1.702 1.36-.616 2.197-.616c.483 0 .96.081 1.431.241s.9.423 1.286.785.694.833.924 1.425.344 1.32.344 2.185v.604h-7.148v-1.232h5.699a3.04 3.04 0 0 0-.314-1.401c-.205-.41-.499-.734-.881-.972s-.825-.356-1.34-.356c-.567 0-1.058.141-1.473.422a2.78 2.78 0 0 0-.948 1.087c-.221.447-.332.926-.332 1.437v.821c0 .7.121 1.294.362 1.781s.586.851 1.02 1.105.94.374 1.515.374c.374 0 .712-.052 1.014-.157a2.17 2.17 0 0 0 .791-.483c.221-.217.392-.487.513-.809l1.376.386a3.05 3.05 0 0 1-.73 1.232c-.342.35-.765.624-1.268.821s-1.069.29-1.696.29zM44.841 19V6.636h7.413v1.328h-5.916v4.178h5.361v1.328h-5.361V19h-1.497zm9.515 0V9.727h1.376v1.401h.097c.169-.459.475-.831.918-1.117a2.7 2.7 0 0 1 1.497-.429l.392.006.356.018v1.449c-.048-.012-.159-.03-.332-.054s-.348-.042-.537-.042c-.451 0-.853.095-1.207.284a2.14 2.14 0 0 0-.833.773c-.201.326-.302.698-.302 1.117V19h-1.425zm9.761.193c-.893 0-1.664-.197-2.312-.592a3.97 3.97 0 0 1-1.491-1.666c-.346-.716-.519-1.55-.519-2.499s.173-1.787.519-2.511.837-1.296 1.461-1.702 1.36-.616 2.197-.616c.483 0 .96.081 1.431.241s.9.423 1.286.785.694.833.924 1.425.344 1.32.344 2.185v.604h-7.148v-1.232h5.699a3.04 3.04 0 0 0-.314-1.401c-.205-.41-.499-.734-.881-.972s-.825-.356-1.34-.356c-.567 0-1.058.141-1.473.422a2.78 2.78 0 0 0-.948 1.087c-.221.447-.332.926-.332 1.437v.821c0 .7.121 1.294.362 1.781s.586.851 1.02 1.105.94.374 1.515.374c.374 0 .712-.052 1.014-.157a2.17 2.17 0 0 0 .791-.483c.221-.217.392-.487.513-.809l1.376.386c-.145.467-.388.877-.73 1.232s-.765.624-1.268.821-1.069.29-1.696.29zM69.953 19V9.727h1.425V19h-1.425zm.724-10.818a1.01 1.01 0 0 1-.718-.284.91.91 0 0 1-.296-.682.91.91 0 0 1 .296-.682 1.01 1.01 0 0 1 .718-.284.99.99 0 0 1 .712.284c.201.189.302.417.302.682s-.101.493-.302.682a.99.99 0 0 1-.712.284zm6.883 14.489c-.688 0-1.28-.089-1.775-.266s-.908-.402-1.238-.688-.586-.584-.779-.905l1.135-.797c.129.169.292.362.489.58s.467.412.809.573.799.247 1.358.247c.749 0 1.366-.181 1.853-.543s.73-.93.73-1.702v-1.884h-.121c-.105.169-.254.378-.447.628s-.463.465-.821.658-.833.284-1.437.284a3.87 3.87 0 0 1-2.016-.531c-.592-.354-1.061-.869-1.407-1.545s-.513-1.497-.513-2.463c0-.95.167-1.777.501-2.481s.799-1.256 1.395-1.642 1.284-.586 2.065-.586c.604 0 1.083.101 1.437.302s.632.423.821.676l.447.616h.145V9.727h1.376v9.538c0 .797-.181 1.445-.543 1.944s-.841.871-1.449 1.105-1.276.356-2.016.356zm-.048-5.095c.572 0 1.055-.131 1.449-.392s.694-.638.899-1.129.308-1.079.308-1.763c0-.668-.101-1.258-.302-1.769s-.499-.912-.894-1.201-.881-.435-1.461-.435c-.604 0-1.107.153-1.509.459s-.698.716-.9 1.232-.296 1.087-.296 1.714c0 .644.101 1.213.302 1.708s.507.877.905 1.159.901.417 1.497.417zm7.919-4.153V19h-1.425V6.636h1.425v4.54h.121a2.62 2.62 0 0 1 .978-1.141c.439-.286 1.022-.429 1.751-.429.632 0 1.185.127 1.66.38s.843.634 1.105 1.153.398 1.171.398 1.968V19h-1.425v-5.796c0-.736-.191-1.306-.573-1.708s-.903-.61-1.576-.61c-.467 0-.886.099-1.256.296a2.16 2.16 0 0 0-.869.863c-.209.378-.314.837-.314 1.376zm12.482-3.695v1.207h-4.805V9.727h4.805zm-3.405-2.222h1.425v8.838c0 .402.058.704.175.906s.274.33.459.398a1.84 1.84 0 0 0 .598.097c.157 0 .286-.008.386-.024l.241-.048.29 1.28c-.097.036-.231.072-.404.109s-.392.06-.658.06a2.87 2.87 0 0 1-1.183-.259 2.35 2.35 0 0 1-.954-.791c-.249-.354-.374-.801-.374-1.34V7.506z"/></g></g></g><g transform="translate(177.395 26.426)" class="B"><g><g transform="translate(11.733)"><path d="M4.926 20.546V5.091h.99v15.455h-.99zM8.259 9.727c-.072-.612-.366-1.087-.881-1.425s-1.147-.507-1.896-.507c-.547 0-1.026.089-1.437.266s-.724.421-.954.73a1.75 1.75 0 0 0-.338 1.056c0 .33.078.614.235.851a2.09 2.09 0 0 0 .616.586 4.41 4.41 0 0 0 .785.38l.755.236 1.256.338c.322.085.68.201 1.075.35a4.96 4.96 0 0 1 1.141.61c.366.254.668.58.906.978s.356.887.356 1.467c0 .668-.175 1.272-.525 1.811s-.853.968-1.521 1.286-1.471.477-2.421.477c-.885 0-1.652-.143-2.3-.429s-1.151-.684-1.521-1.195a3.41 3.41 0 0 1-.622-1.781h1.545c.04.467.197.853.471 1.159a2.55 2.55 0 0 0 1.05.676c.427.145.885.217 1.376.217.572 0 1.085-.093 1.539-.278s.815-.451 1.081-.785a1.86 1.86 0 0 0 .398-1.183c0-.411-.115-.745-.344-1.002s-.531-.467-.906-.628-.779-.302-1.213-.422l-1.521-.435c-.966-.278-1.731-.674-2.294-1.189s-.845-1.189-.845-2.022c0-.692.187-1.296.561-1.811s.885-.922 1.521-1.207 1.354-.435 2.143-.435c.797 0 1.505.143 2.125.429s1.111.668 1.473 1.159.559 1.048.58 1.672H8.259zm8.039-3.091V19H14.8V8.206h-.072l-3.018 2.004V8.689L14.8 6.636h1.497zM19.683 19v-1.087l4.081-4.467 1.183-1.364c.31-.39.539-.757.688-1.099a2.66 2.66 0 0 0 .229-1.087c0-.435-.105-.811-.314-1.129s-.487-.563-.845-.737a2.74 2.74 0 0 0-1.207-.26c-.475 0-.889.099-1.244.296s-.622.465-.815.815-.284.761-.284 1.232h-1.425c0-.724.167-1.36.501-1.908a3.48 3.48 0 0 1 1.364-1.28c.58-.306 1.23-.459 1.95-.459s1.366.153 1.926.459a3.45 3.45 0 0 1 1.316 1.238c.318.519.477 1.097.477 1.733a3.73 3.73 0 0 1-.247 1.334c-.161.431-.443.912-.845 1.443s-.952 1.171-1.66 1.932l-2.777 2.97v.097h5.747V19h-7.8zm14.156.169c-.91 0-1.684-.247-2.324-.742s-1.129-1.222-1.467-2.167-.507-2.097-.507-3.441c0-1.336.169-2.477.507-3.423s.833-1.674 1.473-2.173 1.417-.755 2.318-.755 1.672.252 2.312.755 1.135 1.223 1.473 2.173.513 2.087.513 3.423c0 1.344-.169 2.491-.507 3.441s-.827 1.668-1.467 2.167-1.415.742-2.324.742zm0-1.328c.901 0 1.602-.435 2.101-1.304s.749-2.109.749-3.719c0-1.071-.115-1.982-.344-2.735s-.551-1.326-.978-1.721-.932-.592-1.527-.592c-.893 0-1.592.441-2.095 1.322s-.755 2.119-.755 3.725c0 1.071.113 1.98.338 2.729s.549 1.318.972 1.708a2.2 2.2 0 0 0 1.539.586zm8.14-.531l-.097.652c-.068.459-.173.95-.314 1.473l-.429 1.479-.368 1.105h-1.087l.205-1.02.254-1.419.217-1.594.072-.676h1.545zm6.047 1.859c-.91 0-1.684-.247-2.324-.742s-1.129-1.222-1.467-2.167-.507-2.097-.507-3.441c0-1.336.169-2.477.507-3.423s.833-1.674 1.473-2.173 1.417-.755 2.318-.755 1.672.252 2.312.755 1.135 1.223 1.473 2.173.513 2.087.513 3.423c0 1.344-.169 2.491-.507 3.441s-.827 1.668-1.467 2.167-1.415.742-2.324.742zm0-1.328c.901 0 1.602-.435 2.101-1.304s.749-2.109.749-3.719c0-1.071-.115-1.982-.344-2.735s-.551-1.326-.978-1.721-.932-.592-1.527-.592c-.893 0-1.592.441-2.095 1.322s-.755 2.119-.755 3.725c0 1.071.113 1.98.338 2.729s.549 1.318.972 1.708a2.2 2.2 0 0 0 1.539.586zm10.455 1.328c-.91 0-1.684-.247-2.324-.742s-1.129-1.222-1.467-2.167-.507-2.097-.507-3.441c0-1.336.169-2.477.507-3.423s.833-1.674 1.473-2.173 1.417-.755 2.318-.755 1.672.252 2.312.755 1.135 1.223 1.473 2.173.513 2.087.513 3.423c0 1.344-.169 2.491-.507 3.441s-.827 1.668-1.467 2.167-1.415.742-2.324.742zm0-1.328c.902 0 1.602-.435 2.101-1.304s.749-2.109.749-3.719c0-1.071-.115-1.982-.344-2.735s-.551-1.326-.978-1.721-.932-.592-1.527-.592c-.893 0-1.592.441-2.095 1.322s-.755 2.119-.755 3.725c0 1.071.113 1.98.338 2.729s.549 1.318.972 1.708a2.2 2.2 0 0 0 1.539.586zm10.455 1.328c-.91 0-1.684-.247-2.324-.742s-1.129-1.222-1.467-2.167-.507-2.097-.507-3.441c0-1.336.169-2.477.507-3.423s.833-1.674 1.473-2.173 1.417-.755 2.318-.755 1.672.252 2.312.755 1.135 1.223 1.473 2.173.513 2.087.513 3.423c0 1.344-.169 2.491-.507 3.441s-.827 1.668-1.467 2.167-1.415.742-2.324.742zm0-1.328c.901 0 1.602-.435 2.101-1.304s.749-2.109.749-3.719c0-1.071-.115-1.982-.344-2.735s-.551-1.326-.978-1.721-.932-.592-1.527-.592c-.894 0-1.592.441-2.095 1.322s-.755 2.119-.755 3.725c0 1.071.113 1.98.338 2.729s.549 1.318.972 1.708a2.2 2.2 0 0 0 1.539.586z"/></g></g></g><g transform="translate(300.328 26.426)"><g transform="translate(11.733 4.4)"><g clip-path="url(#O)"><rect width="29.333" height="22" rx="5.867" class="E"/><path transform="translate(10.306 6.017)" d="M0 5.525V4.442L8.721 0v1.733l-6.69 3.223.054-.108v.271l-.054-.108 6.69 3.223v1.733L0 5.525z" class="F"/></g></g></g><g transform="translate(367.238 28.656)" class="B"><g><g transform="translate(11.733)"><path d="M4.926 20.546V5.091h.99v15.455h-.99zM8.259 9.727c-.072-.612-.366-1.087-.881-1.425s-1.147-.507-1.896-.507c-.547 0-1.026.089-1.437.266s-.724.421-.954.73a1.75 1.75 0 0 0-.338 1.056c0 .33.078.614.235.851a2.09 2.09 0 0 0 .616.586 4.41 4.41 0 0 0 .785.38l.755.236 1.256.338c.322.085.68.201 1.075.35a4.96 4.96 0 0 1 1.141.61c.366.254.668.58.906.978s.356.887.356 1.467c0 .668-.175 1.272-.525 1.811s-.853.968-1.521 1.286-1.471.477-2.421.477c-.885 0-1.652-.143-2.3-.429s-1.151-.684-1.521-1.195a3.41 3.41 0 0 1-.622-1.781h1.545c.04.467.197.853.471 1.159a2.55 2.55 0 0 0 1.05.676c.427.145.885.217 1.376.217.572 0 1.085-.093 1.539-.278s.815-.451 1.081-.785a1.86 1.86 0 0 0 .398-1.183c0-.411-.115-.745-.344-1.002s-.531-.467-.906-.628-.779-.302-1.213-.422l-1.521-.435c-.966-.278-1.731-.674-2.294-1.189s-.845-1.189-.845-2.022c0-.692.187-1.296.561-1.811s.885-.922 1.521-1.207 1.354-.435 2.143-.435c.797 0 1.505.143 2.125.429s1.111.668 1.473 1.159.559 1.048.58 1.672H8.259zm8.039-3.091V19H14.8V8.206h-.072l-3.018 2.004V8.689L14.8 6.636h1.497zm7.249 12.533c-.708 0-1.346-.141-1.914-.423s-1.022-.668-1.364-1.159-.529-1.05-.561-1.678h1.449c.056.559.31 1.022.761 1.388s.998.543 1.63.543a2.57 2.57 0 0 0 1.352-.356c.398-.237.71-.563.936-.978s.344-.891.344-1.419c0-.539-.119-1.02-.356-1.443s-.555-.763-.966-1.008-.879-.37-1.407-.374c-.378-.004-.767.054-1.165.175s-.726.268-.984.453l-1.401-.169.749-6.085h6.423v1.328h-5.168l-.435 3.646h.073c.253-.201.572-.368.954-.501s.781-.199 1.195-.199c.757 0 1.431.181 2.022.543s1.063.849 1.401 1.473.513 1.336.513 2.137c0 .789-.177 1.493-.531 2.113s-.833 1.103-1.449 1.461-1.316.531-2.101.531zm10.342 0c-.909 0-1.684-.247-2.324-.742s-1.129-1.222-1.467-2.167-.507-2.097-.507-3.441c0-1.336.169-2.477.507-3.423s.833-1.674 1.473-2.173 1.417-.755 2.318-.755 1.672.252 2.312.755 1.135 1.223 1.473 2.173.513 2.087.513 3.423c0 1.344-.169 2.491-.507 3.441s-.827 1.668-1.467 2.167-1.415.742-2.324.742zm0-1.328c.902 0 1.602-.435 2.101-1.304s.749-2.109.749-3.719c0-1.071-.115-1.982-.344-2.735s-.551-1.326-.978-1.721-.932-.592-1.527-.592c-.893 0-1.592.441-2.095 1.322s-.755 2.119-.755 3.725c0 1.071.113 1.98.338 2.729s.549 1.318.972 1.708a2.2 2.2 0 0 0 1.539.586zm8.14-.531l-.097.652c-.068.459-.173.95-.314 1.473l-.429 1.479-.368 1.105h-1.087l.205-1.02.253-1.419.217-1.594.072-.676h1.546zm6.047 1.859c-.91 0-1.684-.247-2.324-.742s-1.129-1.222-1.467-2.167-.507-2.097-.507-3.441c0-1.336.169-2.477.507-3.423s.833-1.674 1.473-2.173 1.417-.755 2.318-.755 1.672.252 2.312.755 1.135 1.223 1.473 2.173.513 2.087.513 3.423c0 1.344-.169 2.491-.507 3.441s-.827 1.668-1.467 2.167-1.415.742-2.324.742zm0-1.328c.901 0 1.602-.435 2.101-1.304s.749-2.109.749-3.719c0-1.071-.115-1.982-.344-2.735s-.551-1.326-.978-1.721-.932-.592-1.527-.592c-.894 0-1.592.441-2.095 1.322s-.755 2.119-.755 3.725c0 1.071.113 1.98.338 2.729s.549 1.318.972 1.708a2.2 2.2 0 0 0 1.539.586zm10.455 1.328c-.91 0-1.684-.247-2.324-.742s-1.129-1.222-1.467-2.167-.507-2.097-.507-3.441c0-1.336.169-2.477.507-3.423s.833-1.674 1.473-2.173 1.417-.755 2.318-.755 1.672.252 2.312.755 1.135 1.223 1.473 2.173.513 2.087.513 3.423c0 1.344-.169 2.491-.507 3.441s-.827 1.668-1.467 2.167-1.415.742-2.324.742zm0-1.328c.901 0 1.602-.435 2.101-1.304s.749-2.109.749-3.719c0-1.071-.115-1.982-.344-2.735s-.551-1.326-.978-1.721-.932-.592-1.527-.592c-.894 0-1.592.441-2.095 1.322s-.755 2.119-.755 3.725c0 1.071.113 1.98.338 2.729s.549 1.318.972 1.708a2.2 2.2 0 0 0 1.539.586zm10.455 1.328c-.91 0-1.684-.247-2.324-.742s-1.129-1.222-1.467-2.167-.507-2.097-.507-3.441c0-1.336.169-2.477.507-3.423s.833-1.674 1.473-2.173 1.417-.755 2.318-.755 1.672.252 2.312.755 1.135 1.223 1.473 2.173.513 2.087.513 3.423c0 1.344-.169 2.491-.507 3.441s-.827 1.668-1.467 2.167-1.415.742-2.324.742zm0-1.328c.901 0 1.602-.435 2.101-1.304s.748-2.109.748-3.719c0-1.071-.115-1.982-.344-2.735s-.551-1.326-.978-1.721-.932-.592-1.527-.592c-.894 0-1.592.441-2.095 1.322s-.755 2.119-.755 3.725c0 1.071.113 1.98.338 2.729s.549 1.318.972 1.708a2.2 2.2 0 0 0 1.539.586z"/></g></g></g></g><path transform="translate(0 303)" fill="url(#I)" d="M0 0h496v77H0z"/></g><rect x=".5" y=".5" width="495" height="379" rx="7.5" stroke="#000"/><rect x=".5" y=".5" width="495" height="379" rx="7.5" stroke="#d6d4e8"/></g></g><defs><linearGradient id="I" x1="248" y1="0" x2="248" y2="77" gradientUnits="userSpaceOnUse"><stop stop-color="#fff" stop-opacity="0"/><stop offset="1" stop-color="#fff"/></linearGradient><clipPath id="J"><rect width="624" height="532" rx="12" class="C"/></clipPath><clipPath id="K"><rect width="496" height="380" rx="8" class="C"/></clipPath><clipPath id="L"><rect width="28" height="22" rx="5.867" class="C"/></clipPath><clipPath id="M"><rect width="31.122" height="23.342" rx="6.224" class="C"/></clipPath><clipPath id="N"><rect width="29.333" height="22" rx="5.867" class="C"/></clipPath><clipPath id="O"><rect width="29.333" height="22" rx="5.867" class="C"/></clipPath></defs></svg>