<svg xmlns="http://www.w3.org/2000/svg" viewBox="0 0 624 532" preserveAspectRatio="xMidYMid meet" fill="none" width="100%" height="auto" xmlns:v="https://vecta.io/nano"><style><![CDATA[#A{transform-origin:0 0;animation:kf_Frame_2147224861_transform_0 2s linear 1 forwards, kf_Frame_2147224861_opacity_0 2s linear 1 forwards}#B{transform-origin:0 0;animation:kf__8_640_transform_0 2s linear 1 forwards, kf__8_640_opacity_0 2s linear 1 forwards}#C{transform-origin:0 0;animation:kf_Frame_2147224862_transform_0 2s linear 1 forwards, kf_Frame_2147224862_opacity_0 2s linear 1 forwards}#D{transform-origin:0 0;animation:kf__5_180_transform_0 2s linear 1 forwards, kf__5_180_opacity_0 2s linear 1 forwards}#E{transform-origin:0 0;animation:kf_Frame_2147224863_transform_0 2s linear 1 forwards, kf_Frame_2147224863_opacity_0 2s linear 1 forwards}#F{transform-origin:0 0;animation:kf__2_340_transform_0 2s linear 1 forwards, kf__2_340_opacity_0 2s linear 1 forwards}#G{transform-origin:0 0;animation:kf_Frame_2147224864_transform_0 2s linear 1 forwards, kf_Frame_2147224864_opacity_0 2s linear 1 forwards}#H{transform-origin:0 0;animation:kf__1_020_transform_0 2s linear 1 forwards, kf__1_020_opacity_0 2s linear 1 forwards}@keyframes kf_Frame_2147224861_transform_0{0%{animation-timing-function:ease-out;transform:translateX(24px) translateY(24px) translateX(0px) translateY(16px)}20.25%{transform:translateX(24px) translateY(24px) translateX(0px) translateY(0px)}100%{transform:translateX(24px) translateY(24px) translateX(0px) translateY(0px)}} @keyframes kf_Frame_2147224861_opacity_0{0%{animation-timing-function:cubic-bezier(0.5, 0, 0.5, 1);opacity:0}20.25%{animation-timing-function:linear;opacity:1}100%{opacity:1}} @keyframes kf__8_640_transform_0{0%{transform:translateX(41px) translateY(17px) translate(27.5px, 11.5px) scaleX(0) scaleY(0) translate(-27.5px, -11.5px) scaleX(1) scaleY(1)}9.15%{animation-timing-function:cubic-bezier(0.22, 1, 0.36, 1);transform:translateX(41px) translateY(17px) translate(27.5px, 11.5px) scaleX(0) scaleY(0) translate(-27.5px, -11.5px) scaleX(1) scaleY(1)}39.15%{transform:translateX(41px) translateY(17px) translate(27.5px, 11.5px) scaleX(1) scaleY(1) translate(-27.5px, -11.5px) scaleX(1) scaleY(1)}100%{transform:translateX(41px) translateY(17px) translate(27.5px, 11.5px) scaleX(1) scaleY(1) translate(-27.5px, -11.5px) scaleX(1) scaleY(1)}} @keyframes kf__8_640_opacity_0{0%{animation-timing-function:linear;opacity:0}9.15%{animation-timing-function:cubic-bezier(0.4, 0, 0.2, 1);opacity:0}39.15%{animation-timing-function:linear;opacity:1}100%{opacity:1}} @keyframes kf_Frame_2147224862_transform_0{0%{transform:translateX(24px) translateY(100px) translateX(0px) translateY(15px)}20.35%{animation-timing-function:ease-out;transform:translateX(24px) translateY(100px) translateX(0px) translateY(15px)}39.95%{transform:translateX(24px) translateY(100px) translateX(0px) translateY(0px)}100%{transform:translateX(24px) translateY(100px) translateX(0px) translateY(0px)}} @keyframes kf_Frame_2147224862_opacity_0{0%{animation-timing-function:linear;opacity:0}20.35%{animation-timing-function:cubic-bezier(0.5, 0, 0.5, 1);opacity:0}39.95%{animation-timing-function:linear;opacity:1}100%{opacity:1}} @keyframes kf__5_180_transform_0{0%{transform:translateX(45px) translateY(17px) translate(25.5px, 11.5px) scaleX(0) scaleY(0) translate(-25.5px, -11.5px) scaleX(1) scaleY(1)}29.22%{animation-timing-function:cubic-bezier(0.22, 1, 0.36, 1);transform:translateX(45px) translateY(17px) translate(25.5px, 11.5px) scaleX(0) scaleY(0) translate(-25.5px, -11.5px) scaleX(1) scaleY(1)}59.22%{transform:translateX(45px) translateY(17px) translate(25.5px, 11.5px) scaleX(1) scaleY(1) translate(-25.5px, -11.5px) scaleX(1) scaleY(1)}100%{transform:translateX(45px) translateY(17px) translate(25.5px, 11.5px) scaleX(1) scaleY(1) translate(-25.5px, -11.5px) scaleX(1) scaleY(1)}} @keyframes kf__5_180_opacity_0{0%{animation-timing-function:linear;opacity:0}29.22%{animation-timing-function:cubic-bezier(0.4, 0, 0.2, 1);opacity:0}59.22%{animation-timing-function:linear;opacity:1}100%{opacity:1}} @keyframes kf_Frame_2147224863_transform_0{0%{transform:translateX(24px) translateY(176px) translateX(0px) translateY(16px)}39.95%{animation-timing-function:ease-out;transform:translateX(24px) translateY(176px) translateX(0px) translateY(16px)}60.1%{transform:translateX(24px) translateY(176px) translateX(0px) translateY(0px)}100%{transform:translateX(24px) translateY(176px) translateX(0px) translateY(0px)}} @keyframes kf_Frame_2147224863_opacity_0{0%{animation-timing-function:linear;opacity:0}39.95%{animation-timing-function:cubic-bezier(0.5, 0, 0.5, 1);opacity:0}60.1%{animation-timing-function:linear;opacity:1}100%{opacity:1}} @keyframes kf__2_340_transform_0{0%{transform:translateX(41px) translateY(17px) translate(27.5px, 11.5px) scaleX(0) scaleY(0) translate(-27.5px, -11.5px) scaleX(1) scaleY(1)}49.31%{animation-timing-function:cubic-bezier(0.22, 1, 0.36, 1);transform:translateX(41px) translateY(17px) translate(27.5px, 11.5px) scaleX(0) scaleY(0) translate(-27.5px, -11.5px) scaleX(1) scaleY(1)}79.31%{transform:translateX(41px) translateY(17px) translate(27.5px, 11.5px) scaleX(1) scaleY(1) translate(-27.5px, -11.5px) scaleX(1) scaleY(1)}100%{transform:translateX(41px) translateY(17px) translate(27.5px, 11.5px) scaleX(1) scaleY(1) translate(-27.5px, -11.5px) scaleX(1) scaleY(1)}} @keyframes kf__2_340_opacity_0{0%{animation-timing-function:linear;opacity:0}49.31%{animation-timing-function:cubic-bezier(0.4, 0, 0.2, 1);opacity:0}79.31%{animation-timing-function:linear;opacity:1}100%{opacity:1}} @keyframes kf_Frame_2147224864_transform_0{0%{transform:translateX(24px) translateY(252px) translateX(0px) translateY(20px)}60.05%{animation-timing-function:ease-out;transform:translateX(24px) translateY(252px) translateX(0px) translateY(20px)}80.25%{transform:translateX(24px) translateY(252px) translateX(0px) translateY(0px)}100%{transform:translateX(24px) translateY(252px) translateX(0px) translateY(0px)}} @keyframes kf_Frame_2147224864_opacity_0{0%{animation-timing-function:linear;opacity:0}60.05%{animation-timing-function:cubic-bezier(0.5, 0, 0.5, 1);opacity:0}80.25%{animation-timing-function:linear;opacity:1}100%{opacity:1}} @keyframes kf__1_020_transform_0{0%{transform:translateX(44px) translateY(17px) translate(26px, 11.5px) scaleX(0) scaleY(0) translate(-26px, -11.5px) scaleX(1) scaleY(1)}69.15%{animation-timing-function:cubic-bezier(0.22, 1, 0.36, 1);transform:translateX(44px) translateY(17px) translate(26px, 11.5px) scaleX(0) scaleY(0) translate(-26px, -11.5px) scaleX(1) scaleY(1)}99.15%{transform:translateX(44px) translateY(17px) translate(26px, 11.5px) scaleX(1) scaleY(1) translate(-26px, -11.5px) scaleX(1) scaleY(1)}100%{transform:translateX(44px) translateY(17px) translate(26px, 11.5px) scaleX(1) scaleY(1) translate(-26px, -11.5px) scaleX(1) scaleY(1)}} @keyframes kf__1_020_opacity_0{0%{animation-timing-function:linear;opacity:0}69.15%{animation-timing-function:cubic-bezier(0.4, 0, 0.2, 1);opacity:0}99.15%{animation-timing-function:linear;opacity:1}100%{opacity:1}}.B{fill:#fff}.C{fill:#100f41}.D{opacity:0}.E{stroke:#d6d4e8}.F{fill-rule:evenodd}.G{fill:#aa261b}.H{fill:#61608b}]]></style><g clip-path="url(#J)"><g transform="translate(64 115)"><g clip-path="url(#K)"><rect width="496" height="302" rx="12" class="B"/><g id="A" opacity=".029" transform="translate(24 24)"><g clip-path="url(#L)"><rect width="448" height="60" rx="8" class="B"/><g transform="translate(16 18.5)"><g clip-path="url(#M)" transform="translate(0 1.5)" class="F G"><path transform="translate(1.367 1.252)" d="M9.715 1.875a1.25 1.25 0 0 0-2.165 0L1.421 12.498a1.25 1.25 0 0 0 1.083 1.875h12.257a1.25 1.25 0 0 0 1.083-1.875L9.715 1.875zm-3.248-.625c.962-1.668 3.369-1.668 4.331 0l6.129 10.623c.961 1.667-.241 3.749-2.166 3.749H2.504c-1.924 0-3.127-2.083-2.165-3.749L6.467 1.251zm2.165 4.372c.345 0 .625.28.625.625v3.125c0 .345-.28.625-.625.625s-.625-.28-.625-.625V6.248c0-.345.28-.625.625-.625zm-.625 6.25c0-.345.28-.625.625-.625h.006c.345 0 .625.28.625.625v.006c0 .345-.28.625-.625.625h-.006c-.345 0-.625-.28-.625-.625v-.006z"/></g><path transform="translate(28)" d="M9.608 5.364V17H7.847V7.125h-.068L4.995 8.943V7.261l2.903-1.898h1.71zM12.596 17v-1.273l3.938-4.08 1.04-1.165c.277-.337.483-.657.619-.96s.205-.625.205-.966c0-.386-.091-.72-.273-1s-.43-.502-.744-.653-.669-.233-1.062-.233c-.417 0-.78.085-1.091.256a1.75 1.75 0 0 0-.716.722c-.167.311-.25.674-.25 1.091h-1.676c0-.708.163-1.328.489-1.858s.773-.941 1.341-1.233 1.214-.443 1.938-.443c.731 0 1.375.146 1.932.438s.998.682 1.313 1.182.472 1.057.472 1.682c0 .432-.081.854-.244 1.267s-.437.873-.835 1.381-.951 1.116-1.659 1.835l-2.312 2.421v.085h5.239V17h-7.659zm13.886 0V5.364h7.295v1.511h-5.54v3.546h5.159v1.506h-5.159v3.563h5.608V17h-7.364zm10.685-8.727l1.926 3.398 1.943-3.398h1.858l-2.722 4.364L42.917 17h-1.858l-1.966-3.261L37.133 17H35.27l2.716-4.364-2.682-4.364h1.864zm11.386 0v1.364h-4.767V8.273h4.767zm-3.489-2.091h1.699v8.256c0 .329.049.578.148.744a.77.77 0 0 0 .381.335c.159.057.331.085.517.085a1.99 1.99 0 0 0 .358-.028l.239-.046.307 1.403c-.099.038-.239.076-.42.114s-.409.064-.682.068a2.99 2.99 0 0 1-1.25-.239c-.386-.167-.699-.424-.937-.773s-.358-.786-.358-1.312V6.182zM50.272 17V8.273h1.642v1.386h.091a2.11 2.11 0 0 1 .841-1.108c.405-.273.864-.409 1.375-.409l.375.011.347.028v1.625c-.068-.019-.189-.04-.364-.062a3.47 3.47 0 0 0-.523-.04c-.401 0-.759.085-1.074.256a1.9 1.9 0 0 0-.739.699 1.89 1.89 0 0 0-.273 1.011V17h-1.699zm8.442.193c-.553 0-1.053-.102-1.5-.307s-.801-.509-1.062-.903-.386-.877-.386-1.449c0-.492.095-.898.284-1.216s.445-.57.767-.756.682-.326 1.079-.421a10.75 10.75 0 0 1 1.216-.216l1.273-.148c.326-.042.563-.108.71-.199s.222-.239.222-.443v-.04c0-.496-.14-.881-.421-1.153s-.689-.409-1.239-.409c-.572 0-1.023.127-1.352.381s-.551.528-.676.835l-1.597-.364c.189-.53.466-.958.83-1.284s.79-.568 1.267-.716.979-.227 1.506-.227a5.31 5.31 0 0 1 1.108.125c.394.08.761.227 1.102.443s.627.525.847.926.329.915.329 1.551V17h-1.659v-1.193h-.068c-.11.22-.275.436-.494.648s-.502.388-.846.529-.758.21-1.239.21zm.369-1.364c.47 0 .871-.093 1.205-.278a1.95 1.95 0 0 0 .767-.727c.178-.303.267-.627.267-.972v-1.125c-.061.061-.178.117-.352.17a5.47 5.47 0 0 1-.585.131l-.642.097-.523.068c-.329.042-.631.112-.903.21a1.55 1.55 0 0 0-.648.426c-.159.182-.239.424-.239.727 0 .42.155.739.466.955s.707.318 1.188.318zm13.791 1.347c-.818 0-1.532-.187-2.142-.562s-1.083-.9-1.421-1.574-.506-1.462-.506-2.364.169-1.697.506-2.375.811-1.205 1.421-1.58 1.324-.562 2.142-.562 1.532.188 2.142.563 1.083.902 1.42 1.58.506 1.47.506 2.375-.168 1.689-.506 2.364-.811 1.199-1.42 1.574-1.324.563-2.142.563zm.006-1.426c.53 0 .97-.14 1.318-.421s.606-.653.773-1.119a4.45 4.45 0 0 0 .256-1.54c0-.557-.085-1.068-.256-1.534s-.424-.847-.773-1.131-.788-.426-1.318-.426-.977.142-1.329.426-.608.661-.778 1.131-.25.977-.25 1.534.083 1.074.25 1.54.43.839.778 1.119.795.421 1.329.421zM78.679 17V8.273h1.642v1.386h.091a2.11 2.11 0 0 1 .841-1.108c.405-.273.864-.409 1.375-.409l.375.011.347.028v1.625c-.068-.019-.189-.04-.364-.062a3.47 3.47 0 0 0-.523-.04c-.401 0-.759.085-1.074.256a1.9 1.9 0 0 0-.739.699 1.89 1.89 0 0 0-.273 1.011V17h-1.699zm8.935.171c-.705 0-1.333-.18-1.886-.54s-.981-.881-1.295-1.551-.466-1.483-.466-2.426.157-1.75.472-2.42.754-1.184 1.307-1.54 1.18-.534 1.881-.534c.542 0 .977.091 1.307.273s.591.386.773.625.329.449.432.631h.102V5.364h1.699V17h-1.659v-1.358h-.142a4.49 4.49 0 0 1-.443.636c-.189.239-.451.447-.784.625s-.765.267-1.295.267zm.375-1.449c.489 0 .902-.129 1.239-.386s.599-.623.773-1.085.267-1 .267-1.614c0-.606-.087-1.136-.261-1.591s-.43-.809-.767-1.063-.754-.381-1.25-.381c-.511 0-.937.133-1.278.398s-.599.627-.773 1.085-.256.975-.256 1.551c0 .583.087 1.108.261 1.574s.432.835.773 1.108.769.403 1.273.403zm9.975 1.455c-.86 0-1.6-.184-2.222-.551s-1.095-.892-1.432-1.562-.5-1.464-.5-2.369c0-.894.167-1.682.5-2.364s.807-1.214 1.409-1.597 1.314-.574 2.125-.574c.492 0 .97.081 1.432.244s.877.419 1.245.767.657.801.869 1.358.318 1.225.318 2.017v.602h-6.937v-1.273h5.273c0-.447-.091-.843-.273-1.187a2.06 2.06 0 0 0-.767-.824c-.326-.201-.708-.301-1.148-.301-.477 0-.894.117-1.25.352s-.625.534-.818.909-.284.775-.284 1.21v.994c0 .583.102 1.08.307 1.489a2.22 2.22 0 0 0 .869.938c.371.212.805.318 1.301.318.322 0 .615-.045.881-.136s.494-.235.688-.421.341-.415.443-.687l1.608.29c-.128.474-.359.888-.693 1.244-.329.352-.744.627-1.244.824s-1.062.29-1.699.29zm5.469-.176V8.273h1.642v1.386h.091a2.11 2.11 0 0 1 .841-1.108c.405-.273.864-.409 1.375-.409l.375.011.347.028v1.625c-.068-.019-.19-.04-.364-.062s-.348-.04-.523-.04c-.401 0-.759.085-1.073.256a1.9 1.9 0 0 0-.739.699c-.182.295-.273.633-.273 1.011V17h-1.699zm10.055 3.273v-12h1.659v1.415h.142c.099-.182.241-.392.427-.631s.443-.447.772-.625.765-.273 1.307-.273c.705 0 1.333.178 1.886.534s.987.869 1.302 1.54.477 1.477.477 2.42-.157 1.752-.472 2.426-.746 1.188-1.295 1.551-1.176.54-1.881.54c-.53 0-.964-.089-1.301-.267s-.595-.386-.784-.625a4.84 4.84 0 0 1-.438-.636h-.102v4.631h-1.699zm1.665-7.636c0 .614.089 1.152.267 1.614s.436.824.773 1.085.75.386 1.238.386c.508 0 .932-.135 1.273-.403s.599-.642.773-1.108.267-.991.267-1.574c0-.576-.087-1.093-.261-1.551s-.428-.82-.773-1.085-.767-.398-1.279-.398c-.492 0-.909.127-1.25.381s-.592.608-.767 1.063-.261.985-.261 1.591zm8.05 4.364V8.273h1.699V17h-1.699zm.858-10.074a1.08 1.08 0 0 1-.761-.295c-.208-.201-.313-.439-.313-.716a.95.95 0 0 1 .313-.716 1.07 1.07 0 0 1 .761-.301 1.05 1.05 0 0 1 .756.301.94.94 0 0 1 .318.716c0 .277-.106.515-.318.716a1.06 1.06 0 0 1-.756.295zm6.643 10.25c-.845 0-1.572-.191-2.182-.574s-1.072-.919-1.398-1.597-.488-1.455-.488-2.33c0-.886.166-1.668.5-2.347s.803-1.214 1.409-1.597 1.32-.574 2.142-.574c.663 0 1.254.123 1.772.369s.938.583 1.256 1.023.513.953.574 1.54h-1.653c-.091-.409-.3-.761-.625-1.057s-.754-.443-1.296-.443a2.11 2.11 0 0 0-1.244.375c-.352.246-.627.598-.824 1.057s-.295.992-.295 1.614c0 .636.096 1.186.289 1.648s.466.82.818 1.074a2.11 2.11 0 0 0 1.256.381 2.11 2.11 0 0 0 .875-.176 1.79 1.79 0 0 0 .665-.517c.182-.224.309-.492.381-.807h1.653c-.061.564-.244 1.068-.551 1.511s-.718.792-1.233 1.046-1.112.381-1.801.381zm6.804-3.136l-.011-2.074h.295l3.478-3.693h2.034l-3.966 4.205h-.267l-1.563 1.563zM135.946 17V5.364h1.699V17h-1.699zm5.511 0l-3.125-4.148 1.171-1.187L143.542 17h-2.085zm11.463-8.727v1.364h-4.932V8.273h4.932zM149.34 17V7.261c0-.545.12-.998.358-1.358s.555-.634.949-.812.822-.273 1.284-.273c.341 0 .633.028.875.085s.423.102.54.148l-.398 1.375-.307-.08c-.125-.034-.276-.051-.454-.051-.413 0-.708.102-.886.307s-.262.5-.262.886V17h-1.699zm8.59.176c-.86 0-1.6-.184-2.221-.551s-1.095-.892-1.432-1.562-.5-1.464-.5-2.369c0-.894.167-1.682.5-2.364s.807-1.214 1.409-1.597 1.314-.574 2.125-.574a4.28 4.28 0 0 1 1.432.244c.462.163.877.419 1.244.767s.657.801.869 1.358.319 1.225.319 2.017v.602h-6.938v-1.273h5.273c0-.447-.091-.843-.273-1.187a2.06 2.06 0 0 0-.767-.824c-.326-.201-.708-.301-1.148-.301-.477 0-.894.117-1.25.352s-.625.534-.818.909a2.63 2.63 0 0 0-.284 1.21v.994c0 .583.102 1.08.307 1.489s.498.722.869.938.805.318 1.301.318c.322 0 .616-.045.881-.136s.494-.235.688-.421.34-.415.443-.687l1.608.29a2.91 2.91 0 0 1-.694 1.244c-.329.352-.744.627-1.244.824s-1.062.29-1.699.29zm9.231 0c-.86 0-1.6-.184-2.222-.551-.617-.371-1.094-.892-1.431-1.562s-.5-1.464-.5-2.369c0-.894.166-1.682.5-2.364s.806-1.214 1.409-1.597 1.314-.574 2.125-.574c.492 0 .969.081 1.431.244s.877.419 1.245.767.657.801.869 1.358.318 1.225.318 2.017v.602h-6.937v-1.273h5.272c0-.447-.09-.843-.272-1.187s-.438-.623-.767-.824-.709-.301-1.148-.301c-.477 0-.894.117-1.25.352s-.625.534-.818.909-.284.775-.284 1.21v.994c0 .583.102 1.08.307 1.489s.498.722.869.938.805.318 1.301.318c.322 0 .615-.045.881-.136a1.9 1.9 0 0 0 .687-.421c.193-.186.341-.415.443-.687l1.608.29c-.129.474-.36.888-.693 1.244s-.744.627-1.244.824-1.063.29-1.699.29z" class="C"/></g><g transform="translate(336 10)"><path transform="translate(29)" d="M.879 11V3h5.016v1.039H2.086v2.438h3.547v1.035H2.086v2.449h3.855V11H.879zm7.178 0V3h2.852c.62 0 1.134.107 1.543.32s.719.509.922.887.305.809.305 1.301-.103.921-.309 1.293-.51.658-.922.863-.923.309-1.543.309h-2.16V6.934h2.051c.391 0 .708-.056.953-.168s.428-.275.543-.488.172-.47.172-.77-.059-.564-.176-.785-.296-.391-.543-.508-.566-.18-.965-.18H9.264V11H8.057zm3.949-3.609L13.983 11h-1.375L10.67 7.391h1.336zM15.697 11V3h2.852c.62 0 1.134.107 1.543.32s.719.509.922.887.305.809.305 1.301-.103.921-.309 1.293-.51.658-.922.863-.923.309-1.543.309h-2.16V6.934h2.051c.391 0 .708-.056.953-.168s.428-.275.543-.488.172-.47.172-.77-.059-.564-.176-.785-.296-.391-.543-.508-.566-.18-.965-.18h-1.516V11h-1.207zm3.949-3.609L21.623 11h-1.375L18.31 7.391h1.336zM30.286 7c0 .854-.156 1.589-.469 2.203a3.44 3.44 0 0 1-1.285 1.414c-.542.328-1.157.492-1.848.492s-1.311-.164-1.855-.492-.969-.803-1.281-1.418-.469-1.348-.469-2.199.156-1.587.469-2.199.739-1.086 1.281-1.414 1.163-.496 1.855-.496 1.306.165 1.848.496.973.799 1.285 1.414.469 1.345.469 2.199zM29.09 7c0-.651-.105-1.199-.316-1.645s-.495-.786-.859-1.016-.772-.348-1.23-.348a2.24 2.24 0 0 0-1.234.348c-.362.229-.648.568-.859 1.016s-.312.993-.312 1.645.104 1.201.313 1.648.497.784.859 1.016.773.344 1.234.344a2.25 2.25 0 0 0 1.23-.344c.365-.232.651-.57.859-1.016s.316-.997.316-1.648zm3.25 4V3h2.852c.62 0 1.134.107 1.543.32s.719.509.922.887.305.809.305 1.301-.103.921-.309 1.293-.51.658-.922.863-.923.309-1.543.309h-2.16V6.934h2.051c.391 0 .708-.056.953-.168s.428-.275.543-.488.172-.47.172-.77-.059-.564-.176-.785-.296-.391-.543-.508-.566-.18-.965-.18h-1.516V11h-1.207zm3.949-3.609L38.266 11h-1.375l-1.937-3.609h1.336zm8.054-2.289a1.14 1.14 0 0 0-.516-.859c-.302-.206-.682-.309-1.141-.309-.328 0-.612.052-.852.156s-.426.242-.559.422-.195.379-.195.605c0 .19.044.354.133.492s.21.254.356.348.307.168.477.23l.488.148.781.203c.255.063.517.147.785.254a3.15 3.15 0 0 1 .746.422 2.02 2.02 0 0 1 .555.648c.143.258.215.566.215.926 0 .453-.117.855-.352 1.207s-.569.629-1.012.832-.973.305-1.598.305c-.599 0-1.117-.095-1.555-.285s-.78-.46-1.027-.809-.384-.768-.41-1.25h1.211c.023.289.117.53.281.723a1.52 1.52 0 0 0 .637.426c.26.091.546.137.855.137.341 0 .645-.053.91-.16s.479-.26.633-.453.23-.423.23-.684c0-.237-.068-.431-.203-.582s-.314-.276-.543-.375a5.31 5.31 0 0 0-.77-.262l-.945-.258c-.641-.174-1.148-.431-1.523-.77s-.559-.786-.559-1.344c0-.461.125-.863.375-1.207s.588-.611 1.016-.801.909-.289 1.445-.289c.542 0 1.02.095 1.434.285s.745.452.984.785a1.98 1.98 0 0 1 .375 1.141h-1.164zM51.317 7c0-.979.129-1.88.387-2.703s.634-1.582 1.129-2.277h1.07c-.193.258-.372.574-.539.949s-.312.786-.437 1.234-.223.908-.293 1.387-.105.947-.105 1.41c0 .62.061 1.247.184 1.883a10.5 10.5 0 0 0 .496 1.769c.208.544.44.988.695 1.332h-1.07c-.495-.695-.871-1.455-1.129-2.277S51.317 7.982 51.317 7zm6.821 5V2h.641v10h-.641zm2.004-6.898a1.14 1.14 0 0 0-.516-.859c-.302-.206-.682-.309-1.141-.309-.328 0-.612.052-.852.156a1.31 1.31 0 0 0-.559.422c-.13.177-.195.379-.195.605 0 .19.044.354.133.492a1.19 1.19 0 0 0 .355.348c.148.091.307.168.476.23l.488.148.781.203c.255.063.517.147.785.254s.517.247.746.422a2.02 2.02 0 0 1 .555.648c.143.258.215.566.215.926 0 .453-.117.855-.352 1.207s-.569.629-1.012.832-.973.305-1.598.305c-.599 0-1.117-.095-1.555-.285s-.78-.46-1.027-.809-.384-.768-.41-1.25h1.211c.023.289.117.53.281.723a1.52 1.52 0 0 0 .637.426c.26.091.546.137.855.137.341 0 .645-.053.91-.16s.479-.26.633-.453.23-.423.23-.684c0-.237-.068-.431-.203-.582a1.5 1.5 0 0 0-.543-.375 5.3 5.3 0 0 0-.77-.262l-.945-.258c-.641-.174-1.148-.431-1.523-.77s-.559-.786-.559-1.344c0-.461.125-.863.375-1.207s.588-.611 1.016-.801.909-.289 1.445-.289c.542 0 1.019.095 1.434.285s.745.452.984.785a1.98 1.98 0 0 1 .375 1.141h-1.164zM65.559 7c0 .982-.129 1.884-.387 2.707a8.06 8.06 0 0 1-1.129 2.277h-1.07c.193-.258.372-.574.539-.949a9.05 9.05 0 0 0 .438-1.231c.125-.448.223-.911.293-1.391s.105-.951.105-1.414c0-.617-.061-1.243-.184-1.879s-.288-1.225-.496-1.77-.44-.988-.695-1.332h1.07a8.06 8.06 0 0 1 1.129 2.277c.258.823.387 1.724.387 2.703z" class="H"/><path id="B" transform="translate(41 17)" d="M4.71 18.455V3.909h.932v14.545H4.71zM7.625 8.42a1.66 1.66 0 0 0-.75-1.25c-.439-.299-.992-.449-1.659-.449-.477 0-.89.076-1.239.227s-.619.352-.812.614a1.45 1.45 0 0 0-.284.881c0 .277.064.515.193.716s.305.369.517.506.447.244.693.335l.71.216 1.136.296c.371.091.752.214 1.142.369s.752.36 1.085.614a2.94 2.94 0 0 1 .807.943c.208.375.313.824.313 1.347 0 .659-.17 1.244-.511 1.756s-.828.915-1.472 1.21-1.415.443-2.324.443c-.871 0-1.625-.138-2.261-.415s-1.134-.669-1.494-1.176-.559-1.117-.597-1.818H2.58c.034.42.17.771.409 1.051a2.21 2.21 0 0 0 .926.619c.379.133.794.199 1.244.199.496 0 .938-.078 1.324-.233s.697-.379.92-.659a1.56 1.56 0 0 0 .335-.994c0-.345-.098-.627-.295-.846s-.456-.402-.79-.546a7.73 7.73 0 0 0-1.119-.381l-1.375-.375c-.932-.254-1.67-.627-2.216-1.119s-.812-1.144-.812-1.955c0-.67.182-1.256.545-1.756s.856-.888 1.477-1.165 1.322-.42 2.102-.42c.788 0 1.483.138 2.085.415s1.083.657 1.432 1.142.53 1.034.545 1.659H7.625zm7.563 8.739c-.814 0-1.534-.14-2.159-.42s-1.108-.667-1.46-1.159-.527-1.053-.523-1.682c-.004-.492.097-.945.301-1.358s.491-.763.847-1.04.754-.458 1.193-.534v-.068c-.58-.14-1.044-.451-1.392-.932s-.521-1.034-.517-1.659c-.004-.595.153-1.125.472-1.591s.763-.839 1.324-1.108 1.199-.403 1.915-.403c.708 0 1.341.136 1.898.409a3.29 3.29 0 0 1 1.324 1.108c.322.466.485.994.489 1.585-.004.625-.182 1.178-.534 1.659s-.811.792-1.375.932v.068c.436.076.828.254 1.176.534s.633.623.841 1.04a2.98 2.98 0 0 1 .324 1.358 2.85 2.85 0 0 1-.534 1.682c-.352.492-.841.879-1.466 1.159s-1.335.42-2.142.42zm0-1.437c.481 0 .898-.08 1.25-.239s.625-.388.818-.676.292-.633.295-1.023c-.004-.405-.11-.763-.318-1.074s-.483-.555-.835-.733-.756-.267-1.21-.267-.866.089-1.222.267-.636.422-.841.733-.305.669-.301 1.074c-.004.39.089.731.278 1.023s.468.513.824.676.777.239 1.261.239zm0-5.415a2.2 2.2 0 0 0 1.028-.233c.299-.155.534-.371.705-.648a1.82 1.82 0 0 0 .267-.972 1.8 1.8 0 0 0-.261-.955 1.66 1.66 0 0 0-.699-.631c-.299-.152-.646-.227-1.04-.227-.402 0-.754.076-1.057.227a1.66 1.66 0 0 0-.699.631c-.167.273-.248.591-.244.955-.004.371.08.695.25.972s.405.492.705.648a2.26 2.26 0 0 0 1.045.233zm7.907 5.102l-.085.619c-.057.455-.153.928-.29 1.42l-.415 1.381-.347 1.011h-1.204l.204-.955.256-1.335.188-1.506.057-.636h1.636zm5.857 1.75c-.519-.008-1.03-.102-1.534-.284s-.954-.485-1.364-.909-.737-.994-.983-1.71-.364-1.61-.364-2.682c0-1.015.1-1.917.301-2.705s.498-1.453.881-1.994a3.9 3.9 0 0 1 1.386-1.244c.542-.284 1.15-.426 1.824-.426.693 0 1.309.136 1.847.409a3.47 3.47 0 0 1 1.307 1.131c.337.481.551 1.028.642 1.642h-1.733a2.24 2.24 0 0 0-.699-1.187c-.349-.307-.803-.46-1.364-.46-.852 0-1.517.371-1.994 1.114s-.712 1.775-.716 3.097h.085c.201-.33.447-.61.739-.841a3.3 3.3 0 0 1 .989-.54 3.48 3.48 0 0 1 1.159-.193c.674 0 1.284.165 1.83.494a3.6 3.6 0 0 1 1.313 1.352c.326.576.489 1.235.489 1.977s-.169 1.415-.506 2.017-.803 1.08-1.409 1.432-1.314.519-2.125.511zm-.006-1.477c.447 0 .847-.11 1.199-.33s.631-.515.835-.886.307-.786.307-1.244c0-.447-.1-.854-.301-1.222s-.47-.659-.818-.875a2.18 2.18 0 0 0-1.182-.324 2.27 2.27 0 0 0-.937.193 2.38 2.38 0 0 0-.75.534c-.216.227-.386.489-.511.784a2.39 2.39 0 0 0-.182.926c0 .436.1.839.301 1.21a2.47 2.47 0 0 0 .835.898c.356.223.758.335 1.205.335zm5.711-.955v-1.42l5.028-7.943h1.119v2.091h-.71l-3.597 5.693v.091h6.892v1.489h-8.733zM40.174 17v-2.704l.011-.648V5.364h1.665V17h-1.676zm9.087.193c-.898-.004-1.665-.241-2.301-.71s-1.123-1.154-1.46-2.051-.506-1.979-.506-3.244.169-2.339.506-3.233.83-1.576 1.466-2.045 1.405-.705 2.295-.705 1.653.237 2.29.71 1.123 1.152 1.46 2.045.511 1.966.511 3.227c0 1.269-.168 2.352-.506 3.25s-.824 1.578-1.46 2.051-1.401.705-2.295.705zm0-1.517c.788 0 1.403-.384 1.847-1.153s.67-1.881.67-3.335c0-.966-.102-1.782-.307-2.449s-.49-1.178-.869-1.523a1.9 1.9 0 0 0-1.341-.523c-.784 0-1.4.386-1.847 1.159s-.672 1.884-.676 3.335c0 .97.1 1.79.301 2.46s.494 1.172.869 1.517a1.94 1.94 0 0 0 1.352.511z" class="C D"/></g></g><rect x=".5" y=".5" width="447" height="59" rx="7.5" class="E"/></g><g id="C" transform="translate(24 100)" class="D"><g clip-path="url(#N)"><rect width="448" height="60" rx="8" class="B"/><g transform="translate(16 18.5)"><g clip-path="url(#O)" transform="translate(0 1.5)" class="F G"><path transform="translate(1.367 1.252)" d="M9.715 1.875a1.25 1.25 0 0 0-2.165 0L1.421 12.498a1.25 1.25 0 0 0 1.083 1.875h12.257a1.25 1.25 0 0 0 1.083-1.875L9.715 1.875zm-3.248-.625c.962-1.668 3.369-1.668 4.331 0l6.129 10.623c.961 1.667-.241 3.749-2.166 3.749H2.504c-1.924 0-3.127-2.083-2.165-3.749L6.467 1.251zm2.165 4.372c.345 0 .625.28.625.625v3.125c0 .345-.28.625-.625.625s-.625-.28-.625-.625V6.248c0-.345.28-.625.625-.625zm-.625 6.25c0-.345.28-.625.625-.625h.006c.345 0 .625.28.625.625v.006c0 .345-.28.625-.625.625h-.006c-.345 0-.625-.28-.625-.625v-.006z"/></g><path transform="translate(28)" d="M4.989 5.205c.519.004 1.03.098 1.534.284s.958.489 1.364.909.735.989.977 1.705.371 1.598.375 2.659c0 1.019-.102 1.926-.307 2.722s-.498 1.46-.881 2.006-.839.96-1.381 1.244-1.152.426-1.83.426c-.693 0-1.309-.136-1.847-.409s-.975-.65-1.312-1.131-.547-1.042-.631-1.67h1.733c.114.5.345.905.693 1.216s.807.46 1.364.46c.852 0 1.517-.371 1.994-1.114s.718-1.788.722-3.125h-.091c-.197.326-.443.606-.739.841s-.619.417-.983.545-.752.193-1.165.193c-.67 0-1.28-.165-1.83-.494s-.987-.782-1.312-1.358S.949 9.881.949 9.142a4.04 4.04 0 0 1 .5-2 3.73 3.73 0 0 1 1.409-1.42c.606-.352 1.316-.525 2.131-.517zm.006 1.477c-.443 0-.843.11-1.199.33s-.631.509-.835.881a2.48 2.48 0 0 0-.307 1.227c0 .451.098.86.295 1.227s.473.653.818.869.746.318 1.193.318c.333 0 .644-.064.932-.193s.54-.307.756-.534a2.6 2.6 0 0 0 .506-.784c.121-.292.182-.598.182-.92 0-.428-.102-.826-.307-1.193a2.39 2.39 0 0 0-.83-.886c-.352-.227-.754-.341-1.205-.341zM17.643 17L14.416 5.364h1.847l2.267 9.011h.108l2.358-9.011h1.83l2.358 9.017h.108l2.261-9.017h1.852L26.172 17h-1.767l-2.449-8.716h-.091L19.416 17h-1.773zm12.519 0V8.273h1.642v1.386h.091a2.11 2.11 0 0 1 .841-1.108c.405-.273.864-.409 1.375-.409l.375.011.347.028v1.625c-.068-.019-.189-.04-.364-.062a3.47 3.47 0 0 0-.523-.04c-.401 0-.759.085-1.074.256a1.9 1.9 0 0 0-.739.699 1.89 1.89 0 0 0-.273 1.011V17h-1.699zm9.344.176c-.818 0-1.532-.187-2.142-.562s-1.083-.9-1.42-1.574-.506-1.462-.506-2.364.169-1.697.506-2.375.811-1.205 1.42-1.58 1.324-.562 2.142-.562 1.532.188 2.142.563 1.083.902 1.42 1.58.506 1.47.506 2.375-.169 1.689-.506 2.364-.811 1.199-1.42 1.574-1.324.563-2.142.563zm.006-1.426c.53 0 .97-.14 1.318-.421s.606-.653.773-1.119a4.45 4.45 0 0 0 .256-1.54c0-.557-.085-1.068-.256-1.534s-.424-.847-.773-1.131-.788-.426-1.318-.426-.977.142-1.33.426a2.54 2.54 0 0 0-.778 1.131c-.167.466-.25.977-.25 1.534s.083 1.074.25 1.54.43.839.778 1.119.795.421 1.33.421zm7.498-3.932V17h-1.699V8.273h1.631v1.42h.108c.201-.462.515-.833.943-1.114s.975-.42 1.631-.42c.595 0 1.115.125 1.563.375s.794.614 1.04 1.102.369 1.093.369 1.813V17h-1.699v-5.347c0-.633-.165-1.127-.494-1.483s-.782-.54-1.358-.54c-.394 0-.744.085-1.051.256a1.84 1.84 0 0 0-.722.75c-.174.326-.261.72-.261 1.182zm11.363 8.636c-.693 0-1.29-.091-1.79-.273s-.901-.422-1.216-.722a3.03 3.03 0 0 1-.705-.983l1.46-.602c.102.167.239.343.409.528s.409.35.704.483.684.199 1.153.199c.644 0 1.176-.157 1.597-.472s.631-.807.631-1.489v-1.716h-.108c-.102.186-.25.392-.443.619s-.451.424-.784.591-.767.25-1.301.25c-.689 0-1.311-.161-1.864-.483s-.985-.805-1.307-1.437-.477-1.419-.477-2.347.157-1.723.472-2.386.754-1.17 1.307-1.523 1.18-.534 1.881-.534c.542 0 .979.091 1.313.273s.593.386.778.625.335.449.438.631h.125V8.273h1.665v8.92c0 .75-.174 1.366-.523 1.847s-.82.837-1.415 1.068-1.258.346-2 .346zm-.017-4.994c.489 0 .902-.114 1.239-.341s.599-.561.773-.989.267-.949.267-1.551c0-.587-.087-1.104-.261-1.551s-.43-.795-.767-1.045-.754-.381-1.25-.381c-.511 0-.937.133-1.278.398s-.599.617-.773 1.068-.256.955-.256 1.511c0 .572.087 1.074.261 1.506s.432.769.773 1.011.769.364 1.273.364zM68.503 17V8.273h1.642v1.386h.091a2.11 2.11 0 0 1 .841-1.108c.405-.273.864-.409 1.375-.409l.375.011.347.028v1.625c-.068-.019-.189-.04-.364-.062a3.47 3.47 0 0 0-.523-.04c-.402 0-.76.085-1.074.256a1.9 1.9 0 0 0-.739.699 1.89 1.89 0 0 0-.273 1.011V17h-1.699zm8.442.193c-.553 0-1.053-.102-1.5-.307s-.801-.509-1.062-.903-.386-.877-.386-1.449c0-.492.095-.898.284-1.216s.445-.57.767-.756.682-.326 1.08-.421.803-.167 1.216-.216l1.273-.148c.326-.042.563-.108.71-.199s.222-.239.222-.443v-.04c0-.496-.14-.881-.42-1.153s-.689-.409-1.239-.409c-.572 0-1.023.127-1.352.381s-.551.528-.676.835l-1.597-.364c.189-.53.466-.958.83-1.284s.79-.568 1.267-.716.979-.227 1.506-.227c.349 0 .718.042 1.108.125s.761.227 1.102.443.627.525.847.926.33.915.33 1.551V17h-1.659v-1.193h-.068c-.11.22-.275.436-.494.648s-.502.388-.847.529-.758.21-1.239.21zm.369-1.364c.47 0 .871-.093 1.204-.278a1.95 1.95 0 0 0 .767-.727c.178-.303.267-.627.267-.972v-1.125c-.061.061-.178.117-.352.17s-.365.093-.585.131l-.642.097-.523.068c-.329.042-.631.112-.903.21s-.485.241-.648.426-.239.424-.239.727c0 .42.155.739.466.955s.706.318 1.188.318zm10.114-7.557v1.364h-4.767V8.273h4.767zM83.94 6.182h1.699v8.256c0 .329.049.578.148.744a.77.77 0 0 0 .381.335c.159.057.332.085.517.085a1.99 1.99 0 0 0 .358-.028l.239-.046.307 1.403c-.099.038-.239.076-.421.114s-.409.064-.682.068a2.99 2.99 0 0 1-1.25-.239c-.386-.167-.699-.424-.937-.773s-.358-.786-.358-1.312V6.182zm8.875 10.994c-.86 0-1.6-.184-2.222-.551s-1.095-.892-1.432-1.562-.5-1.464-.5-2.369c0-.894.167-1.682.5-2.364s.807-1.214 1.409-1.597 1.314-.574 2.125-.574c.492 0 .97.081 1.432.244s.877.419 1.244.767.657.801.869 1.358.318 1.225.318 2.017v.602h-6.937v-1.273h5.273c0-.447-.091-.843-.273-1.187a2.06 2.06 0 0 0-.767-.824c-.326-.201-.708-.301-1.148-.301-.477 0-.894.117-1.25.352s-.625.534-.818.909-.284.775-.284 1.21v.994c0 .583.102 1.08.307 1.489s.498.722.869.938.805.318 1.301.318c.322 0 .616-.045.881-.136a1.9 1.9 0 0 0 .688-.421c.193-.186.341-.415.443-.687l1.608.29a2.91 2.91 0 0 1-.693 1.244 3.36 3.36 0 0 1-1.244.824c-.496.193-1.062.29-1.699.29zm13.22 0c-.845 0-1.572-.191-2.182-.574s-1.072-.919-1.397-1.597-.489-1.455-.489-2.33c0-.886.167-1.668.5-2.347s.803-1.214 1.409-1.597 1.32-.574 2.142-.574c.663 0 1.254.123 1.773.369s.937.583 1.255 1.023.514.953.574 1.54h-1.653a1.98 1.98 0 0 0-.625-1.057c-.322-.295-.754-.443-1.296-.443a2.11 2.11 0 0 0-1.244.375c-.352.246-.627.598-.824 1.057s-.295.992-.295 1.614c0 .636.096 1.186.29 1.648s.465.82.818 1.074.774.381 1.255.381a2.11 2.11 0 0 0 .875-.176 1.78 1.78 0 0 0 .665-.517c.182-.224.309-.492.381-.807h1.653c-.06.564-.244 1.068-.551 1.511s-.718.792-1.233 1.046-1.112.381-1.801.381zm7.782.017c-.553 0-1.053-.102-1.5-.307s-.801-.509-1.063-.903-.386-.877-.386-1.449c0-.492.095-.898.284-1.216s.445-.57.767-.756.682-.326 1.08-.421.803-.167 1.216-.216l1.272-.148c.326-.042.563-.108.711-.199s.221-.239.221-.443v-.04c0-.496-.14-.881-.42-1.153s-.69-.409-1.239-.409c-.572 0-1.023.127-1.352.381s-.551.528-.676.835l-1.597-.364c.189-.53.466-.958.83-1.284s.789-.568 1.267-.716.979-.227 1.505-.227c.349 0 .718.042 1.108.125s.762.227 1.103.443.626.525.846.926.33.915.33 1.551V17h-1.659v-1.193h-.069c-.109.22-.274.436-.494.648s-.502.388-.847.529-.757.21-1.238.21zm.369-1.364c.47 0 .871-.093 1.205-.278s.592-.428.767-.727.267-.627.267-.972v-1.125c-.061.061-.178.117-.352.17a5.5 5.5 0 0 1-.586.131l-.642.097-.522.068a4.21 4.21 0 0 0-.904.21c-.269.098-.485.241-.648.426s-.238.424-.238.727c0 .42.155.739.466.955s.706.318 1.187.318zm6.04 1.171V8.273h1.642v1.386h.091a2.11 2.11 0 0 1 .841-1.108c.406-.273.864-.409 1.375-.409l.375.011.347.028v1.625c-.068-.019-.19-.04-.364-.062a3.46 3.46 0 0 0-.522-.04c-.402 0-.76.085-1.074.256a1.9 1.9 0 0 0-.739.699c-.182.295-.273.633-.273 1.011V17h-1.699zm8.936.171c-.705 0-1.334-.18-1.887-.54s-.981-.881-1.295-1.551-.466-1.483-.466-2.426.157-1.75.471-2.42c.319-.671.754-1.184 1.307-1.54s1.18-.534 1.881-.534c.542 0 .977.091 1.307.273s.591.386.773.625.329.449.431.631h.103V5.364h1.698V17h-1.659v-1.358h-.142c-.102.186-.25.398-.443.636s-.451.447-.784.625-.765.267-1.295.267zm.375-1.449c.488 0 .901-.129 1.238-.386s.599-.623.773-1.085.267-1 .267-1.614c0-.606-.087-1.136-.261-1.591s-.43-.809-.767-1.063-.754-.381-1.25-.381c-.512 0-.938.133-1.279.398s-.598.627-.773 1.085-.255.975-.255 1.551c0 .583.087 1.108.261 1.574s.432.835.773 1.108.769.403 1.273.403z" class="C"/></g><g transform="translate(336 10)"><path transform="translate(29)" d="M.879 11V3h5.016v1.039H2.086v2.438h3.547v1.035H2.086v2.449h3.855V11H.879zm7.178 0V3h2.852c.62 0 1.134.107 1.543.32s.719.509.922.887.305.809.305 1.301-.103.921-.309 1.293-.51.658-.922.863-.923.309-1.543.309h-2.16V6.934h2.051c.391 0 .708-.056.953-.168s.428-.275.543-.488.172-.47.172-.77-.059-.564-.176-.785-.296-.391-.543-.508-.566-.18-.965-.18H9.264V11H8.057zm3.949-3.609L13.983 11h-1.375L10.67 7.391h1.336zM15.697 11V3h2.852c.62 0 1.134.107 1.543.32s.719.509.922.887.305.809.305 1.301-.103.921-.309 1.293-.51.658-.922.863-.923.309-1.543.309h-2.16V6.934h2.051c.391 0 .708-.056.953-.168s.428-.275.543-.488.172-.47.172-.77-.059-.564-.176-.785-.296-.391-.543-.508-.566-.18-.965-.18h-1.516V11h-1.207zm3.949-3.609L21.623 11h-1.375L18.31 7.391h1.336zM30.286 7c0 .854-.156 1.589-.469 2.203a3.44 3.44 0 0 1-1.285 1.414c-.542.328-1.157.492-1.848.492s-1.311-.164-1.855-.492-.969-.803-1.281-1.418-.469-1.348-.469-2.199.156-1.587.469-2.199.739-1.086 1.281-1.414 1.163-.496 1.855-.496 1.306.165 1.848.496.973.799 1.285 1.414.469 1.345.469 2.199zM29.09 7c0-.651-.105-1.199-.316-1.645s-.495-.786-.859-1.016-.772-.348-1.23-.348a2.24 2.24 0 0 0-1.234.348c-.362.229-.648.568-.859 1.016s-.312.993-.312 1.645.104 1.201.313 1.648.497.784.859 1.016.773.344 1.234.344a2.25 2.25 0 0 0 1.23-.344c.365-.232.651-.57.859-1.016s.316-.997.316-1.648zm3.25 4V3h2.852c.62 0 1.134.107 1.543.32s.719.509.922.887.305.809.305 1.301-.103.921-.309 1.293-.51.658-.922.863-.923.309-1.543.309h-2.16V6.934h2.051c.391 0 .708-.056.953-.168s.428-.275.543-.488.172-.47.172-.77-.059-.564-.176-.785-.296-.391-.543-.508-.566-.18-.965-.18h-1.516V11h-1.207zm3.949-3.609L38.266 11h-1.375l-1.937-3.609h1.336zm8.054-2.289a1.14 1.14 0 0 0-.516-.859c-.302-.206-.682-.309-1.141-.309-.328 0-.612.052-.852.156s-.426.242-.559.422-.195.379-.195.605c0 .19.044.354.133.492s.21.254.356.348.307.168.477.23l.488.148.781.203c.255.063.517.147.785.254a3.15 3.15 0 0 1 .746.422 2.02 2.02 0 0 1 .555.648c.143.258.215.566.215.926 0 .453-.117.855-.352 1.207s-.569.629-1.012.832-.973.305-1.598.305c-.599 0-1.117-.095-1.555-.285s-.78-.46-1.027-.809-.384-.768-.41-1.25h1.211c.023.289.117.53.281.723a1.52 1.52 0 0 0 .637.426c.26.091.546.137.855.137.341 0 .645-.053.91-.16s.479-.26.633-.453.23-.423.23-.684c0-.237-.068-.431-.203-.582s-.314-.276-.543-.375a5.31 5.31 0 0 0-.77-.262l-.945-.258c-.641-.174-1.148-.431-1.523-.77s-.559-.786-.559-1.344c0-.461.125-.863.375-1.207s.588-.611 1.016-.801.909-.289 1.445-.289c.542 0 1.02.095 1.434.285s.745.452.984.785a1.98 1.98 0 0 1 .375 1.141h-1.164zM51.317 7c0-.979.129-1.88.387-2.703s.634-1.582 1.129-2.277h1.07c-.193.258-.372.574-.539.949s-.312.786-.437 1.234-.223.908-.293 1.387-.105.947-.105 1.41c0 .62.061 1.247.184 1.883a10.5 10.5 0 0 0 .496 1.769c.208.544.44.988.695 1.332h-1.07c-.495-.695-.871-1.455-1.129-2.277S51.317 7.982 51.317 7zm6.821 5V2h.641v10h-.641zm2.004-6.898a1.14 1.14 0 0 0-.516-.859c-.302-.206-.682-.309-1.141-.309-.328 0-.612.052-.852.156a1.31 1.31 0 0 0-.559.422c-.13.177-.195.379-.195.605 0 .19.044.354.133.492a1.19 1.19 0 0 0 .355.348c.148.091.307.168.476.23l.488.148.781.203c.255.063.517.147.785.254s.517.247.746.422a2.02 2.02 0 0 1 .555.648c.143.258.215.566.215.926 0 .453-.117.855-.352 1.207s-.569.629-1.012.832-.973.305-1.598.305c-.599 0-1.117-.095-1.555-.285s-.78-.46-1.027-.809-.384-.768-.41-1.25h1.211c.023.289.117.53.281.723a1.52 1.52 0 0 0 .637.426c.26.091.546.137.855.137.341 0 .645-.053.91-.16s.479-.26.633-.453.23-.423.23-.684c0-.237-.068-.431-.203-.582a1.5 1.5 0 0 0-.543-.375 5.3 5.3 0 0 0-.77-.262l-.945-.258c-.641-.174-1.148-.431-1.523-.77s-.559-.786-.559-1.344c0-.461.125-.863.375-1.207s.588-.611 1.016-.801.909-.289 1.445-.289c.542 0 1.019.095 1.434.285s.745.452.984.785a1.98 1.98 0 0 1 .375 1.141h-1.164zM65.559 7c0 .982-.129 1.884-.387 2.707a8.06 8.06 0 0 1-1.129 2.277h-1.07c.193-.258.372-.574.539-.949a9.05 9.05 0 0 0 .438-1.231c.125-.448.223-.911.293-1.391s.105-.951.105-1.414c0-.617-.061-1.243-.184-1.879s-.288-1.225-.496-1.77-.44-.988-.695-1.332h1.07a8.06 8.06 0 0 1 1.129 2.277c.258.823.387 1.724.387 2.703z" class="H"/><path id="D" transform="translate(45 17)" d="M4.71 18.455V3.909h.932v14.545H4.71zM7.625 8.42a1.66 1.66 0 0 0-.75-1.25c-.439-.299-.992-.449-1.659-.449-.477 0-.89.076-1.239.227s-.619.352-.812.614a1.45 1.45 0 0 0-.284.881c0 .277.064.515.193.716s.305.369.517.506.447.244.693.335l.71.216 1.136.296c.371.091.752.214 1.142.369s.752.36 1.085.614a2.94 2.94 0 0 1 .807.943c.208.375.313.824.313 1.347 0 .659-.17 1.244-.511 1.756s-.828.915-1.472 1.21-1.415.443-2.324.443c-.871 0-1.625-.138-2.261-.415s-1.134-.669-1.494-1.176-.559-1.117-.597-1.818H2.58c.034.42.17.771.409 1.051a2.21 2.21 0 0 0 .926.619c.379.133.794.199 1.244.199.496 0 .938-.078 1.324-.233s.697-.379.92-.659a1.56 1.56 0 0 0 .335-.994c0-.345-.098-.627-.295-.846s-.456-.402-.79-.546a7.73 7.73 0 0 0-1.119-.381l-1.375-.375c-.932-.254-1.67-.627-2.216-1.119s-.812-1.144-.812-1.955c0-.67.182-1.256.545-1.756s.856-.888 1.477-1.165 1.322-.42 2.102-.42c.788 0 1.483.138 2.085.415s1.083.657 1.432 1.142.53 1.034.545 1.659H7.625zm7.472 8.739c-.712 0-1.352-.136-1.92-.409a3.49 3.49 0 0 1-1.352-1.136 3 3 0 0 1-.54-1.648h1.705c.042.5.263.911.665 1.233s.883.483 1.443.483c.447 0 .843-.102 1.188-.307a2.2 2.2 0 0 0 .818-.858c.201-.364.301-.778.301-1.244 0-.473-.102-.896-.307-1.267s-.487-.663-.847-.875-.765-.32-1.227-.324a3.28 3.28 0 0 0-1.062.182c-.356.121-.644.28-.864.477l-1.608-.239.653-5.864h6.398v1.506h-4.937l-.369 3.256h.068c.227-.22.528-.403.903-.551s.784-.222 1.216-.222c.708 0 1.339.169 1.892.506s.994.797 1.313 1.381.481 1.246.477 2c.004.754-.167 1.426-.511 2.017s-.814 1.057-1.42 1.398-1.294.506-2.074.506zm7.732-1.75l-.085.619c-.057.455-.153.928-.29 1.42l-.415 1.381-.347 1.011h-1.205l.205-.955.256-1.335.188-1.506.057-.636h1.636zm5.225-10.045V17h-1.761V7.125h-.068l-2.784 1.818V7.261l2.903-1.898h1.71zm6.919 11.795c-.814 0-1.534-.14-2.159-.42s-1.108-.667-1.46-1.159-.526-1.053-.523-1.682c-.004-.492.097-.945.301-1.358a2.99 2.99 0 0 1 .847-1.04c.356-.28.754-.458 1.193-.534v-.068c-.579-.14-1.044-.451-1.392-.932s-.521-1.034-.517-1.659c-.004-.595.153-1.125.472-1.591a3.29 3.29 0 0 1 1.324-1.108c.561-.269 1.199-.403 1.915-.403.708 0 1.341.136 1.898.409s1.002.638 1.324 1.108.485.994.489 1.585c-.004.625-.182 1.178-.534 1.659s-.811.792-1.375.932v.068c.436.076.828.254 1.176.534s.633.623.841 1.04a2.98 2.98 0 0 1 .324 1.358c-.004.629-.182 1.189-.534 1.682s-.841.879-1.466 1.159-1.335.42-2.142.42zm0-1.437c.481 0 .898-.08 1.25-.239s.625-.388.818-.676.292-.633.295-1.023c-.004-.405-.11-.763-.318-1.074s-.483-.555-.835-.733-.756-.267-1.21-.267-.865.089-1.222.267-.636.422-.841.733-.305.669-.301 1.074c-.004.39.089.731.278 1.023s.468.513.824.676.776.239 1.261.239zm0-5.415a2.2 2.2 0 0 0 1.028-.233c.299-.155.534-.371.705-.648a1.82 1.82 0 0 0 .267-.972 1.8 1.8 0 0 0-.261-.955 1.66 1.66 0 0 0-.699-.631c-.299-.152-.646-.227-1.04-.227-.401 0-.754.076-1.057.227a1.66 1.66 0 0 0-.699.631c-.167.273-.248.591-.244.955-.004.371.08.695.25.972s.405.492.705.648a2.26 2.26 0 0 0 1.045.233zm10.069 6.886c-.898-.004-1.665-.241-2.301-.71s-1.123-1.154-1.46-2.051-.506-1.979-.506-3.244.169-2.339.506-3.233.83-1.576 1.466-2.045 1.405-.705 2.295-.705 1.653.237 2.29.71 1.123 1.152 1.46 2.045.511 1.966.511 3.227c0 1.269-.169 2.352-.506 3.25s-.824 1.578-1.46 2.051-1.401.705-2.296.705zm0-1.517c.788 0 1.403-.384 1.847-1.153s.67-1.881.67-3.335c0-.966-.102-1.782-.307-2.449s-.491-1.178-.869-1.523a1.9 1.9 0 0 0-1.341-.523c-.784 0-1.4.386-1.847 1.159s-.672 1.884-.676 3.335c0 .97.1 1.79.301 2.46s.494 1.172.869 1.517a1.94 1.94 0 0 0 1.352.511z" class="C D"/></g></g><rect x=".5" y=".5" width="447" height="59" rx="7.5" class="E"/></g><g id="E" transform="translate(24 176)" class="D"><g clip-path="url(#P)"><rect width="448" height="60" rx="8" class="B"/><g transform="translate(16 18.5)"><g clip-path="url(#Q)" transform="translate(0 1.5)" class="F G"><path transform="translate(1.367 1.252)" d="M9.715 1.875a1.25 1.25 0 0 0-2.165 0L1.421 12.498a1.25 1.25 0 0 0 1.083 1.875h12.257a1.25 1.25 0 0 0 1.083-1.875L9.715 1.875zm-3.248-.625c.962-1.668 3.369-1.668 4.331 0l6.129 10.623c.961 1.667-.241 3.749-2.166 3.749H2.504c-1.924 0-3.127-2.083-2.165-3.749L6.467 1.251zm2.165 4.372c.345 0 .625.28.625.625v3.125c0 .345-.28.625-.625.625s-.625-.28-.625-.625V6.248c0-.345.28-.625.625-.625zm-.625 6.25c0-.345.28-.625.625-.625h.006c.345 0 .625.28.625.625v.006c0 .345-.28.625-.625.625h-.006c-.345 0-.625-.28-.625-.625v-.006z"/></g><path transform="translate(28)" d="M5.051 17.159c-.814 0-1.534-.14-2.159-.42s-1.108-.667-1.46-1.159-.527-1.053-.523-1.682c-.004-.492.097-.945.301-1.358a2.99 2.99 0 0 1 .847-1.04 2.62 2.62 0 0 1 1.193-.534v-.068c-.58-.14-1.044-.451-1.392-.932s-.521-1.034-.517-1.659c-.004-.595.153-1.125.472-1.591a3.29 3.29 0 0 1 1.324-1.108c.561-.269 1.199-.403 1.915-.403.708 0 1.341.136 1.898.409a3.29 3.29 0 0 1 1.324 1.108c.322.466.485.994.489 1.585-.004.625-.182 1.178-.534 1.659s-.811.792-1.375.932v.068c.436.076.828.254 1.176.534s.633.623.841 1.04a2.98 2.98 0 0 1 .324 1.358c-.004.629-.182 1.189-.534 1.682s-.841.879-1.466 1.159-1.335.42-2.142.42zm0-1.437c.481 0 .898-.08 1.25-.239s.625-.388.818-.676.292-.633.295-1.023c-.004-.405-.11-.763-.318-1.074s-.483-.555-.835-.733-.756-.267-1.21-.267-.866.089-1.222.267-.636.422-.841.733-.305.669-.301 1.074c-.004.39.089.731.278 1.023s.468.513.824.676.777.239 1.261.239zm0-5.415a2.2 2.2 0 0 0 1.028-.233c.299-.155.534-.371.705-.648a1.82 1.82 0 0 0 .267-.972A1.8 1.8 0 0 0 6.79 7.5a1.66 1.66 0 0 0-.699-.631c-.299-.152-.646-.227-1.04-.227-.402 0-.754.076-1.057.227a1.66 1.66 0 0 0-.699.631c-.167.273-.248.591-.244.955-.004.371.08.695.25.972s.405.492.705.648a2.26 2.26 0 0 0 1.045.233zM19.069 17h-3.767V5.364h3.886c1.14 0 2.119.233 2.938.699s1.445 1.127 1.881 1.994.659 1.9.659 3.108-.222 2.254-.665 3.125-1.076 1.542-1.909 2.011-1.841.699-3.023.699zm-2.011-1.534h1.915c.886 0 1.623-.167 2.21-.5a3.15 3.15 0 0 0 1.318-1.46c.292-.64.438-1.42.438-2.341 0-.913-.146-1.688-.437-2.324a3.09 3.09 0 0 0-1.29-1.449c-.572-.33-1.282-.494-2.131-.494h-2.023v8.568zm15.023-2.085V8.273h1.705V17h-1.67v-1.511h-.091c-.201.466-.523.854-.966 1.165s-.987.46-1.642.46c-.561 0-1.057-.123-1.489-.369s-.765-.619-1.011-1.108-.364-1.093-.364-1.812V8.273h1.699v5.347c0 .595.165 1.068.494 1.42s.758.528 1.284.528c.318 0 .634-.08.949-.239s.581-.4.79-.721.316-.731.313-1.227zm3.827 6.892v-12h1.659v1.415h.142a4.75 4.75 0 0 1 .426-.631c.186-.239.443-.447.773-.625s.765-.273 1.307-.273c.705 0 1.333.178 1.886.534s.987.869 1.301 1.54.477 1.477.477 2.42-.157 1.752-.472 2.426-.746 1.188-1.295 1.551-1.176.54-1.881.54c-.53 0-.964-.089-1.301-.267s-.595-.386-.784-.625-.335-.451-.437-.636h-.102v4.631h-1.699zm1.665-7.636c0 .614.089 1.152.267 1.614s.436.824.773 1.085.75.386 1.239.386c.508 0 .932-.135 1.273-.403s.599-.642.773-1.108a4.38 4.38 0 0 0 .267-1.574c0-.576-.087-1.093-.261-1.551s-.428-.82-.773-1.085-.767-.398-1.278-.398c-.492 0-.909.127-1.25.381s-.593.608-.767 1.063-.261.985-.261 1.591zm9.749-7.273V17h-1.699V5.364h1.699zM49.448 17V8.273h1.699V17h-1.699zm.858-10.074a1.08 1.08 0 0 1-.761-.295.96.96 0 0 1-.312-.716.95.95 0 0 1 .313-.716 1.07 1.07 0 0 1 .761-.301 1.05 1.05 0 0 1 .756.301.94.94 0 0 1 .318.716c0 .277-.106.515-.318.716a1.06 1.06 0 0 1-.756.295zm6.643 10.25c-.845 0-1.572-.191-2.182-.574a3.8 3.8 0 0 1-1.398-1.597c-.326-.678-.489-1.455-.489-2.33 0-.886.167-1.668.5-2.347a3.83 3.83 0 0 1 1.409-1.597c.606-.383 1.32-.574 2.142-.574.663 0 1.254.123 1.773.369s.938.583 1.256 1.023.513.953.574 1.54H58.88a1.98 1.98 0 0 0-.625-1.057c-.322-.295-.754-.443-1.296-.443a2.11 2.11 0 0 0-1.244.375c-.352.246-.627.598-.824 1.057s-.295.992-.295 1.614c0 .636.097 1.186.29 1.648s.466.82.818 1.074.775.381 1.256.381c.322 0 .614-.059.875-.176s.487-.294.665-.517.309-.492.381-.807h1.653c-.061.564-.244 1.068-.551 1.511a3.17 3.17 0 0 1-1.233 1.046c-.511.254-1.112.381-1.801.381zm7.782.017c-.553 0-1.053-.102-1.5-.307s-.801-.509-1.062-.903-.386-.877-.386-1.449c0-.492.095-.898.284-1.216s.445-.57.767-.756.682-.326 1.08-.421.803-.167 1.216-.216l1.273-.148c.326-.042.563-.108.71-.199s.222-.239.222-.443v-.04c0-.496-.14-.881-.42-1.153s-.689-.409-1.239-.409c-.572 0-1.023.127-1.352.381s-.551.528-.676.835l-1.597-.364c.189-.53.466-.958.83-1.284s.79-.568 1.267-.716.979-.227 1.506-.227c.349 0 .718.042 1.108.125s.761.227 1.102.443.627.525.847.926.33.915.33 1.551V17h-1.659v-1.193h-.068c-.11.22-.275.436-.494.648s-.502.388-.847.529-.758.21-1.239.21zm.369-1.364c.47 0 .871-.093 1.204-.278a1.95 1.95 0 0 0 .767-.727c.178-.303.267-.627.267-.972v-1.125c-.061.061-.178.117-.352.17s-.366.093-.585.131l-.642.097-.523.068c-.33.042-.631.112-.903.21s-.485.241-.648.426-.239.424-.239.727c0 .42.155.739.466.955s.706.318 1.188.318zm10.114-7.557v1.364h-4.767V8.273h4.767zm-3.489-2.091h1.699v8.256c0 .329.049.578.148.744a.77.77 0 0 0 .381.335c.159.057.332.085.517.085a1.99 1.99 0 0 0 .358-.028l.239-.046.307 1.403c-.099.038-.239.076-.421.114s-.409.064-.682.068a2.99 2.99 0 0 1-1.25-.239c-.386-.167-.699-.424-.937-.773s-.358-.786-.358-1.312V6.182zM80.6 17.176c-.86 0-1.6-.184-2.222-.551s-1.095-.892-1.432-1.562-.5-1.464-.5-2.369c0-.894.167-1.682.5-2.364s.807-1.214 1.409-1.597 1.314-.574 2.125-.574c.492 0 .97.081 1.432.244s.877.419 1.244.767.657.801.869 1.358.318 1.225.318 2.017v.602h-6.937v-1.273h5.273c0-.447-.091-.843-.273-1.187a2.06 2.06 0 0 0-.767-.824c-.326-.201-.708-.301-1.148-.301-.477 0-.894.117-1.25.352s-.625.534-.818.909-.284.775-.284 1.21v.994c0 .583.102 1.08.307 1.489s.498.722.869.938.805.318 1.301.318c.322 0 .616-.045.881-.136a1.9 1.9 0 0 0 .688-.421c.193-.186.341-.415.443-.687l1.608.29a2.91 2.91 0 0 1-.693 1.244 3.36 3.36 0 0 1-1.244.824c-.496.193-1.062.29-1.699.29zm13.22 0c-.818 0-1.532-.187-2.142-.562s-1.083-.9-1.42-1.574-.506-1.462-.506-2.364.168-1.697.506-2.375.811-1.205 1.42-1.58 1.324-.562 2.142-.562 1.532.188 2.142.563 1.083.902 1.42 1.58.506 1.47.506 2.375-.168 1.689-.506 2.364-.811 1.199-1.42 1.574-1.324.563-2.142.563zm.006-1.426c.53 0 .97-.14 1.318-.421s.606-.653.773-1.119a4.45 4.45 0 0 0 .256-1.54c0-.557-.085-1.068-.256-1.534s-.424-.847-.773-1.131-.788-.426-1.318-.426-.977.142-1.329.426-.608.661-.778 1.131-.25.977-.25 1.534.083 1.074.25 1.54.43.839.778 1.119.795.421 1.329.421zM99.625 17V8.273h1.642v1.386h.09c.16-.47.44-.839.841-1.108.406-.273.864-.409 1.375-.409l.375.011.347.028v1.625a3.02 3.02 0 0 0-.364-.062 3.46 3.46 0 0 0-.522-.04c-.402 0-.76.085-1.074.256a1.9 1.9 0 0 0-.739.699c-.182.295-.273.633-.273 1.011V17h-1.698zm8.936.171c-.705 0-1.334-.18-1.887-.54s-.981-.881-1.295-1.551-.466-1.483-.466-2.426.157-1.75.472-2.42.753-1.184 1.306-1.54 1.18-.534 1.881-.534c.542 0 .977.091 1.307.273s.591.386.773.625.329.449.431.631h.103V5.364h1.699V17h-1.66v-1.358h-.142c-.102.186-.25.398-.443.636a2.45 2.45 0 0 1-.784.625c-.333.178-.765.267-1.295.267zm.375-1.449c.488 0 .901-.129 1.238-.386s.599-.623.773-1.085.267-1 .267-1.614c0-.606-.087-1.136-.261-1.591s-.43-.809-.767-1.063-.754-.381-1.25-.381c-.512 0-.938.133-1.279.398s-.598.627-.772 1.085-.256.975-.256 1.551c0 .583.087 1.108.261 1.574s.432.835.773 1.108.769.403 1.273.403zm9.975 1.455c-.86 0-1.601-.184-2.222-.551a3.74 3.74 0 0 1-1.432-1.562c-.333-.674-.5-1.464-.5-2.369 0-.894.167-1.682.5-2.364s.807-1.214 1.409-1.597 1.315-.574 2.125-.574c.493 0 .97.081 1.432.244s.877.419 1.244.767.658.801.87 1.358.318 1.225.318 2.017v.602h-6.938v-1.273h5.273c0-.447-.091-.843-.273-1.187s-.437-.623-.767-.824-.708-.301-1.147-.301c-.478 0-.894.117-1.25.352s-.625.534-.818.909-.285.775-.285 1.21v.994c0 .583.103 1.08.307 1.489a2.22 2.22 0 0 0 .87.938c.371.212.804.318 1.301.318.322 0 .615-.045.88-.136s.495-.235.688-.421.341-.415.443-.687l1.608.29c-.129.474-.36.888-.693 1.244s-.744.627-1.244.824-1.063.29-1.699.29zm5.469-.176V8.273h1.642v1.386h.091c.159-.47.439-.839.841-1.108s.863-.409 1.375-.409l.375.011.346.028v1.625a3.03 3.03 0 0 0-.363-.062c-.175-.027-.349-.04-.523-.04-.402 0-.759.085-1.074.256s-.557.4-.738.699-.273.633-.273 1.011V17h-1.699z" class="C"/></g><g transform="translate(336 10)"><path transform="translate(29)" d="M.879 11V3h5.016v1.039H2.086v2.438h3.547v1.035H2.086v2.449h3.855V11H.879zm7.178 0V3h2.852c.62 0 1.134.107 1.543.32s.719.509.922.887.305.809.305 1.301-.103.921-.309 1.293-.51.658-.922.863-.923.309-1.543.309h-2.16V6.934h2.051c.391 0 .708-.056.953-.168s.428-.275.543-.488.172-.47.172-.77-.059-.564-.176-.785-.296-.391-.543-.508-.566-.18-.965-.18H9.264V11H8.057zm3.949-3.609L13.983 11h-1.375L10.67 7.391h1.336zM15.697 11V3h2.852c.62 0 1.134.107 1.543.32s.719.509.922.887.305.809.305 1.301-.103.921-.309 1.293-.51.658-.922.863-.923.309-1.543.309h-2.16V6.934h2.051c.391 0 .708-.056.953-.168s.428-.275.543-.488.172-.47.172-.77-.059-.564-.176-.785-.296-.391-.543-.508-.566-.18-.965-.18h-1.516V11h-1.207zm3.949-3.609L21.623 11h-1.375L18.31 7.391h1.336zM30.286 7c0 .854-.156 1.589-.469 2.203a3.44 3.44 0 0 1-1.285 1.414c-.542.328-1.157.492-1.848.492s-1.311-.164-1.855-.492-.969-.803-1.281-1.418-.469-1.348-.469-2.199.156-1.587.469-2.199.739-1.086 1.281-1.414 1.163-.496 1.855-.496 1.306.165 1.848.496.973.799 1.285 1.414.469 1.345.469 2.199zM29.09 7c0-.651-.105-1.199-.316-1.645s-.495-.786-.859-1.016-.772-.348-1.23-.348a2.24 2.24 0 0 0-1.234.348c-.362.229-.648.568-.859 1.016s-.312.993-.312 1.645.104 1.201.313 1.648.497.784.859 1.016.773.344 1.234.344a2.25 2.25 0 0 0 1.23-.344c.365-.232.651-.57.859-1.016s.316-.997.316-1.648zm3.25 4V3h2.852c.62 0 1.134.107 1.543.32s.719.509.922.887.305.809.305 1.301-.103.921-.309 1.293-.51.658-.922.863-.923.309-1.543.309h-2.16V6.934h2.051c.391 0 .708-.056.953-.168s.428-.275.543-.488.172-.47.172-.77-.059-.564-.176-.785-.296-.391-.543-.508-.566-.18-.965-.18h-1.516V11h-1.207zm3.949-3.609L38.266 11h-1.375l-1.937-3.609h1.336zm8.054-2.289a1.14 1.14 0 0 0-.516-.859c-.302-.206-.682-.309-1.141-.309-.328 0-.612.052-.852.156s-.426.242-.559.422-.195.379-.195.605c0 .19.044.354.133.492s.21.254.356.348.307.168.477.23l.488.148.781.203c.255.063.517.147.785.254a3.15 3.15 0 0 1 .746.422 2.02 2.02 0 0 1 .555.648c.143.258.215.566.215.926 0 .453-.117.855-.352 1.207s-.569.629-1.012.832-.973.305-1.598.305c-.599 0-1.117-.095-1.555-.285s-.78-.46-1.027-.809-.384-.768-.41-1.25h1.211c.023.289.117.53.281.723a1.52 1.52 0 0 0 .637.426c.26.091.546.137.855.137.341 0 .645-.053.91-.16s.479-.26.633-.453.23-.423.23-.684c0-.237-.068-.431-.203-.582s-.314-.276-.543-.375a5.31 5.31 0 0 0-.77-.262l-.945-.258c-.641-.174-1.148-.431-1.523-.77s-.559-.786-.559-1.344c0-.461.125-.863.375-1.207s.588-.611 1.016-.801.909-.289 1.445-.289c.542 0 1.02.095 1.434.285s.745.452.984.785a1.98 1.98 0 0 1 .375 1.141h-1.164zM51.317 7c0-.979.129-1.88.387-2.703s.634-1.582 1.129-2.277h1.07c-.193.258-.372.574-.539.949s-.312.786-.437 1.234-.223.908-.293 1.387-.105.947-.105 1.41c0 .62.061 1.247.184 1.883a10.5 10.5 0 0 0 .496 1.769c.208.544.44.988.695 1.332h-1.07c-.495-.695-.871-1.455-1.129-2.277S51.317 7.982 51.317 7zm6.821 5V2h.641v10h-.641zm2.004-6.898a1.14 1.14 0 0 0-.516-.859c-.302-.206-.682-.309-1.141-.309-.328 0-.612.052-.852.156a1.31 1.31 0 0 0-.559.422c-.13.177-.195.379-.195.605 0 .19.044.354.133.492a1.19 1.19 0 0 0 .355.348c.148.091.307.168.476.23l.488.148.781.203c.255.063.517.147.785.254s.517.247.746.422a2.02 2.02 0 0 1 .555.648c.143.258.215.566.215.926 0 .453-.117.855-.352 1.207s-.569.629-1.012.832-.973.305-1.598.305c-.599 0-1.117-.095-1.555-.285s-.78-.46-1.027-.809-.384-.768-.41-1.25h1.211c.023.289.117.53.281.723a1.52 1.52 0 0 0 .637.426c.26.091.546.137.855.137.341 0 .645-.053.91-.16s.479-.26.633-.453.23-.423.23-.684c0-.237-.068-.431-.203-.582a1.5 1.5 0 0 0-.543-.375 5.3 5.3 0 0 0-.77-.262l-.945-.258c-.641-.174-1.148-.431-1.523-.77s-.559-.786-.559-1.344c0-.461.125-.863.375-1.207s.588-.611 1.016-.801.909-.289 1.445-.289c.542 0 1.019.095 1.434.285s.745.452.984.785a1.98 1.98 0 0 1 .375 1.141h-1.164zM65.559 7c0 .982-.129 1.884-.387 2.707a8.06 8.06 0 0 1-1.129 2.277h-1.07c.193-.258.372-.574.539-.949a9.05 9.05 0 0 0 .438-1.231c.125-.448.223-.911.293-1.391s.105-.951.105-1.414c0-.617-.061-1.243-.184-1.879s-.288-1.225-.496-1.77-.44-.988-.695-1.332h1.07a8.06 8.06 0 0 1 1.129 2.277c.258.823.387 1.724.387 2.703z" class="H"/><path id="F" transform="translate(41 17)" d="M4.71 18.455V3.909h.932v14.545H4.71zM7.625 8.42a1.66 1.66 0 0 0-.75-1.25c-.439-.299-.992-.449-1.659-.449-.477 0-.89.076-1.239.227s-.619.352-.812.614a1.45 1.45 0 0 0-.284.881c0 .277.064.515.193.716s.305.369.517.506.447.244.693.335l.71.216 1.136.296c.371.091.752.214 1.142.369s.752.36 1.085.614a2.94 2.94 0 0 1 .807.943c.208.375.313.824.313 1.347 0 .659-.17 1.244-.511 1.756s-.828.915-1.472 1.21-1.415.443-2.324.443c-.871 0-1.625-.138-2.261-.415s-1.134-.669-1.494-1.176-.559-1.117-.597-1.818H2.58c.034.42.17.771.409 1.051a2.21 2.21 0 0 0 .926.619c.379.133.794.199 1.244.199.496 0 .938-.078 1.324-.233s.697-.379.92-.659a1.56 1.56 0 0 0 .335-.994c0-.345-.098-.627-.295-.846s-.456-.402-.79-.546a7.73 7.73 0 0 0-1.119-.381l-1.375-.375c-.932-.254-1.67-.627-2.216-1.119s-.812-1.144-.812-1.955c0-.67.182-1.256.545-1.756s.856-.888 1.477-1.165 1.322-.42 2.102-.42c.788 0 1.483.138 2.085.415s1.083.657 1.432 1.142.53 1.034.545 1.659H7.625zM11.256 17v-1.273l3.938-4.08 1.04-1.165c.277-.337.483-.657.619-.96s.205-.625.205-.966c0-.386-.091-.72-.273-1s-.43-.502-.744-.653-.669-.233-1.062-.233c-.417 0-.78.085-1.091.256a1.75 1.75 0 0 0-.716.722c-.167.311-.25.674-.25 1.091h-1.676c0-.708.163-1.328.489-1.858s.773-.941 1.341-1.233 1.214-.443 1.938-.443c.731 0 1.375.146 1.932.438s.998.682 1.313 1.182.472 1.057.472 1.682c0 .432-.081.854-.244 1.267s-.437.873-.835 1.381-.951 1.116-1.659 1.835l-2.312 2.421v.085h5.239V17h-7.659zm11.885-1.591l-.085.619c-.057.455-.153.928-.29 1.42l-.415 1.381-.347 1.011h-1.205l.205-.955.256-1.335.188-1.506.057-.636h1.636zm5.846 1.75c-.78 0-1.477-.134-2.091-.403s-1.093-.642-1.449-1.119a2.97 2.97 0 0 1-.568-1.671h1.784c.023.345.138.644.347.898s.489.443.829.58.72.205 1.136.205c.458 0 .864-.08 1.216-.239s.634-.381.835-.665.301-.619.301-.994c0-.39-.1-.733-.301-1.028s-.487-.534-.869-.705-.837-.256-1.375-.256H27.8V10.33h.983c.432 0 .811-.078 1.136-.233s.587-.371.773-.648.278-.608.278-.983c0-.36-.082-.672-.244-.937a1.64 1.64 0 0 0-.682-.631c-.292-.152-.636-.227-1.034-.227-.379 0-.733.07-1.062.21a1.96 1.96 0 0 0-.796.591 1.52 1.52 0 0 0-.329.915h-1.699a2.87 2.87 0 0 1 .557-1.659c.356-.477.826-.85 1.409-1.119s1.231-.403 1.943-.403c.746 0 1.39.146 1.932.438s.966.672 1.261 1.153.447 1.008.443 1.58c.004.652-.178 1.205-.545 1.659s-.848.759-1.455.915v.091c.773.117 1.371.424 1.795.92s.64 1.112.636 1.847c.004.64-.174 1.214-.534 1.722s-.843.907-1.46 1.199-1.324.432-2.119.432zm5.857-2.432v-1.42l5.028-7.943h1.119v2.091h-.71l-3.597 5.693v.091h6.892v1.489h-8.733zM40.361 17v-2.704l.011-.648V5.364h1.665V17h-1.676zm9.087.193c-.898-.004-1.665-.241-2.301-.71s-1.123-1.154-1.46-2.051-.506-1.979-.506-3.244.169-2.339.506-3.233.83-1.576 1.466-2.045 1.405-.705 2.295-.705 1.653.237 2.29.71 1.123 1.152 1.46 2.045.511 1.966.511 3.227c0 1.269-.168 2.352-.506 3.25s-.824 1.578-1.46 2.051-1.401.705-2.295.705zm0-1.517c.788 0 1.403-.384 1.847-1.153s.67-1.881.67-3.335c0-.966-.102-1.782-.307-2.449s-.49-1.178-.869-1.523a1.9 1.9 0 0 0-1.341-.523c-.784 0-1.4.386-1.847 1.159s-.672 1.884-.676 3.335c0 .97.1 1.79.301 2.46s.494 1.172.869 1.517a1.94 1.94 0 0 0 1.352.511z" class="C D"/></g></g><rect x=".5" y=".5" width="447" height="59" rx="7.5" class="E"/></g><g id="G" transform="translate(24 252)" class="D"><g clip-path="url(#R)"><rect width="448" height="60" rx="8" class="B"/><g transform="translate(16 18.5)"><g clip-path="url(#S)" transform="translate(0 1.5)" class="F G"><path transform="translate(1.367 1.252)" d="M9.715 1.875a1.25 1.25 0 0 0-2.165 0L1.421 12.498a1.25 1.25 0 0 0 1.083 1.875h12.257a1.25 1.25 0 0 0 1.083-1.875L9.715 1.875zm-3.248-.625c.962-1.668 3.369-1.668 4.331 0l6.129 10.623c.961 1.667-.241 3.749-2.166 3.749H2.504c-1.924 0-3.127-2.083-2.165-3.749L6.467 1.251zm2.165 4.372c.345 0 .625.28.625.625v3.125c0 .345-.28.625-.625.625s-.625-.28-.625-.625V6.248c0-.345.28-.625.625-.625zm-.625 6.25c0-.345.28-.625.625-.625h.006c.345 0 .625.28.625.625v.006c0 .345-.28.625-.625.625h-.006c-.345 0-.625-.28-.625-.625v-.006z"/></g><path transform="translate(28)" d="M5.182 17.159c-.519-.008-1.03-.102-1.534-.284s-.955-.485-1.364-.909-.737-.994-.983-1.71-.364-1.61-.364-2.682c0-1.015.1-1.917.301-2.705s.498-1.453.881-1.994a3.9 3.9 0 0 1 1.386-1.244c.542-.284 1.15-.426 1.824-.426.693 0 1.309.136 1.847.409a3.47 3.47 0 0 1 1.307 1.131c.337.481.551 1.028.642 1.642H7.392a2.24 2.24 0 0 0-.699-1.187c-.348-.307-.803-.46-1.364-.46-.852 0-1.517.371-1.994 1.114s-.712 1.775-.716 3.097h.085c.201-.33.447-.61.739-.841a3.3 3.3 0 0 1 .989-.54 3.48 3.48 0 0 1 1.159-.193c.674 0 1.284.165 1.83.494a3.6 3.6 0 0 1 1.313 1.352c.326.576.489 1.235.489 1.977s-.169 1.415-.506 2.017-.803 1.08-1.409 1.432-1.314.519-2.125.511zm-.006-1.477c.447 0 .847-.11 1.199-.33a2.38 2.38 0 0 0 .835-.886c.205-.371.307-.786.307-1.244 0-.447-.1-.854-.301-1.222s-.47-.659-.818-.875a2.18 2.18 0 0 0-1.182-.324 2.27 2.27 0 0 0-.937.193 2.38 2.38 0 0 0-.75.534c-.216.227-.386.489-.511.784a2.39 2.39 0 0 0-.182.926c0 .436.1.839.301 1.21a2.47 2.47 0 0 0 .835.898c.356.223.758.335 1.205.335zm20.296-4.5c0 1.242-.227 2.311-.682 3.205s-1.078 1.576-1.869 2.057-1.684.716-2.687.716-1.907-.239-2.699-.716-1.409-1.169-1.864-2.063-.682-1.96-.682-3.199.227-2.309.682-3.199 1.076-1.58 1.864-2.057 1.691-.722 2.699-.722 1.9.241 2.688.722 1.415 1.163 1.869 2.057.682 1.956.682 3.199zm-1.739 0c0-.947-.153-1.744-.46-2.392s-.72-1.144-1.25-1.477-1.123-.506-1.79-.506-1.269.169-1.796.506-.943.826-1.25 1.477-.454 1.445-.454 2.392.151 1.746.454 2.398.723 1.14 1.25 1.477 1.125.5 1.796.5 1.263-.167 1.79-.5.947-.83 1.25-1.477.46-1.451.46-2.398zm7.705-2.909v1.364h-4.767V8.273h4.767zM27.95 6.182h1.699v8.256c0 .329.049.578.148.744a.77.77 0 0 0 .381.335c.159.057.331.085.517.085a1.99 1.99 0 0 0 .358-.028l.239-.046.307 1.403c-.098.038-.239.076-.42.114s-.409.064-.682.068a2.99 2.99 0 0 1-1.25-.239c-.386-.167-.699-.424-.937-.773s-.358-.786-.358-1.312V6.182zm7.094 5.636V17h-1.699V5.364h1.676v4.33h.108c.205-.47.517-.843.938-1.119s.97-.415 1.648-.415c.599 0 1.121.123 1.568.369s.799.614 1.046 1.102.375 1.091.375 1.818V17h-1.699v-5.347c0-.64-.165-1.136-.494-1.489s-.788-.534-1.375-.534a2.25 2.25 0 0 0-1.08.256c-.314.17-.562.42-.744.75s-.267.72-.267 1.182zm11.528 5.358c-.86 0-1.6-.184-2.222-.551s-1.095-.892-1.432-1.562-.5-1.464-.5-2.369c0-.894.167-1.682.5-2.364s.807-1.214 1.409-1.597 1.314-.574 2.125-.574c.492 0 .97.081 1.432.244s.877.419 1.244.767.657.801.869 1.358.318 1.225.318 2.017v.602h-6.937v-1.273h5.273c0-.447-.091-.843-.273-1.187a2.06 2.06 0 0 0-.767-.824c-.326-.201-.708-.301-1.148-.301-.477 0-.894.117-1.25.352s-.625.534-.818.909-.284.775-.284 1.21v.994c0 .583.102 1.08.307 1.489s.498.722.869.938.805.318 1.301.318c.322 0 .616-.045.881-.136s.494-.235.688-.421.341-.415.443-.687l1.608.29a2.91 2.91 0 0 1-.693 1.244c-.33.352-.744.627-1.244.824s-1.062.29-1.699.29zM52.041 17V8.273h1.642v1.386h.091a2.11 2.11 0 0 1 .841-1.108c.405-.273.864-.409 1.375-.409l.375.011.347.028v1.625c-.068-.019-.189-.04-.364-.062a3.47 3.47 0 0 0-.523-.04c-.401 0-.759.085-1.074.256a1.9 1.9 0 0 0-.739.699 1.89 1.89 0 0 0-.273 1.011V17h-1.699z" class="C"/></g><g transform="translate(336 10)"><path transform="translate(29)" d="M.879 11V3h5.016v1.039H2.086v2.438h3.547v1.035H2.086v2.449h3.855V11H.879zm7.178 0V3h2.852c.62 0 1.134.107 1.543.32s.719.509.922.887.305.809.305 1.301-.103.921-.309 1.293-.51.658-.922.863-.923.309-1.543.309h-2.16V6.934h2.051c.391 0 .708-.056.953-.168s.428-.275.543-.488.172-.47.172-.77-.059-.564-.176-.785-.296-.391-.543-.508-.566-.18-.965-.18H9.264V11H8.057zm3.949-3.609L13.983 11h-1.375L10.67 7.391h1.336zM15.697 11V3h2.852c.62 0 1.134.107 1.543.32s.719.509.922.887.305.809.305 1.301-.103.921-.309 1.293-.51.658-.922.863-.923.309-1.543.309h-2.16V6.934h2.051c.391 0 .708-.056.953-.168s.428-.275.543-.488.172-.47.172-.77-.059-.564-.176-.785-.296-.391-.543-.508-.566-.18-.965-.18h-1.516V11h-1.207zm3.949-3.609L21.623 11h-1.375L18.31 7.391h1.336zM30.286 7c0 .854-.156 1.589-.469 2.203a3.44 3.44 0 0 1-1.285 1.414c-.542.328-1.157.492-1.848.492s-1.311-.164-1.855-.492-.969-.803-1.281-1.418-.469-1.348-.469-2.199.156-1.587.469-2.199.739-1.086 1.281-1.414 1.163-.496 1.855-.496 1.306.165 1.848.496.973.799 1.285 1.414.469 1.345.469 2.199zM29.09 7c0-.651-.105-1.199-.316-1.645s-.495-.786-.859-1.016-.772-.348-1.23-.348a2.24 2.24 0 0 0-1.234.348c-.362.229-.648.568-.859 1.016s-.312.993-.312 1.645.104 1.201.313 1.648.497.784.859 1.016.773.344 1.234.344a2.25 2.25 0 0 0 1.23-.344c.365-.232.651-.57.859-1.016s.316-.997.316-1.648zm3.25 4V3h2.852c.62 0 1.134.107 1.543.32s.719.509.922.887.305.809.305 1.301-.103.921-.309 1.293-.51.658-.922.863-.923.309-1.543.309h-2.16V6.934h2.051c.391 0 .708-.056.953-.168s.428-.275.543-.488.172-.47.172-.77-.059-.564-.176-.785-.296-.391-.543-.508-.566-.18-.965-.18h-1.516V11h-1.207zm3.949-3.609L38.266 11h-1.375l-1.937-3.609h1.336zm8.054-2.289a1.14 1.14 0 0 0-.516-.859c-.302-.206-.682-.309-1.141-.309-.328 0-.612.052-.852.156s-.426.242-.559.422-.195.379-.195.605c0 .19.044.354.133.492s.21.254.356.348.307.168.477.23l.488.148.781.203c.255.063.517.147.785.254a3.15 3.15 0 0 1 .746.422 2.02 2.02 0 0 1 .555.648c.143.258.215.566.215.926 0 .453-.117.855-.352 1.207s-.569.629-1.012.832-.973.305-1.598.305c-.599 0-1.117-.095-1.555-.285s-.78-.46-1.027-.809-.384-.768-.41-1.25h1.211c.023.289.117.53.281.723a1.52 1.52 0 0 0 .637.426c.26.091.546.137.855.137.341 0 .645-.053.91-.16s.479-.26.633-.453.23-.423.23-.684c0-.237-.068-.431-.203-.582s-.314-.276-.543-.375a5.31 5.31 0 0 0-.77-.262l-.945-.258c-.641-.174-1.148-.431-1.523-.77s-.559-.786-.559-1.344c0-.461.125-.863.375-1.207s.588-.611 1.016-.801.909-.289 1.445-.289c.542 0 1.02.095 1.434.285s.745.452.984.785a1.98 1.98 0 0 1 .375 1.141h-1.164zM51.317 7c0-.979.129-1.88.387-2.703s.634-1.582 1.129-2.277h1.07c-.193.258-.372.574-.539.949s-.312.786-.437 1.234-.223.908-.293 1.387-.105.947-.105 1.41c0 .62.061 1.247.184 1.883a10.5 10.5 0 0 0 .496 1.769c.208.544.44.988.695 1.332h-1.07c-.495-.695-.871-1.455-1.129-2.277S51.317 7.982 51.317 7zm6.821 5V2h.641v10h-.641zm2.004-6.898a1.14 1.14 0 0 0-.516-.859c-.302-.206-.682-.309-1.141-.309-.328 0-.612.052-.852.156a1.31 1.31 0 0 0-.559.422c-.13.177-.195.379-.195.605 0 .19.044.354.133.492a1.19 1.19 0 0 0 .355.348c.148.091.307.168.476.23l.488.148.781.203c.255.063.517.147.785.254s.517.247.746.422a2.02 2.02 0 0 1 .555.648c.143.258.215.566.215.926 0 .453-.117.855-.352 1.207s-.569.629-1.012.832-.973.305-1.598.305c-.599 0-1.117-.095-1.555-.285s-.78-.46-1.027-.809-.384-.768-.41-1.25h1.211c.023.289.117.53.281.723a1.52 1.52 0 0 0 .637.426c.26.091.546.137.855.137.341 0 .645-.053.91-.16s.479-.26.633-.453.23-.423.23-.684c0-.237-.068-.431-.203-.582a1.5 1.5 0 0 0-.543-.375 5.3 5.3 0 0 0-.77-.262l-.945-.258c-.641-.174-1.148-.431-1.523-.77s-.559-.786-.559-1.344c0-.461.125-.863.375-1.207s.588-.611 1.016-.801.909-.289 1.445-.289c.542 0 1.019.095 1.434.285s.745.452.984.785a1.98 1.98 0 0 1 .375 1.141h-1.164zM65.559 7c0 .982-.129 1.884-.387 2.707a8.06 8.06 0 0 1-1.129 2.277h-1.07c.193-.258.372-.574.539-.949a9.05 9.05 0 0 0 .438-1.231c.125-.448.223-.911.293-1.391s.105-.951.105-1.414c0-.617-.061-1.243-.184-1.879s-.288-1.225-.496-1.77-.44-.988-.695-1.332h1.07a8.06 8.06 0 0 1 1.129 2.277c.258.823.387 1.724.387 2.703z" class="H"/><path id="H" transform="translate(44 17)" d="M4.71 18.455V3.909h.932v14.545H4.71zM7.625 8.42a1.66 1.66 0 0 0-.75-1.25c-.439-.299-.992-.449-1.659-.449-.477 0-.89.076-1.239.227s-.619.352-.812.614a1.45 1.45 0 0 0-.284.881c0 .277.064.515.193.716s.305.369.517.506.447.244.693.335l.71.216 1.136.296c.371.091.752.214 1.142.369s.752.36 1.085.614a2.94 2.94 0 0 1 .807.943c.208.375.313.824.313 1.347 0 .659-.17 1.244-.511 1.756s-.828.915-1.472 1.21-1.415.443-2.324.443c-.871 0-1.625-.138-2.261-.415s-1.134-.669-1.494-1.176-.559-1.117-.597-1.818H2.58c.034.42.17.771.409 1.051a2.21 2.21 0 0 0 .926.619c.379.133.794.199 1.244.199.496 0 .938-.078 1.324-.233s.697-.379.92-.659a1.56 1.56 0 0 0 .335-.994c0-.345-.098-.627-.295-.846s-.456-.402-.79-.546a7.73 7.73 0 0 0-1.119-.381l-1.375-.375c-.932-.254-1.67-.627-2.216-1.119s-.812-1.144-.812-1.955c0-.67.182-1.256.545-1.756s.856-.888 1.477-1.165 1.322-.42 2.102-.42c.788 0 1.483.138 2.085.415s1.083.657 1.432 1.142.53 1.034.545 1.659H7.625zm8.046-3.057V17H13.91V7.125h-.068l-2.784 1.818V7.261l2.903-1.898h1.71zm4.549 10.045l-.085.619c-.057.455-.153.928-.29 1.42l-.415 1.381-.347 1.011h-1.204l.204-.955.256-1.335.188-1.506.057-.636h1.636zm5.846 1.784c-.898-.004-1.665-.241-2.301-.71s-1.123-1.154-1.46-2.051-.506-1.979-.506-3.244.169-2.339.506-3.233.83-1.576 1.466-2.045 1.405-.705 2.296-.705 1.653.237 2.29.71 1.123 1.152 1.46 2.045.511 1.966.511 3.227c0 1.269-.168 2.352-.506 3.25s-.824 1.578-1.46 2.051-1.402.705-2.295.705zm0-1.517c.788 0 1.403-.384 1.846-1.153s.671-1.881.671-3.335c0-.966-.102-1.782-.307-2.449s-.491-1.178-.869-1.523a1.9 1.9 0 0 0-1.341-.523c-.784 0-1.4.386-1.847 1.159s-.672 1.884-.676 3.335c0 .97.1 1.79.301 2.46s.494 1.172.869 1.517a1.94 1.94 0 0 0 1.352.511zM32.182 17v-1.273l3.938-4.08 1.04-1.165c.276-.337.483-.657.619-.96s.205-.625.205-.966c0-.386-.091-.72-.273-1s-.43-.502-.744-.653-.669-.233-1.062-.233c-.417 0-.78.085-1.091.256a1.75 1.75 0 0 0-.716.722c-.167.311-.25.674-.25 1.091h-1.676c0-.708.163-1.328.489-1.858a3.32 3.32 0 0 1 1.341-1.233c.568-.295 1.214-.443 1.938-.443.731 0 1.375.146 1.932.438s.998.682 1.313 1.182.472 1.057.472 1.682c0 .432-.081.854-.244 1.267s-.437.873-.835 1.381-.951 1.116-1.659 1.835l-2.312 2.421v.085h5.239V17h-7.659zm13.704.193c-.898-.004-1.665-.241-2.301-.71s-1.123-1.154-1.46-2.051-.506-1.979-.506-3.244.169-2.339.506-3.233.83-1.576 1.466-2.045 1.405-.705 2.295-.705 1.653.237 2.29.71 1.123 1.152 1.46 2.045.511 1.966.511 3.227c0 1.269-.168 2.352-.506 3.25s-.824 1.578-1.46 2.051-1.401.705-2.295.705zm0-1.517c.788 0 1.403-.384 1.847-1.153s.67-1.881.67-3.335c0-.966-.102-1.782-.307-2.449s-.49-1.178-.869-1.523a1.9 1.9 0 0 0-1.341-.523c-.784 0-1.4.386-1.847 1.159s-.672 1.884-.676 3.335c0 .97.1 1.79.301 2.46s.494 1.172.869 1.517a1.94 1.94 0 0 0 1.352.511z" class="C D"/></g></g><rect x=".5" y=".5" width="447" height="59" rx="7.5" class="E"/></g><path transform="translate(0 206)" fill="url(#I)" d="M0 0h496v96H0z"/></g><rect x=".5" y=".5" width="495" height="301" rx="11.5" class="E"/></g></g><defs><linearGradient id="I" x1="248" y1="0" x2="248" y2="96" gradientUnits="userSpaceOnUse"><stop stop-color="#f9f9f9" stop-opacity="0"/><stop offset="1" stop-color="#f9f9f9"/></linearGradient><clipPath id="J"><rect width="624" height="532" rx="12" class="B"/></clipPath><clipPath id="K"><rect width="496" height="302" rx="12" class="B"/></clipPath><clipPath id="L"><rect width="448" height="60" rx="8" class="B"/></clipPath><clipPath id="M"><path d="M0 0h20v20H0z" class="B"/></clipPath><clipPath id="N"><rect width="448" height="60" rx="8" class="B"/></clipPath><clipPath id="O"><path d="M0 0h20v20H0z" class="B"/></clipPath><clipPath id="P"><rect width="448" height="60" rx="8" class="B"/></clipPath><clipPath id="Q"><path d="M0 0h20v20H0z" class="B"/></clipPath><clipPath id="R"><rect width="448" height="60" rx="8" class="B"/></clipPath><clipPath id="S"><path d="M0 0h20v20H0z" class="B"/></clipPath></defs></svg>