<svg xmlns="http://www.w3.org/2000/svg" viewBox="0 0 624 532" preserveAspectRatio="xMidYMid meet" fill="none" width="100%" height="auto" xmlns:v="https://vecta.io/nano"><style>#A{transform-origin:0 0;animation:kf_Query-Bubble_transform_0 2s linear 1 forwards, kf_Query-Bubble_opacity_0 2s linear 1 forwards}#B{transform-origin:0 0;animation:kf_AI-Response-Card_transform_0 2s linear 1 forwards, kf_AI-Response-Card_opacity_0 2s linear 1 forwards}@keyframes kf_Query-Bubble_transform_0{0%{transform:translateX(0px) translateY(132px) translate(448px, 80px) scaleX(0) scaleY(0) translate(-448px, -80px)}1.67%{transform:translateX(0px) translateY(132px) translate(448px, 80px) scaleX(0) scaleY(0) translate(-448px, -80px)}3.33%{transform:translateX(0px) translateY(132px) translate(448px, 80px) scaleX(0) scaleY(0) translate(-448px, -80px)}5%{transform:translateX(0px) translateY(132px) translate(448px, 80px) scaleX(0) scaleY(0) translate(-448px, -80px)}6.67%{transform:translateX(0px) translateY(132px) translate(448px, 80px) scaleX(0) scaleY(0) translate(-448px, -80px)}8.33%{transform:translateX(0px) translateY(132px) translate(448px, 80px) scaleX(0) scaleY(0) translate(-448px, -80px)}10%{transform:translateX(0px) translateY(132px) translate(448px, 80px) scaleX(0) scaleY(0) translate(-448px, -80px)}11.67%{transform:translateX(0px) translateY(132px) translate(448px, 80px) scaleX(0.148) scaleY(0.148) translate(-448px, -80px)}13.33%{transform:translateX(0px) translateY(132px) translate(448px, 80px) scaleX(0.414) scaleY(0.414) translate(-448px, -80px)}15%{transform:translateX(0px) translateY(132px) translate(448px, 80px) scaleX(0.656) scaleY(0.656) translate(-448px, -80px)}16.67%{transform:translateX(0px) translateY(132px) translate(448px, 80px) scaleX(0.829) scaleY(0.829) translate(-448px, -80px)}18.33%{transform:translateX(0px) translateY(132px) translate(448px, 80px) scaleX(0.933) scaleY(0.933) translate(-448px, -80px)}20%{transform:translateX(0px) translateY(132px) translate(448px, 80px) scaleX(0.987) scaleY(0.987) translate(-448px, -80px)}21.67%{transform:translateX(0px) translateY(132px) translate(448px, 80px) scaleX(1.01) scaleY(1.01) translate(-448px, -80px)}23.33%{transform:translateX(0px) translateY(132px) translate(448px, 80px) scaleX(1.015) scaleY(1.015) translate(-448px, -80px)}25%{transform:translateX(0px) translateY(132px) translate(448px, 80px) scaleX(1.013) scaleY(1.013) translate(-448px, -80px)}26.67%{transform:translateX(0px) translateY(132px) translate(448px, 80px) scaleX(1.009) scaleY(1.009) translate(-448px, -80px)}28.33%{transform:translateX(0px) translateY(132px) translate(448px, 80px) scaleX(1.006) scaleY(1.006) translate(-448px, -80px)}30%{transform:translateX(0px) translateY(132px) translate(448px, 80px) scaleX(1.003) scaleY(1.003) translate(-448px, -80px)}31.67%{transform:translateX(0px) translateY(132px) translate(448px, 80px) scaleX(1.001) scaleY(1.001) translate(-448px, -80px)}33.33%{transform:translateX(0px) translateY(132px) translate(448px, 80px) scaleX(1) scaleY(1) translate(-448px, -80px)}35%{transform:translateX(0px) translateY(132px) translate(448px, 80px) scaleX(1) scaleY(1) translate(-448px, -80px)}36.67%{transform:translateX(0px) translateY(89.658px) translate(448px, 80px) scaleX(1) scaleY(1) translate(-448px, -80px)}38.33%{transform:translateX(0px) translateY(54.093px) translate(448px, 80px) scaleX(1) scaleY(1) translate(-448px, -80px)}40%{transform:translateX(0px) translateY(25.347px) translate(448px, 80px) scaleX(1) scaleY(1) translate(-448px, -80px)}41.67%{transform:translateX(0px) translateY(5.847px) translate(448px, 80px) scaleX(1) scaleY(1) translate(-448px, -80px)}43%{transform:translateX(0px) translateY(0px) translate(448px, 80px) scaleX(1) scaleY(1) translate(-448px, -80px)}43.33%{transform:translateX(0px) translateY(0px) translate(448px, 80px) scaleX(1) scaleY(1) translate(-448px, -80px)}45%{transform:translateX(0px) translateY(0px) translate(448px, 80px) scaleX(1) scaleY(1) translate(-448px, -80px)}46.67%{transform:translateX(0px) translateY(0px) translate(448px, 80px) scaleX(1) scaleY(1) translate(-448px, -80px)}48.33%{transform:translateX(0px) translateY(0px) translate(448px, 80px) scaleX(1) scaleY(1) translate(-448px, -80px)}50%{transform:translateX(0px) translateY(0px) translate(448px, 80px) scaleX(1) scaleY(1) translate(-448px, -80px)}51.67%{transform:translateX(0px) translateY(0px) translate(448px, 80px) scaleX(1) scaleY(1) translate(-448px, -80px)}53.33%{transform:translateX(0px) translateY(0px) translate(448px, 80px) scaleX(1) scaleY(1) translate(-448px, -80px)}55%{transform:translateX(0px) translateY(0px) translate(448px, 80px) scaleX(1) scaleY(1) translate(-448px, -80px)}56.67%{transform:translateX(0px) translateY(0px) translate(448px, 80px) scaleX(1) scaleY(1) translate(-448px, -80px)}58.33%{transform:translateX(0px) translateY(0px) translate(448px, 80px) scaleX(1) scaleY(1) translate(-448px, -80px)}60%{transform:translateX(0px) translateY(0px) translate(448px, 80px) scaleX(1) scaleY(1) translate(-448px, -80px)}61.67%{transform:translateX(0px) translateY(0px) translate(448px, 80px) scaleX(1) scaleY(1) translate(-448px, -80px)}63.33%{transform:translateX(0px) translateY(0px) translate(448px, 80px) scaleX(1) scaleY(1) translate(-448px, -80px)}65%{transform:translateX(0px) translateY(0px) translate(448px, 80px) scaleX(1) scaleY(1) translate(-448px, -80px)}66.67%{transform:translateX(0px) translateY(0px) translate(448px, 80px) scaleX(1) scaleY(1) translate(-448px, -80px)}68.33%{transform:translateX(0px) translateY(0px) translate(448px, 80px) scaleX(1) scaleY(1) translate(-448px, -80px)}70%{transform:translateX(0px) translateY(0px) translate(448px, 80px) scaleX(1) scaleY(1) translate(-448px, -80px)}71.67%{transform:translateX(0px) translateY(0px) translate(448px, 80px) scaleX(1) scaleY(1) translate(-448px, -80px)}73.33%{transform:translateX(0px) translateY(0px) translate(448px, 80px) scaleX(1) scaleY(1) translate(-448px, -80px)}75%{transform:translateX(0px) translateY(0px) translate(448px, 80px) scaleX(1) scaleY(1) translate(-448px, -80px)}76.67%{transform:translateX(0px) translateY(0px) translate(448px, 80px) scaleX(1) scaleY(1) translate(-448px, -80px)}78.33%{transform:translateX(0px) translateY(0px) translate(448px, 80px) scaleX(1) scaleY(1) translate(-448px, -80px)}80%{transform:translateX(0px) translateY(0px) translate(448px, 80px) scaleX(1) scaleY(1) translate(-448px, -80px)}81.67%{transform:translateX(0px) translateY(0px) translate(448px, 80px) scaleX(1) scaleY(1) translate(-448px, -80px)}83.33%{transform:translateX(0px) translateY(0px) translate(448px, 80px) scaleX(1) scaleY(1) translate(-448px, -80px)}85%{transform:translateX(0px) translateY(0px) translate(448px, 80px) scaleX(1) scaleY(1) translate(-448px, -80px)}86.67%{transform:translateX(0px) translateY(0px) translate(448px, 80px) scaleX(1) scaleY(1) translate(-448px, -80px)}88.33%{transform:translateX(0px) translateY(0px) translate(448px, 80px) scaleX(1) scaleY(1) translate(-448px, -80px)}90%{transform:translateX(0px) translateY(0px) translate(448px, 80px) scaleX(1) scaleY(1) translate(-448px, -80px)}91.67%{transform:translateX(0px) translateY(0px) translate(448px, 80px) scaleX(1) scaleY(1) translate(-448px, -80px)}93.33%{transform:translateX(0px) translateY(0px) translate(448px, 80px) scaleX(1) scaleY(1) translate(-448px, -80px)}95%{transform:translateX(0px) translateY(0px) translate(448px, 80px) scaleX(1) scaleY(1) translate(-448px, -80px)}96.67%{transform:translateX(0px) translateY(0px) translate(448px, 80px) scaleX(1) scaleY(1) translate(-448px, -80px)}98.33%{transform:translateX(0px) translateY(0px) translate(448px, 80px) scaleX(1) scaleY(1) translate(-448px, -80px)}100%{transform:translateX(0px) translateY(0px) translate(448px, 80px) scaleX(1) scaleY(1) translate(-448px, -80px)}} @keyframes kf_Query-Bubble_opacity_0{0%{animation-timing-function:linear;opacity:0}10%{animation-timing-function:ease-out;opacity:0}17.5%{animation-timing-function:linear;opacity:1}100%{opacity:1}} @keyframes kf_AI-Response-Card_transform_0{0%{transform:translateY(104px) translate(0px, 108px) scaleX(0) scaleY(0) translate(0px, -108px)}43%{animation-timing-function:linear(0, 0.0169, 0.061, 0.1236, 0.1977, 0.2779, 0.36, 0.4408, 0.5181, 0.5903, 0.6564, 0.716, 0.7688, 0.815, 0.8548, 0.8887, 0.9171, 0.9407, 0.9598, 0.9752, 0.9872, 0.9965, 1.0034, 1.0083, 1.0117, 1.0138, 1.0148, 1.0152, 1.0149, 1.0142, 1.0133, 1.0122, 1.011, 1.0097, 1.0085, 1.0073, 1.0062, 1.0052, 1.0043, 1.0035, 1.0028, 1.0022, 1.0017, 1.0013, 1.0009, 1.0006, 1.0004, 1.0002, 1.0001, 0.9999, 0.9999);transform:translateY(104px) translate(0px, 108px) scaleX(0) scaleY(0) translate(0px, -108px)}68%{transform:translateY(104px) translate(0px, 108px) scaleX(1) scaleY(1) translate(0px, -108px)}100%{transform:translateY(104px) translate(0px, 108px) scaleX(1) scaleY(1) translate(0px, -108px)}} @keyframes kf_AI-Response-Card_opacity_0{0%{animation-timing-function:linear;opacity:0}43%{animation-timing-function:ease-out;opacity:0}68%{animation-timing-function:linear;opacity:1}100%{opacity:1}}</style><g clip-path="url(#D)"><g transform="translate(64 100)"><g clip-path="url(#E)"><rect width="496" height="332" rx="13.139" fill="#fff"/><rect width="40" height="40" rx="8.165" fill="#e3e1fa" x="24" y="24"/><g clip-path="url(#F)" transform="translate(31.753 31.753)"><path d="M13.268 3.062l1.77 4.602c.288.748.432 1.123.656 1.437a3.06 3.06 0 0 0 .721.721c.315.224.689.368 1.437.656l4.602 1.77-4.602 1.77c-.748.288-1.123.432-1.437.656a3.06 3.06 0 0 0-.721.721c-.224.315-.368.689-.656 1.437l-1.77 4.602-1.77-4.602c-.288-.748-.432-1.122-.656-1.437-.198-.279-.442-.523-.721-.721-.315-.224-.689-.368-1.437-.655l-4.602-1.77 4.602-1.77c.748-.288 1.123-.432 1.437-.656a3.06 3.06 0 0 0 .721-.721c.224-.315.368-.689.656-1.437l1.77-4.602z" fill="#5642ce"/><path d="M4.593 22.454V17.35m0-10.206V2.041M2.041 4.593h5.103M2.041 19.902h5.103m6.124-16.84l-1.77 4.602c-.288.748-.432 1.123-.656 1.437a3.06 3.06 0 0 1-.721.721c-.315.224-.689.368-1.437.656l-4.602 1.77 4.602 1.77c.748.288 1.123.432 1.437.656.279.198.523.442.721.721.224.315.368.689.656 1.437l1.77 4.602 1.77-4.602c.288-.748.432-1.122.656-1.437a3.06 3.06 0 0 1 .721-.721c.315-.224.689-.368 1.437-.655l4.602-1.77-4.602-1.77c-.748-.288-1.123-.432-1.437-.656a3.06 3.06 0 0 1-.721-.721c-.224-.315-.368-.689-.656-1.437l-1.77-4.602z" stroke="#5642ce" stroke-width="1.531" stroke-linecap="round" stroke-linejoin="round"/></g><path d="M82.972 50.5h-2.531l4.609-13.091h2.928L92.592 50.5h-2.531l-3.496-10.406h-.102L82.972 50.5zm.083-5.133h6.903v1.905h-6.903v-1.905zm18.221-2.09l-2.109.23c-.06-.213-.164-.413-.313-.601s-.341-.339-.588-.454-.55-.173-.908-.173c-.481 0-.886.104-1.214.313s-.484.479-.479.812a.85.85 0 0 0 .313.697c.217.179.575.326 1.074.441l1.675.358c.929.2 1.619.518 2.071.952s.686 1.003.69 1.707a2.67 2.67 0 0 1-.543 1.636c-.354.469-.846.835-1.477 1.1s-1.355.396-2.173.396c-1.202 0-2.169-.252-2.902-.754a3.03 3.03 0 0 1-1.31-2.116l2.256-.217c.102.443.32.778.652 1.004s.765.339 1.298.339c.55 0 .991-.113 1.323-.339s.505-.505.505-.837a.87.87 0 0 0-.326-.697c-.213-.183-.545-.324-.997-.422l-1.675-.352c-.942-.196-1.638-.526-2.09-.991s-.675-1.061-.671-1.777c-.004-.605.16-1.129.492-1.572s.803-.793 1.4-1.035 1.293-.371 2.077-.371c1.15 0 2.056.245 2.717.735a3.09 3.09 0 0 1 1.234 1.988zm3.688 4.142l-.006-2.793h.371l3.528-3.944h2.704l-4.34 4.832h-.479l-1.777 1.905zm-2.109 3.081V37.409h2.314V50.5h-2.314zm6.162 0l-3.196-4.468 1.56-1.63 4.404 6.098h-2.768zm8.909 3.682a4.68 4.68 0 0 1-.876-.077c-.264-.047-.475-.102-.633-.166l.537-1.803c.337.098.637.145.901.141s.496-.087.697-.249.377-.422.518-.793l.198-.531-3.56-10.023h2.454l2.263 7.415h.102l2.269-7.415h2.461l-3.931 11.007c-.183.52-.426.965-.729 1.336a2.96 2.96 0 0 1-1.112.856c-.435.2-.955.3-1.56.3zm12.342-3.49c-.959 0-1.79-.211-2.493-.633s-1.249-1.012-1.636-1.771-.575-1.645-.575-2.659.192-1.903.575-2.666.933-1.355 1.636-1.777 1.534-.633 2.493-.633 1.79.211 2.493.633 1.246 1.014 1.63 1.777.582 1.651.582 2.666-.194 1.901-.582 2.659-.927 1.349-1.63 1.771-1.534.633-2.493.633zm.013-1.854c.52 0 .954-.143 1.304-.428s.609-.678.78-1.163a4.77 4.77 0 0 0 .262-1.623c0-.601-.087-1.144-.262-1.63s-.43-.88-.78-1.17-.784-.435-1.304-.435c-.533 0-.976.145-1.33.435s-.611.68-.786 1.17-.256 1.029-.256 1.63.085 1.138.256 1.624.437.874.786 1.163.797.428 1.33.428zm12.373-2.467v-5.689h2.314V50.5h-2.244v-1.745h-.102c-.222.55-.586.999-1.093 1.349s-1.123.524-1.86.524c-.644 0-1.212-.143-1.707-.428s-.873-.71-1.15-1.259-.416-1.223-.416-2.007v-6.251h2.314v5.893c0 .622.171 1.117.511 1.483s.788.55 1.342.55c.341 0 .671-.083.991-.249s.582-.413.786-.742.313-.748.313-1.246zm4.153 4.129v-9.818h2.244v1.636h.102c.179-.567.486-1.004.921-1.31s.94-.467 1.502-.467l.428.019a2.88 2.88 0 0 1 .403.045v2.129c-.098-.034-.254-.064-.467-.09s-.411-.045-.607-.045c-.422 0-.801.092-1.138.275a2.01 2.01 0 0 0-.786.748c-.192.32-.288.688-.288 1.106V50.5h-2.314zm14.165.173c-.771 0-1.462-.198-2.071-.595s-1.091-.972-1.445-1.726-.531-1.671-.531-2.749c0-1.091.179-2.011.537-2.761s.85-1.323 1.464-1.707a3.76 3.76 0 0 1 2.052-.582c.575 0 1.048.098 1.419.294s.665.424.882.697.386.522.505.761h.096v-4.896h2.32V50.5h-2.276v-1.547h-.141a3.95 3.95 0 0 1-.518.761c-.226.264-.524.49-.895.678s-.837.281-1.4.281zm.646-1.898c.49 0 .908-.132 1.253-.396s.607-.641.786-1.119.269-1.033.269-1.668-.089-1.187-.269-1.656-.435-.833-.78-1.093-.761-.39-1.259-.39c-.516 0-.946.134-1.291.403s-.605.639-.78 1.112-.262 1.014-.262 1.624.087 1.161.262 1.643.441.854.786 1.131.778.409 1.285.409zm9.334 1.924c-.622 0-1.183-.111-1.681-.332s-.886-.558-1.176-.997-.428-.98-.428-1.624c0-.554.102-1.012.307-1.374s.484-.652.837-.869.752-.381 1.195-.492.91-.198 1.387-.249l1.4-.16c.358-.051.618-.128.78-.23s.249-.271.249-.492v-.038c0-.481-.143-.854-.428-1.119s-.697-.396-1.234-.396c-.567 0-1.016.124-1.349.371s-.55.539-.665.876l-2.161-.307c.17-.597.452-1.095.844-1.496a3.67 3.67 0 0 1 1.438-.908c.567-.205 1.193-.307 1.879-.307a6.12 6.12 0 0 1 1.413.166c.469.111.897.294 1.285.55a2.76 2.76 0 0 1 .933 1.029c.239.435.358.978.358 1.63V50.5h-2.224v-1.349h-.077c-.141.273-.339.528-.595.767s-.569.424-.952.569-.825.211-1.336.211zm.601-1.7c.465 0 .867-.092 1.208-.275s.603-.435.786-.742a1.89 1.89 0 0 0 .281-1.003v-1.157c-.072.06-.196.115-.371.166a5.22 5.22 0 0 1-.575.134l-.633.102-.543.077c-.345.047-.654.124-.927.23a1.54 1.54 0 0 0-.646.447c-.158.188-.236.43-.236.729 0 .426.155.748.467.965s.707.326 1.189.326zm11.272-8.316v1.79h-5.644v-1.79h5.644zm-4.25-2.352h2.314v9.217c0 .311.047.55.14.716a.76.76 0 0 0 .384.332c.157.06.332.09.524.09.145 0 .277-.011.396-.032l.282-.057.389 1.809a5.11 5.11 0 0 1-.53.141 4.34 4.34 0 0 1-.831.09c-.58.017-1.102-.07-1.566-.262s-.833-.499-1.106-.908-.401-.921-.396-1.534V38.33zm8.471 12.369c-.622 0-1.183-.111-1.681-.332s-.887-.558-1.176-.997-.429-.98-.429-1.624c0-.554.103-1.012.307-1.374a2.38 2.38 0 0 1 .838-.869c.353-.217.752-.381 1.195-.492s.91-.198 1.387-.249l1.4-.16c.358-.051.618-.128.78-.23s.249-.271.249-.492v-.038c0-.481-.143-.854-.428-1.119s-.697-.396-1.234-.396c-.567 0-1.016.124-1.349.371s-.549.539-.664.876l-2.161-.307c.17-.597.452-1.095.844-1.496s.871-.707 1.438-.908a5.5 5.5 0 0 1 1.879-.307c.473 0 .944.055 1.413.166s.897.294 1.285.55.699.594.933 1.029.358.978.358 1.63V50.5h-2.225v-1.349h-.076c-.141.273-.339.528-.595.767s-.569.424-.952.569-.825.211-1.336.211zm.601-1.7c.464 0 .867-.092 1.208-.275s.603-.435.786-.742.281-.641.281-1.003v-1.157c-.072.06-.196.115-.37.166a5.27 5.27 0 0 1-.576.134l-.632.102-.544.077a4.05 4.05 0 0 0-.927.23c-.272.107-.488.256-.645.447s-.237.43-.237.729c0 .426.156.748.467.965s.707.326 1.189.326z" fill="#10103e"/><g transform="translate(24 96)"><g id="A"><path d="M0 12C0 5.373 5.373 0 12 0h424c6.627 0 12 5.373 12 12v68H12C5.373 80 0 74.627 0 68V12z" fill="#e3e1fa"/><path transform="translate(20 12)" d="M4.001 21L.371 7.909h2.077l2.55 10.138h.121L7.773 7.909h2.058l2.653 10.144h.121l2.544-10.144h2.084L13.596 21h-1.988l-2.755-9.805h-.102L5.996 21H4.001zm16.79-5.829V21h-1.911V7.909h1.886v4.871h.121a2.82 2.82 0 0 1 1.055-1.259c.473-.311 1.091-.467 1.854-.467.673 0 1.261.139 1.764.415a2.81 2.81 0 0 1 1.176 1.24c.281.546.422 1.227.422 2.046V21h-1.911v-6.015c0-.72-.185-1.278-.556-1.675s-.886-.601-1.547-.601a2.53 2.53 0 0 0-1.214.288c-.354.192-.633.473-.837.844s-.3.81-.3 1.33zm9.774 9.511c-.286 0-.546-.023-.78-.07s-.409-.09-.524-.141l.46-1.566c.349.094.661.134.933.121s.513-.115.722-.307.401-.505.563-.94l.237-.652-3.592-9.946h2.046l2.486 7.619h.102l2.486-7.619h2.052L33.71 22.31c-.187.511-.426.944-.716 1.298a2.78 2.78 0 0 1-1.036.805c-.401.179-.865.268-1.393.268zm17.426-3.49c-.793 0-1.5-.203-2.122-.607s-1.104-.991-1.457-1.745-.524-1.668-.524-2.729.177-1.969.531-2.723.848-1.332 1.47-1.732 1.327-.601 2.116-.601c.609 0 1.099.102 1.47.307s.665.435.869.703a5.93 5.93 0 0 1 .486.71h.115V7.909h1.911V21h-1.867v-1.528h-.16c-.115.209-.281.447-.498.716s-.507.503-.882.703-.861.3-1.457.3zm.422-1.63c.55 0 1.014-.145 1.393-.435s.673-.701.869-1.221.3-1.125.3-1.815c0-.682-.098-1.278-.294-1.79s-.484-.91-.863-1.195-.848-.428-1.406-.428c-.575 0-1.055.149-1.438.447s-.673.705-.869 1.221-.288 1.097-.288 1.745c0 .656.098 1.246.294 1.771s.486.94.869 1.247.865.454 1.432.454zM55.584 21v-9.818h1.911V21h-1.911zm.965-11.333c-.332 0-.618-.111-.856-.332a1.08 1.08 0 0 1-.352-.805c0-.315.117-.584.352-.805a1.2 1.2 0 0 1 .856-.339 1.18 1.18 0 0 1 .85.339c.239.222.358.49.358.805a1.07 1.07 0 0 1-.358.805c-.234.222-.518.332-.85.332zm7.193 11.525c-.793 0-1.5-.203-2.122-.607s-1.104-.991-1.457-1.745-.524-1.668-.524-2.729.177-1.969.531-2.723.848-1.332 1.47-1.732 1.327-.601 2.116-.601c.609 0 1.099.102 1.47.307s.665.435.869.703a5.93 5.93 0 0 1 .486.71h.115V7.909h1.911V21h-1.867v-1.528h-.16c-.115.209-.281.447-.498.716s-.507.503-.882.703-.861.3-1.457.3zm.422-1.63c.55 0 1.014-.145 1.393-.435s.673-.701.869-1.221.3-1.125.3-1.815c0-.682-.098-1.278-.294-1.79s-.484-.91-.863-1.195-.848-.428-1.406-.428c-.575 0-1.055.149-1.438.447s-.673.705-.869 1.221-.288 1.097-.288 1.745c0 .656.098 1.246.294 1.771s.486.94.869 1.247.865.454 1.432.454zM76.097 21v-9.818h1.834v1.598h.121c.205-.541.539-.963 1.004-1.266s1.021-.46 1.668-.46c.656 0 1.206.153 1.649.46s.778.729.991 1.266h.102c.234-.524.607-.942 1.119-1.253s1.121-.473 1.828-.473c.891 0 1.617.279 2.18.837s.85 1.4.85 2.525V21h-1.911v-6.405c0-.665-.181-1.146-.543-1.445s-.795-.448-1.297-.448c-.622 0-1.106.192-1.451.575s-.518.867-.518 1.464V21h-1.905v-6.526c0-.533-.166-.961-.499-1.285s-.765-.486-1.298-.486c-.362 0-.697.096-1.004.288a2.11 2.11 0 0 0-.735.786c-.183.337-.275.727-.275 1.17V21h-1.911zm16.765 3.682c-.285 0-.545-.023-.78-.07s-.409-.09-.524-.141l.46-1.566c.349.094.66.134.933.121s.514-.115.722-.307.401-.505.563-.94l.237-.652-3.592-9.946h2.046l2.486 7.619h.102l2.486-7.619h2.052L96.007 22.31a4.44 4.44 0 0 1-.716 1.298 2.78 2.78 0 0 1-1.035.805c-.401.179-.865.268-1.394.268zm21.108-11.103l-1.732.307c-.073-.222-.188-.433-.345-.633s-.362-.364-.627-.492-.594-.192-.99-.192c-.542 0-.993.121-1.356.364s-.543.548-.543.927c0 .328.122.592.364.793s.635.364 1.177.492l1.559.358c.904.209 1.577.531 2.02.965s.665.999.665 1.694a2.58 2.58 0 0 1-.511 1.573c-.337.456-.808.814-1.413 1.074s-1.298.39-2.09.39c-1.1 0-1.997-.234-2.691-.703s-1.121-1.144-1.279-2.014l1.848-.281c.115.482.351.846.709 1.093s.825.364 1.4.364c.626 0 1.127-.13 1.502-.39s.563-.586.563-.965a1 1 0 0 0-.346-.774c-.225-.209-.573-.366-1.042-.473l-1.661-.364c-.917-.209-1.594-.541-2.033-.997s-.652-1.033-.652-1.732c0-.58.162-1.087.486-1.521s.771-.774 1.342-1.016 1.225-.371 1.962-.371c1.061 0 1.897.23 2.506.69s1.012 1.067 1.208 1.834zm6.876-2.397v1.534h-5.363v-1.534h5.363zm-3.924-2.352h1.911v9.288c0 .371.055.65.166.837a.87.87 0 0 0 .428.377 1.72 1.72 0 0 0 .582.096 2.24 2.24 0 0 0 .403-.032l.268-.051.345 1.579a3.17 3.17 0 0 1-.473.128c-.204.047-.46.072-.767.077-.503.009-.971-.081-1.406-.268s-.786-.477-1.055-.869-.402-.884-.402-1.477V8.83zm10.069 12.369c-.921 0-1.724-.211-2.41-.633s-1.219-1.012-1.598-1.771-.569-1.645-.569-2.659.19-1.909.569-2.672.912-1.355 1.598-1.777 1.489-.633 2.41-.633 1.723.211 2.41.633 1.218 1.014 1.598 1.777.568 1.653.568 2.672-.189 1.901-.568 2.659-.912 1.349-1.598 1.771-1.49.633-2.41.633zm.006-1.604c.597 0 1.091-.158 1.483-.473s.682-.735.869-1.259c.192-.524.288-1.102.288-1.732s-.096-1.202-.288-1.726c-.187-.528-.477-.952-.869-1.272s-.886-.479-1.483-.479-1.099.16-1.496.479-.684.744-.875 1.272-.282 1.099-.282 1.726.094 1.208.282 1.732.483.944.875 1.259.895.473 1.496.473zM133.701 21v-9.818h1.847v1.56h.102c.179-.528.495-.944.946-1.247s.972-.46 1.547-.46l.422.013.39.032v1.828c-.077-.021-.213-.045-.409-.07s-.392-.045-.588-.045c-.452 0-.854.096-1.208.288a2.13 2.13 0 0 0-.831.786c-.205.332-.307.712-.307 1.138V21h-1.911zm9.677.217c-.622 0-1.184-.115-1.687-.345a2.84 2.84 0 0 1-1.195-1.016c-.29-.443-.435-.986-.435-1.63 0-.554.106-1.01.32-1.368s.5-.641.862-.85.767-.367 1.215-.473.903-.187 1.368-.243l1.432-.166c.366-.047.632-.121.799-.224s.249-.268.249-.499v-.045c0-.558-.158-.991-.473-1.298s-.776-.46-1.394-.46c-.643 0-1.15.143-1.521.428s-.62.595-.761.94l-1.796-.409c.213-.597.524-1.078.934-1.445a3.78 3.78 0 0 1 1.425-.805c.537-.17 1.102-.256 1.694-.256.392 0 .807.047 1.246.141a3.64 3.64 0 0 1 1.24.499c.388.243.706.59.953 1.042s.371 1.029.371 1.745V21h-1.867v-1.342h-.077c-.123.247-.309.49-.556.729s-.564.437-.952.594-.852.237-1.394.237zm.416-1.534c.528 0 .98-.104 1.355-.313s.667-.482.863-.818.3-.705.3-1.093v-1.266c-.068.068-.2.132-.396.192s-.411.104-.658.147l-.723.109-.588.077a4.75 4.75 0 0 0-1.016.236c-.303.111-.546.271-.729.479s-.268.477-.268.818c0 .473.174.831.524 1.074s.795.358 1.336.358zm11.092 5.203c-.78 0-1.451-.102-2.014-.307s-1.014-.475-1.368-.812-.618-.705-.792-1.106l1.642-.677a3.94 3.94 0 0 0 .461.594c.196.213.46.394.792.543s.769.224 1.298.224c.724 0 1.323-.177 1.796-.531s.71-.908.71-1.675v-1.93h-.122c-.115.209-.281.441-.499.697-.213.256-.507.477-.882.665s-.863.281-1.463.281c-.776 0-1.475-.181-2.097-.543s-1.108-.906-1.47-1.617-.537-1.596-.537-2.64.177-1.939.53-2.685.848-1.317 1.471-1.713 1.327-.601 2.115-.601c.61 0 1.102.102 1.477.307s.667.435.876.703.377.505.492.71h.14v-1.592h1.873v10.036c0 .844-.196 1.536-.588 2.077s-.922.942-1.591 1.202-1.415.39-2.25.39zm-.02-5.619c.55 0 1.015-.128 1.394-.384a2.39 2.39 0 0 0 .869-1.112c.201-.486.301-1.067.301-1.745 0-.661-.098-1.242-.294-1.745s-.484-.895-.863-1.176-.848-.428-1.407-.428c-.575 0-1.054.149-1.438.447s-.673.695-.869 1.202-.288 1.074-.288 1.7c0 .643.098 1.208.294 1.694s.486.865.87 1.138.865.409 1.431.409zm11.244 1.93c-.967 0-1.8-.207-2.499-.62A4.2 4.2 0 0 1 162 18.82c-.375-.758-.562-1.647-.562-2.665 0-1.006.187-1.892.562-2.659s.908-1.366 1.585-1.796 1.479-.646 2.391-.646c.554 0 1.091.092 1.611.275s.986.471 1.4.863.739.901.977 1.528.358 1.379.358 2.269v.678h-7.804v-1.432h5.932c0-.503-.103-.948-.307-1.336a2.32 2.32 0 0 0-.863-.927c-.367-.226-.797-.339-1.291-.339-.537 0-1.006.132-1.407.396a2.66 2.66 0 0 0-.92 1.023c-.213.418-.32.871-.32 1.362v1.119c0 .656.115 1.214.346 1.675s.56.812.977 1.055.906.358 1.464.358a3.04 3.04 0 0 0 .991-.153c.298-.107.556-.264.773-.473s.384-.467.499-.773l1.809.326c-.145.533-.405.999-.78 1.4s-.837.705-1.4.927c-.558.217-1.195.326-1.911.326zm15.232 0c-.95 0-1.768-.215-2.454-.646s-1.206-1.033-1.573-1.796-.549-1.636-.549-2.621c0-.997.187-1.877.562-2.64s.904-1.366 1.585-1.796 1.485-.646 2.41-.646c.746 0 1.411.139 1.994.415s1.055.656 1.413 1.15.578 1.072.646 1.732h-1.86a2.23 2.23 0 0 0-.704-1.189c-.362-.332-.848-.499-1.457-.499-.533 0-.999.141-1.4.422s-.705.673-.927 1.189-.332 1.116-.332 1.815c0 .716.109 1.334.326 1.854s.524.923.92 1.208.872.428 1.413.428c.362 0 .69-.066.984-.198a2 2 0 0 0 .748-.582c.205-.251.348-.554.429-.908h1.86c-.068.635-.275 1.202-.62 1.7a3.57 3.57 0 0 1-1.387 1.176c-.576.285-1.251.428-2.027.428zm10.213 0c-.92 0-1.724-.211-2.41-.633s-1.218-1.012-1.598-1.771-.568-1.645-.568-2.659.189-1.909.568-2.672.912-1.355 1.598-1.777 1.49-.633 2.41-.633 1.724.211 2.41.633 1.219 1.014 1.598 1.777.569 1.653.569 2.672-.19 1.901-.569 2.659-.912 1.349-1.598 1.771-1.489.633-2.41.633zm.007-1.604c.596 0 1.091-.158 1.483-.473s.681-.735.869-1.259.288-1.102.288-1.732-.096-1.202-.288-1.726-.477-.952-.869-1.272-.887-.479-1.483-.479c-.601 0-1.1.16-1.496.479s-.684.744-.876 1.272-.281 1.099-.281 1.726.094 1.208.281 1.732.484.944.876 1.259.895.473 1.496.473zm14.061-6.015l-1.733.307c-.072-.222-.187-.433-.345-.633-.153-.2-.362-.364-.626-.492s-.595-.192-.991-.192c-.541 0-.993.121-1.355.364s-.544.548-.544.927c0 .328.122.592.365.793s.635.364 1.176.492l1.56.358c.903.209 1.576.531 2.02.965s.664.999.664 1.694c0 .588-.17 1.112-.511 1.573s-.808.814-1.413 1.074-1.297.39-2.09.39c-1.099 0-1.996-.234-2.691-.703s-1.121-1.144-1.278-2.014l1.847-.281c.115.482.351.846.709 1.093s.825.364 1.4.364c.627 0 1.127-.13 1.502-.39s.563-.586.563-.965c0-.307-.115-.565-.345-.774s-.573-.366-1.042-.473l-1.662-.364c-.916-.209-1.594-.541-2.033-.997s-.652-1.033-.652-1.732c0-.58.162-1.087.486-1.521s.771-.774 1.342-1.016 1.226-.371 1.963-.371c1.061 0 1.896.23 2.505.69s1.012 1.067 1.209 1.834zm6.876-2.397v1.534h-5.363v-1.534h5.363zm-3.925-2.352h1.911v9.288c0 .371.056.65.166.837s.254.309.429.377.373.096.581.096c.154 0 .288-.011.403-.032l.269-.051.345 1.579a3.24 3.24 0 0 1-.473.128c-.205.047-.461.072-.767.077-.503.009-.972-.081-1.407-.268a2.41 2.41 0 0 1-1.054-.869c-.269-.392-.403-.884-.403-1.477V8.83zm13.238 4.749l-1.732.307c-.073-.222-.188-.433-.345-.633s-.363-.364-.627-.492-.594-.192-.991-.192c-.541 0-.993.121-1.355.364s-.543.548-.543.927c0 .328.121.592.364.793s.635.364 1.176.492l1.56.358c.903.209 1.577.531 2.02.965s.665.999.665 1.694c0 .588-.171 1.112-.512 1.573-.336.456-.807.814-1.412 1.074s-1.298.39-2.09.39c-1.1 0-1.997-.234-2.692-.703s-1.12-1.144-1.278-2.014l1.847-.281c.115.482.352.846.71 1.093s.824.364 1.4.364c.626 0 1.127-.13 1.502-.39s.562-.586.562-.965c0-.307-.115-.565-.345-.774s-.573-.366-1.042-.473l-1.662-.364c-.916-.209-1.593-.541-2.032-.997s-.652-1.033-.652-1.732c0-.58.162-1.087.486-1.521s.771-.774 1.342-1.016 1.225-.371 1.962-.371c1.061 0 1.896.23 2.506.69s1.012 1.067 1.208 1.834zM228.869 21v-9.818h1.911V21h-1.911zm.965-11.333c-.332 0-.618-.111-.857-.332a1.08 1.08 0 0 1-.351-.805c0-.315.117-.584.351-.805s.525-.339.857-.339a1.18 1.18 0 0 1 .85.339c.239.222.358.49.358.805a1.07 1.07 0 0 1-.358.805 1.19 1.19 0 0 1-.85.332zm5.428 5.504V21h-1.911v-9.818h1.835v1.598h.121a2.81 2.81 0 0 1 1.061-1.253c.486-.315 1.098-.473 1.835-.473.669 0 1.255.141 1.758.422s.892.69 1.169 1.24.416 1.229.416 2.039V21h-1.911v-6.015c0-.712-.186-1.268-.557-1.668s-.879-.607-1.527-.607c-.443 0-.838.096-1.183.288s-.611.473-.812.844-.294.81-.294 1.33zm12.983 6.028c-.951 0-1.769-.215-2.455-.646s-1.206-1.033-1.572-1.796-.55-1.636-.55-2.621c0-.997.187-1.877.562-2.64s.904-1.366 1.586-1.796 1.485-.646 2.409-.646c.746 0 1.411.139 1.995.415s1.055.656 1.412 1.15c.363.494.578 1.072.646 1.732h-1.86a2.23 2.23 0 0 0-.703-1.189c-.362-.332-.848-.499-1.458-.499-.532 0-.999.141-1.399.422s-.706.673-.927 1.189-.333 1.116-.333 1.815c0 .716.109 1.334.326 1.854s.525.923.921 1.208.871.428 1.412.428c.363 0 .691-.066.985-.198a2.02 2.02 0 0 0 .748-.582c.204-.251.347-.554.428-.908h1.86c-.068.635-.275 1.202-.62 1.7a3.57 3.57 0 0 1-1.387 1.176c-.575.285-1.251.428-2.026.428zm6.077-.198v-9.818h1.847v1.56h.102c.179-.528.495-.944.947-1.247s.971-.46 1.546-.46l.422.013.39.032v1.828c-.077-.021-.213-.045-.409-.07s-.392-.045-.588-.045c-.452 0-.854.096-1.208.288a2.13 2.13 0 0 0-.831.786c-.205.332-.307.712-.307 1.138V21h-1.911zm10.788.198c-.967 0-1.8-.207-2.499-.62A4.2 4.2 0 0 1 261 18.82c-.375-.758-.562-1.647-.562-2.665 0-1.006.187-1.892.562-2.659s.908-1.366 1.585-1.796c.682-.43 1.479-.646 2.391-.646.554 0 1.091.092 1.611.275s.986.471 1.4.863.739.901.977 1.528.358 1.379.358 2.269v.678h-7.804v-1.432h5.932c0-.503-.103-.948-.307-1.336a2.32 2.32 0 0 0-.863-.927c-.367-.226-.797-.339-1.291-.339-.537 0-1.006.132-1.407.396a2.66 2.66 0 0 0-.92 1.023c-.213.418-.32.871-.32 1.362v1.119c0 .656.115 1.214.346 1.675s.56.812.977 1.055.906.358 1.464.358a3.04 3.04 0 0 0 .991-.153c.298-.107.556-.264.773-.473s.384-.467.499-.773l1.809.326c-.145.533-.405.999-.78 1.4s-.837.705-1.4.927-1.195.326-1.911.326zm9.19.019c-.622 0-1.184-.115-1.687-.345s-.902-.573-1.196-1.016c-.289-.443-.434-.986-.434-1.63 0-.554.106-1.01.319-1.368a2.36 2.36 0 0 1 .863-.85c.363-.209.767-.367 1.215-.473s.903-.187 1.368-.243l1.432-.166c.366-.047.632-.121.799-.224s.249-.268.249-.499v-.045c0-.558-.158-.991-.473-1.298s-.776-.46-1.394-.46c-.643 0-1.15.143-1.521.428-.366.281-.62.595-.761.94l-1.796-.409c.213-.597.524-1.078.933-1.445a3.79 3.79 0 0 1 1.426-.805 5.56 5.56 0 0 1 1.694-.256c.392 0 .807.047 1.246.141s.857.256 1.24.499.706.59.953 1.042.37 1.029.37 1.745V21h-1.866v-1.342h-.077c-.123.247-.309.49-.556.729s-.565.437-.952.594-.853.237-1.394.237zm.416-1.534c.528 0 .98-.104 1.355-.313s.667-.482.863-.818.3-.705.3-1.093v-1.266c-.068.068-.2.132-.396.192s-.411.104-.658.147l-.723.109-.588.077c-.371.047-.709.126-1.016.236s-.546.271-.729.479-.268.477-.268.818c0 .473.174.831.524 1.074s.795.358 1.336.358zm14.332-6.104l-1.732.307c-.072-.222-.187-.433-.345-.633s-.362-.364-.627-.492-.594-.192-.99-.192c-.541 0-.993.121-1.355.364s-.544.548-.544.927c0 .328.122.592.365.793s.635.364 1.176.492l1.559.358c.904.209 1.577.531 2.02.965s.665.999.665 1.694c0 .588-.17 1.112-.511 1.573s-.808.814-1.413 1.074-1.298.39-2.09.39c-1.1 0-1.997-.234-2.691-.703s-1.121-1.144-1.279-2.014l1.848-.281c.115.482.351.846.709 1.093s.825.364 1.4.364c.626 0 1.127-.13 1.502-.39s.563-.586.563-.965c0-.307-.115-.565-.345-.774s-.574-.366-1.042-.473l-1.662-.364c-.916-.209-1.594-.541-2.033-.997s-.652-1.033-.652-1.732c0-.58.162-1.087.486-1.521s.771-.774 1.342-1.016 1.225-.371 1.963-.371c1.061 0 1.896.23 2.505.69s1.012 1.067 1.208 1.834zm6.525 7.619c-.967 0-1.8-.207-2.499-.62a4.2 4.2 0 0 1-1.611-1.758c-.375-.758-.563-1.647-.563-2.665 0-1.006.188-1.892.563-2.659s.908-1.366 1.585-1.796 1.479-.646 2.391-.646c.554 0 1.091.092 1.611.275s.986.471 1.399.863.74.901.978 1.528.358 1.379.358 2.269v.678h-7.804v-1.432h5.931c0-.503-.102-.948-.306-1.336a2.33 2.33 0 0 0-.863-.927c-.367-.226-.797-.339-1.291-.339-.537 0-1.006.132-1.407.396a2.66 2.66 0 0 0-.92 1.023c-.213.418-.32.871-.32 1.362v1.119c0 .656.115 1.214.345 1.675.235.46.561.812.978 1.055s.906.358 1.464.358a3.04 3.04 0 0 0 .991-.153c.298-.107.556-.264.773-.473s.384-.467.499-.773l1.809.326c-.145.533-.405.999-.78 1.4s-.837.705-1.4.927c-.558.217-1.195.326-1.911.326zM306.67 21v-9.818h1.911V21h-1.911zm.965-11.333c-.333 0-.618-.111-.857-.332a1.08 1.08 0 0 1-.351-.805c0-.315.117-.584.351-.805s.524-.339.857-.339a1.18 1.18 0 0 1 .85.339c.239.222.358.49.358.805a1.07 1.07 0 0 1-.358.805 1.19 1.19 0 0 1-.85.332zm5.428 5.504V21h-1.911v-9.818h1.835v1.598h.121a2.81 2.81 0 0 1 1.061-1.253c.486-.315 1.097-.473 1.835-.473.669 0 1.255.141 1.757.422a2.82 2.82 0 0 1 1.17 1.24c.277.55.416 1.229.416 2.039V21h-1.912v-6.015c0-.712-.185-1.268-.556-1.668s-.88-.607-1.527-.607c-.444 0-.838.096-1.183.288s-.611.473-.812.844-.294.81-.294 1.33zm18.194-3.989v1.534h-5.363v-1.534h5.363zm-3.925-2.352h1.911v9.288c0 .371.055.65.166.837s.254.309.429.377.372.096.581.096c.154 0 .288-.011.403-.032l.268-.051.346 1.579a3.24 3.24 0 0 1-.473.128 3.75 3.75 0 0 1-.768.077c-.502.009-.971-.081-1.406-.268a2.41 2.41 0 0 1-1.054-.869c-.269-.392-.403-.884-.403-1.477V8.83zm8.161 6.341V21h-1.911V7.909h1.885v4.871h.122a2.82 2.82 0 0 1 1.054-1.259c.473-.311 1.091-.467 1.854-.467.673 0 1.262.139 1.764.415s.9.69 1.177 1.24.421 1.227.421 2.046V21h-1.911v-6.015c0-.72-.185-1.278-.556-1.675s-.886-.601-1.547-.601c-.452 0-.856.096-1.214.288s-.633.473-.838.844-.3.81-.3 1.33zm13.148 6.028c-.967 0-1.8-.207-2.499-.62s-1.231-1.003-1.611-1.758-.562-1.647-.562-2.665c0-1.006.187-1.892.562-2.659s.908-1.366 1.585-1.796c.682-.43 1.479-.646 2.391-.646.554 0 1.091.092 1.611.275s.986.471 1.4.863.739.901.978 1.528.358 1.379.358 2.269v.678h-7.805v-1.432h5.932c0-.503-.102-.948-.307-1.336a2.32 2.32 0 0 0-.863-.927c-.366-.226-.797-.339-1.291-.339-.537 0-1.006.132-1.406.396a2.66 2.66 0 0 0-.921 1.023c-.213.418-.319.871-.319 1.362v1.119c0 .656.115 1.214.345 1.675s.56.812.978 1.055.905.358 1.464.358c.362 0 .692-.051.99-.153a2.14 2.14 0 0 0 .774-.473c.217-.209.383-.467.498-.773l1.809.326c-.145.533-.405.999-.78 1.4s-.837.705-1.399.927-1.196.326-1.912.326zm13.008-13.289V21h-1.911V7.909h1.911zm5.429 13.308c-.623 0-1.185-.115-1.688-.345a2.84 2.84 0 0 1-1.195-1.016c-.29-.443-.435-.986-.435-1.63 0-.554.107-1.01.32-1.368a2.35 2.35 0 0 1 .863-.85c.362-.209.767-.367 1.214-.473s.904-.187 1.368-.243l1.432-.166c.366-.047.633-.121.799-.224s.249-.268.249-.499v-.045c0-.558-.158-.991-.473-1.298s-.775-.46-1.393-.46c-.644 0-1.151.143-1.522.428s-.62.595-.76.94l-1.796-.409c.213-.597.524-1.078.933-1.445a3.78 3.78 0 0 1 1.425-.805c.537-.17 1.102-.256 1.694-.256.392 0 .808.047 1.247.141s.856.256 1.24.499.705.59.952 1.042.371 1.029.371 1.745V21h-1.867v-1.342h-.076c-.124.247-.309.49-.557.729s-.564.437-.952.594-.852.237-1.393.237zm.415-1.534c.528 0 .98-.104 1.355-.313s.667-.482.863-.818.301-.705.301-1.093v-1.266c-.069.068-.201.132-.397.192s-.411.104-.658.147l-.722.109-.589.077a4.75 4.75 0 0 0-1.016.236c-.302.111-.545.271-.729.479s-.268.477-.268.818c0 .473.175.831.524 1.074s.795.358 1.336.358zm14.333-6.104l-1.733.307c-.072-.222-.187-.433-.345-.633-.153-.2-.362-.364-.626-.492s-.595-.192-.991-.192c-.541 0-.993.121-1.355.364s-.543.548-.543.927c0 .328.121.592.364.793s.635.364 1.176.492l1.56.358c.903.209 1.576.531 2.02.965s.664.999.664 1.694c0 .588-.17 1.112-.511 1.573s-.807.814-1.413 1.074c-.6.26-1.297.39-2.09.39-1.099 0-1.996-.234-2.691-.703s-1.121-1.144-1.278-2.014l1.847-.281c.115.482.352.846.71 1.093s.824.364 1.399.364c.627 0 1.128-.13 1.503-.39s.562-.586.562-.965c0-.307-.115-.565-.345-.774s-.573-.366-1.042-.473l-1.662-.364c-.916-.209-1.594-.541-2.033-.997s-.652-1.033-.652-1.732c0-.58.162-1.087.486-1.521s.771-.774 1.343-1.016 1.225-.371 1.962-.371c1.061 0 1.896.23 2.506.69s1.012 1.067 1.208 1.834zm6.876-2.397v1.534h-5.363v-1.534h5.363zm-3.925-2.352h1.911v9.288c0 .371.056.65.167.837s.253.309.428.377a1.72 1.72 0 0 0 .582.096 2.23 2.23 0 0 0 .402-.032l.269-.051.345 1.579a3.24 3.24 0 0 1-.473.128 3.74 3.74 0 0 1-.767.077 3.36 3.36 0 0 1-1.406-.268 2.41 2.41 0 0 1-1.055-.869c-.269-.392-.403-.884-.403-1.477V8.83zM395.995 21l5.715-11.301v-.096h-6.61V7.909h8.655v1.751L398.06 21h-2.065zM4.96 49.192c-.793 0-1.5-.203-2.122-.607s-1.104-.991-1.457-1.745-.524-1.668-.524-2.729.177-1.969.531-2.723.848-1.332 1.47-1.732 1.327-.601 2.116-.601c.609 0 1.099.102 1.47.307s.665.435.869.703a5.94 5.94 0 0 1 .486.71h.115v-4.864h1.911V49H7.958v-1.528h-.16a5.06 5.06 0 0 1-.499.716c-.213.268-.507.503-.882.703s-.861.3-1.457.3zm.422-1.63c.55 0 1.014-.145 1.393-.435s.673-.701.869-1.221.3-1.125.3-1.815c0-.682-.098-1.278-.294-1.79s-.484-.91-.863-1.195-.848-.428-1.406-.428c-.575 0-1.055.149-1.438.447s-.673.705-.869 1.221-.288 1.097-.288 1.745c0 .656.098 1.247.294 1.771s.486.94.869 1.246.865.454 1.432.454zm10.028 1.656c-.622 0-1.185-.115-1.687-.345s-.901-.573-1.195-1.016-.435-.986-.435-1.63c0-.554.107-1.01.32-1.368a2.36 2.36 0 0 1 .863-.85c.362-.209.767-.367 1.215-.473a12.08 12.08 0 0 1 1.368-.243l1.432-.166c.366-.047.633-.121.799-.224s.249-.269.249-.499v-.045c0-.558-.158-.991-.473-1.298s-.776-.46-1.393-.46c-.644 0-1.151.143-1.521.428s-.62.595-.761.94l-1.796-.409c.213-.597.524-1.078.933-1.445s.889-.639 1.425-.805 1.102-.256 1.694-.256a5.98 5.98 0 0 1 1.247.141 3.65 3.65 0 0 1 1.24.499c.388.243.705.59.953 1.042s.371 1.029.371 1.745V49h-1.866v-1.342h-.077c-.124.247-.309.49-.556.729s-.565.437-.952.594-.852.236-1.394.236zm.416-1.534c.528 0 .98-.104 1.355-.313s.667-.481.863-.818a2.12 2.12 0 0 0 .3-1.093v-1.266c-.068.068-.2.132-.396.192a6.19 6.19 0 0 1-.658.147l-.722.109-.588.077a4.74 4.74 0 0 0-1.016.236c-.303.111-.545.271-.729.479s-.268.477-.268.818c0 .473.175.831.524 1.074s.795.358 1.336.358zm7.832 4.999c-.286 0-.546-.023-.78-.07s-.409-.09-.524-.141l.46-1.566c.349.094.661.134.933.121s.513-.115.722-.307.4-.505.562-.94l.237-.652-3.592-9.946h2.046l2.486 7.619h.102l2.486-7.619h2.052L26.802 50.31a4.44 4.44 0 0 1-.716 1.298 2.78 2.78 0 0 1-1.035.805c-.401.179-.865.268-1.393.268zm16.344-11.103l-1.732.307c-.072-.222-.187-.433-.345-.633s-.362-.364-.626-.492-.595-.192-.991-.192c-.541 0-.993.121-1.355.364s-.543.548-.543.927c0 .328.121.592.364.793s.635.364 1.176.492l1.56.358c.903.209 1.577.531 2.02.965s.665.999.665 1.694c0 .588-.17 1.112-.511 1.572s-.808.814-1.413 1.074-1.298.39-2.09.39c-1.099 0-1.997-.234-2.691-.703s-1.121-1.144-1.278-2.014l1.847-.281c.115.482.352.846.709 1.093s.825.364 1.4.364c.626 0 1.127-.13 1.502-.39s.563-.586.563-.965a1 1 0 0 0-.345-.773c-.226-.209-.573-.367-1.042-.473l-1.662-.364c-.916-.209-1.594-.541-2.033-.997s-.652-1.033-.652-1.732c0-.58.162-1.087.486-1.521s.771-.773 1.342-1.016 1.225-.371 1.962-.371c1.061 0 1.896.23 2.506.69a3.21 3.21 0 0 1 1.208 1.834zm4.383 3.656v-.122c.009-.793.087-1.423.236-1.892s.371-.848.652-1.138.62-.554 1.016-.793a4.17 4.17 0 0 0 .69-.543 2.3 2.3 0 0 0 .486-.69c.119-.26.179-.548.179-.863 0-.379-.09-.707-.269-.984a1.79 1.79 0 0 0-.716-.639c-.294-.153-.622-.23-.984-.23-.328 0-.641.068-.94.205a1.78 1.78 0 0 0-.741.639c-.196.285-.309.654-.339 1.106h-1.943c.03-.767.224-1.415.582-1.943a3.4 3.4 0 0 1 1.419-1.208c.592-.273 1.246-.409 1.962-.409.784 0 1.47.147 2.058.441s1.044.697 1.368 1.221.492 1.127.492 1.822c0 .477-.075.908-.224 1.291s-.362.718-.639 1.016-.601.563-.984.793c-.362.226-.656.46-.882.703s-.383.531-.486.863-.158.744-.166 1.234v.122h-1.828zm.965 3.886a1.24 1.24 0 0 1-.901-.371c-.251-.251-.377-.554-.377-.908a1.21 1.21 0 0 1 .377-.895 1.23 1.23 0 0 1 .901-.377c.345 0 .643.126.895.377a1.2 1.2 0 0 1 .383.895 1.22 1.22 0 0 1-.179.646c-.115.192-.268.345-.46.46a1.22 1.22 0 0 1-.639.172z" fill="#000"/></g><g id="B" filter="url(#C)" transform="translate(0 104)"><path d="M0 12C0 5.373 5.373 0 12 0h424c6.627 0 12 5.373 12 12v84c0 6.627-5.373 12-12 12H0V12z" fill="#f2f2f2"/><g transform="translate(20 12)"><path d="M8.578 11.348c-.068-.605-.349-1.074-.844-1.406s-1.116-.505-1.866-.505c-.537 0-1.001.085-1.393.256s-.697.396-.914.69a1.63 1.63 0 0 0-.32.991c0 .311.072.579.217.805a1.95 1.95 0 0 0 .582.569 4.4 4.4 0 0 0 .78.377l.799.243 1.278.332c.418.102.846.241 1.285.415a5.15 5.15 0 0 1 1.221.69c.375.285.678.639.908 1.061s.351.927.351 1.515c0 .741-.192 1.4-.575 1.975s-.931 1.029-1.655 1.362-1.592.498-2.614.498c-.98 0-1.828-.155-2.544-.467s-1.276-.752-1.681-1.323-.629-1.257-.671-2.046h1.982c.038.473.192.867.46 1.182s.62.543 1.042.697.893.224 1.4.224c.558 0 1.055-.087 1.489-.262s.784-.426 1.036-.741.377-.692.377-1.119c0-.388-.111-.705-.332-.952s-.513-.452-.888-.614-.79-.305-1.259-.428l-1.547-.422c-1.048-.286-1.879-.705-2.493-1.259s-.914-1.287-.914-2.199c0-.754.205-1.413.614-1.975s.963-.999 1.662-1.31 1.487-.473 2.365-.473c.886 0 1.668.156 2.346.467s1.219.739 1.611 1.285.597 1.163.614 1.866H8.578zm8.874-.166v1.534h-5.363v-1.534h5.363zM13.527 8.83h1.911v9.288c0 .371.055.65.166.837s.254.309.428.377a1.72 1.72 0 0 0 .582.096c.153 0 .288-.011.403-.032l.268-.051.345 1.579c-.111.043-.268.085-.473.128s-.46.072-.767.077c-.503.009-.972-.081-1.406-.268a2.41 2.41 0 0 1-1.055-.869c-.268-.392-.403-.884-.403-1.477V8.83zm10.069 12.369c-.92 0-1.724-.211-2.41-.633s-1.219-1.012-1.598-1.771-.569-1.645-.569-2.659.19-1.909.569-2.672.912-1.355 1.598-1.777 1.489-.633 2.41-.633 1.724.211 2.41.633 1.219 1.014 1.598 1.777.569 1.653.569 2.672-.19 1.901-.569 2.659-.912 1.349-1.598 1.771-1.489.633-2.41.633zm.006-1.604c.597 0 1.091-.158 1.483-.473s.682-.735.869-1.259.288-1.102.288-1.732-.096-1.202-.288-1.726-.477-.952-.869-1.272-.886-.479-1.483-.479-1.099.16-1.496.479-.684.744-.876 1.272-.281 1.099-.281 1.726.094 1.208.281 1.732.484.944.876 1.259.895.473 1.496.473zM30.306 21v-9.818h1.847v1.56h.102c.179-.528.494-.944.946-1.247s.972-.46 1.547-.46l.422.013.39.032v1.828c-.077-.021-.213-.045-.409-.07s-.392-.045-.588-.045c-.452 0-.854.096-1.208.288s-.626.45-.831.786-.307.712-.307 1.138V21h-1.911zm9.678.217c-.622 0-1.185-.115-1.687-.345s-.901-.573-1.195-1.016-.435-.986-.435-1.63c0-.554.106-1.01.32-1.368a2.36 2.36 0 0 1 .863-.85c.362-.209.767-.367 1.215-.473a12.08 12.08 0 0 1 1.368-.243l1.432-.166c.366-.047.633-.121.799-.224s.249-.268.249-.499v-.045c0-.558-.158-.991-.473-1.298s-.776-.46-1.394-.46c-.643 0-1.151.143-1.521.428s-.62.595-.761.94l-1.796-.409c.213-.597.524-1.078.933-1.445s.889-.639 1.425-.805 1.102-.256 1.694-.256a5.98 5.98 0 0 1 1.246.141 3.65 3.65 0 0 1 1.24.499c.388.243.705.59.952 1.042s.371 1.029.371 1.745V21h-1.867v-1.342h-.077c-.123.247-.309.49-.556.729s-.565.437-.952.594-.852.237-1.393.237zm.415-1.534c.528 0 .98-.104 1.355-.313s.667-.482.863-.818.3-.705.3-1.093v-1.266c-.068.068-.2.132-.396.192s-.411.104-.658.147l-.722.109-.588.077a4.74 4.74 0 0 0-1.016.236c-.303.111-.545.271-.729.479s-.268.477-.268.818c0 .473.175.831.524 1.074s.795.358 1.336.358zm11.092 5.203c-.78 0-1.451-.102-2.014-.307s-1.014-.475-1.368-.812-.618-.705-.793-1.106l1.643-.677c.115.188.268.386.46.594s.46.394.793.543.769.224 1.298.224c.724 0 1.323-.177 1.796-.531s.709-.908.709-1.675v-1.93h-.121c-.115.209-.281.441-.498.697s-.507.477-.882.665-.863.281-1.464.281c-.776 0-1.474-.181-2.097-.543s-1.108-.906-1.47-1.617-.537-1.596-.537-2.64.177-1.939.531-2.685.848-1.317 1.47-1.713 1.327-.601 2.116-.601c.609 0 1.102.102 1.477.307s.667.435.876.703.377.505.492.71h.141v-1.592h1.873v10.036c0 .844-.196 1.536-.588 2.077s-.922.942-1.592 1.202-1.415.39-2.25.39zm-.019-5.619c.55 0 1.014-.128 1.394-.384s.673-.631.869-1.112.301-1.067.301-1.745c0-.661-.098-1.242-.294-1.745s-.484-.895-.863-1.176-.848-.428-1.406-.428c-.575 0-1.055.149-1.438.447s-.673.695-.869 1.202-.288 1.074-.288 1.7c0 .643.098 1.208.294 1.694s.486.865.869 1.138.865.409 1.432.409zm11.244 1.93c-.967 0-1.8-.207-2.499-.62s-1.232-1.003-1.611-1.758-.562-1.647-.562-2.665c0-1.006.188-1.892.563-2.659s.908-1.366 1.585-1.796 1.479-.646 2.391-.646a4.81 4.81 0 0 1 1.611.275c.52.183.987.471 1.4.863s.739.901.978 1.528.358 1.379.358 2.269v.678h-7.805v-1.432h5.932a2.82 2.82 0 0 0-.307-1.336 2.32 2.32 0 0 0-.863-.927c-.367-.226-.797-.339-1.291-.339-.537 0-1.006.132-1.406.396a2.66 2.66 0 0 0-.92 1.023c-.213.418-.32.871-.32 1.362v1.119c0 .656.115 1.214.345 1.675s.56.812.978 1.055.905.358 1.464.358a3.04 3.04 0 0 0 .991-.153 2.14 2.14 0 0 0 .773-.473c.217-.209.384-.467.499-.773l1.809.326c-.145.533-.405.999-.78 1.4s-.837.705-1.4.927-1.195.326-1.911.326zm15.232 0c-.95 0-1.769-.215-2.454-.646s-1.206-1.033-1.573-1.796-.55-1.636-.55-2.621c0-.997.188-1.877.563-2.64s.903-1.366 1.585-1.796 1.485-.646 2.41-.646c.746 0 1.41.139 1.994.415s1.055.656 1.413 1.15.577 1.072.646 1.732h-1.86c-.102-.46-.337-.857-.703-1.189s-.848-.499-1.457-.499c-.533 0-.999.141-1.4.422s-.705.673-.927 1.189-.332 1.116-.332 1.815c0 .716.109 1.334.326 1.854s.524.923.92 1.208a2.37 2.37 0 0 0 1.413.428c.362 0 .69-.066.984-.198a2.01 2.01 0 0 0 .748-.582c.205-.251.347-.554.428-.908h1.86c-.068.635-.275 1.202-.62 1.7s-.808.891-1.387 1.176-1.251.428-2.026.428zm10.213 0c-.921 0-1.724-.211-2.41-.633s-1.219-1.012-1.598-1.771-.569-1.645-.569-2.659.19-1.909.569-2.672.912-1.355 1.598-1.777 1.489-.633 2.41-.633 1.724.211 2.41.633 1.219 1.014 1.598 1.777.569 1.653.569 2.672-.19 1.901-.569 2.659-.912 1.349-1.598 1.771-1.489.633-2.41.633zm.006-1.604c.597 0 1.091-.158 1.483-.473s.682-.735.869-1.259a5.01 5.01 0 0 0 .288-1.732 4.99 4.99 0 0 0-.288-1.726c-.187-.528-.477-.952-.869-1.272s-.886-.479-1.483-.479-1.1.16-1.496.479-.684.744-.876 1.272-.281 1.099-.281 1.726.094 1.208.281 1.732.484.944.876 1.259.895.473 1.496.473zm14.061-6.015l-1.732.307c-.073-.222-.188-.433-.345-.633s-.363-.364-.627-.492-.594-.192-.991-.192c-.541 0-.993.121-1.355.364s-.543.548-.543.927c0 .328.121.592.364.793s.635.364 1.176.492l1.56.358c.903.209 1.577.531 2.02.965s.665.999.665 1.694c0 .588-.171 1.112-.512 1.573s-.807.814-1.412 1.074-1.298.39-2.09.39c-1.099 0-1.996-.234-2.691-.703s-1.121-1.144-1.278-2.014l1.847-.281c.115.482.352.846.71 1.093s.825.364 1.4.364c.626 0 1.127-.13 1.502-.39s.562-.586.562-.965c0-.307-.115-.565-.345-.774s-.573-.366-1.042-.473l-1.662-.364c-.916-.209-1.594-.541-2.033-.997s-.652-1.033-.652-1.732c0-.58.162-1.087.486-1.521s.771-.774 1.342-1.016 1.225-.371 1.962-.371c1.061 0 1.897.23 2.506.69s1.012 1.067 1.208 1.834zm6.876-2.397v1.534h-5.363v-1.534h5.363zM105.18 8.83h1.911v9.288c0 .371.055.65.166.837s.253.309.428.377a1.72 1.72 0 0 0 .582.096 2.24 2.24 0 0 0 .403-.032l.268-.051.345 1.579c-.111.043-.268.085-.473.128s-.46.072-.767.077c-.503.009-.971-.081-1.406-.268s-.786-.477-1.055-.869-.402-.884-.402-1.477V8.83zm13.237 4.749l-1.732.307c-.072-.222-.187-.433-.345-.633s-.362-.364-.626-.492-.595-.192-.991-.192c-.541 0-.993.121-1.355.364s-.544.548-.544.927c0 .328.122.592.365.793s.635.364 1.176.492l1.56.358c.903.209 1.576.531 2.019.965s.665.999.665 1.694c0 .588-.17 1.112-.511 1.573s-.808.814-1.413 1.074-1.297.39-2.09.39c-1.099 0-1.996-.234-2.691-.703s-1.121-1.144-1.278-2.014l1.847-.281c.115.482.351.846.709 1.093s.825.364 1.4.364c.627 0 1.127-.13 1.502-.39s.563-.586.563-.965c0-.307-.115-.565-.345-.774s-.573-.366-1.042-.473l-1.662-.364c-.916-.209-1.594-.541-2.033-.997-.434-.456-.652-1.033-.652-1.732 0-.58.162-1.087.486-1.521s.771-.774 1.342-1.016 1.225-.371 1.963-.371c1.061 0 1.896.23 2.505.69s1.012 1.067 1.208 1.834zM125.474 21v-9.818h1.911V21h-1.911zm.965-11.333c-.332 0-.617-.111-.856-.332-.234-.226-.352-.494-.352-.805a1.07 1.07 0 0 1 .352-.805 1.2 1.2 0 0 1 .856-.339 1.18 1.18 0 0 1 .851.339 1.06 1.06 0 0 1 .358.805c0 .311-.12.58-.358.805s-.518.332-.851.332zm5.429 5.504V21h-1.911v-9.818h1.834v1.598h.122c.225-.52.579-.937 1.061-1.253s1.097-.473 1.834-.473c.669 0 1.255.141 1.758.422a2.82 2.82 0 0 1 1.17 1.24c.277.55.415 1.229.415 2.039V21h-1.911v-6.015c0-.712-.185-1.268-.556-1.668s-.88-.607-1.528-.607c-.443 0-.837.096-1.182.288s-.612.473-.812.844-.294.81-.294 1.33zm12.982 6.028c-.95 0-1.768-.215-2.454-.646s-1.206-1.033-1.573-1.796-.55-1.636-.55-2.621c0-.997.188-1.877.563-2.64s.903-1.366 1.585-1.796 1.485-.646 2.41-.646c.746 0 1.41.139 1.994.415s1.055.656 1.413 1.15.577 1.072.646 1.732h-1.861c-.102-.46-.336-.857-.703-1.189-.362-.332-.848-.499-1.457-.499-.533 0-.999.141-1.4.422-.396.277-.705.673-.927 1.189s-.332 1.116-.332 1.815c0 .716.109 1.334.326 1.854s.524.923.92 1.208c.401.285.872.428 1.413.428.362 0 .69-.066.984-.198a2 2 0 0 0 .748-.582c.205-.251.347-.554.428-.908h1.861c-.069.635-.275 1.202-.621 1.7s-.807.891-1.387 1.176-1.25.428-2.026.428zm6.077-.198v-9.818h1.848v1.56h.102a2.37 2.37 0 0 1 .946-1.247c.456-.307.972-.46 1.547-.46l.422.013.39.032v1.828c-.077-.021-.213-.045-.409-.07s-.392-.045-.589-.045c-.451 0-.854.096-1.208.288-.349.188-.626.45-.831.786a2.13 2.13 0 0 0-.306 1.138V21h-1.912zm10.789.198c-.968 0-1.801-.207-2.5-.62s-1.231-1.003-1.611-1.758c-.375-.758-.562-1.647-.562-2.665 0-1.006.187-1.892.562-2.659.38-.767.908-1.366 1.586-1.796s1.478-.646 2.39-.646c.554 0 1.091.092 1.611.275a3.9 3.9 0 0 1 1.4.863c.413.392.739.901.978 1.528s.358 1.379.358 2.269v.678h-7.805v-1.432h5.932c0-.503-.102-.948-.307-1.336s-.492-.701-.863-.927c-.366-.226-.797-.339-1.291-.339-.537 0-1.006.132-1.406.396a2.67 2.67 0 0 0-.921 1.023c-.213.418-.319.871-.319 1.362v1.119c0 .656.115 1.214.345 1.675s.56.812.978 1.055.905.358 1.464.358c.362 0 .692-.051.99-.153s.557-.264.774-.473a2.07 2.07 0 0 0 .499-.773l1.808.326c-.144.533-.404.999-.779 1.4s-.838.705-1.4.927-1.196.326-1.911.326zm9.19.019c-.622 0-1.185-.115-1.688-.345a2.84 2.84 0 0 1-1.195-1.016c-.29-.443-.435-.986-.435-1.63 0-.554.107-1.01.32-1.368a2.36 2.36 0 0 1 .863-.85c.362-.209.767-.367 1.214-.473s.904-.187 1.368-.243l1.432-.166c.366-.047.633-.121.799-.224s.249-.268.249-.499v-.045c0-.558-.157-.991-.473-1.298s-.775-.46-1.393-.46c-.644 0-1.151.143-1.522.428-.366.281-.62.595-.76.94l-1.796-.409c.213-.597.524-1.078.933-1.445a3.78 3.78 0 0 1 1.425-.805c.537-.17 1.102-.256 1.694-.256.392 0 .808.047 1.247.141s.856.256 1.24.499.705.59.952 1.042.371 1.029.371 1.745V21h-1.867v-1.342h-.076c-.124.247-.309.49-.556.729s-.565.437-.953.594-.852.237-1.393.237zm.415-1.534c.529 0 .98-.104 1.355-.313.38-.209.667-.482.863-.818.201-.341.301-.705.301-1.093v-1.266c-.069.068-.201.132-.397.192a6.14 6.14 0 0 1-.658.147l-.722.109-.588.077c-.371.047-.71.126-1.017.236s-.545.271-.728.479-.269.477-.269.818c0 .473.175.831.524 1.074s.795.358 1.336.358zm14.333-6.104l-1.732.307a2.06 2.06 0 0 0-.346-.633c-.153-.2-.362-.364-.626-.492s-.595-.192-.991-.192c-.541 0-.993.121-1.355.364s-.543.548-.543.927c0 .328.121.592.364.793s.635.364 1.176.492l1.56.358c.903.209 1.577.531 2.02.965s.665.999.665 1.694c0 .588-.171 1.112-.512 1.573s-.807.814-1.412 1.074-1.298.39-2.091.39c-1.099 0-1.996-.234-2.691-.703s-1.12-1.144-1.278-2.014l1.847-.281c.115.482.352.846.71 1.093s.824.364 1.4.364c.626 0 1.127-.13 1.502-.39s.562-.586.562-.965c0-.307-.115-.565-.345-.774s-.573-.366-1.042-.473l-1.662-.364c-.916-.209-1.594-.541-2.033-.997-.434-.456-.651-1.033-.651-1.732 0-.58.161-1.087.485-1.521s.772-.774 1.343-1.016 1.225-.371 1.962-.371c1.061 0 1.896.23 2.506.69s1.012 1.067 1.208 1.834zm6.524 7.619c-.967 0-1.8-.207-2.499-.62s-1.231-1.003-1.611-1.758-.562-1.647-.562-2.665c0-1.006.187-1.892.562-2.659s.908-1.366 1.586-1.796 1.478-.646 2.39-.646c.554 0 1.091.092 1.611.275a3.9 3.9 0 0 1 1.4.863c.413.392.739.901.978 1.528s.358 1.379.358 2.269v.678h-7.805v-1.432h5.932c0-.503-.102-.948-.307-1.336s-.492-.701-.863-.927-.797-.339-1.291-.339c-.537 0-1.006.132-1.406.396a2.66 2.66 0 0 0-.921 1.023c-.213.418-.319.871-.319 1.362v1.119c0 .656.115 1.214.345 1.675s.56.812.978 1.055.905.358 1.464.358c.362 0 .692-.051.99-.153a2.14 2.14 0 0 0 .774-.473c.217-.209.383-.467.498-.773l1.809.326c-.145.533-.404.999-.779 1.4s-.838.705-1.4.927-1.196.326-1.912.326zm10.009-.006c-.793 0-1.5-.203-2.122-.607s-1.104-.991-1.458-1.745c-.349-.759-.524-1.668-.524-2.729s.177-1.969.531-2.723.848-1.332 1.47-1.732 1.327-.601 2.116-.601c.609 0 1.099.102 1.47.307s.665.435.869.703c.209.268.371.505.486.71h.115V7.909h1.911V21h-1.866v-1.528h-.16c-.115.209-.281.447-.499.716s-.507.503-.882.703-.861.3-1.457.3zm.422-1.63c.549 0 1.014-.145 1.393-.435s.673-.701.869-1.221.301-1.125.301-1.815c0-.682-.098-1.278-.294-1.79s-.484-.91-.863-1.195-.848-.428-1.406-.428c-.576 0-1.055.149-1.439.447s-.673.705-.869 1.221-.288 1.097-.288 1.745c0 .656.099 1.246.295 1.771s.485.94.869 1.247.865.454 1.432.454zM214.696 21V7.909h1.911v4.864h.115a5.36 5.36 0 0 1 .48-.71c.209-.268.498-.503.869-.703s.861-.307 1.47-.307c.793 0 1.5.2 2.122.601s1.11.978 1.464 1.732.537 1.662.537 2.723-.177 1.971-.53 2.729-.84 1.336-1.458 1.745-1.323.607-2.116.607c-.596 0-1.084-.1-1.463-.3s-.669-.435-.883-.703-.377-.507-.492-.716h-.16V21h-1.866zm1.873-4.909c0 .69.1 1.295.3 1.815s.49.927.87 1.221.843.435 1.393.435c.571 0 1.048-.151 1.432-.454s.673-.722.869-1.247.301-1.114.301-1.771c0-.648-.098-1.229-.294-1.745s-.482-.923-.87-1.221c-.383-.298-.863-.447-1.438-.447-.554 0-1.023.143-1.406.428s-.667.684-.863 1.195-.294 1.108-.294 1.79zm10.115 8.591c-.285 0-.545-.023-.78-.07s-.409-.09-.524-.141l.461-1.566a3.08 3.08 0 0 0 .933.121c.273-.013.513-.115.722-.307s.401-.505.563-.94l.236-.652-3.592-9.946h2.045l2.487 7.619h.102l2.487-7.619h2.051l-4.046 11.129c-.187.511-.426.944-.716 1.298s-.635.626-1.035.805-.865.268-1.394.268zm19.223-16.773V21h-2.768V10.536h-.077l-2.998 1.879V9.961l3.241-2.052h2.602zm7.995 13.27c-.985 0-1.86-.16-2.627-.479s-1.362-.765-1.797-1.323a3.01 3.01 0 0 1-.652-1.898c0-.546.124-1.046.371-1.502s.592-.842 1.023-1.144a3.37 3.37 0 0 1 1.444-.588v-.09a2.84 2.84 0 0 1-1.7-1.016 2.92 2.92 0 0 1-.652-1.886 2.93 2.93 0 0 1 .595-1.809c.396-.533.939-.95 1.63-1.253s1.483-.46 2.365-.46 1.668.153 2.358.46 1.24.727 1.637 1.259.596 1.129.601 1.803a2.92 2.92 0 0 1-.665 1.886 2.86 2.86 0 0 1-1.688 1.016v.09a3.32 3.32 0 0 1 1.426.588c.43.303.771.684 1.022 1.144s.386.957.39 1.502c-.004.707-.223 1.34-.658 1.898s-1.036.999-1.803 1.323-1.636.479-2.62.479zm0-2.033c.439 0 .822-.079 1.15-.236s.584-.384.767-.665c.188-.286.281-.614.281-.984 0-.379-.095-.714-.287-1.004a1.98 1.98 0 0 0-.78-.69c-.328-.171-.705-.256-1.131-.256s-.799.085-1.132.256a1.97 1.97 0 0 0-.786.69 1.81 1.81 0 0 0-.281 1.004c0 .371.091.699.275.984a1.88 1.88 0 0 0 .773.665c.332.158.716.236 1.151.236zm0-5.849c.366 0 .692-.075.978-.224a1.69 1.69 0 0 0 .671-.62c.162-.264.243-.569.243-.914s-.081-.639-.243-.895-.384-.462-.665-.607-.609-.224-.984-.224-.699.075-.985.224-.509.347-.671.607-.236.554-.236.895.081.65.242.914.386.471.672.62.611.224.978.224zm14.182 5.248v-.69c0-.524.111-1.006.332-1.445s.552-.797.978-1.061.955-.403 1.573-.403c.626 0 1.152.132 1.579.396s.754.618.971 1.061.333.923.333 1.451v.69c0 .524-.111 1.008-.333 1.451a2.58 2.58 0 0 1-.978 1.055c-.43.268-.954.403-1.572.403-.627 0-1.153-.134-1.579-.403s-.75-.616-.972-1.055-.332-.927-.332-1.451zm1.86-.69v.69c0 .302.073.588.217.857.15.268.418.403.806.403s.652-.132.792-.396.218-.552.218-.863v-.69c0-.311-.068-.601-.205-.869s-.405-.403-.805-.403c-.384 0-.65.134-.799.403s-.224.558-.224.869zm-8.578-6.801v-.69c0-.528.113-1.012.339-1.451s.552-.797.978-1.061.95-.396 1.559-.396c.631 0 1.159.132 1.586.396s.75.618.971 1.061.333.923.333 1.451v.69c0 .528-.113 1.012-.339 1.451s-.548.79-.978 1.055-.95.39-1.573.39-1.148-.132-1.578-.396-.75-.62-.972-1.055-.326-.921-.326-1.445zm1.873-.69v.69c0 .311.072.599.217.863s.411.396.786.396c.392 0 .659-.132.799-.396s.218-.552.218-.863v-.69c0-.311-.068-.601-.205-.869s-.407-.403-.812-.403c-.379 0-.641.136-.786.409a1.81 1.81 0 0 0-.217.863zM262.21 21l9-13.091h1.674l-9 13.091h-1.674zm22.84.192c-.793 0-1.5-.203-2.122-.607s-1.104-.991-1.457-1.745-.525-1.668-.525-2.729.177-1.969.531-2.723.848-1.332 1.47-1.732 1.328-.601 2.116-.601c.609 0 1.099.102 1.47.307s.665.435.869.703.371.505.486.71h.115V7.909h1.911V21h-1.866v-1.528h-.16c-.115.209-.281.447-.498.716s-.508.503-.883.703-.86.3-1.457.3zm.422-1.63c.55 0 1.014-.145 1.393-.435s.674-.701.87-1.221.3-1.125.3-1.815c0-.682-.098-1.278-.294-1.79s-.484-.91-.863-1.195-.848-.428-1.406-.428c-.575 0-1.055.149-1.438.447s-.674.705-.87 1.221c-.191.516-.287 1.097-.287 1.745 0 .656.098 1.246.294 1.771s.486.94.869 1.247.865.454 1.432.454zm13.39-2.634v-5.746h1.917V21H298.9v-1.7h-.102c-.226.524-.588.961-1.087 1.31s-1.11.518-1.847.518c-.631 0-1.189-.139-1.675-.415s-.861-.697-1.138-1.246-.409-1.229-.409-2.039v-6.245h1.911v6.015c0 .669.186 1.202.557 1.598s.852.595 1.444.595c.358 0 .714-.089 1.068-.268s.654-.45.888-.812c.239-.362.356-.822.352-1.381zm8.717 4.27c-.967 0-1.801-.207-2.499-.62a4.2 4.2 0 0 1-1.611-1.758c-.375-.758-.563-1.647-.563-2.665 0-1.006.188-1.892.563-2.659s.907-1.366 1.585-1.796 1.479-.646 2.391-.646c.554 0 1.091.092 1.61.275a3.9 3.9 0 0 1 1.4.863c.414.392.74.901.978 1.528s.358 1.379.358 2.269v.678h-7.804v-1.432h5.931c0-.503-.102-.948-.306-1.336a2.33 2.33 0 0 0-.863-.927c-.367-.226-.797-.339-1.292-.339-.537 0-1.005.132-1.406.396a2.66 2.66 0 0 0-.92 1.023c-.213.418-.32.871-.32 1.362v1.119c0 .656.115 1.214.345 1.675s.561.812.978 1.055.906.358 1.464.358c.362 0 .692-.051.991-.153s.556-.264.773-.473.384-.467.499-.773l1.809.326c-.145.533-.405.999-.78 1.4s-.837.705-1.4.927-1.195.326-1.911.326zm15.68-10.016v1.534h-5.363v-1.534h5.363zm-3.925-2.352h1.911v9.288c0 .371.055.65.166.837a.87.87 0 0 0 .428.377 1.72 1.72 0 0 0 .582.096c.154 0 .288-.011.403-.032l.268-.051.346 1.579c-.111.043-.269.085-.474.128s-.46.072-.767.077c-.502.009-.971-.081-1.406-.268a2.41 2.41 0 0 1-1.054-.869c-.269-.392-.403-.884-.403-1.477V8.83zm10.069 12.369c-.921 0-1.724-.211-2.41-.633s-1.219-1.012-1.598-1.771-.569-1.645-.569-2.659.19-1.909.569-2.672.912-1.355 1.598-1.777 1.489-.633 2.41-.633 1.724.211 2.41.633 1.218 1.014 1.598 1.777.569 1.653.569 2.672-.19 1.901-.569 2.659-.912 1.349-1.598 1.771-1.49.633-2.41.633zm.006-1.604c.597 0 1.091-.158 1.483-.473s.682-.735.87-1.259.287-1.102.287-1.732-.096-1.202-.287-1.726-.478-.952-.87-1.272-.886-.479-1.483-.479-1.099.16-1.495.479-.684.744-.876 1.272-.281 1.099-.281 1.726.093 1.208.281 1.732.483.944.876 1.259.894.473 1.495.473zm13.379-4.423V21h-1.911V7.909h1.885v4.871h.122a2.82 2.82 0 0 1 1.054-1.259c.473-.311 1.091-.467 1.854-.467.673 0 1.261.139 1.764.415a2.81 2.81 0 0 1 1.176 1.24c.282.546.422 1.227.422 2.046V21h-1.911v-6.015c0-.72-.185-1.278-.556-1.675s-.886-.601-1.547-.601c-.452 0-.856.096-1.214.288s-.633.473-.838.844-.3.81-.3 1.33zM351.705 21v-9.818h1.911V21h-1.911zm.965-11.333c-.332 0-.618-.111-.857-.332a1.08 1.08 0 0 1-.351-.805c0-.315.117-.584.351-.805.239-.226.525-.339.857-.339a1.18 1.18 0 0 1 .85.339c.239.222.358.49.358.805a1.07 1.07 0 0 1-.358.805 1.19 1.19 0 0 1-.85.332zm7.634 15.219c-.78 0-1.451-.102-2.014-.307s-1.014-.475-1.368-.812-.618-.705-.792-1.106l1.642-.677a3.94 3.94 0 0 0 .461.594c.196.213.46.394.792.543.337.149.769.224 1.298.224.724 0 1.323-.177 1.796-.531s.709-.908.709-1.675v-1.93h-.121c-.115.209-.281.441-.499.697s-.507.477-.882.665-.863.281-1.463.281c-.776 0-1.475-.181-2.097-.543s-1.108-.906-1.47-1.617-.537-1.596-.537-2.64.177-1.939.53-2.685.848-1.317 1.471-1.713 1.327-.601 2.115-.601c.61 0 1.102.102 1.477.307s.667.435.876.703.377.505.492.71h.14v-1.592h1.873v10.036c0 .844-.196 1.536-.588 2.077s-.922.942-1.591 1.202-1.415.39-2.25.39zm-.02-5.619c.55 0 1.015-.128 1.394-.384a2.39 2.39 0 0 0 .869-1.112c.201-.486.301-1.067.301-1.745 0-.661-.098-1.242-.294-1.745s-.484-.895-.863-1.176-.848-.428-1.407-.428c-.575 0-1.054.149-1.438.447s-.673.695-.869 1.202-.288 1.074-.288 1.7c0 .643.098 1.208.294 1.694s.486.865.87 1.138.865.409 1.431.409zm8.924-4.097V21h-1.911V7.909h1.885v4.871h.122a2.82 2.82 0 0 1 1.054-1.259c.473-.311 1.091-.467 1.854-.467.673 0 1.261.139 1.764.415a2.81 2.81 0 0 1 1.176 1.24c.282.546.422 1.227.422 2.046V21h-1.911v-6.015c0-.72-.185-1.278-.556-1.675s-.886-.601-1.547-.601c-.452 0-.857.096-1.214.288s-.633.473-.838.844c-.2.367-.3.81-.3 1.33zm13.148 6.028c-.967 0-1.8-.207-2.499-.62a4.2 4.2 0 0 1-1.611-1.758c-.375-.758-.562-1.647-.562-2.665 0-1.006.187-1.892.562-2.659s.908-1.366 1.585-1.796 1.479-.646 2.391-.646c.554 0 1.091.092 1.611.275s.986.471 1.4.863.739.901.978 1.528.358 1.379.358 2.269v.678h-7.805v-1.432h5.932c0-.503-.103-.948-.307-1.336a2.32 2.32 0 0 0-.863-.927c-.367-.226-.797-.339-1.291-.339-.537 0-1.006.132-1.407.396a2.66 2.66 0 0 0-.92 1.023c-.213.418-.32.871-.32 1.362v1.119c0 .656.115 1.214.346 1.675s.56.812.978 1.055.905.358 1.463.358c.363 0 .693-.051.991-.153a2.15 2.15 0 0 0 .774-.473c.217-.209.383-.467.498-.773l1.809.326c-.145.533-.405.999-.78 1.4a3.77 3.77 0 0 1-1.4.927c-.558.217-1.195.326-1.911.326zm6.333-.198v-9.818h1.847v1.56h.103a2.37 2.37 0 0 1 .946-1.247c.456-.307.971-.46 1.547-.46l.421.013.39.032v1.828c-.076-.021-.213-.045-.409-.07s-.392-.045-.588-.045c-.452 0-.854.096-1.208.288s-.626.45-.831.786a2.13 2.13 0 0 0-.307 1.138V21h-1.911zM1.285 49v-9.818h1.911V49H1.285zm.965-11.333c-.332 0-.618-.111-.857-.332a1.08 1.08 0 0 1-.352-.805c0-.315.117-.584.352-.805a1.2 1.2 0 0 1 .857-.339 1.18 1.18 0 0 1 .85.339c.239.222.358.49.358.805a1.07 1.07 0 0 1-.358.805c-.234.222-.518.332-.85.332zm5.428 5.504V49H5.767v-9.818h1.835v1.598h.121c.226-.52.58-.937 1.061-1.253s1.097-.473 1.835-.473c.669 0 1.255.141 1.758.422a2.82 2.82 0 0 1 1.17 1.24c.277.55.415 1.229.415 2.039V49h-1.911v-6.015c0-.712-.185-1.268-.556-1.668s-.88-.607-1.528-.607c-.443 0-.837.096-1.183.288s-.612.473-.812.844-.294.81-.294 1.33zm16.894-3.989L21.012 49h-2.046L15.4 39.182h2.052l2.487 7.555h.102l2.48-7.555h2.052zm5.694 10.016c-.967 0-1.8-.207-2.499-.62s-1.232-1.004-1.611-1.758-.562-1.647-.562-2.666c0-1.006.187-1.892.562-2.659s.908-1.366 1.585-1.796 1.479-.646 2.391-.646a4.81 4.81 0 0 1 1.611.275c.52.183.986.471 1.4.863s.739.901.978 1.528.358 1.379.358 2.269v.678h-7.805v-1.432h5.932a2.82 2.82 0 0 0-.307-1.336 2.32 2.32 0 0 0-.863-.927c-.366-.226-.797-.339-1.291-.339-.537 0-1.006.132-1.406.396a2.66 2.66 0 0 0-.92 1.023c-.213.418-.32.871-.32 1.362v1.119c0 .656.115 1.214.345 1.675s.56.812.978 1.055.906.358 1.464.358a3.04 3.04 0 0 0 .991-.153 2.14 2.14 0 0 0 .773-.473c.217-.209.383-.467.499-.773l1.809.326c-.145.533-.405.999-.78 1.4s-.837.705-1.4.927-1.195.326-1.911.326zm8.244-6.028V49h-1.911v-9.818h1.834v1.598h.121c.226-.52.58-.937 1.061-1.253s1.097-.473 1.834-.473c.669 0 1.255.141 1.758.422a2.82 2.82 0 0 1 1.17 1.24c.277.55.416 1.229.416 2.039V49h-1.911v-6.015c0-.712-.185-1.268-.556-1.668s-.88-.607-1.528-.607c-.443 0-.837.096-1.182.288s-.611.473-.812.844-.294.81-.294 1.33zm13.43-3.989v1.534h-5.363v-1.534h5.363zm-3.925-2.352h1.911v9.288c0 .371.055.65.166.837s.254.309.428.377a1.72 1.72 0 0 0 .582.096c.153 0 .288-.011.403-.032l.269-.051.345 1.579c-.111.043-.268.085-.473.128s-.46.073-.767.077c-.503.009-.972-.081-1.406-.268s-.786-.477-1.055-.869-.403-.884-.403-1.477V36.83zm10.069 12.369c-.92 0-1.724-.211-2.41-.633s-1.219-1.012-1.598-1.771-.569-1.645-.569-2.659.19-1.909.569-2.672.912-1.355 1.598-1.777 1.489-.633 2.41-.633 1.724.211 2.41.633 1.219 1.014 1.598 1.777.569 1.653.569 2.672-.19 1.901-.569 2.659-.912 1.349-1.598 1.771-1.489.633-2.41.633zm.006-1.604c.597 0 1.091-.158 1.483-.473s.682-.735.869-1.259a5.01 5.01 0 0 0 .288-1.732 4.99 4.99 0 0 0-.288-1.726c-.187-.528-.477-.952-.869-1.272s-.886-.479-1.483-.479-1.099.16-1.496.479-.684.744-.876 1.272-.281 1.099-.281 1.726.094 1.208.281 1.732.484.944.876 1.259.895.473 1.496.473zM64.795 49v-9.818h1.847v1.56h.102c.179-.528.494-.944.946-1.247s.972-.46 1.547-.46l.422.013.39.032v1.828a3.41 3.41 0 0 0-.409-.07c-.196-.03-.392-.045-.588-.045-.452 0-.854.096-1.208.288s-.626.45-.831.786-.307.712-.307 1.138V49h-1.911zm8.415 3.682c-.285 0-.546-.023-.78-.07s-.409-.09-.524-.141l.46-1.566c.35.094.661.134.933.121s.514-.115.722-.307.401-.505.563-.94l.236-.652-3.592-9.946h2.045l2.486 7.619h.102l2.487-7.619h2.052L76.355 50.31c-.187.511-.426.944-.716 1.298a2.78 2.78 0 0 1-1.035.805c-.401.179-.865.268-1.394.268zm15.662-16.773V49h-1.911V35.909h1.911zm6.803 13.289c-.967 0-1.8-.207-2.499-.62s-1.231-1.004-1.611-1.758-.562-1.647-.562-2.666c0-1.006.188-1.892.563-2.659s.908-1.366 1.585-1.796 1.479-.646 2.391-.646a4.81 4.81 0 0 1 1.611.275c.52.183.987.471 1.4.863s.739.901.978 1.528.358 1.379.358 2.269v.678h-7.805v-1.432h5.932a2.82 2.82 0 0 0-.307-1.336 2.32 2.32 0 0 0-.863-.927c-.367-.226-.797-.339-1.291-.339-.537 0-1.006.132-1.406.396a2.66 2.66 0 0 0-.92 1.023c-.213.418-.32.871-.32 1.362v1.119c0 .656.115 1.214.345 1.675s.56.812.978 1.055.906.358 1.464.358a3.04 3.04 0 0 0 .991-.153 2.14 2.14 0 0 0 .773-.473c.217-.209.383-.467.499-.773l1.809.326c-.145.533-.405.999-.78 1.4s-.837.705-1.4.927-1.195.326-1.911.326zm14.451-10.016L106.565 49h-2.045l-3.567-9.818h2.052l2.486 7.555h.102l2.481-7.555h2.051zm5.694 10.016c-.967 0-1.8-.207-2.499-.62a4.2 4.2 0 0 1-1.611-1.758c-.375-.759-.563-1.647-.563-2.666 0-1.006.188-1.892.563-2.659s.908-1.366 1.585-1.796c.682-.43 1.479-.646 2.391-.646.554 0 1.091.092 1.611.275s.986.471 1.399.863.74.901.978 1.528.358 1.379.358 2.269v.678h-7.804v-1.432h5.932c0-.503-.103-.948-.307-1.336a2.32 2.32 0 0 0-.863-.927c-.367-.226-.797-.339-1.291-.339-.537 0-1.006.132-1.407.396a2.66 2.66 0 0 0-.92 1.023c-.213.418-.32.871-.32 1.362v1.119c0 .656.115 1.214.345 1.675s.561.812.978 1.055.906.358 1.464.358a3.04 3.04 0 0 0 .991-.153c.298-.106.556-.264.773-.473s.384-.467.499-.773l1.809.326c-.145.533-.405.999-.78 1.4s-.837.705-1.4.927-1.195.326-1.911.326zm8.244-13.289V49h-1.911V35.909h1.911zm9.929 5.67l-1.733.307c-.072-.222-.187-.433-.345-.633-.153-.2-.362-.364-.626-.492s-.595-.192-.991-.192c-.541 0-.993.121-1.355.364s-.543.548-.543.927c0 .328.121.592.364.793s.635.364 1.176.492l1.56.358c.903.209 1.576.531 2.02.965s.664.999.664 1.694c0 .588-.17 1.112-.511 1.572s-.807.814-1.413 1.074c-.6.26-1.297.39-2.09.39-1.099 0-1.996-.234-2.691-.703s-1.121-1.144-1.278-2.014l1.847-.281c.115.482.352.846.71 1.093s.824.364 1.399.364c.627 0 1.128-.13 1.503-.39s.562-.586.562-.965c0-.307-.115-.565-.345-.773s-.573-.367-1.042-.473l-1.662-.364c-.916-.209-1.594-.541-2.033-.997-.434-.456-.652-1.033-.652-1.732 0-.58.162-1.087.486-1.521s.771-.773 1.343-1.016 1.225-.371 1.962-.371c1.061 0 1.896.23 2.506.69s1.012 1.067 1.208 1.834zM141.048 49v-9.818h1.912V49h-1.912zm.966-11.333c-.333 0-.618-.111-.857-.332a1.08 1.08 0 0 1-.351-.805c0-.315.117-.584.351-.805s.524-.339.857-.339a1.18 1.18 0 0 1 .85.339 1.06 1.06 0 0 1 .358.805c0 .311-.12.58-.358.805s-.518.332-.85.332zm5.428 5.504V49h-1.911v-9.818h1.834v1.598h.122c.226-.52.579-.937 1.061-1.253s1.097-.473 1.834-.473c.669 0 1.255.141 1.758.422a2.82 2.82 0 0 1 1.17 1.24c.277.55.415 1.229.415 2.039V49h-1.911v-6.015c0-.712-.185-1.268-.556-1.668s-.88-.607-1.528-.607c-.443 0-.837.096-1.182.288s-.612.473-.812.844-.294.81-.294 1.33zM160.867 49v-1.317l6.884-10.074h-6.942v-1.7h9.358v1.317L163.283 47.3h6.942V49h-9.358zm15.817.198c-.92 0-1.724-.211-2.41-.633s-1.218-1.012-1.598-1.771-.569-1.645-.569-2.659.19-1.909.569-2.672.912-1.355 1.598-1.777 1.49-.633 2.41-.633 1.724.211 2.41.633 1.219 1.014 1.598 1.777.569 1.653.569 2.672-.19 1.901-.569 2.659-.912 1.349-1.598 1.771-1.489.633-2.41.633zm.007-1.604c.596 0 1.09-.158 1.482-.473s.682-.735.87-1.259.287-1.102.287-1.732-.095-1.202-.287-1.726-.477-.952-.87-1.272-.886-.479-1.482-.479-1.1.16-1.496.479-.684.744-.876 1.272c-.187.524-.281 1.099-.281 1.726s.094 1.208.281 1.732c.192.524.484.944.876 1.259s.895.473 1.496.473zm8.614-4.423V49h-1.911v-9.818h1.835v1.598h.121a2.81 2.81 0 0 1 1.061-1.253c.486-.315 1.098-.473 1.835-.473.669 0 1.255.141 1.758.422s.892.69 1.169 1.24.416 1.229.416 2.039V49h-1.911v-6.015c0-.712-.186-1.268-.557-1.668s-.88-.607-1.527-.607c-.443 0-.838.096-1.183.288s-.611.473-.812.844c-.196.367-.294.81-.294 1.33zm13.079 6.028c-.968 0-1.801-.207-2.5-.62-.694-.418-1.231-1.004-1.611-1.758s-.562-1.647-.562-2.666c0-1.006.187-1.892.562-2.659s.908-1.366 1.586-1.796 1.478-.646 2.39-.646c.554 0 1.091.092 1.611.275a3.9 3.9 0 0 1 1.4.863c.413.392.739.901.978 1.528s.358 1.379.358 2.269v.678h-7.805v-1.432h5.932c0-.503-.102-.948-.307-1.336s-.492-.701-.863-.927c-.366-.226-.797-.339-1.291-.339-.537 0-1.006.132-1.406.396a2.67 2.67 0 0 0-.921 1.023c-.213.418-.319.871-.319 1.362v1.119c0 .656.115 1.214.345 1.675s.56.812.978 1.055.905.358 1.464.358c.362 0 .692-.051.99-.153s.557-.264.774-.473.383-.467.498-.773l1.809.326c-.144.533-.404.999-.779 1.4s-.838.705-1.4.927-1.196.326-1.911.326zm15.628-.019c-.878 0-1.662-.151-2.352-.454s-1.23-.722-1.63-1.259-.61-1.168-.639-1.879h2.007c.025.388.155.725.39 1.01s.549.499.933.652.81.23 1.278.23c.516 0 .972-.09 1.368-.269.401-.179.714-.428.94-.748s.339-.697.339-1.119c0-.439-.113-.825-.339-1.157s-.548-.601-.978-.793-.942-.288-1.547-.288h-1.106v-1.611h1.106c.486 0 .912-.087 1.278-.262s.661-.418.87-.729.313-.684.313-1.106c0-.405-.092-.756-.275-1.055a1.85 1.85 0 0 0-.767-.71c-.328-.17-.716-.256-1.163-.256-.426 0-.825.079-1.196.236s-.664.375-.895.665a1.71 1.71 0 0 0-.37 1.029h-1.912c.022-.707.231-1.33.627-1.867s.929-.957 1.585-1.259 1.385-.454 2.186-.454c.84 0 1.564.164 2.174.492s1.086.756 1.419 1.298.502 1.133.498 1.777c.004.733-.2 1.355-.614 1.867-.409.511-.954.854-1.636 1.029v.102c.869.132 1.543.477 2.02 1.036s.72 1.251.716 2.077c.004.72-.196 1.366-.601 1.937s-.948 1.021-1.643 1.349-1.489.486-2.384.486zm14.691.038c-.623 0-1.185-.115-1.688-.345a2.84 2.84 0 0 1-1.195-1.016c-.29-.443-.435-.986-.435-1.63 0-.554.107-1.01.32-1.368a2.35 2.35 0 0 1 .863-.85c.362-.209.767-.367 1.214-.473s.904-.187 1.368-.243l1.432-.166c.366-.047.633-.121.799-.224s.249-.269.249-.499v-.045c0-.558-.158-.991-.473-1.298s-.775-.46-1.393-.46c-.644 0-1.151.143-1.522.428-.366.281-.62.595-.76.94l-1.796-.409c.213-.597.524-1.078.933-1.445a3.78 3.78 0 0 1 1.425-.805c.537-.17 1.102-.256 1.694-.256.392 0 .808.047 1.247.141s.856.256 1.24.499.705.59.952 1.042.371 1.029.371 1.745V49h-1.867v-1.342h-.076c-.124.247-.309.49-.557.729s-.564.437-.952.594-.852.236-1.393.236zm.415-1.534c.528 0 .98-.104 1.355-.313s.667-.481.863-.818.301-.705.301-1.093v-1.266c-.069.068-.201.132-.397.192s-.411.104-.658.147l-.722.109-.589.077a4.75 4.75 0 0 0-1.016.236c-.302.111-.545.271-.729.479s-.268.477-.268.818c0 .473.175.831.524 1.074s.795.358 1.336.358zm8.887-4.513V49h-1.912v-9.818h1.835v1.598h.121a2.81 2.81 0 0 1 1.061-1.253c.486-.315 1.098-.473 1.835-.473.669 0 1.255.141 1.758.422a2.82 2.82 0 0 1 1.17 1.24c.277.55.415 1.229.415 2.039V49h-1.911v-6.015c0-.712-.186-1.268-.556-1.668s-.88-.607-1.528-.607c-.443 0-.837.096-1.183.288a2.07 2.07 0 0 0-.811.844c-.196.367-.294.81-.294 1.33zm12.522 6.021c-.793 0-1.5-.203-2.123-.607-.617-.409-1.103-.991-1.457-1.745s-.524-1.668-.524-2.729.177-1.969.53-2.723.848-1.332 1.471-1.732 1.327-.601 2.115-.601c.61 0 1.1.102 1.471.307s.664.435.869.703.371.505.486.71h.115v-4.864h1.911V49h-1.866v-1.528h-.16a5.09 5.09 0 0 1-.499.716c-.213.268-.507.503-.882.703s-.861.3-1.457.3zm.422-1.63c.549 0 1.014-.145 1.393-.435s.673-.701.869-1.221.301-1.125.301-1.815c0-.682-.098-1.278-.294-1.79s-.484-.91-.863-1.195-.848-.428-1.406-.428c-.576 0-1.055.149-1.439.447s-.673.705-.869 1.221-.288 1.097-.288 1.745c0 .656.098 1.247.294 1.771s.486.94.87 1.246.865.454 1.432.454zm13.845-11.653V49h-1.912V35.909h1.912zm6.707 13.289c-.921 0-1.724-.211-2.41-.633s-1.219-1.012-1.598-1.771-.569-1.645-.569-2.659.189-1.909.569-2.672.912-1.355 1.598-1.777 1.489-.633 2.41-.633 1.723.211 2.409.633 1.219 1.014 1.598 1.777.569 1.653.569 2.672-.189 1.901-.569 2.659-.912 1.349-1.598 1.771-1.489.633-2.409.633zm.006-1.604c.597 0 1.091-.158 1.483-.473s.682-.735.869-1.259c.192-.524.288-1.102.288-1.732s-.096-1.202-.288-1.726c-.187-.528-.477-.952-.869-1.272s-.886-.479-1.483-.479-1.1.16-1.496.479-.684.744-.876 1.272-.281 1.099-.281 1.726.094 1.208.281 1.732.484.944.876 1.259.895.473 1.496.473zm8.615-4.423V49h-1.911v-9.818h1.834v1.598h.122c.225-.52.579-.937 1.061-1.253s1.097-.473 1.834-.473c.669 0 1.255.141 1.758.422a2.82 2.82 0 0 1 1.17 1.24c.277.55.415 1.229.415 2.039V49h-1.911v-6.015c0-.712-.185-1.268-.556-1.668s-.88-.607-1.528-.607c-.443 0-.837.096-1.182.288s-.612.473-.812.844-.294.81-.294 1.33zm12.963 9.716c-.78 0-1.451-.102-2.014-.307s-1.014-.475-1.368-.812-.617-.705-.792-1.106l1.643-.678c.115.188.268.386.46.594s.46.394.792.543.77.224 1.298.224c.724 0 1.323-.177 1.796-.531s.71-.908.71-1.675v-1.93h-.122c-.115.209-.281.441-.498.697s-.507.477-.882.665-.863.281-1.464.281c-.776 0-1.475-.181-2.097-.543s-1.108-.906-1.47-1.617-.537-1.596-.537-2.64.177-1.939.531-2.685.848-1.317 1.47-1.713 1.327-.601 2.116-.601c.609 0 1.101.102 1.476.307s.667.435.876.703.377.505.492.71h.141v-1.592h1.873v10.035c0 .844-.196 1.536-.589 2.077s-.922.942-1.591 1.202-1.415.39-2.25.39zm-.019-5.619c.549 0 1.014-.128 1.393-.384s.673-.631.869-1.112c.201-.486.301-1.067.301-1.745 0-.66-.098-1.242-.294-1.745s-.484-.895-.863-1.176-.848-.428-1.406-.428c-.576 0-1.055.149-1.439.447s-.673.695-.869 1.202-.287 1.074-.287 1.7c0 .643.098 1.208.294 1.694s.485.865.869 1.138.865.409 1.432.409zm11.243 1.93c-.967 0-1.8-.207-2.499-.62a4.2 4.2 0 0 1-1.611-1.758c-.375-.759-.562-1.647-.562-2.666 0-1.006.187-1.892.562-2.659s.908-1.366 1.585-1.796c.682-.43 1.479-.646 2.391-.646.554 0 1.091.092 1.611.275s.986.471 1.4.863.739.901.978 1.528.358 1.379.358 2.269v.678h-7.805v-1.432h5.932c0-.503-.102-.948-.307-1.336a2.32 2.32 0 0 0-.863-.927c-.366-.226-.797-.339-1.291-.339-.537 0-1.006.132-1.406.396s-.704.601-.921 1.023-.319.871-.319 1.362v1.119c0 .656.115 1.214.345 1.675s.56.812.978 1.055.905.358 1.463.358c.363 0 .693-.051.991-.153a2.14 2.14 0 0 0 .774-.473c.217-.209.383-.467.498-.773l1.809.326c-.145.533-.405.999-.78 1.4s-.837.705-1.399.927-1.196.326-1.912.326zm6.333-.198v-9.818h1.848v1.56h.102a2.37 2.37 0 0 1 .946-1.247c.456-.307.971-.46 1.547-.46l.422.013.389.032v1.828c-.076-.021-.213-.045-.409-.07s-.392-.045-.588-.045c-.451 0-.854.096-1.208.288-.349.188-.626.45-.831.786a2.13 2.13 0 0 0-.307 1.138V49h-1.911zm15.348.192c-.793 0-1.5-.203-2.123-.607s-1.103-.991-1.457-1.745-.524-1.668-.524-2.729.177-1.969.53-2.723.848-1.332 1.471-1.732 1.327-.601 2.115-.601c.61 0 1.1.102 1.47.307s.665.435.87.703.371.505.486.71h.115v-4.864h1.911V49h-1.867v-1.528h-.159a5.09 5.09 0 0 1-.499.716c-.213.268-.507.503-.882.703s-.861.3-1.457.3zm.421-1.63c.55 0 1.015-.145 1.394-.435s.673-.701.869-1.221.301-1.125.301-1.815c0-.682-.098-1.278-.294-1.79s-.484-.91-.863-1.195-.848-.428-1.407-.428c-.575 0-1.054.149-1.438.447s-.673.705-.869 1.221-.288 1.097-.288 1.745c0 .656.098 1.247.294 1.771s.486.94.87 1.246.865.454 1.431.454zM335.71 49l-2.889-9.818h1.975l1.924 7.21h.096l1.93-7.21h1.976l1.917 7.178h.096l1.911-7.178h1.975L343.739 49h-1.95l-1.994-7.089h-.147L337.653 49h-1.943zm16.658.198c-.967 0-1.801-.207-2.499-.62a4.2 4.2 0 0 1-1.611-1.758c-.375-.759-.563-1.647-.563-2.666 0-1.006.188-1.892.563-2.659s.907-1.366 1.585-1.796 1.479-.646 2.391-.646c.554 0 1.091.092 1.61.275a3.9 3.9 0 0 1 1.4.863c.414.392.74.901.978 1.528s.358 1.379.358 2.269v.678h-7.804v-1.432h5.931c0-.503-.102-.948-.306-1.336a2.33 2.33 0 0 0-.863-.927c-.367-.226-.797-.339-1.292-.339-.536 0-1.005.132-1.406.396a2.66 2.66 0 0 0-.92 1.023c-.213.418-.32.871-.32 1.362v1.119c0 .656.115 1.214.345 1.675s.561.812.978 1.055.906.358 1.464.358a3.04 3.04 0 0 0 .991-.153c.298-.106.556-.264.773-.473s.384-.467.499-.773l1.809.326c-.145.533-.405.999-.78 1.4s-.837.705-1.4.927-1.195.326-1.911.326zm8.244-13.289V49h-1.911V35.909h1.911zm4.482 0V49h-1.911V35.909h1.911zM5.868 67.182v1.534H.505v-1.534h5.363zm-3.925-2.352h1.911v9.288c0 .371.055.65.166.837s.254.309.428.377.373.096.582.096c.153 0 .288-.011.403-.032l.268-.051.345 1.579c-.111.043-.268.085-.473.128s-.46.072-.767.077c-.503.009-.972-.081-1.406-.268a2.41 2.41 0 0 1-1.055-.869c-.268-.392-.403-.884-.403-1.477v-9.684zM7.982 77v-9.818h1.911V77H7.982zm.965-11.333c-.332 0-.618-.111-.857-.332a1.08 1.08 0 0 1-.352-.805c0-.315.117-.584.352-.805a1.2 1.2 0 0 1 .857-.339 1.18 1.18 0 0 1 .85.339 1.06 1.06 0 0 1 .358.805 1.07 1.07 0 0 1-.358.805c-.234.222-.518.332-.85.332zM12.465 77v-9.818h1.835v1.598h.122c.204-.541.539-.963 1.003-1.266s1.021-.46 1.668-.46c.656 0 1.206.153 1.649.46s.778.729.991 1.266h.102c.234-.524.607-.942 1.119-1.253s1.121-.473 1.828-.473c.891 0 1.617.279 2.18.837s.85 1.4.85 2.525V77H23.9v-6.405c0-.665-.181-1.146-.543-1.445s-.795-.447-1.298-.447c-.622 0-1.106.192-1.451.575s-.518.867-.518 1.464V77h-1.905v-6.526c0-.533-.166-.961-.499-1.285s-.765-.486-1.298-.486c-.362 0-.697.096-1.003.288a2.11 2.11 0 0 0-.735.786c-.183.337-.275.727-.275 1.17V77h-1.911zm20.14.198c-.967 0-1.8-.207-2.499-.62s-1.232-1.004-1.611-1.758-.562-1.647-.562-2.666c0-1.006.188-1.892.563-2.659s.908-1.366 1.585-1.796 1.479-.646 2.391-.646a4.81 4.81 0 0 1 1.611.275 3.9 3.9 0 0 1 1.4.863c.413.392.739.901.978 1.528s.358 1.379.358 2.269v.678h-7.805v-1.432h5.932c0-.503-.102-.948-.307-1.336a2.32 2.32 0 0 0-.863-.927c-.367-.226-.797-.339-1.291-.339-.537 0-1.006.132-1.406.396a2.66 2.66 0 0 0-.92 1.023c-.213.418-.32.871-.32 1.362v1.119c0 .656.115 1.214.345 1.675s.56.812.978 1.055.906.358 1.464.358a3.04 3.04 0 0 0 .991-.153 2.14 2.14 0 0 0 .773-.473c.217-.209.383-.467.499-.773l1.809.326c-.145.533-.405.999-.78 1.4s-.837.705-1.4.927-1.195.326-1.911.326zm15.232 0c-.921 0-1.724-.211-2.41-.633s-1.219-1.012-1.598-1.771-.569-1.645-.569-2.659.19-1.909.569-2.672.912-1.355 1.598-1.777 1.489-.633 2.41-.633 1.724.211 2.41.633 1.219 1.014 1.598 1.777.569 1.653.569 2.672-.19 1.9-.569 2.659-.912 1.349-1.598 1.771-1.489.633-2.41.633zm.006-1.604c.597 0 1.091-.158 1.483-.473a2.77 2.77 0 0 0 .869-1.259c.192-.524.288-1.102.288-1.732s-.096-1.202-.288-1.726-.477-.952-.869-1.272-.886-.479-1.483-.479-1.099.16-1.496.479-.684.744-.876 1.272-.281 1.099-.281 1.726.094 1.208.281 1.732.484.944.876 1.259.895.473 1.496.473zm8.615-4.423V77h-1.911v-9.818h1.834v1.598h.121c.226-.52.58-.937 1.061-1.253s1.097-.473 1.834-.473c.669 0 1.255.141 1.758.422a2.82 2.82 0 0 1 1.17 1.24c.277.55.416 1.229.416 2.039V77H60.83v-6.015c0-.712-.185-1.268-.556-1.668s-.88-.607-1.528-.607c-.443 0-.837.096-1.182.288s-.611.473-.812.844-.294.81-.294 1.33zm20.968-1.592l-1.732.307a2.05 2.05 0 0 0-.345-.633c-.153-.2-.362-.364-.626-.492s-.594-.192-.991-.192c-.541 0-.993.121-1.355.364s-.543.548-.543.927c0 .328.121.592.364.793s.635.364 1.176.492l1.56.358c.903.209 1.577.531 2.02.965s.665.999.665 1.694c0 .588-.17 1.112-.511 1.572s-.807.814-1.413 1.074-1.298.39-2.09.39c-1.099 0-1.996-.234-2.691-.703s-1.121-1.144-1.278-2.014l1.847-.281c.115.481.352.846.71 1.093s.825.364 1.4.364c.626 0 1.127-.13 1.502-.39s.563-.586.563-.965c0-.307-.115-.565-.345-.773s-.573-.367-1.042-.473l-1.662-.364c-.916-.209-1.594-.541-2.033-.997s-.652-1.033-.652-1.732c0-.58.162-1.087.486-1.521s.771-.774 1.342-1.016 1.225-.371 1.962-.371c1.061 0 1.896.23 2.506.69a3.21 3.21 0 0 1 1.208 1.835zm4.204-5.67V77h-1.911V63.909h1.911zm6.707 13.289c-.921 0-1.724-.211-2.41-.633s-1.219-1.012-1.598-1.771-.569-1.645-.569-2.659.19-1.909.569-2.672.912-1.355 1.598-1.777 1.489-.633 2.41-.633 1.724.211 2.41.633 1.219 1.014 1.598 1.777.569 1.653.569 2.672-.19 1.9-.569 2.659-.912 1.349-1.598 1.771-1.489.633-2.41.633zm.006-1.604c.597 0 1.091-.158 1.483-.473a2.77 2.77 0 0 0 .869-1.259c.192-.524.288-1.102.288-1.732s-.096-1.202-.288-1.726-.477-.952-.869-1.272-.886-.479-1.483-.479-1.1.16-1.496.479-.684.744-.876 1.272-.281 1.099-.281 1.726.094 1.208.281 1.732.484.944.876 1.259.895.473 1.496.473zM96.876 77l-2.889-9.818h1.975l1.924 7.21h.096l1.93-7.21h1.976l1.917 7.178h.096l1.911-7.178h1.975L104.905 77h-1.95l-1.994-7.089h-.147L98.819 77h-1.943zm18.51-6.36v1.656h-5.804V70.64h5.804zm2.547 6.36v-9.818h1.835v1.598h.121c.205-.541.539-.963 1.004-1.266s1.02-.46 1.668-.46c.656 0 1.206.153 1.649.46.448.307.778.729.991 1.266h.102a2.77 2.77 0 0 1 1.119-1.253c.511-.315 1.121-.473 1.828-.473.891 0 1.617.279 2.18.837s.85 1.4.85 2.525V77h-1.911v-6.405c0-.665-.181-1.146-.544-1.445s-.794-.447-1.297-.447c-.622 0-1.106.192-1.451.575s-.518.867-.518 1.464V77h-1.905v-6.526c0-.533-.166-.961-.498-1.285s-.765-.486-1.298-.486a1.86 1.86 0 0 0-1.004.288 2.12 2.12 0 0 0-.735.786c-.183.337-.275.727-.275 1.17V77h-1.911zm20.044.198c-.92 0-1.724-.211-2.41-.633s-1.218-1.012-1.598-1.771-.569-1.645-.569-2.659.19-1.909.569-2.672.912-1.355 1.598-1.777 1.49-.633 2.41-.633 1.724.211 2.41.633 1.219 1.014 1.598 1.777.569 1.653.569 2.672-.19 1.9-.569 2.659-.912 1.349-1.598 1.771-1.489.633-2.41.633zm.006-1.604c.597 0 1.091-.158 1.483-.473s.682-.735.87-1.259.287-1.102.287-1.732-.095-1.202-.287-1.726-.478-.952-.87-1.272-.886-.479-1.483-.479-1.099.16-1.495.479-.684.744-.876 1.272c-.187.524-.281 1.099-.281 1.726s.094 1.208.281 1.732c.192.524.484.944.876 1.259s.895.473 1.495.473zm14.769-8.412L149.192 77h-2.046l-3.566-9.818h2.052l2.486 7.555h.102l2.48-7.555h2.052zM154.548 77v-9.818h1.912V77h-1.912zm.966-11.333c-.333 0-.618-.111-.857-.332a1.08 1.08 0 0 1-.351-.805c0-.315.117-.584.351-.805s.524-.339.857-.339a1.18 1.18 0 0 1 .85.339 1.06 1.06 0 0 1 .358.805c0 .311-.12.58-.358.805s-.518.332-.85.332zm5.428 5.504V77h-1.911v-9.818h1.834v1.598h.122c.226-.52.579-.937 1.061-1.253s1.097-.473 1.834-.473c.669 0 1.255.141 1.758.422a2.82 2.82 0 0 1 1.17 1.24c.277.55.415 1.229.415 2.039V77h-1.911v-6.015c0-.712-.185-1.268-.556-1.668s-.88-.607-1.528-.607c-.443 0-.837.096-1.182.288s-.612.473-.812.844-.294.81-.294 1.33zm12.963 9.716c-.78 0-1.451-.102-2.013-.307s-1.015-.475-1.368-.812a3.41 3.41 0 0 1-.793-1.106l1.643-.678c.115.188.268.386.46.594s.46.394.793.543.769.224 1.297.224c.725 0 1.324-.177 1.797-.531s.709-.908.709-1.675v-1.93h-.121a4.38 4.38 0 0 1-.499.697c-.213.256-.507.477-.882.665s-.863.281-1.464.281c-.775 0-1.474-.181-2.096-.543s-1.108-.906-1.471-1.617-.537-1.596-.537-2.64.177-1.939.531-2.685.848-1.317 1.47-1.713 1.328-.601 2.116-.601c.609 0 1.101.102 1.476.307s.667.435.876.703.377.505.492.709h.141v-1.592h1.873v10.035c0 .844-.196 1.536-.588 2.077a3.46 3.46 0 0 1-1.592 1.202c-.665.26-1.415.39-2.25.39zm-.019-5.619c.55 0 1.014-.128 1.393-.384.384-.26.674-.631.87-1.112s.3-1.068.3-1.745c0-.66-.098-1.242-.294-1.745s-.483-.895-.863-1.176-.848-.428-1.406-.428c-.575 0-1.055.149-1.438.447s-.673.695-.87 1.202c-.191.507-.287 1.074-.287 1.7 0 .644.098 1.208.294 1.694s.486.865.869 1.138.865.409 1.432.409zm19.069-7.92c-.068-.605-.349-1.074-.844-1.406s-1.116-.505-1.866-.505c-.537 0-1.002.085-1.394.256s-.696.396-.914.69a1.63 1.63 0 0 0-.319.991c0 .311.072.58.217.805s.343.415.582.569.503.275.78.377l.799.243 1.278.332c.418.102.846.241 1.285.415a5.15 5.15 0 0 1 1.221.69c.375.285.677.639.907 1.061s.352.927.352 1.515c0 .742-.192 1.4-.575 1.975s-.932 1.029-1.656 1.362-1.592.498-2.614.498c-.98 0-1.828-.155-2.544-.467s-1.277-.752-1.681-1.323-.629-1.257-.672-2.046h1.982c.038.473.192.867.46 1.183s.62.543 1.042.697.893.224 1.4.224c.558 0 1.055-.087 1.489-.262.439-.179.784-.426 1.036-.742s.377-.692.377-1.119c0-.388-.111-.705-.332-.952s-.514-.452-.889-.614-.79-.305-1.259-.428l-1.547-.422c-1.048-.286-1.879-.705-2.493-1.259-.609-.554-.914-1.287-.914-2.199 0-.754.205-1.413.614-1.975s.963-.999 1.662-1.31 1.487-.473 2.365-.473c.886 0 1.668.156 2.345.467.682.311 1.219.739 1.611 1.285s.597 1.163.614 1.867h-1.905zM197.399 77V63.909h1.975v6.251h.16l5.491-6.251h2.486l-5.279 5.893L207.531 77h-2.378l-4.232-5.849-1.547 1.777V77h-1.975zm20.372-13.091h1.981v8.61c0 .916-.215 1.728-.645 2.435s-1.036 1.257-1.816 1.662-1.694.601-2.742.601-1.956-.2-2.736-.601-1.385-.959-1.815-1.662-.646-1.519-.646-2.435v-8.61h1.975v8.45c0 .592.13 1.119.39 1.579s.637.823 1.119 1.087 1.052.39 1.713.39 1.238-.13 1.719-.39.857-.627 1.113-1.087.39-.986.39-1.579v-8.45zm12.057 5.67l-1.733.307c-.072-.222-.187-.433-.345-.633s-.362-.364-.626-.492-.595-.192-.991-.192c-.541 0-.993.121-1.355.364s-.543.548-.543.927c0 .328.121.592.364.793s.635.364 1.176.492l1.56.358c.903.209 1.576.531 2.02.965s.664.999.664 1.694c0 .588-.17 1.112-.511 1.572s-.808.814-1.413 1.074-1.297.39-2.09.39c-1.099 0-1.996-.234-2.691-.703s-1.121-1.144-1.278-2.014l1.847-.281c.115.481.352.846.71 1.093s.824.364 1.399.364c.627 0 1.127-.13 1.502-.39s.563-.586.563-.965c0-.307-.115-.565-.345-.773s-.573-.367-1.042-.473l-1.662-.364c-.916-.209-1.594-.541-2.033-.997s-.652-1.033-.652-1.732c0-.58.162-1.087.486-1.521s.771-.774 1.342-1.016 1.226-.371 1.963-.371c1.061 0 1.896.23 2.505.69s1.013 1.068 1.209 1.835zm3.552 7.543a1.24 1.24 0 0 1-.901-.371c-.252-.251-.377-.554-.377-.908s.125-.648.377-.895a1.23 1.23 0 0 1 .901-.377 1.23 1.23 0 0 1 .901.377c.252.247.377.545.377.895a1.21 1.21 0 0 1-.179.646 1.32 1.32 0 0 1-.46.46 1.22 1.22 0 0 1-.639.172z" fill="#100f41"/></g></g></g></g><rect x=".51" y=".51" width="494.979" height="330.979" rx="12.629" stroke="#d6d4e8" stroke-width="1.021"/></g></g><defs><filter id="C" x="0" y="0" width="448" height="109.021" filterUnits="userSpaceOnUse" color-interpolation-filters="sRGB"><feFlood flood-opacity="0" result="A"/><feColorMatrix in="SourceAlpha" values="0 0 0 0 0 0 0 0 0 0 0 0 0 0 0 0 0 0 127 0"/><feOffset dy="1.02062"/><feColorMatrix values="0 0 0 0 0.105882 0 0 0 0 0.121569 0 0 0 0 0.137255 0 0 0 0.04 0"/><feBlend in2="A"/><feBlend in="SourceGraphic"/></filter><clipPath id="D"><rect width="624" height="532" rx="12" fill="#fff"/></clipPath><clipPath id="E"><rect width="496" height="332" rx="13.139" fill="#fff"/></clipPath><clipPath id="F"><path fill="#fff" d="M0 0h24.495v24.495H0z"/></clipPath></defs></svg>