<svg xmlns="http://www.w3.org/2000/svg" viewBox="0 0 624 532" preserveAspectRatio="xMidYMid meet" fill="none" width="100%" height="auto" xmlns:v="https://vecta.io/nano"><style><![CDATA[#C{animation:kf__3_0_lbs_opacity_0 3.56449s linear 1 forwards}#D{animation:kf__2_0_lbs_opacity_0 3.56449s linear 1 forwards}#E{animation:kf_Frame_1991423801_opacity_0 3.56449s linear 1 forwards}#F{animation:kf_Frame_1991423803_opacity_0 3.56449s linear 1 forwards}#G{animation:kf_Frame_1991423804_opacity_0 3.56449s linear 1 forwards}#H{animation:kf_Frame_1991423801_2_opacity_0 3.56449s linear 1 forwards}#I{animation:kf_Frame_1991423803_2_opacity_0 3.56449s linear 1 forwards}#J{animation:kf_Frame_1991423804_2_opacity_0 3.56449s linear 1 forwards}#K{animation:kf_arrow-narrow-right_opacity_0 3.56449s linear 1 forwards}#L{animation:kf__3_0_lbs_2_opacity_0 3.56449s linear 1 forwards}#M{animation:kf_arrow-narrow-right_2_opacity_0 3.56449s linear 1 forwards}#N{animation:kf__6_x_14_x_10_in_opacity_0 3.56449s linear 1 forwards}#O{animation:kf_Frame_1597880669_2_opacity_0 3.56449s linear 1 forwards}#P{animation:kf__3-_6_opacity_0 3.56449s linear 1 forwards}@keyframes kf__3_0_lbs_opacity_0{0%{animation-timing-function:linear;opacity:0}28.44%{animation-timing-function:cubic-bezier(0.5, 0, 0.5, 1);opacity:0}42.26%{animation-timing-function:linear;opacity:1}100%{opacity:1}} @keyframes kf__2_0_lbs_opacity_0{0%{animation-timing-function:linear;opacity:1}14.15%{animation-timing-function:cubic-bezier(0.5, 0, 0.5, 1);opacity:1}28.14%{animation-timing-function:linear;opacity:0}100%{opacity:0}} @keyframes kf_Frame_1991423801_opacity_0{0%{animation-timing-function:linear;opacity:1}39.2%{animation-timing-function:cubic-bezier(0.5, 0, 0.5, 1);opacity:1}59.09%{animation-timing-function:linear;opacity:0}100%{opacity:0}} @keyframes kf_Frame_1991423803_opacity_0{0%{animation-timing-function:linear;opacity:1}33.51%{animation-timing-function:cubic-bezier(0.5, 0, 0.5, 1);opacity:1}53.55%{animation-timing-function:linear;opacity:0}100%{opacity:0}} @keyframes kf_Frame_1991423804_opacity_0{0%{animation-timing-function:linear;opacity:1}28.14%{animation-timing-function:cubic-bezier(0.5, 0, 0.5, 1);opacity:1}47.76%{animation-timing-function:linear;opacity:0}100%{opacity:0}} @keyframes kf_Frame_1991423801_2_opacity_0{0%{animation-timing-function:linear;opacity:0}59.02%{animation-timing-function:linear;opacity:0}78.64%{animation-timing-function:linear;opacity:1}100%{opacity:1}} @keyframes kf_Frame_1991423803_2_opacity_0{0%{animation-timing-function:linear;opacity:0}53.37%{animation-timing-function:linear;opacity:0}72.9%{animation-timing-function:linear;opacity:1}100%{opacity:1}} @keyframes kf_Frame_1991423804_2_opacity_0{0%{animation-timing-function:linear;opacity:0}47.76%{animation-timing-function:linear;opacity:0}67.4%{animation-timing-function:linear;opacity:1}100%{opacity:1}} @keyframes kf_arrow-narrow-right_opacity_0{0%{animation-timing-function:linear;opacity:0}47.76%{animation-timing-function:cubic-bezier(0.5, 0, 0.5, 1);opacity:0}61.81%{animation-timing-function:linear;opacity:1}100%{opacity:1}} @keyframes kf__3_0_lbs_2_opacity_0{0%{animation-timing-function:linear;opacity:0}53.37%{animation-timing-function:cubic-bezier(0.5, 0, 0.5, 1);opacity:0}70.55%{animation-timing-function:linear;opacity:1}100%{opacity:1}} @keyframes kf_arrow-narrow-right_2_opacity_0{0%{animation-timing-function:linear;opacity:0}53.37%{animation-timing-function:cubic-bezier(0.5, 0, 0.5, 1);opacity:0}67.34%{animation-timing-function:linear;opacity:1}100%{opacity:1}} @keyframes kf__6_x_14_x_10_in_opacity_0{0%{animation-timing-function:linear;opacity:0}58.96%{animation-timing-function:cubic-bezier(0.5, 0, 0.5, 1);opacity:0}76.38%{animation-timing-function:linear;opacity:1}100%{opacity:1}} @keyframes kf_Frame_1597880669_2_opacity_0{0%{animation-timing-function:linear;opacity:0}53.37%{animation-timing-function:cubic-bezier(0.5, 0, 0.5, 1);opacity:0}64.71%{animation-timing-function:linear;opacity:1}100%{opacity:1}} @keyframes kf__3-_6_opacity_0{0%{animation-timing-function:linear;opacity:0}64.79%{animation-timing-function:cubic-bezier(0.5, 0, 0.5, 1);opacity:0}81.78%{animation-timing-function:linear;opacity:1}100%{opacity:1}}.B{fill:#fff}.C{stroke:#aa261b}.D{fill:#aa261b}.E{fill:#f04658}.F{stroke-width:.9}.G{stroke:#625f8e}.H{fill:#625f8e}.I{fill:#61608b}.J{stroke-linecap:round}.K{stroke-linejoin:round}.L{fill:#f7f6f9}.M{fill:#fcdade}.N{stroke-width:1.548}.O{stroke-width:1.5}.P{stroke-width:1.507}.Q{stroke-dasharray:2.89 2.89}.R{stroke-width:2.075}]]></style><g clip-path="url(#Q)"><g transform="translate(64 57)"><g clip-path="url(#R)"><rect width="496" height="419" rx="8" class="B"/><mask id="A" class="B"><path d="M0 0H496V53H0V0Z"/></mask><path d="M496 53v-1H0v1 1h496v-1z" fill="#d6d4e8" mask="url(#A)"/><path d="M21.291 33V19.909H26.2c1.006 0 1.849.188 2.531.563s1.204.891 1.553 1.547.531 1.393.531 2.224c0 .84-.177 1.585-.53 2.237a3.79 3.79 0 0 1-1.566 1.541c-.69.371-1.54.556-2.55.556h-3.254v-1.95h2.934c.588 0 1.07-.102 1.445-.307s.652-.486.831-.844a2.67 2.67 0 0 0 .275-1.234c0-.465-.092-.874-.275-1.227s-.458-.628-.837-.825-.859-.3-1.451-.3h-2.173V33h-2.371zm10.942 0v-9.818h2.244v1.636h.102c.179-.567.486-1.004.92-1.31s.94-.467 1.502-.467l.428.019a2.88 2.88 0 0 1 .403.045v2.129c-.098-.034-.254-.064-.467-.09s-.411-.045-.607-.045a2.34 2.34 0 0 0-1.138.275 2.01 2.01 0 0 0-.786.748c-.192.32-.288.688-.288 1.106V33h-2.314zm10.475.192c-.959 0-1.79-.211-2.493-.633s-1.249-1.012-1.636-1.771-.575-1.645-.575-2.659.192-1.903.575-2.666.933-1.355 1.636-1.777 1.534-.633 2.493-.633 1.79.211 2.493.633 1.246 1.014 1.63 1.777.582 1.651.582 2.666-.194 1.901-.582 2.659-.927 1.349-1.63 1.771-1.534.633-2.493.633zm.013-1.854c.52 0 .955-.143 1.304-.428s.609-.678.78-1.163a4.77 4.77 0 0 0 .262-1.623c0-.601-.087-1.144-.262-1.63s-.43-.88-.78-1.17-.784-.435-1.304-.435c-.533 0-.976.145-1.33.435s-.611.68-.786 1.17-.256 1.029-.256 1.63a4.88 4.88 0 0 0 .256 1.624c.175.486.437.874.786 1.163s.797.428 1.33.428zm9.759 1.835c-.771 0-1.462-.198-2.071-.595s-1.091-.972-1.445-1.726-.53-1.671-.53-2.749c0-1.091.179-2.011.537-2.761s.85-1.323 1.464-1.707a3.76 3.76 0 0 1 2.052-.582c.575 0 1.048.098 1.419.294a2.68 2.68 0 0 1 .882.697c.217.269.386.522.505.761h.096v-4.896h2.32V33h-2.276v-1.547h-.141c-.119.239-.292.492-.518.761s-.524.49-.895.678-.837.281-1.4.281zm.646-1.899c.49 0 .908-.132 1.253-.396s.607-.641.786-1.119.269-1.033.269-1.668-.09-1.187-.269-1.655-.435-.833-.78-1.093-.761-.39-1.259-.39c-.516 0-.946.134-1.291.403s-.605.639-.78 1.112-.262 1.014-.262 1.624.087 1.161.262 1.643.441.854.786 1.131.778.409 1.285.409zm12.767-2.403v-5.689h2.314V33h-2.244v-1.745h-.102a2.95 2.95 0 0 1-1.093 1.349c-.503.349-1.123.524-1.86.524-.643 0-1.212-.143-1.707-.428s-.873-.71-1.151-1.259-.416-1.223-.416-2.007v-6.251h2.314v5.893c0 .622.17 1.117.511 1.483s.788.55 1.342.55c.341 0 .671-.083.991-.249s.582-.413.786-.741.313-.748.313-1.247zm8.436 4.321c-.98 0-1.822-.215-2.525-.646a4.31 4.31 0 0 1-1.617-1.783c-.375-.763-.562-1.641-.562-2.633s.192-1.877.575-2.64.925-1.364 1.623-1.79 1.534-.646 2.493-.646c.797 0 1.502.147 2.116.441s1.11.701 1.477 1.234.575 1.146.626 1.854h-2.212c-.089-.473-.302-.867-.639-1.182s-.778-.479-1.336-.479c-.473 0-.888.128-1.246.384s-.637.614-.837 1.087-.294 1.04-.294 1.7c0 .669.098 1.244.294 1.726s.471.846.825 1.106.778.384 1.259.384a2.1 2.1 0 0 0 .914-.192 1.84 1.84 0 0 0 .684-.569c.183-.247.309-.548.377-.901h2.212c-.055.695-.26 1.31-.614 1.847s-.835.95-1.445 1.253-1.325.448-2.148.448zm10.469-10.01v1.79h-5.644v-1.79h5.644zm-4.251-2.352h2.314v9.217c0 .311.047.55.141.716a.76.76 0 0 0 .383.332c.158.06.332.09.524.09a2.26 2.26 0 0 0 .396-.032l.281-.058.39 1.809a5.16 5.16 0 0 1-.53.141c-.226.051-.503.081-.831.09-.58.017-1.102-.07-1.566-.262s-.833-.499-1.106-.908-.4-.921-.396-1.534V20.83zM92.974 33L89.28 19.909h2.55l2.359 9.62h.121l2.518-9.62h2.32l2.525 9.626h.115l2.359-9.626h2.55L103.003 33h-2.34l-2.621-9.185h-.102L95.314 33h-2.34zm18.071.192c-.984 0-1.835-.205-2.55-.614s-1.259-.997-1.643-1.751-.575-1.651-.575-2.678c0-1.01.192-1.896.575-2.659a4.35 4.35 0 0 1 1.623-1.79c.695-.43 1.511-.646 2.448-.646.605 0 1.176.098 1.713.294s1.018.49 1.432.895.746.921.984 1.547.358 1.364.358 2.224v.71h-8.048v-1.56h5.83a2.49 2.49 0 0 0-.288-1.183 2.09 2.09 0 0 0-.786-.825 2.21 2.21 0 0 0-1.163-.3c-.473 0-.889.115-1.247.345a2.38 2.38 0 0 0-.837.895c-.196.366-.296.769-.3 1.208v1.361c0 .571.104 1.061.313 1.47s.501.716.876.933.814.32 1.317.32a2.8 2.8 0 0 0 .914-.141 2.03 2.03 0 0 0 .709-.428c.2-.187.352-.42.454-.697l2.16.243c-.136.571-.396 1.07-.78 1.496s-.865.75-1.457.984-1.27.345-2.033.345zm5.783-.192v-9.818h2.314V33h-2.314zm1.163-11.212a1.35 1.35 0 0 1-.946-.364c-.264-.247-.396-.543-.396-.889a1.16 1.16 0 0 1 .396-.888c.264-.247.58-.371.946-.371s.686.124.946.371a1.16 1.16 0 0 1 .396.888c0 .345-.132.641-.396.889s-.575.364-.946.364zm7.26 15.098c-.831 0-1.545-.113-2.141-.339s-1.076-.52-1.438-.895-.614-.79-.755-1.246l2.084-.505c.094.192.23.381.409.569s.42.349.723.473.692.192 1.157.192c.656 0 1.199-.16 1.63-.479s.645-.835.645-1.56v-1.86h-.115c-.119.239-.294.484-.524.735s-.526.462-.901.633-.838.256-1.4.256c-.754 0-1.438-.177-2.052-.531-.609-.358-1.095-.891-1.457-1.598s-.537-1.602-.537-2.672c0-1.078.179-1.988.537-2.729s.85-1.31 1.463-1.694 1.298-.582 2.052-.582c.575 0 1.048.098 1.419.294a2.73 2.73 0 0 1 .895.697c.222.269.39.522.505.761h.128v-1.624h2.282v9.978c0 .84-.2 1.534-.601 2.084s-.948.961-1.643 1.234-1.483.409-2.365.409zm.019-5.842c.49 0 .908-.119 1.253-.358s.607-.582.786-1.029.269-.984.269-1.611c0-.618-.09-1.159-.269-1.624-.174-.464-.434-.825-.779-1.08s-.761-.39-1.26-.39c-.515 0-.946.134-1.291.403s-.605.637-.78 1.106-.262.993-.262 1.585c0 .601.088 1.127.262 1.579.179.447.441.797.787 1.048s.777.371 1.284.371zm8.735-3.797V33h-2.314V19.909h2.263v4.941h.115c.23-.554.586-.991 1.068-1.31s1.103-.486 1.853-.486c.682 0 1.277.143 1.784.428s.899.703 1.176 1.253.422 1.221.422 2.014V33h-2.314v-5.893c0-.661-.171-1.174-.512-1.54s-.809-.556-1.419-.556c-.409 0-.775.089-1.099.268s-.571.428-.754.761-.269.735-.269 1.208zm13.088-4.065v1.79h-5.644v-1.79h5.644zm-4.251-2.352h2.314v9.217c0 .311.047.55.141.716a.76.76 0 0 0 .383.332c.158.06.333.09.525.09.144 0 .277-.011.396-.032l.281-.058.39 1.809a5.11 5.11 0 0 1-.53.141 4.34 4.34 0 0 1-.831.09c-.58.017-1.102-.07-1.566-.262a2.43 2.43 0 0 1-1.106-.908c-.269-.409-.401-.921-.397-1.534V20.83zm11.425-.92l3.407 10.304h.134l3.401-10.304h2.608L159.201 33h-2.927l-4.609-13.091h2.602zm12.437 13.289c-.622 0-1.182-.111-1.681-.332s-.886-.558-1.176-.997-.428-.98-.428-1.624c0-.554.102-1.012.307-1.374s.483-.652.837-.869a4.23 4.23 0 0 1 1.195-.492 9.76 9.76 0 0 1 1.387-.249l1.4-.16c.358-.051.618-.128.78-.23s.249-.271.249-.492v-.038c0-.482-.142-.854-.428-1.119s-.697-.396-1.234-.396c-.566 0-1.016.124-1.348.371s-.55.539-.665.876l-2.161-.307c.171-.597.452-1.095.844-1.496s.872-.707 1.438-.908 1.194-.307 1.88-.307a6.12 6.12 0 0 1 1.412.166c.469.111.897.294 1.285.55s.699.594.933 1.029.358.978.358 1.63V33h-2.224v-1.349h-.077c-.141.273-.339.528-.594.767s-.569.424-.953.569c-.379.141-.824.211-1.336.211zm.601-1.7c.465 0 .867-.092 1.208-.275s.603-.435.786-.741.282-.641.282-1.003v-1.157c-.073.06-.196.115-.371.166s-.362.096-.575.134l-.633.102-.543.077c-.346.047-.655.124-.927.23s-.488.256-.646.448-.236.43-.236.729c0 .426.155.748.466.965s.708.326 1.189.326zm8.684-11.589V33h-2.314V19.909h2.314zM177.828 33v-9.818h2.314V33h-2.314zm1.164-11.212c-.367 0-.682-.121-.946-.364s-.397-.543-.397-.889a1.16 1.16 0 0 1 .397-.888c.264-.247.579-.371.946-.371s.686.124.946.371a1.16 1.16 0 0 1 .396.888c0 .345-.132.641-.396.889s-.576.364-.946.364zm6.633 11.384c-.771 0-1.462-.198-2.071-.595s-1.091-.972-1.444-1.726-.531-1.671-.531-2.749c0-1.091.179-2.011.537-2.761s.85-1.323 1.464-1.707 1.297-.582 2.052-.582c.575 0 1.048.098 1.419.294s.664.424.882.697.385.522.505.761h.096v-4.896h2.32V33h-2.276v-1.547h-.14a3.98 3.98 0 0 1-.518.761c-.226.264-.524.49-.895.678s-.837.281-1.4.281zm.646-1.899c.49 0 .907-.132 1.253-.396s.607-.641.786-1.119.268-1.033.268-1.668-.089-1.187-.268-1.655-.435-.833-.78-1.093-.761-.39-1.259-.39c-.516 0-.946.134-1.291.403s-.606.639-.78 1.112-.262 1.014-.262 1.624.087 1.161.262 1.643.441.854.786 1.131.778.409 1.285.409zm9.334 1.924c-.622 0-1.183-.111-1.681-.332s-.887-.558-1.176-.997-.429-.98-.429-1.624c0-.554.103-1.012.307-1.374s.484-.652.837-.869.753-.381 1.196-.492.91-.198 1.387-.249l1.4-.16c.358-.051.618-.128.78-.23s.249-.271.249-.492v-.038c0-.482-.143-.854-.428-1.119s-.697-.396-1.234-.396c-.567 0-1.016.124-1.349.371s-.55.539-.665.876l-2.16-.307c.17-.597.452-1.095.844-1.496s.871-.707 1.438-.908a5.5 5.5 0 0 1 1.879-.307c.473 0 .944.055 1.413.166s.897.294 1.285.55.698.594.933 1.029.358.978.358 1.63V33h-2.225v-1.349h-.076c-.141.273-.339.528-.595.767s-.569.424-.952.569-.825.211-1.336.211zm.601-1.7c.464 0 .867-.092 1.208-.275s.603-.435.786-.741.281-.641.281-1.003v-1.157c-.072.06-.196.115-.37.166a5.27 5.27 0 0 1-.576.134l-.633.102-.543.077a4.05 4.05 0 0 0-.927.23c-.272.107-.488.256-.645.448s-.237.43-.237.729c0 .426.156.748.467.965s.707.326 1.189.326zm11.272-8.316v1.79h-5.644v-1.79h5.644zm-4.251-2.352h2.314v9.217c0 .311.047.55.141.716a.76.76 0 0 0 .384.332c.157.06.332.09.524.09.145 0 .277-.011.396-.032l.281-.058.39 1.809a5.11 5.11 0 0 1-.53.141 4.34 4.34 0 0 1-.831.09c-.58.017-1.102-.07-1.566-.262s-.833-.499-1.106-.908-.401-.921-.397-1.534V20.83zm9.824 12.362c-.959 0-1.79-.211-2.493-.633a4.3 4.3 0 0 1-1.637-1.771c-.383-.759-.575-1.645-.575-2.659s.192-1.903.575-2.666c.388-.763.934-1.355 1.637-1.777s1.534-.633 2.493-.633 1.789.211 2.492.633 1.247 1.014 1.63 1.777.582 1.651.582 2.666-.194 1.901-.582 2.659-.926 1.349-1.63 1.771-1.534.633-2.492.633zm.012-1.854c.52 0 .955-.143 1.304-.428s.61-.678.78-1.163c.175-.486.262-1.027.262-1.623s-.087-1.144-.262-1.63c-.17-.49-.43-.88-.78-1.17s-.784-.435-1.304-.435c-.532 0-.975.145-1.329.435s-.612.68-.786 1.17-.256 1.029-.256 1.63.085 1.138.256 1.624.436.874.786 1.163.797.428 1.329.428zM219.179 33v-9.818h2.244v1.636h.102c.179-.567.486-1.004.92-1.31s.94-.467 1.503-.467l.428.019c.162.008.296.023.403.045v2.129a2.45 2.45 0 0 0-.467-.09c-.209-.03-.411-.045-.607-.045-.422 0-.801.092-1.138.275a2 2 0 0 0-.786.748c-.192.32-.288.688-.288 1.106V33h-2.314z" fill="#10103e"/><g transform="translate(0 53)"><g clip-path="url(#S)"><mask id="B" class="B"><path d="M0 0H496V232H0V0Z"/></mask><path d="M0 0H496V232H0V0Z" class="B"/><g transform="translate(110 26)"><g transform="translate(74)"><path d="M.753 25.335h104.033v93.913H.753z" class="G P Q"/><path id="C" transform="translate(40.922 43.375)" d="M8.063 20.24c-1.233 0-2.329-.211-3.288-.633-.953-.422-1.707-1.01-2.26-1.764s-.848-1.624-.882-2.611h3.219a2.13 2.13 0 0 0 .471 1.241c.285.348.665.619 1.139.813s1.005.291 1.592.291c.628 0 1.184-.109 1.67-.325.485-.223.865-.531 1.139-.925s.408-.848.402-1.361c.006-.531-.131-.999-.411-1.404s-.685-.722-1.216-.95c-.525-.228-1.159-.342-1.901-.342h-1.55V9.82h1.55c.611 0 1.144-.106 1.601-.317.462-.211.825-.508 1.087-.89.263-.388.391-.836.385-1.344.006-.497-.106-.927-.334-1.293-.223-.371-.539-.659-.95-.865-.405-.205-.882-.308-1.43-.308a3.77 3.77 0 0 0-1.49.291 2.71 2.71 0 0 0-1.104.83c-.28.354-.428.776-.445 1.267H2.001c.023-.982.305-1.844.848-2.586.548-.748 1.279-1.33 2.192-1.747.913-.422 1.938-.634 3.074-.634 1.17 0 2.186.22 3.048.659.868.434 1.538 1.019 2.012 1.755s.711 1.55.711 2.44c.006.987-.285 1.815-.873 2.483-.582.668-1.347 1.104-2.295 1.31v.137c1.233.171 2.178.628 2.834 1.37.662.736.99 1.652.985 2.748 0 .982-.28 1.861-.839 2.637-.554.771-1.319 1.376-2.294 1.815-.97.439-2.083.659-3.339.659zm10.837-.051c-.519 0-.965-.183-1.336-.548s-.554-.811-.548-1.336c-.006-.514.177-.953.548-1.319s.816-.548 1.336-.548c.502 0 .939.183 1.31.548a1.8 1.8 0 0 1 .574 1.319c-.006.348-.097.665-.274.95a1.97 1.97 0 0 1-.685.685 1.78 1.78 0 0 1-.925.248zm10.848.145c-1.41 0-2.62-.357-3.63-1.07-1.005-.719-1.778-1.755-2.32-3.108-.537-1.358-.805-2.994-.805-4.906.006-1.912.277-3.539.813-4.88.542-1.347 1.316-2.374 2.32-3.082 1.01-.708 2.218-1.062 3.622-1.062s2.611.354 3.622 1.062 1.784 1.735 2.32 3.082c.542 1.347.813 2.974.813 4.88 0 1.918-.271 3.556-.813 4.914-.537 1.353-1.31 2.386-2.32 3.099-1.005.713-2.212 1.07-3.622 1.07zm0-2.68c1.096 0 1.961-.539 2.594-1.618.639-1.085.959-2.68.959-4.786 0-1.393-.145-2.563-.437-3.51s-.702-1.661-1.233-2.14c-.531-.485-1.159-.728-1.884-.728-1.09 0-1.952.542-2.586 1.627-.634 1.079-.953 2.663-.959 4.752-.006 1.398.134 2.574.419 3.527.291.953.702 1.672 1.233 2.157.531.479 1.162.719 1.892.719zM9.505 27.85V41H7.18V27.85h2.324zM11.998 41V27.85h2.325v4.919h.096a4.28 4.28 0 0 1 .507-.764c.218-.274.514-.507.886-.7s.848-.295 1.426-.295c.762 0 1.449.195 2.061.584s1.104.957 1.464 1.714.546 1.678.546 2.774c0 1.083-.178 2.003-.533 2.761s-.839 1.336-1.451 1.734-1.306.597-2.081.597c-.565 0-1.034-.094-1.406-.283s-.672-.415-.899-.681-.396-.524-.52-.764h-.135V41h-2.286zm2.28-4.931c0 .638.09 1.196.27 1.676s.447.854.79 1.124.766.398 1.259.398c.514 0 .944-.137 1.291-.411s.608-.657.783-1.136.27-1.034.27-1.65-.088-1.156-.263-1.631-.437-.848-.783-1.117-.779-.405-1.297-.405c-.497 0-.918.131-1.265.392s-.61.627-.79 1.098-.263 1.025-.263 1.663zm16.803-2.325l-2.119.231a1.7 1.7 0 0 0-.315-.604c-.146-.188-.343-.34-.591-.456s-.552-.173-.912-.173c-.484 0-.89.105-1.22.315s-.486.482-.482.816c-.004.287.101.52.315.7s.578.328 1.079.443l1.682.36c.933.201 1.627.52 2.08.957s.689 1.008.694 1.715c-.004.621-.186 1.169-.546 1.644s-.85.839-1.483 1.104-1.361.398-2.183.398c-1.207 0-2.179-.252-2.915-.758s-1.175-1.218-1.316-2.125l2.267-.218c.103.445.321.781.655 1.008s.768.34 1.303.34c.552 0 .995-.114 1.329-.34s.507-.507.507-.841c0-.283-.109-.516-.327-.7s-.548-.325-1.002-.424l-1.682-.353c-.946-.197-1.646-.529-2.1-.995s-.678-1.066-.674-1.785c-.004-.608.161-1.134.494-1.58s.807-.796 1.406-1.04 1.299-.372 2.087-.372c1.156 0 2.066.246 2.729.738s1.081 1.158 1.239 1.997z" class="D"/><g class="G P Q"><path d="M106.271 118.552l22.404-19.759V0H28.655L1.449 22.686M128.675 0l-22.404 22.686"/><path d="M0 118.555l27.515-18.072m0 0V1.449m0 99.034l101.157-1.446"/></g></g><g id="D" opacity="0" transform="translate(113.422 43.375)" class="I"><path d="M1.876 20v-2.294l6.087-5.967 1.455-1.567c.388-.457.679-.899.873-1.327a3.28 3.28 0 0 0 .291-1.37c0-.554-.126-1.027-.377-1.421-.251-.4-.596-.708-1.036-.925s-.939-.325-1.498-.325c-.576 0-1.082.12-1.515.36-.434.234-.771.568-1.01 1.002-.234.434-.351.95-.351 1.55H1.773c0-1.113.254-2.08.762-2.902s1.207-1.458 2.098-1.909c.896-.451 1.924-.676 3.082-.676 1.176 0 2.209.22 3.099.659s1.581 1.042 2.072 1.806c.497.765.745 1.638.745 2.62 0 .656-.126 1.301-.377 1.935s-.693 1.336-1.327 2.106c-.628.771-1.51 1.704-2.646 2.8l-3.022 3.074v.12h7.637V20H1.876zm16.918.188c-.519 0-.965-.183-1.336-.548s-.554-.811-.548-1.336c-.006-.514.177-.953.548-1.319s.816-.548 1.336-.548c.502 0 .939.183 1.31.548a1.8 1.8 0 0 1 .574 1.319c-.006.348-.097.665-.274.95a1.97 1.97 0 0 1-.685.685 1.78 1.78 0 0 1-.925.248zm10.847.145c-1.41 0-2.62-.357-3.63-1.07-1.005-.719-1.778-1.755-2.32-3.108-.537-1.358-.805-2.994-.805-4.906.006-1.912.277-3.539.813-4.88.542-1.347 1.316-2.374 2.32-3.082 1.01-.708 2.217-1.062 3.621-1.062s2.611.354 3.622 1.062 1.784 1.735 2.32 3.082c.542 1.347.813 2.974.813 4.88 0 1.918-.271 3.556-.813 4.914-.536 1.353-1.31 2.386-2.32 3.099-1.005.713-2.212 1.07-3.622 1.07zm0-2.68c1.096 0 1.961-.539 2.594-1.618.639-1.085.959-2.68.959-4.786 0-1.393-.146-2.563-.437-3.51s-.702-1.661-1.233-2.14a2.7 2.7 0 0 0-1.884-.728c-1.09 0-1.952.542-2.586 1.627-.633 1.079-.953 2.663-.959 4.752-.006 1.398.134 2.574.42 3.527.291.953.702 1.672 1.233 2.157.531.479 1.162.719 1.892.719zM9.505 27.85V41H7.18V27.85h2.324zM11.998 41V27.85h2.325v4.919h.096a4.28 4.28 0 0 1 .507-.764c.218-.274.514-.507.886-.7s.848-.295 1.426-.295c.762 0 1.449.195 2.061.584s1.104.957 1.464 1.714.546 1.678.546 2.774c0 1.083-.178 2.003-.533 2.761s-.839 1.336-1.451 1.734-1.306.597-2.081.597c-.565 0-1.034-.094-1.406-.283s-.672-.415-.899-.681-.396-.524-.52-.764h-.135V41h-2.286zm2.28-4.931c0 .638.09 1.196.27 1.676s.447.854.79 1.124.766.398 1.259.398c.514 0 .944-.137 1.291-.411s.608-.657.783-1.136.27-1.034.27-1.65-.088-1.156-.263-1.631-.437-.848-.783-1.117-.779-.405-1.297-.405c-.497 0-.918.131-1.265.392s-.61.627-.79 1.098-.263 1.025-.263 1.663zm16.803-2.325l-2.119.231a1.7 1.7 0 0 0-.315-.604c-.146-.188-.343-.34-.591-.456s-.552-.173-.912-.173c-.484 0-.89.105-1.22.315s-.486.482-.482.816c-.004.287.101.52.315.7s.578.328 1.079.443l1.682.36c.933.201 1.627.52 2.08.957s.689 1.008.694 1.715c-.004.621-.186 1.169-.546 1.644s-.85.839-1.483 1.104-1.361.398-2.183.398c-1.207 0-2.179-.252-2.915-.758s-1.175-1.218-1.316-2.125l2.267-.218c.103.445.321.781.655 1.008s.768.34 1.303.34c.552 0 .995-.114 1.329-.34s.507-.507.507-.841c0-.283-.109-.516-.327-.7s-.548-.325-1.002-.424l-1.682-.353c-.946-.197-1.646-.529-2.1-.995s-.678-1.066-.674-1.785c-.004-.608.161-1.134.494-1.58s.807-.796 1.406-1.04 1.299-.372 2.087-.372c1.156 0 2.066.246 2.729.738s1.081 1.158 1.239 1.997z"/></g><g id="E" opacity="0" transform="translate(221 112.5)"><path d="M0 6.396A6.4 6.4 0 0 1 6.396 0h35.207A6.4 6.4 0 0 1 48 6.396v14.207A6.4 6.4 0 0 1 41.604 27H6.396A6.4 6.4 0 0 1 0 20.604V6.396z" class="L"/><path transform="translate(10 2)" d="M5.074 5.205c.557.004 1.098.102 1.625.295s1.008.5 1.432.932.761 1.002 1.011 1.722.375 1.61.375 2.67c.004 1-.102 1.894-.318 2.682s-.517 1.447-.915 1.989-.877.955-1.438 1.239-1.191.426-1.892.426c-.735 0-1.386-.144-1.955-.432a3.67 3.67 0 0 1-1.369-1.182c-.348-.5-.562-1.072-.642-1.716h2.074c.106.462.322.83.648 1.102s.744.403 1.244.403a2.07 2.07 0 0 0 1.864-1.051c.436-.701.653-1.674.653-2.921h-.08a2.99 2.99 0 0 1-.722.864c-.295.239-.631.422-1.006.551a3.58 3.58 0 0 1-1.182.193c-.682 0-1.295-.163-1.841-.489s-.972-.773-1.29-1.341S.879 9.924.875 9.193c0-.758.174-1.437.523-2.04s.843-1.083 1.472-1.432 1.364-.525 2.205-.517zm.006 1.705c-.409 0-.778.1-1.108.301s-.583.466-.773.807-.278.714-.278 1.131.097.788.278 1.125.438.604.756.801a2.07 2.07 0 0 0 1.102.295c.307 0 .593-.059.858-.176a2.13 2.13 0 0 0 .693-.489c.201-.212.356-.453.466-.722s.169-.553.165-.852c0-.398-.095-.765-.284-1.102s-.441-.608-.767-.812-.691-.307-1.108-.307zM15.081 17V8.273h2.057V17h-2.057zm1.034-9.966a1.2 1.2 0 0 1-.841-.324c-.235-.22-.352-.483-.352-.79a1.03 1.03 0 0 1 .352-.79c.235-.22.515-.33.841-.33s.61.11.841.33a1.03 1.03 0 0 1 .352.79c0 .307-.117.57-.352.79s-.511.324-.841.324zm5.035 4.852V17h-2.057V8.273h1.966v1.483h.102c.201-.489.521-.877.96-1.165s.991-.432 1.642-.432c.602 0 1.127.129 1.574.386s.799.631 1.045 1.119.373 1.081.369 1.778V17h-2.057v-5.239c0-.583-.152-1.04-.454-1.369s-.714-.494-1.244-.494a1.91 1.91 0 0 0-.96.239c-.276.155-.494.381-.653.676s-.233.653-.233 1.074z" class="I"/></g><g id="F" opacity="0" transform="translate(101 141.5)"><path d="M0 6.396A6.4 6.4 0 0 1 6.396 0h35.207A6.4 6.4 0 0 1 48 6.396v14.207A6.4 6.4 0 0 1 41.604 27H6.396A6.4 6.4 0 0 1 0 20.604V6.396z" class="L"/><path transform="translate(10 2)" d="M5.074 5.205c.557.004 1.098.102 1.625.295s1.008.5 1.432.932.761 1.002 1.011 1.722.375 1.61.375 2.67c.004 1-.102 1.894-.318 2.682s-.517 1.447-.915 1.989-.877.955-1.438 1.239-1.191.426-1.892.426c-.735 0-1.386-.144-1.955-.432a3.67 3.67 0 0 1-1.369-1.182c-.348-.5-.562-1.072-.642-1.716h2.074c.106.462.322.83.648 1.102s.744.403 1.244.403a2.07 2.07 0 0 0 1.864-1.051c.436-.701.653-1.674.653-2.921h-.08a2.99 2.99 0 0 1-.722.864c-.295.239-.631.422-1.006.551a3.58 3.58 0 0 1-1.182.193c-.682 0-1.295-.163-1.841-.489s-.972-.773-1.29-1.341S.879 9.924.875 9.193c0-.758.174-1.437.523-2.04s.843-1.083 1.472-1.432 1.364-.525 2.205-.517zm.006 1.705c-.409 0-.778.1-1.108.301s-.583.466-.773.807-.278.714-.278 1.131.097.788.278 1.125.438.604.756.801a2.07 2.07 0 0 0 1.102.295c.307 0 .593-.059.858-.176a2.13 2.13 0 0 0 .693-.489c.201-.212.356-.453.466-.722s.169-.553.165-.852c0-.398-.095-.765-.284-1.102s-.441-.608-.767-.812-.691-.307-1.108-.307zM15.081 17V8.273h2.057V17h-2.057zm1.034-9.966a1.2 1.2 0 0 1-.841-.324c-.235-.22-.352-.483-.352-.79a1.03 1.03 0 0 1 .352-.79c.235-.22.515-.33.841-.33s.61.11.841.33a1.03 1.03 0 0 1 .352.79c0 .307-.117.57-.352.79s-.511.324-.841.324zm5.035 4.852V17h-2.057V8.273h1.966v1.483h.102c.201-.489.521-.877.96-1.165s.991-.432 1.642-.432c.602 0 1.127.129 1.574.386s.799.631 1.045 1.119.373 1.081.369 1.778V17h-2.057v-5.239c0-.583-.152-1.04-.454-1.369s-.714-.494-1.244-.494a1.91 1.91 0 0 0-.96.239c-.276.155-.494.381-.653.676s-.233.653-.233 1.074z" class="I"/></g><g id="G" opacity="0" transform="translate(0 55.145)"><path d="M0 6.396A6.4 6.4 0 0 1 6.396 0h36.207A6.4 6.4 0 0 1 49 6.396v14.207A6.4 6.4 0 0 1 42.604 27H6.396A6.4 6.4 0 0 1 0 20.604V6.396z" class="L"/><path transform="translate(10 2)" d="M.824 14.841v-1.676l4.937-7.801h1.398V7.75h-.852l-3.324 5.267v.091h6.892v1.733H.824zM6.375 17V14.33l.023-.75V5.364h1.989V17H6.375zm8.987 0V8.273h2.057V17h-2.057zm1.034-9.966a1.2 1.2 0 0 1-.841-.324c-.235-.22-.352-.483-.352-.79a1.03 1.03 0 0 1 .352-.79c.235-.22.515-.33.841-.33s.61.11.841.33a1.03 1.03 0 0 1 .352.79c0 .307-.117.57-.352.79s-.511.324-.841.324zm5.035 4.852V17h-2.057V8.273h1.966v1.483h.102c.201-.489.521-.877.96-1.165s.991-.432 1.642-.432c.602 0 1.127.129 1.574.386s.799.631 1.046 1.119.373 1.081.369 1.778V17h-2.057v-5.239c0-.583-.151-1.04-.455-1.369s-.714-.494-1.244-.494a1.91 1.91 0 0 0-.96.239c-.276.155-.494.381-.653.676s-.233.653-.233 1.074z" class="I"/></g></g><g transform="translate(89 81)"><g id="H" transform="translate(235.5 56.356)"><path d="M0 6.396A6.4 6.4 0 0 1 6.396 0h65.207A6.4 6.4 0 0 1 78 6.396v14.207A6.4 6.4 0 0 1 71.604 27H6.396A6.4 6.4 0 0 1 0 20.604V6.396z" class="M"/><path transform="translate(10 2)" d="M5.767 5.364V17H3.659V7.415h-.068L.869 9.153V7.222l2.892-1.858h2.006zm7.096 11.858c-.936 0-1.739-.237-2.409-.71s-1.18-1.165-1.54-2.062-.534-1.987-.534-3.256.184-2.348.54-3.239.873-1.576 1.54-2.045 1.472-.705 2.403-.705 1.733.235 2.403.705 1.184 1.152 1.54 2.045.54 1.973.54 3.239c0 1.273-.18 2.36-.54 3.261s-.869 1.583-1.54 2.057-1.468.71-2.403.71zm0-1.778c.727 0 1.301-.358 1.722-1.074s.636-1.778.636-3.176c0-.924-.097-1.701-.29-2.33s-.466-1.102-.818-1.42a1.79 1.79 0 0 0-1.25-.483c-.723 0-1.295.36-1.716 1.08s-.633 1.767-.636 3.153c-.004.928.089 1.708.278 2.341s.466 1.11.818 1.432a1.81 1.81 0 0 0 1.256.477zM22.905 17V8.273h2.057V17h-2.057zm1.034-9.966a1.2 1.2 0 0 1-.841-.324c-.235-.22-.352-.483-.352-.79a1.03 1.03 0 0 1 .352-.79 1.19 1.19 0 0 1 .841-.33c.33 0 .61.11.841.33a1.03 1.03 0 0 1 .352.79c0 .307-.117.57-.352.79s-.511.324-.841.324zm5.035 4.852V17h-2.057V8.273h1.966v1.483h.102c.201-.489.521-.877.96-1.165s.991-.432 1.642-.432c.602 0 1.127.129 1.574.386s.799.631 1.046 1.119.373 1.081.369 1.778V17h-2.057v-5.239c0-.583-.151-1.04-.455-1.369s-.714-.494-1.244-.494a1.91 1.91 0 0 0-.96.239c-.276.155-.494.381-.653.676s-.233.653-.233 1.074z" class="D"/><g transform="translate(50 4.5)" class="C"><path d="M9 .774c4.543 0 8.226 3.683 8.226 8.226S13.543 17.226 9 17.226.774 13.543.774 9 4.457.774 9 .774z" class="N"/><path transform="translate(8.102 4.503)" d="M.9.45a.45.45 0 0 1 .45.45V6.3a.45.45 0 1 1-.9 0V.9A.45.45 0 0 1 .9.45z" class="E F"/><path transform="translate(8.102 12.605)" d="M.899.45a.45.45 0 0 1 .45.449.45.45 0 0 1-.45.45.45.45 0 0 1-.449-.45A.45.45 0 0 1 .899.45z" class="E F"/></g></g><g id="I" transform="translate(105.5 85.356)"><path d="M0 6.396A6.4 6.4 0 0 1 6.396 0h65.207A6.4 6.4 0 0 1 78 6.396v14.207A6.4 6.4 0 0 1 71.604 27H6.396A6.4 6.4 0 0 1 0 20.604V6.396z" class="M"/><path transform="translate(10 2)" d="M5.767 5.364V17H3.659V7.415h-.068L.869 9.153V7.222l2.892-1.858h2.006zm2.584 9.477v-1.676l4.938-7.801h1.398V7.75h-.852l-3.324 5.267v.091h6.892v1.733H8.351zM13.903 17V14.33l.023-.75V5.364h1.989V17h-2.011zm8.987 0V8.273h2.057V17h-2.057zm1.034-9.966a1.2 1.2 0 0 1-.841-.324c-.235-.22-.352-.483-.352-.79a1.03 1.03 0 0 1 .352-.79c.235-.22.515-.33.841-.33s.61.11.841.33a1.03 1.03 0 0 1 .352.79c0 .307-.117.57-.352.79s-.511.324-.841.324zm5.035 4.852V17h-2.057V8.273h1.966v1.483h.102c.201-.489.521-.877.96-1.165s.991-.432 1.642-.432c.602 0 1.127.129 1.574.386s.799.631 1.046 1.119.373 1.081.369 1.778V17h-2.057v-5.239c0-.583-.152-1.04-.455-1.369s-.714-.494-1.244-.494a1.91 1.91 0 0 0-.96.239c-.276.155-.494.381-.653.676s-.233.653-.233 1.074z" class="D"/><g transform="translate(50 4.5)" class="C"><path d="M9 .774c4.543 0 8.226 3.683 8.226 8.226S13.543 17.226 9 17.226.774 13.543.774 9 4.457.774 9 .774z" class="N"/><path transform="translate(8.102 4.503)" d="M.9.45a.45.45 0 0 1 .45.45V6.3a.45.45 0 1 1-.9 0V.9A.45.45 0 0 1 .9.45z" class="E F"/><path transform="translate(8.102 12.605)" d="M.899.45a.45.45 0 0 1 .45.449.45.45 0 0 1-.45.45.45.45 0 0 1-.449-.45A.45.45 0 0 1 .899.45z" class="E F"/></g></g><g id="J"><path d="M0 6.396A6.4 6.4 0 0 1 6.396 0h57.207A6.4 6.4 0 0 1 70 6.396v14.207A6.4 6.4 0 0 1 63.604 27H6.396A6.4 6.4 0 0 1 0 20.604V6.396z" class="M"/><path transform="translate(10 2)" d="M5.295 17.159c-.557-.004-1.1-.1-1.631-.29s-1.008-.506-1.432-.937-.761-1.013-1.011-1.733-.373-1.619-.369-2.687c0-.996.106-1.885.318-2.665s.517-1.439.915-1.977.877-.955 1.438-1.239 1.195-.426 1.892-.426c.731 0 1.379.144 1.943.432a3.66 3.66 0 0 1 1.375 1.182A3.74 3.74 0 0 1 9.381 8.5H7.307c-.106-.447-.324-.803-.653-1.068s-.739-.403-1.239-.403A2.07 2.07 0 0 0 3.551 8.08c-.432.701-.65 1.663-.653 2.886h.08c.186-.333.426-.619.722-.858s.629-.422 1-.551.771-.199 1.188-.199c.682 0 1.294.163 1.835.489a3.54 3.54 0 0 1 1.295 1.347c.318.568.475 1.22.472 1.955.004.765-.17 1.453-.523 2.063s-.843 1.083-1.472 1.432-1.362.521-2.199.517zm-.011-1.705c.413 0 .782-.1 1.108-.301a2.18 2.18 0 0 0 .773-.812 2.28 2.28 0 0 0 .278-1.148 2.26 2.26 0 0 0-.273-1.131c-.182-.337-.434-.604-.756-.801s-.689-.296-1.102-.296c-.307 0-.593.059-.858.176a2.13 2.13 0 0 0-.693.489 2.29 2.29 0 0 0-.466.716 2.34 2.34 0 0 0-.17.864 2.35 2.35 0 0 0 .284 1.119 2.18 2.18 0 0 0 .767.818 2.04 2.04 0 0 0 1.108.307zM15.081 17V8.273h2.057V17h-2.057zm1.034-9.966a1.2 1.2 0 0 1-.841-.324c-.235-.22-.352-.483-.352-.79a1.03 1.03 0 0 1 .352-.79c.235-.22.515-.33.841-.33s.61.11.841.33a1.03 1.03 0 0 1 .352.79c0 .307-.117.57-.352.79s-.511.324-.841.324zm5.035 4.852V17h-2.057V8.273h1.966v1.483h.102c.201-.489.521-.877.96-1.165s.991-.432 1.642-.432c.602 0 1.127.129 1.574.386s.799.631 1.045 1.119.373 1.081.369 1.778V17h-2.057v-5.239c0-.583-.152-1.04-.454-1.369s-.714-.494-1.244-.494a1.91 1.91 0 0 0-.96.239c-.276.155-.494.381-.653.676s-.233.653-.233 1.074z" class="D"/><g transform="translate(42 4.5)" class="C"><path d="M9 .774c4.543 0 8.226 3.683 8.226 8.226S13.543 17.226 9 17.226.774 13.543.774 9 4.457.774 9 .774z" class="N"/><path transform="translate(8.102 4.503)" d="M.9.45a.45.45 0 0 1 .45.45V6.3a.45.45 0 1 1-.9 0V.9A.45.45 0 0 1 .9.45z" class="E F"/><path transform="translate(8.102 12.605)" d="M.899.45a.45.45 0 0 1 .45.449.45.45 0 0 1-.45.45.45.45 0 0 1-.449-.45A.45.45 0 0 1 .899.45z" class="E F"/></g></g></g></g><path d="M496 232v-1H0v1 1h496v-1z" fill="#d6d4e8" mask="url(#B)"/></g><g clip-path="url(#T)" transform="translate(0 285)"><path d="M0 0h496v134H0z" class="B"/><g clip-path="url(#U)" transform="translate(24 20.5)" class="G O"><path d="M7.156 6.581h5.68c.925 0 1.733.63 1.957 1.527l1.95 7.801a2.02 2.02 0 0 1-1.957 2.505h-9.58c-1.312 0-2.274-1.232-1.956-2.505L5.2 8.108c.224-.898 1.031-1.527 1.956-1.527z"/><circle cx="9.996" cy="4.168" r="1.75"/></g><path d="M55.557 36L52.33 24.364h1.847l2.267 9.011h.108l2.358-9.011h1.83l2.358 9.017h.108l2.261-9.017h1.852L64.085 36h-1.767l-2.449-8.716h-.091L57.33 36h-1.773zm15.968.176c-.86 0-1.6-.184-2.222-.551s-1.095-.892-1.432-1.562-.5-1.464-.5-2.369c0-.894.167-1.682.5-2.364s.807-1.214 1.409-1.597 1.314-.574 2.125-.574c.493 0 .97.081 1.432.244s.877.419 1.244.767.657.801.869 1.358.318 1.225.318 2.017v.602h-6.937v-1.273h5.273c0-.447-.091-.843-.273-1.187a2.06 2.06 0 0 0-.767-.824c-.326-.201-.708-.301-1.148-.301-.477 0-.894.117-1.25.352s-.625.534-.818.909-.284.775-.284 1.21v.994c0 .583.102 1.08.307 1.489s.498.722.869.938.805.318 1.301.318c.322 0 .616-.045.881-.136s.494-.235.688-.421.341-.415.443-.687l1.608.29a2.91 2.91 0 0 1-.693 1.244c-.329.352-.744.627-1.244.824s-1.062.29-1.699.29zM76.994 36v-8.727h1.699V36h-1.699zm.858-10.074a1.08 1.08 0 0 1-.761-.295.96.96 0 0 1-.312-.716.95.95 0 0 1 .313-.716 1.07 1.07 0 0 1 .761-.301 1.05 1.05 0 0 1 .756.301.94.94 0 0 1 .318.716c0 .277-.106.515-.318.716a1.06 1.06 0 0 1-.756.295zm6.626 13.528c-.693 0-1.29-.091-1.79-.273s-.901-.422-1.216-.722a3.03 3.03 0 0 1-.704-.983l1.46-.602c.102.167.239.343.409.528s.409.35.705.483.684.199 1.153.199c.644 0 1.176-.157 1.597-.472s.631-.807.631-1.489v-1.716h-.108c-.102.186-.25.392-.443.619s-.451.424-.784.591-.767.25-1.301.25c-.689 0-1.311-.161-1.864-.483s-.985-.805-1.307-1.437-.477-1.419-.477-2.347.157-1.724.472-2.386.754-1.17 1.307-1.523 1.18-.534 1.881-.534c.542 0 .979.091 1.313.273s.593.386.778.625.335.449.438.631h.125v-1.415h1.665v8.92c0 .75-.174 1.365-.523 1.847s-.82.837-1.415 1.068-1.258.346-2 .346zm-.017-4.994c.489 0 .902-.114 1.239-.341s.599-.561.773-.989.267-.949.267-1.551c0-.587-.087-1.104-.261-1.551s-.43-.795-.767-1.045-.754-.381-1.25-.381c-.511 0-.937.133-1.278.398s-.599.617-.773 1.068-.256.955-.256 1.511c0 .572.087 1.074.261 1.506s.432.769.773 1.011.769.364 1.273.364zm7.772-3.642V36h-1.699V24.364h1.676v4.33h.108c.205-.47.517-.843.938-1.119s.97-.415 1.648-.415c.599 0 1.121.123 1.568.369s.799.614 1.046 1.102.375 1.091.375 1.818V36h-1.699v-5.347c0-.64-.165-1.136-.494-1.489s-.788-.534-1.375-.534a2.25 2.25 0 0 0-1.08.256c-.314.17-.562.42-.744.75s-.267.72-.267 1.182zm11.84-3.545v1.364h-4.767v-1.364h4.767zm-3.489-2.091h1.699v8.256c0 .329.049.578.148.744a.77.77 0 0 0 .381.335c.159.057.331.085.517.085a1.99 1.99 0 0 0 .358-.028l.239-.046.307 1.403c-.099.038-.239.076-.421.114s-.409.064-.682.068a2.99 2.99 0 0 1-1.25-.239c-.386-.167-.699-.424-.937-.773s-.358-.786-.358-1.312v-8.608zm6.327 10.926a1.1 1.1 0 0 1-1.136-1.136c0-.311.112-.576.335-.796s.49-.335.801-.335.578.112.801.335.335.485.335.796c0 .208-.053.4-.159.574s-.239.307-.409.409-.36.154-.568.154zm0-6.352c-.311 0-.578-.112-.801-.335s-.335-.491-.335-.801.112-.576.335-.795.49-.335.801-.335.578.112.801.335.335.485.335.795c0 .208-.053.4-.159.574s-.239.307-.409.409-.36.153-.568.153z" class="H"/><g transform="translate(122 16)"><path d="M1.163 20v-1.713l4.545-4.455 1.087-1.17c.29-.341.507-.671.652-.991a2.45 2.45 0 0 0 .217-1.023c0-.413-.094-.767-.281-1.061a1.87 1.87 0 0 0-.773-.69c-.328-.162-.701-.243-1.119-.243-.43 0-.808.089-1.131.268s-.575.424-.754.748-.262.71-.262 1.157H1.087c0-.831.19-1.553.569-2.167a3.84 3.84 0 0 1 1.566-1.425c.669-.337 1.436-.505 2.301-.505.878 0 1.649.164 2.314.492S9.017 8 9.384 8.571s.556 1.223.556 1.956a3.89 3.89 0 0 1-.281 1.445c-.187.473-.518.997-.991 1.572s-1.127 1.272-1.975 2.09l-2.256 2.295v.09h5.702V20H1.163zm12.451.141a1.37 1.37 0 0 1-.997-.409c-.277-.273-.413-.605-.409-.997a1.31 1.31 0 0 1 .409-.984 1.37 1.37 0 0 1 .997-.409c.375 0 .701.136.978.409s.424.601.428.984c-.004.26-.072.496-.205.709a1.47 1.47 0 0 1-.511.511 1.33 1.33 0 0 1-.69.185zm7.919.109c-1.053 0-1.956-.266-2.71-.799s-1.327-1.31-1.732-2.32-.601-2.235-.601-3.663.207-2.642.607-3.643.982-1.773 1.732-2.301 1.656-.793 2.704-.793 1.949.264 2.704.793 1.332 1.295 1.732 2.301.607 2.22.607 3.643c0 1.432-.202 2.655-.607 3.669s-.978 1.781-1.732 2.314-1.651.799-2.704.799zm0-2.001c.818 0 1.464-.403 1.937-1.208s.716-2.001.716-3.573c0-1.04-.109-1.913-.326-2.621s-.524-1.24-.921-1.598-.865-.543-1.406-.543c-.814 0-1.457.405-1.93 1.214s-.712 1.988-.716 3.548c-.004 1.044.1 1.922.313 2.634s.524 1.249.92 1.611.867.537 1.413.537zm13.611-11.34V20H32.83V6.909h2.314zM37.446 20V6.909h2.314v4.896h.096c.119-.239.288-.492.505-.761s.511-.505.882-.697.844-.294 1.419-.294a3.74 3.74 0 0 1 2.052.582c.614.383 1.099.952 1.457 1.707s.543 1.671.543 2.761c0 1.078-.177 1.994-.531 2.749s-.835 1.329-1.445 1.726-1.3.595-2.071.595c-.562 0-1.029-.094-1.4-.281s-.669-.413-.895-.678-.394-.522-.518-.761h-.134V20h-2.276zm2.269-4.909c0 .635.089 1.191.268 1.668s.445.85.786 1.119.763.396 1.253.396c.511 0 .94-.136 1.285-.409s.605-.654.78-1.131.268-1.029.268-1.643-.087-1.151-.262-1.624-.435-.844-.78-1.112-.776-.403-1.291-.403c-.494 0-.914.13-1.259.39s-.607.624-.786 1.093-.262 1.021-.262 1.656zm16.546-2.314l-2.109.23c-.06-.213-.164-.413-.313-.601s-.341-.339-.588-.454-.55-.173-.908-.173c-.481 0-.886.104-1.215.313s-.484.479-.479.812a.85.85 0 0 0 .313.697c.217.179.575.326 1.074.441l1.675.358c.929.2 1.619.518 2.071.952s.686 1.004.69 1.707a2.67 2.67 0 0 1-.543 1.636c-.354.469-.846.835-1.477 1.099s-1.355.396-2.173.396c-1.202 0-2.169-.252-2.902-.754a3.03 3.03 0 0 1-1.31-2.116l2.256-.217c.102.443.32.778.652 1.004s.765.339 1.298.339c.55 0 .991-.113 1.323-.339s.505-.505.505-.837a.87.87 0 0 0-.326-.697c-.213-.183-.545-.324-.997-.422l-1.675-.352c-.942-.196-1.639-.526-2.09-.991s-.675-1.061-.671-1.777c-.004-.605.16-1.129.492-1.572s.803-.793 1.4-1.036 1.293-.371 2.078-.371c1.151 0 2.056.245 2.717.735a3.09 3.09 0 0 1 1.234 1.988z" class="H"/><g id="K" clip-path="url(#V)" transform="translate(66 3)" class="C J K R"><path transform="translate(3.333 5)" d="M0 5h13.333m-5 5l5-5-5-5"/></g><path id="L" transform="translate(94)" d="M5.862 20.179c-.92 0-1.739-.158-2.455-.473s-1.274-.754-1.688-1.317-.633-1.212-.658-1.95h2.403a1.59 1.59 0 0 0 .352.927c.213.26.496.462.85.607a3.11 3.11 0 0 0 1.189.217c.469 0 .884-.081 1.246-.243s.646-.396.85-.69a1.7 1.7 0 0 0 .3-1.016c.004-.396-.098-.746-.307-1.048s-.511-.539-.908-.709-.865-.256-1.419-.256H4.462V12.4h1.157c.456 0 .854-.079 1.195-.237s.616-.379.812-.665.292-.624.288-1.004c.004-.371-.079-.692-.249-.965s-.403-.492-.71-.646-.658-.23-1.067-.23c-.401 0-.771.072-1.112.217s-.616.352-.825.62-.32.58-.332.946H1.336a3.32 3.32 0 0 1 .633-1.93c.409-.558.955-.993 1.636-1.304S5.052 6.73 5.9 6.73c.874 0 1.632.164 2.276.492s1.148.761 1.502 1.31.531 1.157.531 1.822c.004.737-.213 1.355-.652 1.854s-1.006.825-1.713.978v.102c.92.128 1.626.469 2.116 1.023s.739 1.234.735 2.052c0 .733-.209 1.389-.626 1.969s-.984 1.027-1.713 1.355-1.555.492-2.493.492zm7.911-.038a1.37 1.37 0 0 1-.997-.409c-.277-.273-.413-.605-.409-.997a1.31 1.31 0 0 1 .409-.984 1.37 1.37 0 0 1 .997-.409c.375 0 .701.136.978.409s.424.601.428.984c-.004.26-.072.496-.205.709a1.47 1.47 0 0 1-.511.511 1.33 1.33 0 0 1-.69.185zm7.919.109c-1.053 0-1.956-.266-2.71-.799s-1.327-1.31-1.732-2.32-.601-2.235-.601-3.663.207-2.642.607-3.643.982-1.773 1.732-2.301 1.656-.793 2.704-.793 1.95.264 2.704.793 1.332 1.295 1.732 2.301.607 2.22.607 3.643c0 1.432-.202 2.655-.607 3.669s-.978 1.781-1.732 2.314-1.651.799-2.704.799zm0-2.001c.818 0 1.464-.403 1.937-1.208s.716-2.001.716-3.573c0-1.04-.109-1.913-.326-2.621s-.524-1.24-.921-1.598-.865-.543-1.406-.543c-.814 0-1.457.405-1.93 1.214s-.712 1.988-.716 3.548c-.004 1.044.1 1.922.313 2.634s.524 1.249.92 1.611.867.537 1.413.537zm13.611-11.34V20h-2.314V6.909h2.314zM37.604 20V6.909h2.314v4.896h.096c.119-.239.288-.492.505-.761s.511-.505.882-.697.844-.294 1.419-.294a3.74 3.74 0 0 1 2.052.582c.614.383 1.099.952 1.457 1.707s.543 1.671.543 2.761c0 1.078-.177 1.994-.531 2.749s-.835 1.329-1.445 1.726-1.3.595-2.071.595c-.562 0-1.029-.094-1.4-.281s-.669-.413-.895-.678-.394-.522-.518-.761h-.134V20h-2.276zm2.269-4.909c0 .635.089 1.191.268 1.668s.445.85.786 1.119.763.396 1.253.396c.511 0 .94-.136 1.285-.409s.605-.654.78-1.131.269-1.029.269-1.643-.087-1.151-.262-1.624-.435-.844-.78-1.112-.776-.403-1.291-.403c-.494 0-.914.13-1.259.39s-.607.624-.786 1.093-.262 1.021-.262 1.656zm16.546-2.314l-2.109.23c-.06-.213-.164-.413-.313-.601s-.341-.339-.588-.454-.55-.173-.908-.173c-.482 0-.886.104-1.215.313s-.484.479-.479.812a.85.85 0 0 0 .313.697c.217.179.575.326 1.074.441l1.675.358c.929.2 1.619.518 2.071.952s.686 1.004.69 1.707a2.67 2.67 0 0 1-.543 1.636c-.354.469-.846.835-1.477 1.099s-1.355.396-2.173.396c-1.202 0-2.169-.252-2.902-.754a3.03 3.03 0 0 1-1.31-2.116l2.256-.217c.102.443.32.778.652 1.004s.765.339 1.298.339c.55 0 .991-.113 1.323-.339s.505-.505.505-.837a.87.87 0 0 0-.326-.697c-.213-.183-.545-.324-.997-.422l-1.675-.352c-.942-.196-1.639-.526-2.09-.991s-.675-1.061-.671-1.777c-.004-.605.16-1.129.492-1.572s.803-.793 1.4-1.036 1.293-.371 2.078-.371c1.151 0 2.056.245 2.717.735a3.09 3.09 0 0 1 1.234 1.988z" class="D"/></g><g clip-path="url(#W)" transform="translate(24 57)" class="G J K O"><path d="M5 10h10m-8.333 2.5L5 10l1.667-2.5m6.667 5L15 10l-1.667-2.5m4.167 10v-15m-15 15v-15"/></g><path d="M57.045 72.5h-3.767V60.864h3.886c1.14 0 2.119.233 2.938.699s1.445 1.127 1.881 1.994.659 1.9.659 3.108-.221 2.254-.665 3.125-1.076 1.542-1.909 2.011-1.841.699-3.023.699zm-2.011-1.534h1.915c.886 0 1.623-.167 2.21-.5a3.15 3.15 0 0 0 1.318-1.46c.292-.64.438-1.421.438-2.341 0-.913-.146-1.688-.437-2.324a3.09 3.09 0 0 0-1.29-1.449c-.572-.33-1.282-.494-2.131-.494h-2.023v8.568zm9.495 1.534v-8.727h1.699V72.5h-1.699zm.858-10.074a1.08 1.08 0 0 1-.761-.295.96.96 0 0 1-.312-.716.95.95 0 0 1 .313-.716 1.07 1.07 0 0 1 .761-.301 1.05 1.05 0 0 1 .756.301.94.94 0 0 1 .318.716c0 .277-.106.515-.318.716a1.06 1.06 0 0 1-.756.295zM68.353 72.5v-8.727h1.631v1.42h.108c.182-.481.479-.856.892-1.125s.907-.409 1.483-.409c.583 0 1.072.136 1.466.409s.691.648.881 1.125h.091c.208-.466.54-.837.994-1.114s.996-.42 1.625-.42c.792 0 1.438.248 1.938.744s.756 1.244.756 2.244V72.5h-1.699v-5.693c0-.591-.161-1.019-.483-1.284s-.706-.398-1.153-.398c-.553 0-.983.17-1.29.511s-.46.771-.46 1.301V72.5h-1.693v-5.801c0-.473-.148-.854-.443-1.142s-.68-.432-1.153-.432a1.65 1.65 0 0 0-.892.256c-.269.167-.487.4-.653.699s-.244.646-.244 1.04V72.5h-1.699zm17.742.176c-.86 0-1.6-.184-2.222-.551s-1.095-.892-1.432-1.562-.5-1.464-.5-2.369c0-.894.167-1.682.5-2.364s.807-1.214 1.409-1.597 1.314-.574 2.125-.574c.492 0 .97.081 1.432.244s.877.419 1.244.767.657.801.869 1.358.318 1.225.318 2.017v.602h-6.937v-1.273h5.273c0-.447-.091-.843-.273-1.187a2.06 2.06 0 0 0-.767-.824c-.326-.201-.708-.301-1.148-.301-.477 0-.894.117-1.25.352s-.625.534-.818.909-.284.775-.284 1.21v.994c0 .583.102 1.08.307 1.489s.498.722.869.938.805.318 1.301.318c.322 0 .616-.045.881-.136a1.9 1.9 0 0 0 .688-.42c.193-.186.341-.415.443-.687l1.608.29a2.91 2.91 0 0 1-.693 1.244 3.36 3.36 0 0 1-1.244.824c-.496.193-1.062.29-1.699.29zm7.168-5.358V72.5h-1.699v-8.727h1.631v1.42h.108c.201-.462.515-.833.943-1.114s.975-.42 1.631-.42c.595 0 1.116.125 1.563.375s.794.614 1.04 1.102.369 1.093.369 1.813V72.5H97.15v-5.347c0-.633-.165-1.127-.494-1.483s-.782-.54-1.358-.54c-.394 0-.744.085-1.051.256s-.544.42-.722.75-.261.72-.261 1.182zm14.243-1.415l-1.54.273c-.064-.197-.167-.384-.307-.562s-.322-.324-.557-.437-.528-.17-.881-.17c-.481 0-.882.108-1.204.324s-.483.487-.483.824c0 .292.108.526.324.705s.564.324 1.045.438l1.386.318c.803.186 1.401.472 1.796.858s.591.888.591 1.506c0 .523-.151.989-.455 1.398s-.718.724-1.256.954-1.153.347-1.858.347c-.977 0-1.775-.208-2.392-.625s-.996-1.017-1.136-1.79l1.642-.25c.102.428.313.752.631.972s.733.324 1.244.324c.557 0 1.002-.115 1.335-.347s.5-.521.5-.858a.89.89 0 0 0-.307-.687c-.201-.186-.509-.326-.926-.421l-1.477-.324c-.814-.186-1.417-.481-1.807-.886s-.579-.919-.579-1.54a2.2 2.2 0 0 1 .432-1.352c.288-.386.686-.687 1.193-.903s1.089-.33 1.744-.33c.943 0 1.686.205 2.227.614s.9.949 1.074 1.631zm1.878 6.597v-8.727h1.699V72.5h-1.699zm.858-10.074a1.08 1.08 0 0 1-.761-.295.96.96 0 0 1-.312-.716.95.95 0 0 1 .313-.716 1.07 1.07 0 0 1 .761-.301 1.05 1.05 0 0 1 .756.301.94.94 0 0 1 .318.716c0 .277-.106.515-.318.716a1.06 1.06 0 0 1-.756.295zm6.643 10.25c-.818 0-1.532-.187-2.142-.562s-1.083-.9-1.42-1.574-.506-1.462-.506-2.364.169-1.697.506-2.375.811-1.205 1.42-1.58 1.324-.563 2.142-.563 1.532.188 2.142.563 1.083.902 1.421 1.58.506 1.47.506 2.375-.169 1.689-.506 2.364-.811 1.199-1.421 1.574-1.324.563-2.142.563zm.006-1.426c.53 0 .97-.14 1.318-.421s.606-.653.773-1.119.256-.979.256-1.54-.085-1.068-.256-1.534-.424-.847-.773-1.131-.788-.426-1.318-.426-.977.142-1.33.426-.608.661-.778 1.131-.25.977-.25 1.534.083 1.074.25 1.54.43.839.778 1.119.795.421 1.33.421zm7.498-3.932V72.5h-1.699v-8.727h1.631v1.42h.108c.201-.462.515-.833.943-1.114s.975-.42 1.631-.42c.595 0 1.115.125 1.563.375s.793.614 1.04 1.102.369 1.093.369 1.813V72.5h-1.699v-5.347c0-.633-.165-1.127-.494-1.483s-.782-.54-1.358-.54c-.394 0-.744.085-1.051.256s-.544.42-.722.75-.261.72-.261 1.182zm14.243-1.415l-1.54.273c-.064-.197-.167-.384-.307-.562s-.322-.324-.557-.437-.528-.17-.881-.17c-.481 0-.883.108-1.205.324s-.483.487-.483.824c0 .292.108.526.324.705s.564.324 1.045.438l1.386.318c.803.186 1.401.472 1.796.858s.591.888.591 1.506c0 .523-.151.989-.454 1.398s-.718.724-1.256.954-1.153.347-1.858.347c-.977 0-1.775-.208-2.392-.625s-.996-1.017-1.136-1.79l1.642-.25c.102.428.313.752.631.972s.733.324 1.244.324c.557 0 1.002-.115 1.335-.347s.5-.521.5-.858a.89.89 0 0 0-.307-.687c-.201-.186-.51-.326-.926-.421l-1.477-.324c-.814-.186-1.417-.481-1.807-.886s-.579-.919-.579-1.54a2.2 2.2 0 0 1 .432-1.352c.288-.386.686-.687 1.193-.903s1.089-.33 1.744-.33c.943 0 1.686.205 2.227.614s.9.949 1.074 1.631zm2.998 6.705a1.1 1.1 0 0 1-1.136-1.136c0-.311.112-.576.335-.795s.49-.335.801-.335.578.112.801.335.335.485.335.795c0 .208-.053.4-.159.574s-.239.307-.409.409-.36.154-.568.154zm0-6.352c-.311 0-.578-.112-.801-.335s-.335-.491-.335-.801.112-.576.335-.795.49-.335.801-.335.578.112.801.335.335.485.335.795c0 .208-.053.4-.159.574s-.239.307-.409.409-.36.153-.568.153z" class="H"/><g transform="translate(156 54)"><path d="M.927 17.571v-1.886l5.555-8.776h1.572v2.685h-.959l-3.739 5.925v.102h7.754v1.95H.927zM7.172 20v-3.004l.026-.844V6.909h2.237V20H7.172zm18.004-1.994l-7.498-7.485 1.445-1.451 7.491 7.492-1.438 1.445zm-6.053 0l-1.445-1.445 7.498-7.491 1.438 1.451-7.491 7.485zM38.017 6.73c.626.004 1.236.115 1.828.332s1.133.563 1.611 1.048.857 1.127 1.138 1.937.422 1.811.422 3.004c.004 1.125-.115 2.131-.358 3.017s-.582 1.628-1.029 2.237a4.54 4.54 0 0 1-1.617 1.393c-.631.32-1.34.479-2.128.479-.827 0-1.56-.162-2.199-.486a4.13 4.13 0 0 1-1.541-1.33c-.392-.562-.633-1.206-.722-1.93h2.333c.119.52.362.933.729 1.24s.837.454 1.4.454c.908 0 1.606-.394 2.097-1.182s.735-1.884.735-3.286h-.089a3.36 3.36 0 0 1-.812.972c-.332.268-.71.475-1.131.62s-.861.217-1.33.217a3.96 3.96 0 0 1-2.071-.55c-.609-.367-1.093-.869-1.451-1.508s-.533-1.37-.537-2.193c0-.852.196-1.617.588-2.295s.948-1.219 1.656-1.611 1.534-.59 2.48-.582zm.006 1.918c-.46 0-.876.113-1.247.339s-.656.524-.869.908-.313.803-.313 1.272.109.886.313 1.266a2.4 2.4 0 0 0 .85.901c.362.222.776.332 1.24.332.345 0 .667-.066.965-.198s.558-.315.78-.55a2.6 2.6 0 0 0 .524-.812 2.36 2.36 0 0 0 .185-.959 2.49 2.49 0 0 0-.32-1.24c-.209-.379-.497-.684-.863-.914s-.778-.345-1.246-.345zm19.145 9.358l-7.498-7.485 1.445-1.451 7.492 7.492-1.438 1.445zm-6.053 0l-1.445-1.445 7.498-7.491 1.438 1.451-7.492 7.485zM70.01 6.73c.626.004 1.236.115 1.828.332s1.134.563 1.611 1.048.856 1.127 1.138 1.937.422 1.811.422 3.004c.004 1.125-.115 2.131-.358 3.017s-.582 1.628-1.029 2.237-.986 1.074-1.617 1.393-1.34.479-2.129.479c-.827 0-1.56-.162-2.199-.486a4.13 4.13 0 0 1-1.54-1.33c-.392-.562-.633-1.206-.722-1.93h2.333c.119.52.362.933.729 1.24s.837.454 1.4.454c.908 0 1.607-.394 2.097-1.182s.735-1.884.735-3.286h-.09a3.36 3.36 0 0 1-.812.972c-.332.268-.709.475-1.131.62s-.861.217-1.33.217a3.96 3.96 0 0 1-2.071-.55c-.609-.367-1.093-.869-1.451-1.508s-.533-1.37-.537-2.193c0-.852.196-1.617.588-2.295s.948-1.219 1.656-1.611 1.534-.59 2.48-.582zm.006 1.918c-.46 0-.876.113-1.246.339s-.656.524-.869.908-.313.803-.313 1.272.109.886.313 1.266a2.4 2.4 0 0 0 .85.901c.362.222.776.332 1.24.332.345 0 .667-.066.965-.198a2.4 2.4 0 0 0 .78-.55 2.6 2.6 0 0 0 .524-.812 2.36 2.36 0 0 0 .185-.959 2.49 2.49 0 0 0-.32-1.24c-.209-.379-.496-.684-.863-.914s-.778-.345-1.246-.345zM81.268 20v-9.818h2.314V20h-2.314zm1.163-11.212a1.35 1.35 0 0 1-.946-.364c-.264-.247-.396-.543-.396-.889a1.16 1.16 0 0 1 .396-.888c.264-.247.579-.371.946-.371s.686.124.946.371a1.16 1.16 0 0 1 .396.888c0 .345-.132.641-.396.889s-.575.364-.946.364zm5.664 5.459V20h-2.314v-9.818h2.212v1.668h.115c.226-.55.586-.986 1.08-1.31s1.114-.486 1.847-.486c.678 0 1.268.145 1.771.435s.899.71 1.176 1.259.42 1.217.415 2.001V20h-2.314v-5.893c0-.656-.17-1.17-.511-1.54s-.803-.556-1.4-.556a2.15 2.15 0 0 0-1.08.268 1.86 1.86 0 0 0-.735.761c-.175.332-.262.735-.262 1.208z" class="H"/><g id="M" clip-path="url(#X)" transform="translate(104 3)" class="C J K R"><path transform="translate(3.333 5)" d="M0 5h13.333m-5 5l5-5-5-5"/></g><path id="N" transform="translate(132)" d="M5.957 20.179a5.53 5.53 0 0 1-1.835-.326c-.597-.217-1.134-.569-1.611-1.055s-.857-1.14-1.138-1.95-.42-1.822-.415-3.023c0-1.121.119-2.12.358-2.998s.582-1.619 1.029-2.224.987-1.074 1.617-1.393 1.344-.479 2.129-.479c.822 0 1.551.162 2.186.486s1.155.767 1.547 1.33a4.21 4.21 0 0 1 .729 1.892H8.22c-.119-.503-.364-.903-.735-1.202s-.831-.454-1.393-.454c-.908 0-1.607.394-2.097 1.183s-.731 1.871-.735 3.247h.089a3.28 3.28 0 0 1 .812-.965 3.71 3.71 0 0 1 1.125-.62 3.98 3.98 0 0 1 1.336-.224c.767 0 1.455.183 2.065.55s1.099.871 1.457 1.515.535 1.372.531 2.199c.004.861-.192 1.634-.588 2.32s-.948 1.219-1.655 1.611-1.532.586-2.474.582zm-.013-1.918c.464 0 .88-.113 1.246-.339s.656-.531.869-.914.317-.814.313-1.291c.004-.469-.098-.893-.307-1.272s-.488-.68-.85-.901-.776-.332-1.24-.332c-.345 0-.667.066-.965.198a2.4 2.4 0 0 0-.78.55 2.58 2.58 0 0 0-.524.805c-.124.303-.187.626-.192.972.004.456.111.876.32 1.259s.496.69.863.921.782.345 1.246.345zm18.915-.256l-7.498-7.485 1.445-1.451 7.491 7.492-1.438 1.445zm-6.053 0l-1.445-1.445L24.86 9.07l1.438 1.451-7.491 7.485zM38.481 6.909V20h-2.371V9.217h-.077l-3.062 1.956V8.999l3.254-2.09h2.256zm2.907 10.662v-1.886l5.555-8.776h1.572v2.685h-.959l-3.739 5.925v.102h7.754v1.95H41.388zM47.633 20v-3.004l.026-.844V6.909h2.237V20h-2.263zm18.004-1.994l-7.498-7.485 1.445-1.451 7.492 7.492-1.438 1.445zm-6.053 0l-1.445-1.445 7.498-7.491 1.438 1.451-7.492 7.485zM79.259 6.909V20h-2.371V9.217h-.077l-3.062 1.956V8.999l3.254-2.09h2.256zm7.983 13.34c-1.053 0-1.956-.266-2.71-.799s-1.328-1.31-1.732-2.32-.601-2.235-.601-3.663.207-2.642.607-3.643.982-1.773 1.732-2.301 1.655-.793 2.704-.793 1.95.264 2.704.793 1.332 1.295 1.732 2.301.607 2.22.607 3.643c0 1.432-.202 2.655-.607 3.669s-.978 1.781-1.732 2.314-1.651.799-2.704.799zm0-2.001c.818 0 1.464-.403 1.937-1.208s.716-2.001.716-3.573c0-1.04-.109-1.913-.326-2.621s-.524-1.24-.92-1.598-.865-.543-1.406-.543c-.814 0-1.457.405-1.93 1.214s-.712 1.988-.716 3.548c-.004 1.044.1 1.922.313 2.634s.524 1.249.92 1.611.867.537 1.413.537zM98.539 20v-9.818h2.314V20h-2.314zm1.163-11.212a1.35 1.35 0 0 1-.946-.364c-.264-.247-.396-.543-.396-.889a1.16 1.16 0 0 1 .396-.888c.264-.247.58-.371.946-.371a1.32 1.32 0 0 1 .946.371 1.16 1.16 0 0 1 .396.888c0 .345-.132.641-.396.889s-.575.364-.946.364zm5.664 5.459V20h-2.314v-9.818h2.212v1.668h.115c.226-.55.586-.986 1.08-1.31s1.114-.486 1.847-.486c.678 0 1.268.145 1.771.435s.899.71 1.176 1.259.42 1.217.416 2.001V20h-2.314v-5.893c0-.656-.171-1.17-.512-1.54s-.803-.556-1.4-.556a2.15 2.15 0 0 0-1.08.268 1.86 1.86 0 0 0-.735.761c-.175.332-.262.735-.262 1.208z" class="D"/></g><g transform="translate(24 92)"><path d="M0 0h251v26H0z" class="B"/><g id="O" transform="translate(0 1.5)"><g clip-path="url(#Y)" transform="translate(0 1.5)" class="G J K O"><path transform="translate(1.667 3.333)" d="M3.333 5.833v3.333m10-5V7.5M12.5 0c2.041 0 3.144.312 3.693.555a.59.59 0 0 1 .215.149 1.22 1.22 0 0 1 .208.32c.05.137.05.212.05.362v8.957c0 .757 0 1.136-.114 1.331s-.227.29-.443.366-.642-.008-1.5-.173a11.2 11.2 0 0 0-2.11-.2c-2.5 0-5 1.667-8.333 1.667-2.041 0-3.144-.312-3.693-.554-.073-.032-.11-.048-.215-.149a1.22 1.22 0 0 1-.208-.32C0 12.173 0 12.098 0 11.948V2.991c0-.757 0-1.136.114-1.331s.227-.29.443-.366.642.008 1.5.173a11.2 11.2 0 0 0 2.11.2c2.5 0 5-1.667 8.333-1.667zm-2.083 6.667c0 1.151-.933 2.083-2.083 2.083S6.25 7.817 6.25 6.667s.933-2.083 2.083-2.083 2.083.933 2.083 2.083z"/></g><path transform="translate(28)" d="M1.278 17V5.364h7.295v1.511h-5.54v3.546h5.159v1.506H3.034v3.563h5.608V17H1.278zm10.685-8.727l1.926 3.398 1.943-3.398h1.858l-2.722 4.364L17.714 17h-1.858l-1.966-3.261L11.93 17h-1.864l2.716-4.364L10.1 8.273h1.864zm11.385 0v1.364h-4.767V8.273h4.767zM19.86 6.182h1.699v8.256c0 .329.049.578.148.744a.77.77 0 0 0 .381.335c.159.057.331.085.517.085a1.99 1.99 0 0 0 .358-.028l.239-.046.307 1.403c-.098.038-.239.076-.42.114s-.409.064-.682.068a2.99 2.99 0 0 1-1.25-.239c-.386-.167-.699-.424-.937-.773s-.358-.786-.358-1.312V6.182zM25.068 17V8.273h1.642v1.386h.091c.159-.47.439-.839.841-1.108s.864-.409 1.375-.409l.375.011.347.028v1.625c-.068-.019-.189-.04-.364-.062a3.47 3.47 0 0 0-.523-.04c-.401 0-.759.085-1.074.256a1.9 1.9 0 0 0-.739.699 1.89 1.89 0 0 0-.273 1.011V17h-1.699zm8.442.193c-.553 0-1.053-.102-1.5-.307s-.801-.509-1.062-.903-.386-.877-.386-1.449c0-.492.095-.898.284-1.216s.445-.57.767-.756.682-.326 1.08-.421.803-.167 1.216-.216l1.273-.148c.326-.042.563-.108.71-.199s.221-.239.221-.443v-.04c0-.496-.14-.881-.42-1.153s-.689-.409-1.239-.409c-.572 0-1.023.127-1.352.381s-.551.528-.676.835l-1.596-.364c.189-.53.466-.958.829-1.284s.79-.568 1.267-.716.979-.227 1.506-.227c.349 0 .718.042 1.108.125s.761.227 1.102.443.627.525.846.926.33.915.33 1.551V17h-1.659v-1.193h-.068c-.11.22-.275.436-.494.648s-.502.388-.847.529-.758.21-1.239.21zm.369-1.364c.47 0 .871-.093 1.205-.278a1.95 1.95 0 0 0 .767-.727c.178-.303.267-.627.267-.972v-1.125c-.061.061-.178.117-.352.17s-.366.093-.585.131l-.642.097-.523.068c-.33.042-.631.112-.904.21s-.485.241-.648.426-.239.424-.239.727c0 .42.155.739.466.955s.706.318 1.188.318zm19.916-6.682h-1.773a2.71 2.71 0 0 0-.381-1 2.8 2.8 0 0 0-.682-.733c-.269-.201-.57-.352-.904-.455s-.68-.153-1.051-.153c-.67 0-1.271.169-1.801.506s-.943.831-1.25 1.483-.455 1.447-.455 2.386c0 .947.151 1.746.455 2.398s.725 1.144 1.256 1.477 1.127.5 1.79.5c.367 0 .716-.049 1.045-.148a3.01 3.01 0 0 0 .903-.449 2.75 2.75 0 0 0 .682-.722 2.72 2.72 0 0 0 .392-.989l1.773.006c-.095.572-.278 1.099-.551 1.58a4.36 4.36 0 0 1-1.04 1.239c-.42.345-.901.612-1.443.801s-1.133.284-1.773.284c-1.008 0-1.905-.239-2.693-.716s-1.409-1.169-1.864-2.063-.676-1.96-.676-3.199.227-2.309.682-3.199 1.076-1.58 1.864-2.057 1.684-.722 2.688-.722a5.43 5.43 0 0 1 1.727.267 4.56 4.56 0 0 1 1.449.773 4.25 4.25 0 0 1 1.063 1.239c.28.485.47 1.04.568 1.665zm5.481 8.028c-.818 0-1.532-.187-2.142-.562s-1.083-.9-1.421-1.574-.506-1.462-.506-2.364.169-1.697.506-2.375.811-1.205 1.421-1.58 1.324-.562 2.142-.562 1.532.188 2.142.563 1.083.902 1.42 1.58.506 1.47.506 2.375-.169 1.689-.506 2.364-.811 1.199-1.42 1.574-1.324.563-2.142.563zm.006-1.426c.53 0 .97-.14 1.318-.421s.606-.653.773-1.119a4.45 4.45 0 0 0 .256-1.54c0-.557-.085-1.068-.256-1.534s-.424-.847-.773-1.131-.788-.426-1.318-.426-.977.142-1.33.426a2.54 2.54 0 0 0-.778 1.131c-.167.466-.25.977-.25 1.534s.083 1.074.25 1.54.43.839.778 1.119.796.421 1.33.421zm12.339-5.347l-1.54.273c-.064-.197-.167-.384-.307-.562a1.52 1.52 0 0 0-.557-.437c-.235-.114-.528-.17-.881-.17-.481 0-.883.108-1.205.324s-.483.487-.483.824c0 .292.108.527.324.705s.564.324 1.045.438l1.386.318c.803.186 1.401.472 1.795.858s.591.888.591 1.506c0 .523-.151.989-.454 1.398s-.718.724-1.256.954-1.153.347-1.858.347c-.977 0-1.775-.208-2.392-.625s-.996-1.017-1.136-1.79l1.642-.25c.102.428.313.752.631.972s.733.324 1.244.324c.557 0 1.002-.116 1.335-.347s.5-.521.5-.858a.89.89 0 0 0-.307-.687c-.201-.186-.51-.326-.926-.42l-1.477-.324c-.814-.186-1.417-.481-1.807-.886s-.58-.919-.58-1.54c0-.515.144-.966.432-1.352s.686-.687 1.193-.903 1.089-.33 1.744-.33c.943 0 1.686.205 2.227.614s.9.949 1.074 1.631zm5.952-2.131v1.364h-4.767V8.273h4.767zm-3.489-2.091h1.699v8.256c0 .329.049.578.148.744a.77.77 0 0 0 .381.335c.159.057.331.085.517.085a1.99 1.99 0 0 0 .358-.028l.239-.046.307 1.403c-.099.038-.239.076-.42.114s-.409.064-.682.068a2.99 2.99 0 0 1-1.25-.239c-.386-.167-.699-.424-.937-.773s-.358-.786-.358-1.312V6.182zm9.282 14.091v-12h1.659v1.415h.142a4.74 4.74 0 0 1 .426-.631c.186-.239.443-.447.773-.625s.765-.273 1.307-.273c.705 0 1.333.178 1.886.534s.987.869 1.301 1.54.477 1.477.477 2.42-.157 1.752-.472 2.426-.746 1.188-1.295 1.551-1.176.54-1.881.54c-.53 0-.964-.089-1.301-.267s-.595-.386-.784-.625-.335-.451-.437-.636h-.102v4.631h-1.699zm1.665-7.636c0 .614.089 1.152.267 1.614s.436.824.773 1.085.75.386 1.239.386c.508 0 .932-.135 1.273-.403s.599-.642.773-1.108.267-.991.267-1.574c0-.576-.087-1.093-.261-1.551s-.428-.82-.773-1.085-.767-.398-1.278-.398c-.492 0-.909.127-1.25.381s-.593.608-.767 1.063-.261.985-.261 1.591zm11.812 4.54c-.86 0-1.6-.184-2.222-.551s-1.095-.892-1.432-1.562-.5-1.464-.5-2.369c0-.894.167-1.682.5-2.364s.807-1.214 1.409-1.597 1.314-.574 2.125-.574c.492 0 .97.081 1.432.244s.877.419 1.244.767.657.801.869 1.358.318 1.225.318 2.017v.602H93.65v-1.273h5.273c0-.447-.091-.843-.273-1.187a2.06 2.06 0 0 0-.767-.824c-.326-.201-.708-.301-1.148-.301-.477 0-.894.117-1.25.352s-.625.534-.818.909-.284.775-.284 1.21v.994c0 .583.102 1.08.307 1.489s.498.722.869.938.805.318 1.301.318c.322 0 .616-.045.881-.136a1.9 1.9 0 0 0 .688-.421c.193-.186.341-.415.443-.687l1.608.29c-.129.474-.36.888-.693 1.244a3.36 3.36 0 0 1-1.244.824c-.496.193-1.062.29-1.699.29zm5.469-.176V8.273h1.642v1.386h.091c.159-.47.439-.839.841-1.108s.864-.409 1.375-.409l.375.011.346.028v1.625a3.03 3.03 0 0 0-.363-.062c-.174-.027-.349-.04-.523-.04a2.22 2.22 0 0 0-1.074.256c-.31.167-.557.4-.738.699s-.273.633-.273 1.011V17h-1.699zm13.731.176c-.818 0-1.532-.187-2.142-.562a3.79 3.79 0 0 1-1.42-1.574c-.337-.674-.506-1.462-.506-2.364s.169-1.697.506-2.375.81-1.205 1.42-1.58 1.324-.562 2.142-.562 1.532.188 2.142.563 1.084.902 1.421 1.58.505 1.47.505 2.375-.168 1.689-.505 2.364-.811 1.199-1.421 1.574-1.324.563-2.142.563zm.006-1.426c.53 0 .97-.14 1.318-.421s.606-.653.773-1.119.255-.979.255-1.54-.085-1.068-.255-1.534-.424-.847-.773-1.131-.788-.426-1.318-.426-.977.142-1.33.426c-.348.284-.608.661-.778 1.131s-.25.977-.25 1.534.083 1.074.25 1.54.43.839.778 1.119c.353.28.796.421 1.33.421zm5.799 1.25V8.273h1.642v1.386h.091c.159-.47.439-.839.841-1.108s.863-.409 1.375-.409l.375.011.346.028v1.625a3.02 3.02 0 0 0-.364-.062 3.46 3.46 0 0 0-.522-.04c-.402 0-.76.085-1.074.256a1.9 1.9 0 0 0-.739.699c-.182.295-.272.633-.272 1.011V17h-1.699zm8.935.171c-.705 0-1.333-.18-1.887-.54-.549-.364-.981-.881-1.295-1.551s-.466-1.483-.466-2.426.157-1.75.472-2.42.753-1.184 1.307-1.54 1.179-.534 1.88-.534c.542 0 .977.091 1.307.273s.591.386.773.625a5.44 5.44 0 0 1 .432.631h.102V5.364h1.699V17h-1.659v-1.358h-.142c-.103.186-.25.398-.444.636a2.45 2.45 0 0 1-.784.625c-.333.178-.765.267-1.295.267zm.375-1.449c.488 0 .901-.129 1.238-.386s.599-.623.773-1.085.267-1 .267-1.614c0-.606-.087-1.136-.261-1.591s-.43-.809-.767-1.063-.754-.381-1.25-.381c-.512 0-.938.133-1.279.398s-.598.627-.772 1.085-.256.975-.256 1.551c0 .583.087 1.108.261 1.574s.432.835.773 1.108.769.403 1.273.403zm9.975 1.455c-.86 0-1.601-.184-2.222-.551a3.74 3.74 0 0 1-1.432-1.562c-.333-.674-.5-1.464-.5-2.369 0-.894.167-1.682.5-2.364s.807-1.214 1.409-1.597 1.315-.574 2.125-.574c.493 0 .97.081 1.432.244s.877.419 1.245.767.657.801.869 1.358.318 1.225.318 2.017v.602h-6.937v-1.273h5.272c0-.447-.091-.843-.272-1.187s-.438-.623-.767-.824-.709-.301-1.148-.301c-.477 0-.894.117-1.25.352s-.625.534-.818.909-.284.775-.284 1.21v.994c0 .583.102 1.08.306 1.489a2.22 2.22 0 0 0 .87.938c.371.212.805.318 1.301.318.322 0 .615-.045.881-.136a1.9 1.9 0 0 0 .687-.421c.193-.186.341-.415.443-.687l1.608.29c-.129.474-.36.888-.693 1.244s-.744.627-1.244.824-1.063.29-1.699.29zm5.469-.176V8.273h1.642v1.386h.091c.159-.47.439-.839.841-1.108s.864-.409 1.375-.409l.375.011.347.028v1.625c-.069-.019-.19-.04-.364-.062s-.349-.04-.523-.04a2.22 2.22 0 0 0-1.074.256c-.31.167-.557.4-.738.699s-.273.633-.273 1.011V17h-1.699zm7.1.108a1.1 1.1 0 0 1-.801-.33c-.224-.224-.335-.492-.335-.807a1.07 1.07 0 0 1 .335-.796 1.09 1.09 0 0 1 .801-.335 1.09 1.09 0 0 1 .801.335 1.07 1.07 0 0 1 .335.796c0 .208-.053.4-.159.574a1.17 1.17 0 0 1-.409.409 1.08 1.08 0 0 1-.568.154zm0-6.352a1.09 1.09 0 0 1-.801-.335 1.09 1.09 0 0 1-.335-.801 1.07 1.07 0 0 1 .335-.795 1.09 1.09 0 0 1 .801-.335 1.09 1.09 0 0 1 .801.335 1.07 1.07 0 0 1 .335.795c0 .208-.053.4-.159.574a1.17 1.17 0 0 1-.409.409c-.17.102-.36.153-.568.153z" class="H"/></g><path id="P" transform="translate(196)" d="M5.382 21.636V5.273H6.43v16.364H5.382zm3.023-11.129c-.06-.558-.311-.993-.754-1.304s-1.01-.467-1.713-.467c-.494 0-.918.075-1.272.224s-.624.352-.812.607-.283.548-.288.876c0 .273.062.509.185.71s.3.371.518.511a3.65 3.65 0 0 0 .722.345 7.75 7.75 0 0 0 .799.236l1.227.307a8.45 8.45 0 0 1 1.425.467c.46.196.871.443 1.234.742a3.29 3.29 0 0 1 .869 1.08c.213.422.32.916.32 1.483 0 .767-.196 1.442-.588 2.026s-.959 1.033-1.7 1.361-1.63.486-2.678.486c-1.018 0-1.903-.158-2.653-.473s-1.33-.776-1.751-1.381-.643-1.342-.678-2.212h2.333c.034.456.175.835.422 1.138s.569.528.965.678.848.224 1.342.224c.516 0 .967-.077 1.355-.23s.699-.375.92-.652.335-.609.339-.984c-.004-.341-.104-.622-.3-.844s-.471-.413-.825-.562-.759-.29-1.227-.409l-1.489-.384c-1.078-.277-1.93-.697-2.557-1.259s-.933-1.319-.933-2.256c0-.771.209-1.447.626-2.026s.995-1.029 1.719-1.349S5.054 6.73 5.97 6.73c.929 0 1.743.162 2.442.486s1.255.765 1.656 1.336a3.41 3.41 0 0 1 .62 1.956H8.406zm8.965 9.671c-.92 0-1.739-.158-2.455-.473s-1.274-.754-1.687-1.317-.633-1.212-.658-1.95h2.403a1.59 1.59 0 0 0 .352.927c.213.26.496.462.85.607a3.11 3.11 0 0 0 1.189.217c.469 0 .884-.081 1.246-.243s.646-.396.85-.69.305-.633.3-1.016c.004-.396-.098-.746-.307-1.048s-.511-.539-.908-.709-.865-.256-1.419-.256h-1.157V12.4h1.157c.456 0 .854-.079 1.195-.237s.616-.379.812-.665.292-.624.288-1.004c.004-.371-.079-.692-.249-.965s-.403-.492-.71-.646-.658-.23-1.067-.23c-.401 0-.771.072-1.112.217s-.616.352-.825.62a1.57 1.57 0 0 0-.332.946h-2.282a3.32 3.32 0 0 1 .633-1.93c.409-.558.955-.993 1.636-1.304s1.447-.473 2.295-.473c.874 0 1.632.164 2.276.492s1.148.761 1.502 1.31.531 1.157.531 1.822c.004.737-.213 1.355-.652 1.854s-1.006.825-1.713.978v.102c.92.128 1.626.469 2.116 1.023s.739 1.234.735 2.052c0 .733-.209 1.389-.626 1.969s-.984 1.027-1.713 1.355-1.555.492-2.493.492zm12.823-7.677v1.905h-5.893v-1.905h5.893zm6.447 9.134V5.273h1.048v16.364h-1.048zm3.023-11.129c-.06-.558-.311-.993-.754-1.304s-1.01-.467-1.713-.467c-.494 0-.918.075-1.272.224s-.624.352-.812.607-.283.548-.288.876c0 .273.062.509.185.71s.3.371.518.511a3.65 3.65 0 0 0 .722.345c.264.094.531.173.799.236l1.227.307a8.45 8.45 0 0 1 1.425.467c.46.196.871.443 1.234.742a3.29 3.29 0 0 1 .869 1.08c.213.422.32.916.32 1.483 0 .767-.196 1.442-.588 2.026s-.959 1.033-1.7 1.361-1.63.486-2.678.486c-1.019 0-1.903-.158-2.653-.473s-1.33-.776-1.751-1.381-.644-1.342-.678-2.212h2.333c.034.456.175.835.422 1.138s.569.528.965.678.848.224 1.342.224c.516 0 .967-.077 1.355-.23s.699-.375.921-.652.334-.609.339-.984c-.004-.341-.104-.622-.3-.844s-.471-.413-.825-.562a7.95 7.95 0 0 0-1.227-.409l-1.489-.384c-1.078-.277-1.93-.697-2.557-1.259s-.933-1.319-.933-2.256c0-.771.209-1.447.626-2.026s.995-1.029 1.719-1.349 1.545-.486 2.461-.486c.929 0 1.743.162 2.442.486s1.255.765 1.656 1.336a3.41 3.41 0 0 1 .62 1.956h-2.282zm9.061 9.671a5.53 5.53 0 0 1-1.835-.326c-.596-.217-1.134-.569-1.611-1.055s-.857-1.14-1.138-1.95-.42-1.822-.416-3.023c0-1.121.119-2.12.358-2.998s.582-1.619 1.029-2.224.987-1.074 1.617-1.393 1.345-.479 2.129-.479c.822 0 1.551.162 2.186.486s1.155.767 1.547 1.33.635 1.189.729 1.892h-2.333c-.119-.503-.364-.903-.735-1.202s-.831-.454-1.393-.454c-.908 0-1.607.394-2.097 1.183s-.731 1.871-.735 3.247h.09a3.28 3.28 0 0 1 .812-.965 3.71 3.71 0 0 1 1.125-.62 3.98 3.98 0 0 1 1.336-.224c.767 0 1.455.183 2.065.55s1.099.871 1.457 1.515.535 1.372.53 2.199c.004.861-.192 1.634-.588 2.32s-.948 1.219-1.656 1.611-1.532.586-2.474.582zm-.013-1.918c.465 0 .88-.113 1.246-.339s.656-.531.869-.914.317-.814.313-1.291c.004-.469-.098-.893-.307-1.272s-.488-.68-.85-.901-.776-.332-1.24-.332c-.345 0-.667.066-.965.198a2.4 2.4 0 0 0-.78.55c-.222.23-.396.499-.524.805s-.187.626-.192.972c.004.456.111.876.32 1.259s.497.69.863.921.782.345 1.246.345z" class="D"/></g></g></g><rect x=".5" y=".5" width="495" height="418" rx="7.5" stroke="#d6d4e8"/></g></g><defs><clipPath id="Q"><rect width="624" height="532" rx="12" class="B"/></clipPath><clipPath id="R"><rect width="496" height="419" rx="8" class="B"/></clipPath><clipPath id="S"><path d="M0 0H496V232H0V0Z" class="B"/></clipPath><clipPath id="T"><path d="M0 0h496v134H0z" class="B"/></clipPath><clipPath id="U"><path d="M0 0h20v20H0z" class="B"/></clipPath><clipPath id="V"><path d="M0 0h20v20H0z" class="B"/></clipPath><clipPath id="W"><path d="M0 0h20v20H0z" class="B"/></clipPath><clipPath id="X"><path d="M0 0h20v20H0z" class="B"/></clipPath><clipPath id="Y"><path d="M0 0h20v20H0z" class="B"/></clipPath></defs></svg>