<svg xmlns="http://www.w3.org/2000/svg" viewBox="0 0 624 532" preserveAspectRatio="xMidYMid meet" fill="none" width="100%" height="auto" xmlns:v="https://vecta.io/nano"><style><![CDATA[#A{transform-origin:0 0;animation:kf_Frame_2147224925_transform_0 2s linear 1 forwards, kf_Frame_2147224925_opacity_0 2s linear 1 forwards}#B{animation:kf_content_opacity_0 2s linear 1 forwards}#C{transform-origin:0 0;animation:kf_Rectangle_25775_transform_0 2s linear 1 forwards, kf_Rectangle_25775_opacity_0 2s linear 1 forwards}#D{transform-origin:0 0;animation:kf_Frame_2147224926_transform_0 2s linear 1 forwards, kf_Frame_2147224926_opacity_0 2s linear 1 forwards}#E{animation:kf_content_2_opacity_0 2s linear 1 forwards}#F{transform-origin:0 0;animation:kf_Rectangle_25776_transform_0 2s linear 1 forwards, kf_Rectangle_25776_opacity_0 2s linear 1 forwards}#G{transform-origin:0 0;animation:kf_Frame_2147224927_transform_0 2s linear 1 forwards, kf_Frame_2147224927_opacity_0 2s linear 1 forwards}#H{animation:kf_content_3_opacity_0 2s linear 1 forwards}#I{transform-origin:0 0;animation:kf_Rectangle_25777_transform_0 2s linear 1 forwards, kf_Rectangle_25777_opacity_0 2s linear 1 forwards}#J{transform-origin:0 0;animation:kf_Frame_2147224928_transform_0 2s linear 1 forwards, kf_Frame_2147224928_opacity_0 2s linear 1 forwards}#K{animation:kf_content_4_opacity_0 2s linear 1 forwards}@keyframes kf_Frame_2147224925_transform_0{0%{animation-timing-function:ease-out;transform:translateY(8px)}19%{transform:translateY(0px)}100%{transform:translateY(0px)}} @keyframes kf_Frame_2147224925_opacity_0{0%{animation-timing-function:ease-out;opacity:0}19%{animation-timing-function:linear;opacity:1}100%{opacity:1}} @keyframes kf_content_opacity_0{0%{animation-timing-function:linear;opacity:0}19%{animation-timing-function:ease-out;opacity:0}36.5%{animation-timing-function:linear;opacity:1}100%{opacity:1}} @keyframes kf_Rectangle_25775_transform_0{0%{animation-timing-function:ease-out;transform:translateY(58.158px) translateY(8px)}19%{transform:translateY(58.158px) translateY(0px)}100%{transform:translateY(58.158px) translateY(0px)}} @keyframes kf_Rectangle_25775_opacity_0{0%{animation-timing-function:ease-out;opacity:0}19%{animation-timing-function:linear;opacity:1}100%{opacity:1}} @keyframes kf_Frame_2147224926_transform_0{0%{transform:translateY(69.587px) translateY(8px)}6%{animation-timing-function:ease-out;transform:translateY(69.587px) translateY(8px)}25%{transform:translateY(69.587px) translateY(0px)}100%{transform:translateY(69.587px) translateY(0px)}} @keyframes kf_Frame_2147224926_opacity_0{0%{animation-timing-function:linear;opacity:0}6%{animation-timing-function:ease-out;opacity:0}25%{animation-timing-function:linear;opacity:1}100%{opacity:1}} @keyframes kf_content_2_opacity_0{0%{animation-timing-function:linear;opacity:0}25%{animation-timing-function:ease-out;opacity:0}42.5%{animation-timing-function:linear;opacity:1}100%{opacity:1}} @keyframes kf_Rectangle_25776_transform_0{0%{transform:translateY(127.745px) translateY(8px)}6%{animation-timing-function:ease-out;transform:translateY(127.745px) translateY(8px)}25%{transform:translateY(127.745px) translateY(0px)}100%{transform:translateY(127.745px) translateY(0px)}} @keyframes kf_Rectangle_25776_opacity_0{0%{animation-timing-function:linear;opacity:0}6%{animation-timing-function:ease-out;opacity:0}25%{animation-timing-function:linear;opacity:1}100%{opacity:1}} @keyframes kf_Frame_2147224927_transform_0{0%{transform:translateY(139.173px) translateY(8px)}12%{animation-timing-function:ease-out;transform:translateY(139.173px) translateY(8px)}31%{transform:translateY(139.173px) translateY(0px)}100%{transform:translateY(139.173px) translateY(0px)}} @keyframes kf_Frame_2147224927_opacity_0{0%{animation-timing-function:linear;opacity:0}12%{animation-timing-function:ease-out;opacity:0}31%{animation-timing-function:linear;opacity:1}100%{opacity:1}} @keyframes kf_content_3_opacity_0{0%{animation-timing-function:linear;opacity:0}31%{animation-timing-function:ease-out;opacity:0}48.5%{animation-timing-function:linear;opacity:1}100%{opacity:1}} @keyframes kf_Rectangle_25777_transform_0{0%{transform:translateY(197.331px) translateY(8px)}12%{animation-timing-function:ease-out;transform:translateY(197.331px) translateY(8px)}31%{transform:translateY(197.331px) translateY(0px)}100%{transform:translateY(197.331px) translateY(0px)}} @keyframes kf_Rectangle_25777_opacity_0{0%{animation-timing-function:linear;opacity:0}12%{animation-timing-function:ease-out;opacity:0}31%{animation-timing-function:linear;opacity:1}100%{opacity:1}} @keyframes kf_Frame_2147224928_transform_0{0%{transform:translateY(208.76px) translateY(8px)}18%{animation-timing-function:ease-out;transform:translateY(208.76px) translateY(8px)}37%{transform:translateY(208.76px) translateY(0px)}100%{transform:translateY(208.76px) translateY(0px)}} @keyframes kf_Frame_2147224928_opacity_0{0%{animation-timing-function:linear;opacity:0}18%{animation-timing-function:ease-out;opacity:0}37%{animation-timing-function:linear;opacity:1}100%{opacity:1}} @keyframes kf_content_4_opacity_0{0%{animation-timing-function:linear;opacity:0}37%{animation-timing-function:ease-out;opacity:0}54.5%{animation-timing-function:linear;opacity:1}100%{opacity:1}}.B{fill:#fff}.C{stroke:#100f41}.D{stroke-width:1.5}.E{stroke-linecap:round}.F{stroke-linejoin:round}.G{fill:#100f41}.H{fill:#f9f9f9}.I{fill:#3a3766}.J{fill:#fbd8d6}.K{fill:#aa261b}.L{stroke:#bbb8d3}.M{stroke-width:.5}.N{stroke-dasharray:5.08 5.08}.O{fill-opacity:.4}.P{fill:#5642ce}.Q{fill:#eceafc}]]></style><g clip-path="url(#N)"><g transform="translate(64 105.999)"><g clip-path="url(#O)"><rect width="496" height="319.76" rx="8" class="B"/><g fill="#625f8e"><path d="M27.625 32.42a1.66 1.66 0 0 0-.75-1.25c-.439-.299-.992-.449-1.659-.449-.477 0-.89.076-1.239.227s-.619.352-.812.614a1.45 1.45 0 0 0-.284.881c0 .277.064.515.193.716a1.7 1.7 0 0 0 .517.506c.212.137.447.244.693.335l.71.216 1.136.296c.371.091.752.214 1.142.369s.752.36 1.085.614a2.94 2.94 0 0 1 .807.943c.208.375.313.824.313 1.347 0 .659-.17 1.244-.511 1.756s-.828.915-1.472 1.21-1.415.443-2.324.443c-.871 0-1.625-.138-2.261-.415s-1.134-.669-1.494-1.176-.559-1.117-.597-1.818h1.761c.034.42.17.771.409 1.051a2.21 2.21 0 0 0 .926.619c.379.133.794.199 1.244.199.496 0 .938-.078 1.324-.233s.697-.379.92-.659a1.56 1.56 0 0 0 .335-.994c0-.345-.098-.627-.295-.846s-.456-.402-.79-.546a7.73 7.73 0 0 0-1.119-.381l-1.375-.375c-.932-.254-1.67-.627-2.216-1.119s-.812-1.144-.812-1.955c0-.67.182-1.256.545-1.756s.856-.888 1.477-1.165 1.322-.42 2.102-.42c.788 0 1.483.138 2.085.415s1.083.657 1.432 1.142.53 1.034.545 1.659h-1.693zm7.415 8.756c-.86 0-1.6-.184-2.222-.551s-1.095-.892-1.432-1.562-.5-1.464-.5-2.369c0-.894.167-1.682.5-2.364s.807-1.214 1.409-1.597 1.314-.574 2.125-.574c.492 0 .97.081 1.432.244s.877.419 1.244.767.657.801.869 1.358.318 1.225.318 2.017v.602h-6.937v-1.273h5.273c0-.447-.091-.843-.273-1.187a2.06 2.06 0 0 0-.767-.824c-.326-.201-.708-.301-1.148-.301-.477 0-.894.117-1.25.352a2.36 2.36 0 0 0-.818.909 2.59 2.59 0 0 0-.284 1.21v.994c0 .583.102 1.08.307 1.489a2.2 2.2 0 0 0 .869.938c.371.216.805.318 1.301.318a2.7 2.7 0 0 0 .881-.136 1.9 1.9 0 0 0 .688-.421c.193-.186.341-.415.443-.687l1.608.29a2.91 2.91 0 0 1-.693 1.244 3.36 3.36 0 0 1-1.244.824c-.496.193-1.062.29-1.699.29zM40.51 41v-8.727h1.642v1.386h.091a2.11 2.11 0 0 1 .841-1.108c.405-.273.864-.409 1.375-.409l.375.011.347.028v1.625a2.89 2.89 0 0 0-.364-.062 3.47 3.47 0 0 0-.523-.04c-.401 0-.759.085-1.074.256a1.9 1.9 0 0 0-.739.699 1.89 1.89 0 0 0-.273 1.011V41H40.51zm13.712-8.727L51.057 41h-1.818l-3.17-8.727h1.824l2.21 6.716h.091l2.204-6.716h1.824zM55.658 41v-8.727h1.699V41h-1.699zm.858-10.074a1.08 1.08 0 0 1-.761-.295.96.96 0 0 1-.312-.716.95.95 0 0 1 .313-.716 1.07 1.07 0 0 1 .761-.301 1.05 1.05 0 0 1 .756.301.94.94 0 0 1 .318.716c0 .277-.106.515-.318.716a1.06 1.06 0 0 1-.756.295zm6.642 10.25c-.845 0-1.572-.191-2.182-.574s-1.072-.919-1.398-1.597-.489-1.455-.489-2.33c0-.886.167-1.669.5-2.347A3.83 3.83 0 0 1 61 32.733c.606-.383 1.32-.574 2.142-.574.663 0 1.254.123 1.773.369a3.18 3.18 0 0 1 1.256 1.023 3.09 3.09 0 0 1 .574 1.54h-1.653a1.98 1.98 0 0 0-.625-1.057c-.322-.295-.754-.443-1.295-.443a2.11 2.11 0 0 0-1.244.375c-.352.246-.627.598-.824 1.057s-.295.992-.295 1.614c0 .636.097 1.186.29 1.648s.466.82.818 1.074.775.381 1.256.381c.322 0 .614-.059.875-.176a1.78 1.78 0 0 0 .665-.517c.178-.223.309-.493.381-.807h1.653c-.061.564-.244 1.068-.551 1.511a3.17 3.17 0 0 1-1.233 1.046c-.511.254-1.112.381-1.801.381zm9.003 0c-.86 0-1.6-.184-2.222-.551s-1.095-.892-1.432-1.562-.5-1.464-.5-2.369c0-.894.167-1.682.5-2.364s.807-1.214 1.409-1.597 1.314-.574 2.125-.574a4.27 4.27 0 0 1 1.432.244c.462.163.877.419 1.244.767s.657.801.869 1.358.318 1.225.318 2.017v.602h-6.937v-1.273h5.273c0-.447-.091-.843-.273-1.187a2.06 2.06 0 0 0-.767-.824c-.326-.201-.708-.301-1.148-.301-.477 0-.894.117-1.25.352a2.36 2.36 0 0 0-.818.909 2.59 2.59 0 0 0-.284 1.21v.994c0 .583.102 1.08.307 1.489a2.2 2.2 0 0 0 .869.938c.371.216.805.318 1.301.318.322 0 .615-.045.881-.136a1.85 1.85 0 0 0 .688-.421 1.82 1.82 0 0 0 .443-.687l1.608.29a2.91 2.91 0 0 1-.693 1.244c-.329.352-.744.627-1.244.824s-1.062.29-1.699.29zm116.22-11.812h1.994l3.04 5.29h.125l3.04-5.29h1.994l-4.222 7.068V41h-1.75v-4.568l-4.222-7.068zm13.793 11.812c-.818 0-1.532-.187-2.142-.562a3.8 3.8 0 0 1-1.421-1.574c-.338-.674-.506-1.462-.506-2.364s.169-1.697.506-2.375.811-1.205 1.421-1.58 1.324-.562 2.142-.562 1.532.188 2.142.563 1.083.902 1.42 1.58.506 1.47.506 2.375-.169 1.689-.506 2.364-.811 1.199-1.42 1.574-1.324.563-2.142.563zm.006-1.426c.53 0 .97-.14 1.318-.421s.606-.653.773-1.119a4.45 4.45 0 0 0 .256-1.54 4.42 4.42 0 0 0-.256-1.534c-.171-.466-.424-.847-.773-1.131s-.788-.426-1.318-.426-.977.142-1.33.426a2.54 2.54 0 0 0-.778 1.131c-.167.466-.25.977-.25 1.534s.083 1.074.25 1.54.43.839.778 1.119.796.421 1.33.421zm11.327-2.369v-5.108h1.705V41h-1.671v-1.511h-.091a2.73 2.73 0 0 1-.966 1.165c-.443.311-.987.46-1.642.46-.561 0-1.057-.123-1.489-.369s-.765-.619-1.011-1.108-.364-1.093-.364-1.812v-5.551h1.699v5.347c0 .595.165 1.068.494 1.42s.758.528 1.284.528c.318 0 .634-.08.949-.239s.582-.4.79-.721.316-.731.313-1.227zM217.334 41v-8.727h1.642v1.386h.091a2.11 2.11 0 0 1 .841-1.108c.405-.273.864-.409 1.375-.409l.375.011.347.028v1.625a2.89 2.89 0 0 0-.364-.062 3.47 3.47 0 0 0-.523-.04c-.401 0-.76.085-1.074.256a1.9 1.9 0 0 0-.739.699 1.89 1.89 0 0 0-.273 1.011V41h-1.699zm10.055 0v-8.727h1.642v1.386h.091a2.11 2.11 0 0 1 .841-1.108c.405-.273.864-.409 1.375-.409l.375.011.347.028v1.625a2.89 2.89 0 0 0-.364-.062 3.47 3.47 0 0 0-.523-.04c-.401 0-.76.085-1.074.256a1.9 1.9 0 0 0-.739.699 1.89 1.89 0 0 0-.273 1.011V41h-1.699zm8.442.193c-.553 0-1.053-.102-1.5-.307a2.5 2.5 0 0 1-1.062-.903c-.261-.394-.386-.877-.386-1.449 0-.492.095-.898.284-1.216a2.1 2.1 0 0 1 .767-.756 4.01 4.01 0 0 1 1.079-.421 10.58 10.58 0 0 1 1.216-.216l1.273-.148c.326-.042.563-.108.71-.199s.222-.239.222-.443v-.04c0-.496-.14-.881-.421-1.153s-.689-.409-1.239-.409c-.572 0-1.023.127-1.352.381s-.551.528-.676.835l-1.597-.364c.189-.53.466-.958.829-1.284s.79-.568 1.267-.716.979-.227 1.506-.227a5.33 5.33 0 0 1 1.108.125c.39.083.761.227 1.102.443s.627.525.847.926.329.915.329 1.551V41h-1.659v-1.193h-.068c-.11.22-.275.436-.494.648s-.502.388-.847.529-.757.21-1.239.21zm.369-1.364c.47 0 .871-.093 1.205-.278a1.95 1.95 0 0 0 .767-.727c.178-.303.267-.627.267-.972v-1.125c-.061.061-.178.117-.352.17s-.366.093-.585.131l-.642.097-.523.068a4.24 4.24 0 0 0-.903.21 1.55 1.55 0 0 0-.648.426c-.159.182-.239.424-.239.727 0 .42.155.739.466.955s.706.318 1.188.318zm10.114-7.557v1.364h-4.767v-1.364h4.767zm-3.489-2.091h1.699v8.256c0 .329.049.578.148.744a.77.77 0 0 0 .381.335 1.52 1.52 0 0 0 .517.085 1.99 1.99 0 0 0 .358-.028l.239-.046.307 1.403c-.098.038-.239.076-.42.114a3.62 3.62 0 0 1-.682.068 2.99 2.99 0 0 1-1.25-.239 2.14 2.14 0 0 1-.937-.773c-.238-.349-.358-.786-.358-1.312V30.18zm8.876 10.994c-.86 0-1.6-.184-2.222-.551s-1.095-.892-1.432-1.562-.5-1.464-.5-2.369c0-.894.167-1.682.5-2.364s.807-1.214 1.409-1.597 1.314-.574 2.125-.574c.492 0 .97.081 1.432.244a3.47 3.47 0 0 1 1.244.767c.367.348.657.801.869 1.358s.318 1.225.318 2.017v.602h-6.937v-1.273h5.273c0-.447-.091-.843-.273-1.187a2.06 2.06 0 0 0-.767-.824c-.326-.201-.708-.301-1.148-.301-.477 0-.894.117-1.25.352a2.36 2.36 0 0 0-.818.909 2.59 2.59 0 0 0-.284 1.21v.994c0 .583.102 1.08.307 1.489a2.22 2.22 0 0 0 .869.938c.371.212.805.318 1.301.318.322 0 .615-.045.881-.136a1.85 1.85 0 0 0 .688-.421 1.82 1.82 0 0 0 .443-.687l1.608.29a2.91 2.91 0 0 1-.693 1.244c-.329.352-.744.627-1.244.824s-1.062.29-1.699.29z"/><path d="M358.28 41V29.364h4.261c.826 0 1.51.136 2.051.409s.947.634 1.216 1.097.403.975.403 1.551c0 .485-.089.894-.267 1.227a2.2 2.2 0 0 1-.716.795c-.295.197-.621.341-.977.432v.114a2.32 2.32 0 0 1 1.131.375c.371.227.678.551.92.972s.364.932.364 1.534c0 .595-.14 1.129-.42 1.602s-.705.843-1.284 1.119-1.32.409-2.222.409h-4.46zm1.756-1.506h2.534c.841 0 1.443-.163 1.807-.489a1.57 1.57 0 0 0 .545-1.222c0-.367-.093-.705-.278-1.011s-.451-.551-.795-.733-.746-.273-1.216-.273h-2.597v3.727zm0-5.097h2.352c.394 0 .748-.076 1.063-.227a1.86 1.86 0 0 0 .756-.636c.189-.277.284-.602.284-.977 0-.481-.168-.884-.506-1.21s-.854-.489-1.551-.489h-2.398v3.54zm12.178 6.778c-.86 0-1.6-.184-2.222-.551s-1.095-.892-1.432-1.562-.5-1.464-.5-2.369c0-.894.167-1.682.5-2.364s.807-1.214 1.409-1.597 1.314-.574 2.125-.574c.492 0 .97.081 1.432.244a3.47 3.47 0 0 1 1.244.767c.367.348.657.801.869 1.358s.318 1.225.318 2.017v.602h-6.937v-1.273h5.273c0-.447-.091-.843-.273-1.187a2.06 2.06 0 0 0-.767-.824c-.326-.201-.708-.301-1.148-.301-.477 0-.894.117-1.25.352s-.625.534-.818.909-.284.775-.284 1.21v.994c0 .583.102 1.08.307 1.489a2.22 2.22 0 0 0 .869.938c.371.212.805.318 1.301.318.322 0 .616-.045.881-.136s.494-.235.688-.421.341-.415.443-.687l1.608.29a2.91 2.91 0 0 1-.693 1.244c-.329.352-.744.627-1.244.824s-1.062.29-1.699.29zm7.168-5.358V41h-1.699v-8.727h1.631v1.42h.108c.201-.462.515-.833.943-1.114s.975-.42 1.631-.42c.595 0 1.115.125 1.563.375s.794.614 1.04 1.102.369 1.093.369 1.813V41h-1.699v-5.347c0-.633-.165-1.127-.494-1.483s-.782-.54-1.358-.54c-.394 0-.744.085-1.051.256a1.84 1.84 0 0 0-.722.75c-.174.326-.261.72-.261 1.182zm11.38 5.358c-.845 0-1.572-.191-2.182-.574a3.8 3.8 0 0 1-1.398-1.597c-.326-.678-.489-1.455-.489-2.33 0-.886.167-1.669.5-2.347a3.83 3.83 0 0 1 1.409-1.597c.606-.383 1.32-.574 2.142-.574.663 0 1.254.123 1.773.369a3.18 3.18 0 0 1 1.256 1.023c.322.439.513.953.574 1.54h-1.653a1.98 1.98 0 0 0-.625-1.057c-.322-.295-.754-.443-1.296-.443a2.11 2.11 0 0 0-1.244.375c-.352.246-.627.598-.824 1.057s-.295.992-.295 1.614c0 .636.097 1.186.29 1.648s.466.82.818 1.074.775.381 1.256.381c.322 0 .614-.059.875-.176a1.79 1.79 0 0 0 .665-.517c.182-.224.309-.493.381-.807h1.653c-.061.564-.244 1.068-.551 1.511s-.718.792-1.233 1.046-1.112.381-1.801.381zm6.941-5.358V41h-1.699V29.364h1.676v4.33h.108a2.51 2.51 0 0 1 .938-1.119c.421-.277.97-.415 1.648-.415.599 0 1.121.123 1.568.369s.799.614 1.046 1.102.375 1.091.375 1.818V41h-1.699v-5.347c0-.64-.165-1.136-.494-1.489s-.788-.534-1.375-.534a2.25 2.25 0 0 0-1.079.256c-.314.17-.562.42-.744.75s-.267.72-.267 1.182zM405.469 41v-8.727h1.631v1.42h.108c.182-.481.479-.856.892-1.125s.907-.409 1.483-.409c.583 0 1.072.136 1.466.409s.691.648.881 1.125h.091c.208-.466.54-.837.994-1.114s.996-.42 1.625-.42c.792 0 1.438.248 1.938.744s.756 1.244.756 2.244V41h-1.699v-5.693c0-.591-.161-1.019-.483-1.284s-.706-.398-1.153-.398c-.553 0-.983.17-1.29.511s-.46.771-.46 1.301V41h-1.693v-5.801c0-.474-.148-.854-.443-1.142s-.68-.432-1.153-.432a1.65 1.65 0 0 0-.892.256c-.269.167-.487.4-.653.699s-.244.646-.244 1.04V41h-1.699zm16.52.193c-.553 0-1.053-.102-1.5-.307s-.801-.509-1.062-.903-.386-.877-.386-1.449c0-.492.095-.898.284-1.216s.445-.57.767-.756.682-.326 1.08-.421a10.75 10.75 0 0 1 1.216-.216l1.273-.148c.326-.042.563-.108.71-.199s.222-.239.222-.443v-.04c0-.496-.14-.881-.42-1.153s-.689-.409-1.239-.409c-.572 0-1.023.127-1.352.381s-.551.528-.676.835l-1.597-.364c.189-.53.466-.958.829-1.284s.79-.568 1.267-.716.979-.227 1.506-.227a5.31 5.31 0 0 1 1.108.125c.394.08.761.227 1.102.443s.627.525.847.926.33.915.33 1.551V41h-1.659v-1.193h-.068c-.11.22-.275.436-.494.648s-.502.388-.846.529-.758.21-1.239.21zm.369-1.364c.47 0 .871-.093 1.205-.278a1.95 1.95 0 0 0 .767-.727c.178-.303.267-.627.267-.972v-1.125c-.061.061-.178.117-.352.17a5.47 5.47 0 0 1-.585.131l-.642.097-.523.068c-.329.042-.631.112-.903.21a1.55 1.55 0 0 0-.648.426c-.159.182-.239.424-.239.727 0 .42.155.739.466.955s.707.318 1.188.318zm6.04 1.171v-8.727h1.642v1.386h.091a2.11 2.11 0 0 1 .841-1.108c.405-.273.864-.409 1.375-.409l.375.011.346.028v1.625a3.03 3.03 0 0 0-.363-.062c-.175-.027-.349-.04-.523-.04-.401 0-.76.085-1.074.256a1.9 1.9 0 0 0-.739.699 1.89 1.89 0 0 0-.273 1.011V41h-1.699zm7.543-2.96l-.011-2.074h.295l3.477-3.693h2.035l-3.966 4.205h-.267l-1.563 1.563zM434.38 41V29.364h1.698V41h-1.698zm5.511 0l-3.125-4.148 1.17-1.187 4.04 5.335h-2.085zm7.309 0v-8.727h1.642v1.386h.091a2.11 2.11 0 0 1 .841-1.108c.405-.273.864-.409 1.375-.409l.375.011.347.028v1.625c-.069-.019-.19-.04-.364-.062s-.348-.04-.523-.04a2.22 2.22 0 0 0-1.074.256c-.31.167-.556.4-.738.699s-.273.633-.273 1.011V41H447.2zm8.442.193c-.553 0-1.053-.102-1.5-.307s-.801-.509-1.062-.903-.386-.877-.386-1.449c0-.492.094-.898.284-1.216s.445-.57.767-.756.682-.326 1.079-.421a10.75 10.75 0 0 1 1.216-.216l1.273-.148c.326-.042.562-.108.71-.199s.222-.239.222-.443v-.04c0-.496-.14-.881-.421-1.153s-.689-.409-1.238-.409c-.572 0-1.023.127-1.353.381s-.551.528-.676.835l-1.596-.364c.189-.53.466-.958.829-1.284a3.37 3.37 0 0 1 1.267-.716c.477-.152.979-.227 1.506-.227.348 0 .718.042 1.108.125a3.24 3.24 0 0 1 1.102.443c.345.216.627.525.847.926s.329.915.329 1.551V41h-1.659v-1.193h-.068c-.11.22-.275.436-.494.648s-.502.388-.847.529-.757.21-1.239.21zm.37-1.364c.469 0 .871-.093 1.204-.278s.593-.428.767-.727.267-.627.267-.972v-1.125c-.06.061-.178.117-.352.17s-.365.093-.585.131l-.642.097-.523.068a4.2 4.2 0 0 0-.903.21c-.269.099-.485.241-.648.426s-.239.424-.239.727c0 .42.156.739.466.955s.707.318 1.188.318zm10.114-7.557v1.364h-4.767v-1.364h4.767zm-3.489-2.091h1.699v8.256c0 .329.049.578.148.744s.225.275.381.335.331.085.517.085a2 2 0 0 0 .358-.028l.238-.046.307 1.403a2.86 2.86 0 0 1-.42.114c-.182.042-.41.064-.682.068a2.99 2.99 0 0 1-1.25-.239c-.387-.167-.699-.424-.938-.773s-.358-.786-.358-1.312v-8.608zm8.876 10.994c-.86 0-1.601-.184-2.222-.551a3.74 3.74 0 0 1-1.432-1.562c-.333-.674-.5-1.464-.5-2.369 0-.894.167-1.682.5-2.364s.807-1.214 1.409-1.597 1.315-.574 2.125-.574c.493 0 .97.081 1.432.244s.877.419 1.245.767.657.801.869 1.358.318 1.225.318 2.017v.602h-6.937v-1.273h5.272c0-.447-.091-.843-.272-1.187s-.438-.623-.767-.824-.709-.301-1.148-.301c-.477 0-.894.117-1.25.352s-.625.534-.818.909-.284.775-.284 1.21v.994c0 .583.102 1.08.306 1.489a2.22 2.22 0 0 0 .87.938c.371.212.805.318 1.301.318.322 0 .615-.045.881-.136a1.9 1.9 0 0 0 .687-.421c.193-.186.341-.415.443-.687l1.608.29c-.129.474-.36.888-.693 1.244s-.744.627-1.244.824-1.063.29-1.699.29z"/></g><g transform="translate(20 63)"><g id="A"><g transform="translate(0 12.5)"><g clip-path="url(#P)" transform="translate(0 1.5)" class="C D E F"><path transform="translate(2.5 1.787)" d="M14.583 4.278L7.5 8.213m0 0L.417 4.278M7.5 8.213v7.917m7.5-4.534V4.831c0-.286 0-.428-.042-.556-.037-.113-.098-.216-.178-.303-.091-.099-.216-.168-.465-.307L8.148.24c-.236-.131-.355-.197-.48-.223-.111-.023-.225-.023-.336 0-.125.026-.243.091-.48.223L.686 3.666c-.25.139-.374.208-.465.307-.08.087-.141.191-.178.303C0 4.403 0 4.546 0 4.831v6.764c0 .286 0 .428.042.556.037.113.098.216.178.303.091.099.216.168.465.307l6.167 3.426c.236.131.354.197.48.223.111.023.225.023.336 0 .125-.026.243-.091.48-.223l6.167-3.426c.25-.139.374-.208.465-.307a.83.83 0 0 0 .178-.303c.042-.127.042-.27.042-.556z"/><path transform="translate(6.25 3.75)" d="M7.5 4.167L0 0"/></g><path transform="translate(28)" d="M1.278 17V5.364h4.148c.905 0 1.655.165 2.25.494s1.04.78 1.335 1.352.443 1.208.443 1.92-.15 1.36-.449 1.932-.742 1.019-1.341 1.352-1.343.494-2.244.494H2.568v-1.489h2.693c.572 0 1.036-.099 1.392-.296s.617-.473.784-.818.25-.737.25-1.176-.083-.83-.25-1.17-.43-.608-.79-.801-.826-.29-1.409-.29H3.034V17H1.278zm9.938 0V8.273h1.699V17h-1.699zm.858-10.074a1.08 1.08 0 0 1-.761-.295.96.96 0 0 1-.312-.716.95.95 0 0 1 .313-.716 1.07 1.07 0 0 1 .761-.301 1.05 1.05 0 0 1 .756.301.94.94 0 0 1 .318.716c0 .277-.106.515-.318.716a1.06 1.06 0 0 1-.756.295zm6.642 10.25c-.845 0-1.572-.191-2.182-.574a3.8 3.8 0 0 1-1.398-1.597c-.326-.678-.489-1.455-.489-2.33 0-.886.167-1.668.5-2.347a3.83 3.83 0 0 1 1.409-1.597c.606-.383 1.32-.574 2.142-.574.663 0 1.254.123 1.773.369a3.18 3.18 0 0 1 1.256 1.023c.322.439.513.953.574 1.54h-1.653a1.98 1.98 0 0 0-.625-1.057c-.322-.295-.754-.443-1.296-.443a2.11 2.11 0 0 0-1.244.375c-.352.246-.627.598-.824 1.057s-.295.992-.295 1.614c0 .636.097 1.186.29 1.648s.466.82.818 1.074.775.381 1.256.381c.322 0 .614-.059.875-.176a1.79 1.79 0 0 0 .665-.517c.182-.224.309-.492.381-.807h1.653c-.061.564-.244 1.068-.551 1.511s-.718.792-1.233 1.046-1.112.381-1.801.381zm6.805-3.136l-.011-2.074h.295l3.477-3.693h2.034l-3.966 4.205h-.267l-1.562 1.563zM23.959 17V5.364h1.699V17h-1.699zm5.511 0l-3.125-4.148 1.17-1.187L31.556 17H29.47zm10.696.165c-.78 0-1.453-.142-2.017-.426s-.992-.67-1.295-1.159-.455-1.049-.455-1.67c0-.473.098-.894.295-1.261a3.72 3.72 0 0 1 .824-1.028c.352-.314.76-.631 1.222-.949l1.875-1.324c.318-.208.566-.428.744-.659s.267-.525.267-.869c0-.273-.117-.534-.352-.784s-.549-.375-.943-.375c-.273 0-.513.066-.722.199a1.45 1.45 0 0 0-.483.511c-.114.205-.17.42-.17.648 0 .265.072.532.216.801s.337.547.568.835l.727.886L45.871 17h-1.92l-4.472-5.256-1.045-1.25a6.45 6.45 0 0 1-.784-1.193c-.197-.405-.295-.843-.295-1.312 0-.534.121-1.008.364-1.42s.589-.742 1.029-.977.955-.352 1.545-.352c.599 0 1.112.117 1.54.352s.763.54.994.926.352.801.352 1.256c0 .553-.138 1.042-.415 1.466s-.65.807-1.131 1.159l-2.335 1.722c-.455.333-.771.663-.949.989s-.261.574-.261.756a1.77 1.77 0 0 0 .256.926c.174.284.417.511.727.682s.682.256 1.102.256c.432 0 .852-.093 1.261-.278s.786-.46 1.119-.812a3.91 3.91 0 0 0 .801-1.267c.197-.492.295-1.044.295-1.653h1.534c0 .75-.085 1.385-.256 1.903s-.377.936-.619 1.261-.464.574-.676.756l-.193.182-.193.182c-.394.398-.871.691-1.432.881s-1.106.284-1.648.284zM51.252 17V5.364H55.4c.905 0 1.655.165 2.25.494s1.04.78 1.335 1.352.443 1.208.443 1.92-.15 1.36-.449 1.932-.742 1.019-1.341 1.352-1.343.494-2.244.494h-2.852v-1.489h2.693c.572 0 1.036-.099 1.392-.296s.617-.473.784-.818.25-.737.25-1.176-.083-.83-.25-1.17-.43-.608-.79-.801-.826-.29-1.409-.29h-2.205V17h-1.756zm12.4.193c-.553 0-1.053-.102-1.5-.307s-.801-.509-1.062-.903-.386-.877-.386-1.449c0-.492.095-.898.284-1.216s.445-.57.767-.756.682-.326 1.079-.421a10.75 10.75 0 0 1 1.216-.216l1.273-.148c.326-.042.563-.108.71-.199s.222-.239.222-.443v-.04c0-.496-.14-.881-.42-1.153s-.689-.409-1.239-.409c-.572 0-1.023.127-1.352.381s-.551.528-.676.835l-1.597-.364c.189-.53.466-.958.83-1.284s.79-.568 1.267-.716.979-.227 1.506-.227a5.31 5.31 0 0 1 1.108.125c.394.08.761.227 1.102.443s.627.525.847.926.33.915.33 1.551V17H66.3v-1.193h-.068c-.11.22-.275.436-.494.648s-.502.388-.846.529-.758.21-1.239.21zm.369-1.364c.47 0 .871-.093 1.205-.278a1.95 1.95 0 0 0 .767-.727c.178-.303.267-.627.267-.972v-1.125c-.061.061-.178.117-.352.17a5.47 5.47 0 0 1-.585.131l-.642.097-.523.068c-.329.042-.631.112-.903.21a1.55 1.55 0 0 0-.648.426c-.159.182-.239.424-.239.727 0 .42.155.739.466.955s.707.318 1.188.318zm9.716 1.347c-.845 0-1.572-.191-2.182-.574a3.8 3.8 0 0 1-1.398-1.597c-.326-.678-.489-1.455-.489-2.33 0-.886.167-1.668.5-2.347a3.83 3.83 0 0 1 1.409-1.597c.606-.383 1.32-.574 2.142-.574.663 0 1.254.123 1.773.369a3.18 3.18 0 0 1 1.256 1.023c.322.439.513.953.574 1.54h-1.653a1.98 1.98 0 0 0-.625-1.057c-.322-.295-.754-.443-1.295-.443a2.11 2.11 0 0 0-1.244.375c-.352.246-.627.598-.824 1.057s-.295.992-.295 1.614c0 .636.097 1.186.29 1.648s.466.82.818 1.074.775.381 1.256.381c.322 0 .614-.059.875-.176s.487-.294.665-.517.309-.492.381-.807h1.653a3.21 3.21 0 0 1-.551 1.511c-.307.443-.718.792-1.233 1.046s-1.112.381-1.801.381zm6.804-3.136l-.011-2.074h.295l3.477-3.693h2.034l-3.966 4.205h-.267l-1.562 1.563zM78.98 17V5.364h1.699V17H78.98zm5.511 0l-3.125-4.148 1.171-1.187L86.576 17h-2.085z" class="G"/></g><g transform="translate(167)"><g transform="translate(0 6)"><path d="M0 6a6 6 0 0 1 6-6h138v36H6a6 6 0 0 1-6-6V6z" class="H"/><path transform="translate(10 7)" d="M5.299 19.636V3.273h1.048v16.364H5.299zM8.578 8.348c-.068-.605-.349-1.074-.844-1.406s-1.116-.505-1.866-.505c-.537 0-1.001.085-1.393.256s-.697.396-.914.69a1.63 1.63 0 0 0-.32.991c0 .311.072.58.217.805a1.95 1.95 0 0 0 .582.569c.243.149.503.275.78.377l.799.243 1.278.332c.418.102.846.241 1.285.415a5.15 5.15 0 0 1 1.221.69c.375.285.678.639.908 1.061s.351.927.351 1.515c0 .742-.192 1.4-.575 1.975s-.931 1.029-1.655 1.362-1.592.498-2.614.498c-.98 0-1.828-.155-2.544-.467s-1.276-.752-1.681-1.323-.629-1.257-.671-2.046h1.982c.038.473.192.867.46 1.183s.62.543 1.042.697.893.224 1.4.224c.558 0 1.055-.087 1.489-.262s.784-.426 1.036-.741.377-.692.377-1.119c0-.388-.111-.705-.332-.952s-.513-.452-.888-.614-.79-.305-1.259-.428l-1.547-.422c-1.048-.286-1.879-.705-2.493-1.259s-.914-1.287-.914-2.199c0-.754.205-1.413.614-1.975s.963-.999 1.662-1.31 1.487-.473 2.365-.473c.886 0 1.668.156 2.346.467s1.219.739 1.611 1.285.597 1.163.614 1.866H8.578zM12.843 18v-1.432l4.43-4.59 1.17-1.31c.311-.379.543-.739.697-1.08s.23-.703.23-1.087c0-.435-.102-.81-.307-1.125s-.484-.565-.837-.735-.752-.262-1.195-.262c-.469 0-.878.096-1.227.288a1.97 1.97 0 0 0-.805.812c-.187.349-.281.759-.281 1.227H12.83c0-.797.183-1.494.55-2.09s.869-1.059 1.509-1.387 1.366-.499 2.18-.499c.822 0 1.547.164 2.173.492s1.123.767 1.476 1.33a3.46 3.46 0 0 1 .531 1.892c0 .486-.092.961-.275 1.425s-.492.982-.94 1.553-1.07 1.255-1.867 2.065l-2.602 2.723v.096h5.894V18h-8.617zm12.324.121a1.24 1.24 0 0 1-.901-.371c-.251-.251-.377-.554-.377-.908a1.21 1.21 0 0 1 .377-.895 1.23 1.23 0 0 1 .901-.377 1.23 1.23 0 0 1 .901.377 1.21 1.21 0 0 1 .377.895 1.22 1.22 0 0 1-.179.646 1.32 1.32 0 0 1-.46.46 1.22 1.22 0 0 1-.639.173zm7.797.058c-.916 0-1.726-.158-2.429-.473s-1.246-.75-1.643-1.304-.592-1.185-.588-1.892c-.004-.554.109-1.063.339-1.528s.552-.859.952-1.17a2.95 2.95 0 0 1 1.342-.601v-.077a2.64 2.64 0 0 1-1.566-1.048c-.392-.541-.586-1.163-.582-1.866-.004-.669.173-1.266.531-1.79s.859-.944 1.489-1.246 1.349-.454 2.154-.454c.797 0 1.508.153 2.135.46s1.127.718 1.489 1.246.545 1.119.55 1.783a3.11 3.11 0 0 1-.601 1.866c-.396.541-.912.891-1.547 1.048v.077c.49.085.931.286 1.323.601s.712.701.946 1.17a3.35 3.35 0 0 1 .364 1.528c-.004.707-.205 1.338-.601 1.892s-.946.989-1.649 1.304-1.502.473-2.41.473zm0-1.617c.541 0 1.01-.09 1.406-.269s.703-.437.921-.761.328-.712.332-1.151c-.004-.456-.124-.859-.358-1.208a2.39 2.39 0 0 0-.94-.825c-.396-.2-.85-.3-1.361-.3s-.974.1-1.374.3a2.38 2.38 0 0 0-.946.825c-.23.349-.343.752-.339 1.208-.004.439.1.822.313 1.151a2.17 2.17 0 0 0 .927.761c.401.179.874.269 1.419.269zm0-6.092c.435 0 .82-.087 1.157-.262s.601-.418.793-.729.296-.675.3-1.093c-.004-.409-.102-.767-.294-1.074s-.45-.543-.786-.71-.727-.256-1.17-.256c-.452 0-.848.085-1.189.256s-.599.403-.786.71-.279.665-.275 1.074a2 2 0 0 0 .281 1.093c.192.311.456.554.793.729s.733.262 1.176.262zm11.271 7.709c-.801 0-1.521-.153-2.161-.46s-1.142-.737-1.521-1.279-.582-1.159-.607-1.854h1.918c.047.563.296 1.025.748 1.387s.993.543 1.624.543c.503 0 .948-.115 1.336-.345s.699-.556.92-.965.339-.876.339-1.4c0-.533-.115-1.008-.345-1.425a2.55 2.55 0 0 0-.953-.984c-.401-.239-.861-.36-1.381-.364-.396 0-.795.068-1.195.204s-.724.315-.971.537l-1.809-.268.735-6.597h7.197v1.694h-5.555l-.415 3.663h.077c.256-.247.594-.454 1.016-.62a3.73 3.73 0 0 1 1.368-.249c.797 0 1.506.19 2.129.569s1.119.897 1.477 1.553.541 1.402.537 2.25c.004.848-.187 1.604-.575 2.269s-.916 1.189-1.598 1.572-1.455.569-2.333.569z" class="I"/><g id="B" transform="translate(76 6.5)"><path d="M0 6a6 6 0 0 1 6-6h46a6 6 0 0 1 6 6v11a6 6 0 0 1-6 6H6a6 6 0 0 1-6-6V6z" class="J"/><path transform="translate(4)" d="M3.992 15.29V8.568H5.33v6.722H3.992zm-2.69-2.695v-1.332h6.722v1.332H1.303zm12.269 4.544c-.683 0-1.293-.118-1.829-.353s-.956-.562-1.268-.979a2.6 2.6 0 0 1-.497-1.462h1.561c.02.302.121.563.303.785s.428.388.726.507.63.179.994.179a2.56 2.56 0 0 0 1.064-.209c.312-.139.555-.333.731-.582s.263-.542.263-.87c0-.341-.088-.641-.263-.9s-.426-.467-.761-.616-.732-.224-1.203-.224h-.86v-1.253h.86c.378 0 .709-.068.994-.204a1.63 1.63 0 0 0 .676-.567c.162-.245.244-.532.244-.86 0-.315-.071-.588-.214-.82s-.338-.419-.597-.552-.557-.199-.905-.199a2.35 2.35 0 0 0-.93.184c-.285.119-.517.292-.696.517a1.33 1.33 0 0 0-.288.8h-1.486a2.51 2.51 0 0 1 .487-1.452 3.15 3.15 0 0 1 1.233-.979c.511-.235 1.077-.353 1.7-.353.653 0 1.216.128 1.69.383s.845.588 1.104 1.009.391.882.388 1.382c.003.57-.156 1.054-.477 1.452s-.742.665-1.273.8v.08c.676.103 1.2.371 1.571.805s.56.973.557 1.616c.003.56-.152 1.062-.467 1.506s-.737.794-1.278 1.049-1.158.378-1.854.378zm8.7 0c-.623 0-1.183-.119-1.68-.358s-.888-.573-1.183-.994-.452-.901-.472-1.442h1.492a1.49 1.49 0 0 0 .582 1.079c.351.282.772.423 1.263.423.391 0 .738-.09 1.039-.269s.544-.432.716-.751.264-.681.264-1.089c0-.414-.09-.784-.268-1.109s-.426-.58-.741-.766-.669-.28-1.074-.283a2.87 2.87 0 0 0-.93.159 2.16 2.16 0 0 0-.756.418l-1.407-.209.572-5.131h5.598v1.317h-4.32l-.323 2.849h.06c.199-.192.462-.353.791-.482s.686-.194 1.064-.194c.62 0 1.172.148 1.656.443s.87.698 1.148 1.208.421 1.09.418 1.75c.003.66-.146 1.248-.447 1.765a3.24 3.24 0 0 1-1.243 1.223c-.527.295-1.132.442-1.815.442zm5.811-.045c-.272 0-.505-.096-.701-.288a.96.96 0 0 1-.293-.706.94.94 0 0 1 .293-.696c.196-.195.429-.293.701-.293s.505.098.701.293a.94.94 0 0 1 .293.696c0 .182-.046.35-.139.502a1.03 1.03 0 0 1-.358.358.95.95 0 0 1-.497.134zM30.991 17l4.445-8.79v-.075h-5.141V6.818h6.732V8.18L32.597 17h-1.606zm12.939-1.909v-.537c0-.385.08-.736.239-1.054s.398-.578.706-.771.688-.293 1.129-.293c.451 0 .829.096 1.133.288s.535.449.691.771.239.675.239 1.059v.537c0 .385-.079.738-.239 1.059s-.393.575-.701.771-.679.288-1.124.288-.825-.096-1.134-.288-.542-.453-.701-.771-.239-.674-.239-1.059zm1.158-.537v.537c0 .285.068.544.204.776s.373.348.711.348.568-.116.701-.348.199-.491.199-.776v-.537c0-.285-.065-.544-.194-.776s-.361-.348-.706-.348c-.331 0-.567.116-.706.348a1.48 1.48 0 0 0-.209.776zm-6.279-5.29v-.537c0-.384.08-.737.239-1.059s.398-.578.706-.771.688-.288 1.129-.288c.451 0 .829.096 1.134.288s.535.449.691.771.234.674.234 1.059v.537c0 .384-.08.737-.239 1.059s-.388.575-.696.771-.679.288-1.124.288c-.451 0-.83-.096-1.139-.288s-.537-.453-.696-.771-.239-.675-.239-1.059zm1.163-.537v.537c0 .285.066.544.199.776s.373.348.711.348c.331 0 .563-.116.696-.348s.204-.491.204-.776v-.537c0-.285-.065-.544-.194-.776s-.365-.348-.706-.348c-.331 0-.567.116-.706.348s-.204.491-.204.776zM39.282 17l7-10.182h1.188L40.47 17h-1.188z" class="K"/></g></g><path transform="matrix(-1 0 0 1 145 0)" d="M.25.25h.5v47.5h-.5z" class="L M N"/><g transform="translate(145 6)"><path d="M0 0h138a6 6 0 0 1 6 6v24a6 6 0 0 1-6 6H0V0z" fill="url(#L)" class="O"/><path transform="translate(86 7)" d="M6.255 19.636V3.273h1.048v16.364H6.255zM9.279 8.508c-.06-.558-.311-.993-.754-1.304s-1.01-.467-1.713-.467c-.494 0-.918.075-1.272.224s-.624.352-.812.607-.283.548-.288.876c0 .273.062.509.185.71s.3.371.518.511a3.65 3.65 0 0 0 .722.345 7.75 7.75 0 0 0 .799.236l1.227.307a8.45 8.45 0 0 1 1.425.467c.46.196.871.443 1.234.742a3.29 3.29 0 0 1 .869 1.08c.213.422.32.916.32 1.483 0 .767-.196 1.442-.588 2.026s-.959 1.033-1.7 1.361-1.63.486-2.678.486c-1.018 0-1.903-.158-2.653-.473s-1.33-.776-1.751-1.381-.643-1.342-.678-2.212h2.333c.034.456.175.835.422 1.138s.569.528.965.678.848.224 1.342.224c.516 0 .967-.077 1.355-.23s.699-.375.92-.652.335-.609.339-.984c-.004-.341-.104-.622-.3-.844s-.471-.413-.825-.562-.759-.29-1.227-.409l-1.489-.384c-1.078-.277-1.93-.697-2.557-1.259s-.933-1.319-.933-2.256c0-.771.209-1.447.626-2.026s.995-1.029 1.719-1.349 1.545-.486 2.461-.486c.929 0 1.743.162 2.442.486s1.255.765 1.656 1.336.607 1.219.62 1.956H9.279zM13.726 18v-1.713l4.545-4.455 1.087-1.17c.29-.341.507-.671.652-.991s.217-.661.217-1.023c0-.413-.094-.767-.281-1.061a1.87 1.87 0 0 0-.773-.69c-.328-.162-.701-.243-1.119-.243-.43 0-.808.089-1.131.268s-.575.424-.754.748-.262.71-.262 1.157h-2.256c0-.831.19-1.553.569-2.167a3.84 3.84 0 0 1 1.566-1.425c.669-.337 1.436-.505 2.301-.505.878 0 1.649.164 2.314.492s1.18.778 1.547 1.349.556 1.223.556 1.956a3.89 3.89 0 0 1-.281 1.445c-.187.473-.518.997-.991 1.572s-1.127 1.272-1.975 2.09l-2.256 2.295v.089H22.7V18h-8.974zm12.631.141a1.37 1.37 0 0 1-.997-.409c-.277-.273-.413-.605-.409-.997a1.31 1.31 0 0 1 .409-.984 1.37 1.37 0 0 1 .997-.409c.375 0 .701.136.978.409s.424.601.428.984c-.004.26-.072.496-.205.709a1.47 1.47 0 0 1-.511.511 1.33 1.33 0 0 1-.69.185zm7.477-13.232V18h-2.371V7.217h-.077l-3.062 1.956V6.999l3.254-2.09h2.256zm8.163 13.34c-1.053 0-1.956-.266-2.71-.799s-1.327-1.31-1.732-2.32-.601-2.235-.601-3.663.207-2.642.607-3.643.982-1.773 1.732-2.301 1.656-.793 2.704-.793 1.95.264 2.704.793 1.332 1.295 1.732 2.301.607 2.22.607 3.643c0 1.432-.202 2.655-.607 3.669s-.978 1.781-1.732 2.314-1.651.799-2.704.799zm0-2.001c.818 0 1.464-.403 1.937-1.208s.716-2.001.716-3.573c0-1.04-.109-1.913-.326-2.621s-.524-1.24-.92-1.598-.865-.543-1.406-.543c-.814 0-1.457.405-1.93 1.214s-.712 1.988-.716 3.548c-.004 1.044.1 1.922.313 2.634s.524 1.249.92 1.611.867.537 1.413.537z" class="P"/></g></g></g><path id="C" transform="translate(0 58.158)" d="M0 0h456v1.27H0z" class="Q"/><g id="D" transform="translate(0 69.587)"><g transform="translate(0 12.5)"><g clip-path="url(#Q)" transform="translate(0 1.5)" class="C D E F"><path transform="translate(1.667 2.5)" d="M4.583 3.333h2.292M4.583 6.667h2.292M4.583 10h2.292m2.917-6.667h2.292M9.792 6.667h2.292M9.792 10h2.292M15 15V2.667c0-.933 0-1.4-.182-1.757-.16-.314-.415-.569-.728-.728C13.734 0 13.267 0 12.333 0h-8c-.933 0-1.4 0-1.757.182-.314.16-.569.415-.728.728-.182.357-.182.823-.182 1.757V15m15 0H0"/></g><path transform="translate(28)" d="M7.625 8.42a1.66 1.66 0 0 0-.75-1.25c-.439-.299-.992-.449-1.659-.449-.477 0-.89.076-1.239.227s-.619.352-.812.614a1.45 1.45 0 0 0-.284.881c0 .277.064.515.193.716s.305.369.517.506.447.244.693.335l.71.216 1.136.296c.371.091.752.214 1.142.369s.752.36 1.085.614a2.94 2.94 0 0 1 .807.943c.208.375.313.824.313 1.347 0 .659-.17 1.244-.511 1.756s-.828.915-1.472 1.21-1.415.443-2.324.443c-.871 0-1.625-.138-2.261-.415s-1.134-.669-1.494-1.176-.559-1.117-.597-1.818H2.58c.034.42.17.771.409 1.051a2.21 2.21 0 0 0 .926.619c.379.133.794.199 1.244.199.496 0 .938-.078 1.324-.233s.697-.379.92-.659a1.56 1.56 0 0 0 .335-.994c0-.345-.098-.627-.295-.846s-.456-.402-.79-.546a7.73 7.73 0 0 0-1.119-.381l-1.375-.375c-.932-.254-1.67-.627-2.216-1.119s-.812-1.144-.812-1.955c0-.67.182-1.256.545-1.756s.856-.888 1.477-1.165 1.322-.42 2.102-.42c.788 0 1.483.138 2.085.415s1.083.657 1.432 1.142.53 1.034.545 1.659H7.625zm7.728-.148v1.364h-4.767V8.273h4.767zm-3.489-2.091h1.699v8.256c0 .329.049.578.148.744a.77.77 0 0 0 .381.335c.159.057.332.085.517.085a1.99 1.99 0 0 0 .358-.028l.239-.046.307 1.403c-.099.038-.239.076-.421.114s-.409.064-.682.068a2.99 2.99 0 0 1-1.25-.239c-.386-.167-.699-.424-.937-.773s-.358-.786-.358-1.312V6.182zm8.79 10.994c-.818 0-1.532-.187-2.142-.562s-1.083-.9-1.421-1.574-.506-1.462-.506-2.364.168-1.697.506-2.375.811-1.205 1.421-1.58 1.324-.562 2.142-.562 1.532.188 2.142.563 1.083.902 1.42 1.58.506 1.47.506 2.375-.169 1.689-.506 2.364-.811 1.199-1.42 1.574-1.324.563-2.142.563zm.006-1.426c.53 0 .97-.14 1.318-.421s.606-.653.773-1.119a4.45 4.45 0 0 0 .256-1.54c0-.557-.085-1.068-.256-1.534s-.424-.847-.773-1.131-.788-.426-1.318-.426-.977.142-1.329.426-.608.661-.778 1.131-.25.977-.25 1.534.083 1.074.25 1.54.43.839.778 1.119.795.421 1.329.421zM26.459 17V8.273h1.642v1.386h.091a2.11 2.11 0 0 1 .841-1.108c.405-.273.864-.409 1.375-.409l.375.011.347.028v1.625c-.068-.019-.189-.04-.364-.062a3.47 3.47 0 0 0-.523-.04c-.401 0-.759.085-1.074.256a1.9 1.9 0 0 0-.739.699 1.89 1.89 0 0 0-.273 1.011V17h-1.699zm8.442.193c-.553 0-1.053-.102-1.5-.307s-.801-.509-1.062-.903-.386-.877-.386-1.449c0-.492.095-.898.284-1.216s.445-.57.767-.756.682-.326 1.079-.421.803-.167 1.216-.216l1.273-.148c.326-.042.563-.108.71-.199s.222-.239.222-.443v-.04c0-.496-.14-.881-.421-1.153s-.689-.409-1.239-.409c-.572 0-1.023.127-1.352.381s-.551.528-.676.835l-1.597-.364c.189-.53.466-.958.83-1.284s.79-.568 1.267-.716.979-.227 1.506-.227c.349 0 .718.042 1.108.125s.761.227 1.102.443.627.525.847.926.329.915.329 1.551V17h-1.659v-1.193h-.068c-.11.22-.275.436-.494.648s-.502.388-.847.529-.758.21-1.239.21zm.369-1.364c.47 0 .871-.093 1.205-.278a1.95 1.95 0 0 0 .767-.727c.178-.303.267-.627.267-.972v-1.125c-.061.061-.178.117-.352.17s-.366.093-.585.131l-.642.097-.523.068c-.33.042-.631.112-.903.21a1.55 1.55 0 0 0-.648.426c-.159.182-.239.424-.239.727 0 .42.155.739.466.955s.706.318 1.188.318zm9.699 4.625c-.693 0-1.29-.091-1.79-.273s-.902-.422-1.216-.722a3.03 3.03 0 0 1-.704-.983l1.46-.602c.102.167.239.343.409.528s.409.35.705.483.684.199 1.153.199c.644 0 1.176-.157 1.597-.472s.631-.807.631-1.489v-1.716h-.108c-.102.186-.25.392-.443.619s-.451.424-.784.591-.767.25-1.301.25c-.689 0-1.311-.161-1.864-.483s-.985-.805-1.307-1.437-.477-1.419-.477-2.347.157-1.723.472-2.386.754-1.17 1.307-1.523 1.18-.534 1.881-.534c.542 0 .979.091 1.313.273s.593.386.778.625.335.449.438.631h.125V8.273h1.665v8.92c0 .75-.174 1.366-.523 1.847s-.82.837-1.415 1.068-1.258.346-2 .346zm-.017-4.994c.489 0 .902-.114 1.239-.341s.599-.561.773-.989.267-.949.267-1.551c0-.587-.087-1.104-.261-1.551s-.43-.795-.767-1.045-.754-.381-1.25-.381c-.511 0-.937.133-1.278.398s-.599.617-.773 1.068-.256.955-.256 1.511c0 .572.087 1.074.261 1.506s.432.769.773 1.011.769.364 1.273.364zm9.834 1.716c-.86 0-1.6-.184-2.222-.551s-1.095-.892-1.432-1.562-.5-1.464-.5-2.369c0-.894.167-1.682.5-2.364s.807-1.214 1.409-1.597 1.314-.574 2.125-.574c.492 0 .97.081 1.432.244s.877.419 1.244.767.657.801.869 1.358.318 1.225.318 2.017v.602h-6.937v-1.273h5.273c0-.447-.091-.843-.273-1.187a2.06 2.06 0 0 0-.767-.824c-.326-.201-.708-.301-1.148-.301-.477 0-.894.117-1.25.352s-.625.534-.818.909-.284.775-.284 1.21v.994c0 .583.102 1.08.307 1.489s.498.722.869.938.805.318 1.301.318c.322 0 .615-.045.881-.136s.494-.235.688-.421.341-.415.443-.687l1.608.29a2.91 2.91 0 0 1-.693 1.244c-.33.352-.744.627-1.244.824s-1.062.29-1.699.29z" class="G"/></g><g transform="translate(167)"><g transform="translate(0 6)"><path d="M0 6a6 6 0 0 1 6-6h138v36H6a6 6 0 0 1-6-6V6z" class="H"/><path transform="translate(10 7)" d="M5.299 19.636V3.273h1.048v16.364H5.299zM8.578 8.348c-.068-.605-.349-1.074-.844-1.406s-1.116-.505-1.866-.505c-.537 0-1.001.085-1.393.256s-.697.396-.914.69a1.63 1.63 0 0 0-.32.991c0 .311.072.58.217.805a1.95 1.95 0 0 0 .582.569c.243.149.503.275.78.377l.799.243 1.278.332c.418.102.846.241 1.285.415a5.15 5.15 0 0 1 1.221.69c.375.285.678.639.908 1.061s.351.927.351 1.515c0 .742-.192 1.4-.575 1.975s-.931 1.029-1.655 1.362-1.592.498-2.614.498c-.98 0-1.828-.155-2.544-.467s-1.276-.752-1.681-1.323-.629-1.257-.671-2.046h1.982c.038.473.192.867.46 1.183s.62.543 1.042.697.893.224 1.4.224c.558 0 1.055-.087 1.489-.262s.784-.426 1.036-.741.377-.692.377-1.119c0-.388-.111-.705-.332-.952s-.513-.452-.888-.614-.79-.305-1.259-.428l-1.547-.422c-1.048-.286-1.879-.705-2.493-1.259s-.914-1.287-.914-2.199c0-.754.205-1.413.614-1.975s.963-.999 1.662-1.31 1.487-.473 2.365-.473c.886 0 1.668.156 2.346.467s1.219.739 1.611 1.285.597 1.163.614 1.866H8.578zM12.843 18v-1.432l4.43-4.59 1.17-1.31c.311-.379.543-.739.697-1.08s.23-.703.23-1.087c0-.435-.102-.81-.307-1.125s-.484-.565-.837-.735-.752-.262-1.195-.262c-.469 0-.878.096-1.227.288a1.97 1.97 0 0 0-.805.812c-.187.349-.281.759-.281 1.227H12.83c0-.797.183-1.494.55-2.09s.869-1.059 1.509-1.387 1.366-.499 2.18-.499c.822 0 1.547.164 2.173.492s1.123.767 1.476 1.33a3.46 3.46 0 0 1 .531 1.892c0 .486-.092.961-.275 1.425s-.492.982-.94 1.553-1.07 1.255-1.867 2.065l-2.602 2.723v.096h5.894V18h-8.617zm11.039 0v-1.432l4.43-4.59 1.17-1.31c.311-.379.543-.739.697-1.08s.23-.703.23-1.087c0-.435-.102-.81-.307-1.125s-.484-.565-.837-.735-.752-.262-1.195-.262c-.469 0-.878.096-1.227.288a1.97 1.97 0 0 0-.805.812c-.187.349-.281.759-.281 1.227H23.87c0-.797.183-1.494.55-2.09s.869-1.059 1.509-1.387 1.366-.499 2.18-.499c.823 0 1.547.164 2.173.492s1.123.767 1.477 1.33a3.46 3.46 0 0 1 .53 1.892c0 .486-.092.961-.275 1.425s-.492.982-.94 1.553-1.07 1.255-1.866 2.065l-2.602 2.723v.096h5.894V18h-8.617zm12.324.121a1.24 1.24 0 0 1-.901-.371c-.252-.251-.377-.554-.377-.908a1.21 1.21 0 0 1 .377-.895 1.23 1.23 0 0 1 .901-.377 1.23 1.23 0 0 1 .901.377 1.21 1.21 0 0 1 .377.895 1.22 1.22 0 0 1-.179.646 1.32 1.32 0 0 1-.46.46 1.22 1.22 0 0 1-.639.173zm7.896.096c-1.01-.004-1.873-.271-2.589-.799s-1.264-1.298-1.643-2.307-.569-2.227-.569-3.65.19-2.631.569-3.637.933-1.773 1.649-2.301 1.581-.793 2.582-.793 1.86.266 2.576.799 1.264 1.295 1.643 2.301.575 2.212.575 3.631c0 1.428-.19 2.646-.569 3.656s-.927 1.775-1.643 2.308-1.577.793-2.582.793zm0-1.707c.886 0 1.579-.433 2.077-1.298s.754-2.116.754-3.752c0-1.087-.115-2.005-.345-2.755s-.552-1.325-.978-1.713a2.14 2.14 0 0 0-1.508-.588c-.882 0-1.575.435-2.077 1.304s-.756 2.12-.761 3.752c0 1.091.113 2.013.339 2.768s.556 1.319.978 1.707.929.575 1.521.575zm11.619 1.707c-1.01-.004-1.873-.271-2.589-.799s-1.264-1.298-1.643-2.307-.569-2.227-.569-3.65.19-2.631.569-3.637.933-1.773 1.649-2.301 1.581-.793 2.582-.793 1.86.266 2.576.799 1.263 1.295 1.643 2.301.575 2.212.575 3.631c0 1.428-.19 2.646-.569 3.656s-.927 1.775-1.643 2.308-1.577.793-2.582.793zm0-1.707c.886 0 1.579-.433 2.077-1.298s.754-2.116.754-3.752c0-1.087-.115-2.005-.345-2.755s-.552-1.325-.978-1.713a2.14 2.14 0 0 0-1.508-.588c-.882 0-1.575.435-2.078 1.304s-.756 2.12-.761 3.752c0 1.091.113 2.013.339 2.768s.556 1.319.978 1.707.929.575 1.521.575z" class="I"/><g id="E" transform="translate(77 6.5)"><path d="M0 6a6 6 0 0 1 6-6h45a6 6 0 0 1 6 6v11a6 6 0 0 1-6 6H6a6 6 0 0 1-6-6V6z" class="J"/><path transform="translate(4)" d="M3.992 15.29V8.568H5.33v6.722H3.992zm-2.69-2.695v-1.332h6.722v1.332H1.303zm12.724-5.777V17h-1.541V8.359h-.06L9.99 9.95V8.479l2.54-1.661h1.496zm6.055 10.321c-.713 0-1.342-.123-1.889-.368s-.969-.583-1.278-1.014a2.44 2.44 0 0 1-.457-1.472c-.003-.431.084-.827.264-1.188s.429-.668.741-.91.66-.401 1.044-.467v-.06c-.507-.123-.913-.394-1.218-.815s-.456-.905-.452-1.452c-.003-.52.134-.984.413-1.392a2.88 2.88 0 0 1 1.158-.969c.491-.235 1.049-.353 1.675-.353.62 0 1.173.119 1.661.358s.877.558 1.158.969a2.41 2.41 0 0 1 .428 1.387c-.003.547-.159 1.031-.467 1.452a2.07 2.07 0 0 1-1.203.815v.06c.381.066.724.222 1.029.467a2.64 2.64 0 0 1 .736.91c.186.361.28.757.283 1.188-.003.55-.159 1.041-.467 1.472s-.736.769-1.283 1.014-1.168.368-1.874.368zm0-1.258c.421 0 .786-.07 1.094-.209s.547-.34.716-.592.255-.553.259-.895c-.003-.355-.096-.668-.278-.94a1.86 1.86 0 0 0-.731-.641c-.308-.156-.661-.234-1.059-.234s-.757.078-1.069.234a1.85 1.85 0 0 0-.736.641 1.64 1.64 0 0 0-.263.94c-.003.341.078.64.244.895s.409.449.721.592.679.209 1.104.209zm0-4.738c.338 0 .638-.068.9-.204s.467-.325.616-.567.23-.525.234-.85c-.003-.318-.08-.597-.229-.835s-.35-.423-.611-.552-.565-.199-.91-.199c-.351 0-.66.066-.925.199s-.466.313-.612.552-.217.517-.214.835c-.003.325.07.608.219.85s.355.431.616.567.57.204.915.204zm5.964 5.951c-.272 0-.505-.096-.701-.288a.96.96 0 0 1-.293-.706.94.94 0 0 1 .293-.696c.196-.195.429-.293.701-.293s.505.098.701.293a.94.94 0 0 1 .293.696c0 .182-.046.35-.139.502a1.03 1.03 0 0 1-.358.358.95.95 0 0 1-.497.134zm6.088-10.416a3.94 3.94 0 0 1 1.342.249c.441.162.839.428 1.193.795s.643.865.855 1.491.325 1.399.328 2.327c0 .892-.09 1.685-.268 2.381s-.436 1.278-.771 1.755-.734.84-1.208 1.089-1.008.373-1.601.373c-.607 0-1.145-.119-1.616-.358s-.854-.568-1.149-.989-.479-.912-.552-1.462h1.516c.099.438.302.792.607 1.064s.706.403 1.193.403c.746 0 1.327-.325 1.745-.975s.628-1.564.631-2.734h-.079a2.75 2.75 0 0 1-.646.736c-.255.206-.542.364-.86.477a3.03 3.03 0 0 1-1.019.169 3.05 3.05 0 0 1-1.601-.433 3.19 3.19 0 0 1-1.148-1.188c-.285-.504-.427-1.079-.427-1.725s.146-1.226.438-1.75.706-.938 1.233-1.243 1.152-.459 1.864-.452zm.005 1.293c-.388 0-.737.096-1.049.288s-.552.446-.731.771a2.17 2.17 0 0 0-.268 1.074c0 .394.086.752.259 1.074a2.05 2.05 0 0 0 .716.761c.305.186.653.278 1.044.278.292 0 .563-.056.815-.169a2.07 2.07 0 0 0 .661-.467 2.28 2.28 0 0 0 .443-.686 2.08 2.08 0 0 0 .159-.805 2.11 2.11 0 0 0-.268-1.044 2.09 2.09 0 0 0-.726-.776 1.9 1.9 0 0 0-1.054-.298zm10.684 7.119v-.537c0-.385.08-.736.239-1.054s.398-.578.706-.771.688-.293 1.128-.293c.451 0 .829.096 1.134.288s.535.449.691.771.239.675.239 1.059v.537c0 .385-.08.738-.239 1.059s-.393.575-.701.771-.68.288-1.124.288-.825-.096-1.133-.288a1.91 1.91 0 0 1-.701-.771c-.159-.321-.239-.674-.239-1.059zm1.158-.537v.537c0 .285.068.544.204.776s.373.348.711.348.568-.116.701-.348.199-.491.199-.776v-.537c0-.285-.065-.544-.194-.776s-.361-.348-.706-.348c-.331 0-.567.116-.706.348a1.48 1.48 0 0 0-.209.776zm-6.279-5.29v-.537c0-.384.08-.737.239-1.059s.398-.578.706-.771.688-.288 1.129-.288c.451 0 .829.096 1.133.288s.535.449.691.771.234.674.234 1.059v.537c0 .384-.079.737-.239 1.059s-.388.575-.696.771-.679.288-1.123.288c-.451 0-.83-.096-1.139-.288s-.537-.453-.696-.771-.239-.675-.239-1.059zm1.163-.537v.537c0 .285.066.544.199.776s.373.348.711.348c.331 0 .563-.116.696-.348s.204-.491.204-.776v-.537c0-.285-.065-.544-.194-.776s-.365-.348-.706-.348c-.331 0-.567.116-.706.348s-.204.491-.204.776zM38.174 17l7-10.182h1.188l-7 10.182h-1.188z" class="K"/></g></g><path transform="matrix(-1 0 0 1 145 0)" d="M.25.25h.5v47.5h-.5z" class="L M N"/><g transform="translate(145 6)"><path d="M0 0h138a6 6 0 0 1 6 6v24a6 6 0 0 1-6 6H0V0z" fill="url(#L)" class="O"/><path transform="translate(73 7)" d="M6.353 19.636V3.273h1.048v16.364H6.353zM9.376 8.508c-.06-.558-.311-.993-.754-1.304s-1.01-.467-1.713-.467c-.494 0-.918.075-1.272.224s-.624.352-.812.607-.283.548-.288.876c0 .273.062.509.185.71s.3.371.518.511a3.65 3.65 0 0 0 .722.345 7.75 7.75 0 0 0 .799.236l1.227.307a8.45 8.45 0 0 1 1.425.467c.46.196.871.443 1.234.742a3.29 3.29 0 0 1 .869 1.08c.213.422.32.916.32 1.483 0 .767-.196 1.442-.588 2.026s-.959 1.033-1.7 1.361-1.63.486-2.678.486c-1.018 0-1.903-.158-2.653-.473s-1.33-.776-1.751-1.381-.643-1.342-.678-2.212h2.333c.034.456.175.835.422 1.138s.569.528.965.678.848.224 1.342.224c.516 0 .967-.077 1.355-.23s.699-.375.92-.652.335-.609.339-.984c-.004-.341-.104-.622-.3-.844s-.471-.413-.825-.562-.759-.29-1.227-.409l-1.489-.384c-1.078-.277-1.93-.697-2.557-1.259s-.933-1.319-.933-2.256c0-.771.209-1.447.626-2.026s.995-1.029 1.719-1.349 1.545-.486 2.461-.486c.929 0 1.743.162 2.442.486s1.255.765 1.656 1.336a3.41 3.41 0 0 1 .62 1.956H9.376zm9.772-3.599V18h-2.372V7.217H16.7l-3.062 1.956V6.999l3.254-2.09h2.256zm7.977 13.27c-.95 0-1.794-.16-2.531-.479s-1.308-.756-1.726-1.31-.618-1.191-.614-1.898c-.004-.55.115-1.055.358-1.515s.571-.844.984-1.151.882-.509 1.393-.594v-.09a2.77 2.77 0 0 1-1.636-1.029 2.97 2.97 0 0 1-.614-1.873 2.98 2.98 0 0 1 .563-1.803c.379-.528.899-.944 1.56-1.246s1.415-.46 2.263-.46c.839 0 1.587.153 2.244.46s1.18.718 1.56 1.246a2.99 2.99 0 0 1 .575 1.803 2.96 2.96 0 0 1-.633 1.873 2.76 2.76 0 0 1-1.617 1.029v.09c.511.085.972.283 1.381.595s.742.69.984 1.151a3.15 3.15 0 0 1 .371 1.515c0 .707-.209 1.34-.626 1.898s-.993.991-1.726 1.31-1.566.479-2.512.479zm0-1.828c.49 0 .916-.083 1.278-.249s.643-.409.844-.716.303-.661.307-1.061c-.004-.418-.113-.786-.326-1.106a2.14 2.14 0 0 0-.863-.761 2.71 2.71 0 0 0-1.24-.275c-.469 0-.886.092-1.253.275s-.656.437-.869.761-.311.688-.307 1.106a1.86 1.86 0 0 0 .294 1.061 2.01 2.01 0 0 0 .844.709c.366.17.797.256 1.291.256zm0-5.964a2.24 2.24 0 0 0 1.061-.243 1.85 1.85 0 0 0 .735-.678c.179-.29.271-.624.275-1.004-.004-.375-.094-.703-.268-.984a1.73 1.73 0 0 0-.729-.658c-.311-.158-.669-.237-1.074-.237-.413 0-.778.079-1.093.237a1.73 1.73 0 0 0-.729.658c-.17.281-.253.609-.249.984-.004.379.081.714.256 1.004s.424.511.735.678.675.243 1.08.243zm8.03 7.753a1.37 1.37 0 0 1-.997-.409c-.277-.273-.413-.605-.409-.997a1.31 1.31 0 0 1 .409-.984 1.37 1.37 0 0 1 .997-.409c.375 0 .701.136.978.409s.424.601.428.984c-.004.26-.072.496-.204.709a1.47 1.47 0 0 1-.511.511 1.33 1.33 0 0 1-.69.185zm8.163.038c-.852 0-1.615-.16-2.288-.479s-1.208-.767-1.605-1.33-.601-1.206-.626-1.93H41.1a1.81 1.81 0 0 0 .697 1.317c.422.337.929.505 1.521.505a2.4 2.4 0 0 0 1.24-.32 2.29 2.29 0 0 0 .856-.889c.209-.379.311-.812.307-1.298.004-.494-.1-.933-.313-1.317s-.505-.684-.876-.901-.797-.332-1.278-.332c-.392-.004-.778.068-1.157.217s-.68.345-.901.588l-2.141-.352.684-6.75h7.594v1.982h-5.631l-.377 3.471h.077c.243-.285.586-.522 1.029-.71a3.63 3.63 0 0 1 1.457-.288c.793 0 1.5.188 2.122.563s1.112.882 1.47 1.534.537 1.398.537 2.237c0 .865-.2 1.636-.601 2.314a4.25 4.25 0 0 1-1.656 1.592c-.703.384-1.517.575-2.442.575zm11.678.07c-1.053 0-1.956-.266-2.71-.799s-1.327-1.31-1.732-2.32-.601-2.235-.601-3.663.207-2.642.607-3.643.982-1.773 1.732-2.301 1.656-.793 2.704-.793 1.95.264 2.704.793 1.332 1.295 1.732 2.301.607 2.22.607 3.643c0 1.432-.202 2.655-.607 3.669s-.978 1.781-1.732 2.314-1.651.799-2.704.799zm0-2.001c.818 0 1.464-.403 1.937-1.208s.716-2.001.716-3.573c0-1.04-.109-1.913-.326-2.621s-.524-1.24-.92-1.598-.865-.543-1.406-.543c-.814 0-1.457.405-1.93 1.214s-.712 1.988-.716 3.548c-.004 1.044.1 1.922.313 2.634s.524 1.249.92 1.611.867.537 1.413.537z" class="P"/></g></g></g><path id="F" transform="translate(0 127.745)" d="M0 0h456v1.27H0z" class="Q"/><g id="G" transform="translate(0 139.173)"><g transform="translate(0 12.5)"><g clip-path="url(#R)" transform="translate(0 1.5)" class="C D E F"><path transform="translate(1.667 2.5)" d="M11.667 10.833V2.667c0-.933 0-1.4-.182-1.757-.16-.314-.415-.569-.728-.728C10.4 0 9.933 0 9 0H2.667c-.933 0-1.4 0-1.757.182C.596.341.341.596.182.91 0 1.267 0 1.733 0 2.667v5.5c0 .933 0 1.4.182 1.757.16.314.415.569.728.728.357.182.823.182 1.757.182h9zm0 0h3.667c.467 0 .7 0 .878-.091.157-.08.284-.207.364-.364.091-.178.091-.412.091-.878V7.219c0-.204 0-.306-.023-.402-.02-.085-.054-.166-.1-.241-.052-.084-.124-.156-.268-.3l-1.719-1.719c-.144-.144-.216-.216-.3-.268-.075-.046-.156-.079-.241-.1-.096-.023-.198-.023-.402-.023h-1.948m-5.833 8.75C5.833 14.067 4.901 15 3.75 15s-2.083-.933-2.083-2.083.933-2.083 2.083-2.083 2.083.933 2.083 2.083zm9.167 0C15 14.067 14.067 15 12.917 15s-2.083-.933-2.083-2.083.933-2.083 2.083-2.083S15 11.766 15 12.917z"/></g><path transform="translate(28)" d="M7.625 8.42a1.66 1.66 0 0 0-.75-1.25c-.439-.299-.992-.449-1.659-.449-.477 0-.89.076-1.239.227s-.619.352-.812.614a1.45 1.45 0 0 0-.284.881c0 .277.064.515.193.716s.305.369.517.506.447.244.693.335l.71.216 1.136.296c.371.091.752.214 1.142.369s.752.36 1.085.614a2.94 2.94 0 0 1 .807.943c.208.375.313.824.313 1.347 0 .659-.17 1.244-.511 1.756s-.828.915-1.472 1.21-1.415.443-2.324.443c-.871 0-1.625-.138-2.261-.415s-1.134-.669-1.494-1.176-.559-1.117-.597-1.818H2.58c.034.42.17.771.409 1.051a2.21 2.21 0 0 0 .926.619c.379.133.794.199 1.244.199.496 0 .938-.078 1.324-.233s.697-.379.92-.659a1.56 1.56 0 0 0 .335-.994c0-.345-.098-.627-.295-.846s-.456-.402-.79-.546a7.73 7.73 0 0 0-1.119-.381l-1.375-.375c-.932-.254-1.67-.627-2.216-1.119s-.812-1.144-.812-1.955c0-.67.182-1.256.545-1.756s.856-.888 1.477-1.165 1.322-.42 2.102-.42c.788 0 1.483.138 2.085.415s1.083.657 1.432 1.142.53 1.034.545 1.659H7.625zm5.353 3.398V17h-1.699V5.364h1.676v4.33h.108a2.51 2.51 0 0 1 .938-1.119c.42-.277.97-.415 1.648-.415.599 0 1.121.123 1.568.369s.799.614 1.046 1.102.375 1.091.375 1.818V17h-1.699v-5.347c0-.64-.165-1.136-.494-1.489s-.788-.534-1.375-.534a2.25 2.25 0 0 0-1.08.256c-.314.17-.562.42-.744.75s-.267.72-.267 1.182zM20.744 17V8.273h1.699V17h-1.699zm.858-10.074a1.08 1.08 0 0 1-.761-.295.96.96 0 0 1-.312-.716.95.95 0 0 1 .313-.716 1.07 1.07 0 0 1 .761-.301 1.05 1.05 0 0 1 .756.301.94.94 0 0 1 .318.716c0 .277-.106.515-.318.716a1.06 1.06 0 0 1-.756.295zm2.966 13.347v-12h1.659v1.415h.142a4.75 4.75 0 0 1 .426-.631c.186-.239.443-.447.773-.625s.765-.273 1.307-.273c.705 0 1.333.178 1.886.534s.987.869 1.301 1.54.477 1.477.477 2.42-.157 1.752-.472 2.426-.746 1.188-1.296 1.551-1.176.54-1.881.54c-.53 0-.964-.089-1.301-.267s-.595-.386-.784-.625-.335-.451-.437-.636h-.102v4.631h-1.699zm1.665-7.636c0 .614.089 1.152.267 1.614s.436.824.773 1.085.75.386 1.239.386c.508 0 .932-.135 1.273-.403s.599-.642.773-1.108a4.38 4.38 0 0 0 .267-1.574c0-.576-.087-1.093-.261-1.551s-.428-.82-.773-1.085-.767-.398-1.278-.398c-.492 0-.909.127-1.25.381s-.593.608-.767 1.063-.261.985-.261 1.591zm8.05 7.636v-12h1.659v1.415h.142a4.75 4.75 0 0 1 .426-.631c.186-.239.443-.447.773-.625s.765-.273 1.307-.273c.705 0 1.333.178 1.886.534s.987.869 1.301 1.54.477 1.477.477 2.42-.157 1.752-.472 2.426-.746 1.188-1.295 1.551-1.176.54-1.881.54c-.53 0-.964-.089-1.301-.267s-.595-.386-.784-.625-.335-.451-.437-.636h-.102v4.631h-1.699zm1.665-7.636c0 .614.089 1.152.267 1.614s.436.824.773 1.085.75.386 1.239.386c.508 0 .932-.135 1.273-.403s.599-.642.773-1.108a4.38 4.38 0 0 0 .267-1.574c0-.576-.087-1.093-.261-1.551s-.428-.82-.773-1.085-.767-.398-1.278-.398c-.492 0-.909.127-1.25.381s-.593.608-.767 1.063-.261.985-.261 1.591zM43.998 17V8.273h1.699V17h-1.699zm.858-10.074a1.08 1.08 0 0 1-.761-.295.96.96 0 0 1-.312-.716.95.95 0 0 1 .313-.716 1.07 1.07 0 0 1 .761-.301 1.05 1.05 0 0 1 .756.301.94.94 0 0 1 .318.716c0 .277-.106.515-.318.716a1.06 1.06 0 0 1-.756.295zm4.665 4.892V17h-1.699V8.273h1.631v1.42h.108c.201-.462.515-.833.943-1.114s.975-.42 1.631-.42c.595 0 1.116.125 1.563.375s.794.614 1.04 1.102.369 1.093.369 1.813V17h-1.699v-5.347c0-.633-.165-1.127-.494-1.483s-.782-.54-1.358-.54c-.394 0-.744.085-1.051.256s-.544.42-.722.75-.261.72-.261 1.182zm11.363 8.636c-.693 0-1.29-.091-1.79-.273s-.901-.422-1.216-.722a3.03 3.03 0 0 1-.705-.983l1.46-.602a3.5 3.5 0 0 0 .409.528c.174.189.409.35.705.483s.684.199 1.153.199c.644 0 1.176-.157 1.597-.472s.631-.807.631-1.489v-1.716h-.108c-.102.186-.25.392-.443.619s-.451.424-.784.591-.767.25-1.301.25c-.689 0-1.311-.161-1.864-.483s-.985-.805-1.307-1.437-.477-1.419-.477-2.347.157-1.723.472-2.386.754-1.17 1.307-1.523 1.18-.534 1.881-.534c.542 0 .979.091 1.313.273s.593.386.778.625.335.449.438.631h.125V8.273h1.665v8.92c0 .75-.174 1.366-.523 1.847s-.82.837-1.415 1.068-1.258.346-2 .346zm-.017-4.994c.489 0 .902-.114 1.239-.341s.598-.561.773-.989.267-.949.267-1.551c0-.587-.087-1.104-.261-1.551s-.43-.795-.767-1.045-.754-.381-1.25-.381c-.511 0-.937.133-1.278.398s-.599.617-.773 1.068-.256.955-.256 1.511c0 .572.087 1.074.261 1.506s.432.769.773 1.011.769.364 1.273.364z" class="G"/></g><g transform="translate(167)"><g transform="translate(0 6)"><path d="M0 6a6 6 0 0 1 6-6h138v36H6a6 6 0 0 1-6-6V6z" class="H"/><path transform="translate(10 7)" d="M5.299 19.636V3.273h1.048v16.364H5.299zM8.578 8.348c-.068-.605-.349-1.074-.844-1.406s-1.116-.505-1.866-.505c-.537 0-1.001.085-1.393.256s-.697.396-.914.69a1.63 1.63 0 0 0-.32.991c0 .311.072.58.217.805a1.95 1.95 0 0 0 .582.569c.243.149.503.275.78.377l.799.243 1.278.332c.418.102.846.241 1.285.415a5.15 5.15 0 0 1 1.221.69c.375.285.678.639.908 1.061s.351.927.351 1.515c0 .742-.192 1.4-.575 1.975s-.931 1.029-1.655 1.362-1.592.498-2.614.498c-.98 0-1.828-.155-2.544-.467s-1.276-.752-1.681-1.323-.629-1.257-.671-2.046h1.982c.038.473.192.867.46 1.183s.62.543 1.042.697.893.224 1.4.224c.558 0 1.055-.087 1.489-.262s.784-.426 1.036-.741.377-.692.377-1.119c0-.388-.111-.705-.332-.952s-.513-.452-.888-.614-.79-.305-1.259-.428l-1.547-.422c-1.048-.286-1.879-.705-2.493-1.259s-.914-1.287-.914-2.199c0-.754.205-1.413.614-1.975s.963-.999 1.662-1.31 1.487-.473 2.365-.473c.886 0 1.668.156 2.346.467s1.219.739 1.611 1.285.597 1.163.614 1.866H8.578zM13.284 18l5.714-11.301v-.096h-6.609V4.909h8.655v1.751L15.349 18h-2.065zm9.018.121a1.24 1.24 0 0 1-.901-.371c-.252-.251-.377-.554-.377-.908a1.21 1.21 0 0 1 .377-.895 1.23 1.23 0 0 1 .901-.377 1.23 1.23 0 0 1 .901.377 1.21 1.21 0 0 1 .377.895 1.22 1.22 0 0 1-.179.646c-.115.192-.268.345-.46.46a1.22 1.22 0 0 1-.639.173zm7.797.058c-.916 0-1.726-.158-2.429-.473s-1.246-.75-1.643-1.304-.592-1.185-.588-1.892c-.004-.554.109-1.063.339-1.528s.552-.859.952-1.17a2.95 2.95 0 0 1 1.342-.601v-.077a2.64 2.64 0 0 1-1.566-1.048c-.392-.541-.586-1.163-.582-1.866-.004-.669.173-1.266.531-1.79s.859-.944 1.489-1.246 1.349-.454 2.154-.454c.797 0 1.509.153 2.135.46s1.127.718 1.489 1.246.546 1.119.55 1.783a3.11 3.11 0 0 1-.601 1.866c-.396.541-.912.891-1.547 1.048v.077c.49.085.931.286 1.323.601s.712.701.946 1.17a3.35 3.35 0 0 1 .364 1.528c-.004.707-.204 1.338-.601 1.892s-.946.989-1.649 1.304-1.502.473-2.41.473zm0-1.617c.541 0 1.01-.09 1.406-.269s.703-.437.92-.761.328-.712.332-1.151c-.004-.456-.123-.859-.358-1.208a2.39 2.39 0 0 0-.94-.825c-.396-.2-.85-.3-1.362-.3s-.974.1-1.374.3a2.38 2.38 0 0 0-.946.825c-.23.349-.343.752-.339 1.208-.004.439.1.822.313 1.151s.526.577.927.761.874.269 1.419.269zm0-6.092c.435 0 .82-.087 1.157-.262s.601-.418.793-.729.296-.675.3-1.093c-.004-.409-.102-.767-.294-1.074s-.45-.543-.786-.71-.727-.256-1.17-.256c-.452 0-.848.085-1.189.256s-.599.403-.786.71-.279.665-.275 1.074a2 2 0 0 0 .281 1.093c.192.311.456.554.793.729s.733.262 1.176.262zm11.507 7.747c-1.01-.004-1.873-.271-2.589-.799s-1.263-1.298-1.643-2.307-.569-2.227-.569-3.65.19-2.631.569-3.637.933-1.773 1.649-2.301 1.581-.793 2.582-.793 1.86.266 2.576.799 1.264 1.295 1.643 2.301.575 2.212.575 3.631c0 1.428-.19 2.646-.569 3.656s-.927 1.775-1.643 2.308-1.577.793-2.582.793zm0-1.707c.886 0 1.579-.433 2.077-1.298s.754-2.116.754-3.752c0-1.087-.115-2.005-.345-2.755s-.552-1.325-.978-1.713a2.14 2.14 0 0 0-1.508-.588c-.882 0-1.575.435-2.077 1.304s-.756 2.12-.761 3.752c0 1.091.113 2.013.339 2.768s.556 1.319.978 1.707.929.575 1.521.575z" class="I"/><g id="H" transform="translate(78 6.5)"><path d="M0 6a6 6 0 0 1 6-6h44a6 6 0 0 1 6 6v11a6 6 0 0 1-6 6H6a6 6 0 0 1-6-6V6z" class="J"/><path transform="translate(4)" d="M3.992 15.29V8.568H5.33v6.722H3.992zm-2.69-2.695v-1.332h6.722v1.332H1.303zM9.753 17v-1.114l3.445-3.57.91-1.019c.242-.295.423-.575.542-.84s.179-.547.179-.845c0-.338-.08-.63-.239-.875a1.56 1.56 0 0 0-.651-.572 2.07 2.07 0 0 0-.93-.204c-.365 0-.683.075-.955.224a1.53 1.53 0 0 0-.626.631 1.99 1.99 0 0 0-.219.955H9.744c0-.62.143-1.162.428-1.626s.676-.824 1.173-1.079 1.062-.388 1.695-.388c.64 0 1.203.128 1.69.383s.873.597 1.149 1.034a2.69 2.69 0 0 1 .413 1.472c0 .378-.071.747-.214 1.109s-.383.764-.731 1.208-.832.976-1.452 1.606l-2.023 2.118v.074h4.584V17H9.753zM22.062 6.818V17h-1.541V8.359h-.06L18.025 9.95V8.479l2.54-1.661h1.496zm3.026 10.276c-.272 0-.506-.096-.701-.288a.96.96 0 0 1-.293-.706.94.94 0 0 1 .293-.696c.195-.195.429-.293.701-.293s.505.098.701.293a.94.94 0 0 1 .293.696c0 .182-.046.35-.139.502a1.03 1.03 0 0 1-.358.358c-.149.09-.315.134-.497.134zm6.088-10.416a3.94 3.94 0 0 1 1.342.249c.441.162.838.428 1.193.795s.643.865.855 1.491.325 1.399.328 2.327c0 .892-.09 1.685-.269 2.381s-.436 1.278-.771 1.755a3.37 3.37 0 0 1-1.208 1.089c-.474.249-1.008.373-1.601.373-.607 0-1.145-.119-1.616-.358s-.853-.568-1.148-.989-.479-.912-.552-1.462h1.516c.099.438.302.792.607 1.064s.706.403 1.193.403c.746 0 1.327-.325 1.745-.975s.628-1.564.631-2.734h-.079a2.75 2.75 0 0 1-.646.736 2.91 2.91 0 0 1-.86.477 3.03 3.03 0 0 1-1.019.169 3.05 3.05 0 0 1-1.601-.433 3.19 3.19 0 0 1-1.148-1.188c-.285-.504-.427-1.079-.427-1.725s.146-1.226.437-1.75.706-.938 1.233-1.243 1.152-.459 1.864-.452zm.005 1.293c-.388 0-.737.096-1.049.288s-.552.446-.731.771a2.17 2.17 0 0 0-.268 1.074c0 .394.086.752.259 1.074a2.05 2.05 0 0 0 .716.761c.305.186.653.278 1.044.278.292 0 .563-.056.815-.169a2.07 2.07 0 0 0 .661-.467c.189-.202.336-.431.442-.686s.159-.524.159-.805a2.11 2.11 0 0 0-.268-1.044 2.09 2.09 0 0 0-.726-.776 1.9 1.9 0 0 0-1.054-.298zm10.684 7.119v-.537c0-.385.08-.736.239-1.054s.398-.578.706-.771.688-.293 1.129-.293c.451 0 .829.096 1.134.288s.535.449.691.771.239.675.239 1.059v.537c0 .385-.08.738-.239 1.059a1.91 1.91 0 0 1-.701.771c-.305.192-.679.288-1.124.288s-.825-.096-1.134-.288a1.91 1.91 0 0 1-.701-.771c-.159-.321-.239-.674-.239-1.059zm1.158-.537v.537c0 .285.068.544.204.776s.373.348.711.348.568-.116.701-.348.199-.491.199-.776v-.537c0-.285-.065-.544-.194-.776s-.361-.348-.706-.348c-.331 0-.567.116-.706.348a1.48 1.48 0 0 0-.209.776zm-6.279-5.29v-.537c0-.384.08-.737.239-1.059s.398-.578.706-.771.688-.288 1.129-.288c.451 0 .829.096 1.134.288s.535.449.691.771.234.674.234 1.059v.537c0 .384-.08.737-.239 1.059s-.388.575-.696.771-.679.288-1.124.288c-.451 0-.83-.096-1.139-.288s-.537-.453-.696-.771-.239-.675-.239-1.059zm1.163-.537v.537c0 .285.066.544.199.776s.373.348.711.348c.331 0 .563-.116.696-.348s.204-.491.204-.776v-.537c0-.285-.065-.544-.194-.776s-.365-.348-.706-.348c-.331 0-.567.116-.706.348s-.204.491-.204.776zM37.217 17l7-10.182h1.188l-7 10.182h-1.188z" class="K"/></g></g><path transform="matrix(-1 0 0 1 145 0)" d="M.25.25h.5v47.5h-.5z" class="L M N"/><g transform="translate(145 6)"><path d="M0 0h138a6 6 0 0 1 6 6v24a6 6 0 0 1-6 6H0V0z" fill="url(#L)" class="O"/><path transform="translate(81 7)" d="M6.368 19.636V3.273h1.048v16.364H6.368zM9.392 8.508c-.06-.558-.311-.993-.754-1.304s-1.01-.467-1.713-.467c-.494 0-.918.075-1.272.224s-.624.352-.812.607-.283.548-.288.876c0 .273.062.509.185.71s.3.371.518.511a3.65 3.65 0 0 0 .722.345 7.75 7.75 0 0 0 .799.236l1.227.307a8.45 8.45 0 0 1 1.425.467c.46.196.871.443 1.234.742a3.29 3.29 0 0 1 .869 1.08c.213.422.32.916.32 1.483 0 .767-.196 1.442-.588 2.026s-.959 1.033-1.7 1.361-1.63.486-2.678.486c-1.018 0-1.903-.158-2.653-.473s-1.33-.776-1.751-1.381-.643-1.342-.678-2.212h2.333c.034.456.175.835.422 1.138s.569.528.965.678.848.224 1.342.224c.516 0 .967-.077 1.355-.23s.699-.375.92-.652.335-.609.339-.984c-.004-.341-.104-.622-.3-.844s-.471-.413-.825-.562-.759-.29-1.227-.409l-1.489-.384c-1.078-.277-1.93-.697-2.557-1.259S2.15 9.528 2.15 8.591c0-.771.209-1.447.626-2.026s.995-1.029 1.719-1.349S6.04 4.73 6.957 4.73c.929 0 1.743.162 2.442.486s1.255.765 1.656 1.336a3.41 3.41 0 0 1 .62 1.956H9.392zm9.241 9.671a5.53 5.53 0 0 1-1.834-.326c-.597-.217-1.134-.569-1.611-1.055s-.857-1.14-1.138-1.95-.42-1.822-.415-3.023c0-1.121.119-2.12.358-2.998s.582-1.619 1.029-2.224.986-1.074 1.617-1.393 1.345-.479 2.129-.479c.822 0 1.551.162 2.186.486s1.155.767 1.547 1.33.635 1.189.729 1.892h-2.333c-.119-.503-.364-.903-.735-1.202s-.831-.454-1.394-.454c-.908 0-1.606.394-2.097 1.183s-.731 1.871-.735 3.247h.09a3.28 3.28 0 0 1 .812-.965 3.71 3.71 0 0 1 1.125-.62 3.98 3.98 0 0 1 1.336-.224c.767 0 1.455.183 2.065.55s1.099.871 1.457 1.515.535 1.372.531 2.199c.004.861-.192 1.634-.588 2.32s-.948 1.219-1.655 1.611-1.532.586-2.474.582zm-.013-1.918c.465 0 .88-.113 1.246-.339s.656-.531.869-.914.317-.814.313-1.291c.004-.469-.098-.893-.307-1.272s-.488-.68-.85-.901-.776-.332-1.24-.332c-.345 0-.667.066-.965.198a2.4 2.4 0 0 0-.78.55c-.222.23-.396.499-.524.805s-.187.626-.192.972c.004.456.111.876.32 1.259s.497.69.863.921.782.345 1.247.345zm7.779 1.879a1.37 1.37 0 0 1-.997-.409c-.277-.273-.413-.605-.409-.997a1.31 1.31 0 0 1 .409-.984 1.37 1.37 0 0 1 .997-.409c.375 0 .701.136.978.409s.424.601.428.984c-.004.26-.073.496-.205.709a1.47 1.47 0 0 1-.511.511 1.33 1.33 0 0 1-.69.185zm3.533-2.57v-1.886l5.555-8.776h1.572v2.685h-.959l-3.739 5.925v.102h7.754v1.95H29.933zM36.178 18v-3.004l.026-.844V4.909h2.237V18h-2.263zm10.819.249c-1.053 0-1.956-.266-2.71-.799s-1.327-1.31-1.732-2.32-.601-2.235-.601-3.663.207-2.642.607-3.643.982-1.773 1.732-2.301 1.656-.793 2.704-.793 1.95.264 2.704.793 1.332 1.295 1.732 2.301.607 2.22.607 3.643c0 1.432-.202 2.655-.607 3.669s-.978 1.781-1.732 2.314-1.651.799-2.704.799zm0-2.001c.818 0 1.464-.403 1.937-1.208s.716-2.001.716-3.573c0-1.04-.109-1.913-.326-2.621s-.524-1.24-.92-1.598-.865-.543-1.406-.543c-.814 0-1.457.405-1.93 1.214s-.712 1.988-.716 3.548c-.004 1.044.1 1.922.313 2.634s.524 1.249.92 1.611.867.537 1.413.537z" class="P"/></g></g></g><path id="I" transform="translate(0 197.331)" d="M0 0h456v1.27H0z" class="Q"/><g id="J" transform="translate(0 208.76)"><g transform="translate(0 12.5)"><g clip-path="url(#S)" transform="translate(0 1.5)" class="C D E F"><path transform="translate(1.668 1.668)" d="M7.917 2.5h.362c2.539 0 3.809 0 4.291.456.417.394.601.975.489 1.537-.13.651-1.167 1.384-3.24 2.85L6.431 9.74c-2.073 1.466-3.11 2.2-3.24 2.85-.112.563.072 1.143.489 1.537.482.456 1.752.456 4.291.456h.779M5 2.5a2.5 2.5 0 1 1-5 0 2.5 2.5 0 1 1 5 0zm11.667 11.667a2.5 2.5 0 0 1-5 0 2.5 2.5 0 0 1 5 0z"/></g><path transform="translate(28)" d="M3.034 5.364V17H1.278V5.364h1.756zm3.959 6.455V17H5.295V8.273h1.631v1.42h.108c.201-.462.515-.833.943-1.114s.975-.42 1.631-.42c.595 0 1.116.125 1.562.375s.794.614 1.04 1.102.369 1.093.369 1.813V17H10.88v-5.347c0-.633-.165-1.127-.494-1.483s-.782-.54-1.358-.54c-.394 0-.744.085-1.051.256s-.544.42-.722.75-.261.72-.261 1.182zM14.833 17V5.364h1.699v4.324h.102a4.75 4.75 0 0 1 .426-.631c.186-.239.443-.447.773-.625s.765-.273 1.307-.273c.705 0 1.333.178 1.886.534s.987.869 1.301 1.54.477 1.477.477 2.42-.157 1.752-.472 2.426-.746 1.188-1.295 1.551-1.176.54-1.881.54c-.53 0-.964-.089-1.301-.267s-.595-.386-.784-.625-.335-.451-.437-.636h-.142V17h-1.659zm1.665-4.364c0 .614.089 1.152.267 1.614s.436.824.773 1.085.75.386 1.239.386c.508 0 .932-.135 1.273-.403s.599-.642.773-1.108a4.38 4.38 0 0 0 .267-1.574c0-.576-.087-1.093-.261-1.551s-.428-.82-.773-1.085-.767-.398-1.278-.398c-.492 0-.909.127-1.25.381s-.593.608-.767 1.063-.261.985-.261 1.591zm11.731 4.54c-.818 0-1.532-.187-2.142-.562s-1.083-.9-1.421-1.574-.506-1.462-.506-2.364.169-1.697.506-2.375.811-1.205 1.421-1.58 1.324-.562 2.142-.562 1.532.188 2.142.563 1.083.902 1.42 1.58.506 1.47.506 2.375-.169 1.689-.506 2.364-.811 1.199-1.42 1.574-1.324.563-2.142.563zm.006-1.426c.53 0 .97-.14 1.318-.421s.606-.653.773-1.119a4.45 4.45 0 0 0 .256-1.54c0-.557-.085-1.068-.256-1.534s-.424-.847-.773-1.131-.788-.426-1.318-.426-.977.142-1.33.426a2.54 2.54 0 0 0-.778 1.131c-.167.466-.25.977-.25 1.534s.083 1.074.25 1.54.43.839.778 1.119.795.421 1.33.421zm11.327-2.369V8.273h1.705V17h-1.671v-1.511h-.091c-.201.466-.523.854-.966 1.165s-.987.46-1.642.46c-.561 0-1.057-.123-1.489-.369s-.765-.619-1.011-1.108-.364-1.093-.364-1.812V8.273h1.699v5.347c0 .595.165 1.068.494 1.42s.758.528 1.284.528c.318 0 .634-.08.949-.239s.581-.4.79-.721.316-.731.313-1.227zm5.526-1.562V17h-1.699V8.273h1.631v1.42h.108c.201-.462.515-.833.943-1.114s.975-.42 1.631-.42c.595 0 1.116.125 1.563.375s.794.614 1.04 1.102.369 1.093.369 1.813V17h-1.699v-5.347c0-.633-.165-1.127-.494-1.483s-.782-.54-1.358-.54c-.394 0-.744.085-1.051.256a1.84 1.84 0 0 0-.722.75c-.174.326-.261.72-.261 1.182zm10.971 5.352c-.705 0-1.333-.18-1.886-.54s-.981-.881-1.295-1.551-.466-1.483-.466-2.426.157-1.75.472-2.42.754-1.184 1.307-1.54 1.18-.534 1.881-.534c.542 0 .977.091 1.307.273s.591.386.773.625.33.449.432.631h.102V5.364h1.699V17h-1.659v-1.358h-.142a4.49 4.49 0 0 1-.443.636c-.189.239-.451.447-.784.625s-.765.267-1.295.267zm.375-1.449c.489 0 .901-.129 1.239-.386s.599-.623.773-1.085.267-1 .267-1.614c0-.606-.087-1.136-.261-1.591s-.43-.809-.767-1.063-.754-.381-1.25-.381c-.511 0-.937.133-1.278.398s-.598.627-.773 1.085-.256.975-.256 1.551c0 .583.087 1.108.261 1.574s.432.835.773 1.108.769.403 1.273.403zm20.089-6.574H74.75a2.71 2.71 0 0 0-.381-1c-.186-.288-.413-.532-.682-.733s-.57-.352-.903-.455-.68-.153-1.051-.153c-.671 0-1.271.169-1.801.506s-.943.831-1.25 1.483-.455 1.447-.455 2.386c0 .947.152 1.746.455 2.398s.725 1.144 1.256 1.477 1.127.5 1.79.5c.367 0 .716-.049 1.046-.148a3.01 3.01 0 0 0 .903-.449 2.75 2.75 0 0 0 .682-.722c.189-.288.32-.617.392-.989l1.773.006c-.095.572-.278 1.099-.551 1.58s-.615.89-1.04 1.239-.901.612-1.443.801-1.133.284-1.773.284c-1.007 0-1.905-.239-2.693-.716s-1.409-1.169-1.864-2.063-.676-1.96-.676-3.199.227-2.309.682-3.199 1.076-1.58 1.864-2.057 1.684-.722 2.688-.722a5.43 5.43 0 0 1 1.727.267 4.56 4.56 0 0 1 1.449.773 4.25 4.25 0 0 1 1.063 1.239c.28.485.47 1.04.568 1.665zm5.481 8.028c-.818 0-1.532-.187-2.142-.562s-1.083-.9-1.42-1.574-.506-1.462-.506-2.364.169-1.697.506-2.375.811-1.205 1.42-1.58 1.324-.562 2.142-.562 1.532.188 2.142.563 1.083.902 1.421 1.58.506 1.47.506 2.375-.169 1.689-.506 2.364-.811 1.199-1.421 1.574-1.324.563-2.142.563zm.006-1.426c.53 0 .97-.14 1.318-.421s.606-.653.773-1.119.256-.979.256-1.54-.085-1.068-.256-1.534-.424-.847-.773-1.131-.788-.426-1.318-.426-.977.142-1.33.426-.608.661-.778 1.131-.25.977-.25 1.534.083 1.074.25 1.54.43.839.778 1.119.796.421 1.33.421zm12.338-5.347l-1.54.273c-.064-.197-.167-.384-.307-.562s-.322-.324-.557-.437-.528-.17-.881-.17c-.481 0-.883.108-1.205.324s-.483.487-.483.824c0 .292.108.527.324.705s.564.324 1.045.438l1.386.318c.803.186 1.402.472 1.796.858s.591.888.591 1.506c0 .523-.151.989-.454 1.398s-.718.724-1.256.954-1.153.347-1.858.347c-.977 0-1.775-.208-2.392-.625s-.996-1.017-1.136-1.79l1.642-.25c.102.428.313.752.631.972s.733.324 1.244.324c.557 0 1.002-.116 1.335-.347s.5-.521.5-.858a.89.89 0 0 0-.307-.687c-.201-.186-.51-.326-.926-.42l-1.477-.324c-.814-.186-1.417-.481-1.807-.886s-.579-.919-.579-1.54a2.2 2.2 0 0 1 .432-1.352c.288-.386.686-.687 1.193-.903s1.089-.33 1.744-.33c.943 0 1.686.205 2.227.614s.9.949 1.074 1.631zm5.953-2.131v1.364h-4.767V8.273h4.767zm-3.489-2.091h1.699v8.256c0 .329.049.578.148.744a.77.77 0 0 0 .381.335c.159.057.331.085.517.085a1.99 1.99 0 0 0 .358-.028l.239-.046.307 1.403c-.099.038-.239.076-.421.114s-.409.064-.681.068a2.99 2.99 0 0 1-1.25-.239c-.386-.167-.699-.424-.937-.773s-.358-.786-.358-1.312V6.182z" class="G"/></g><g transform="translate(167)"><g transform="translate(0 6)"><path d="M0 6a6 6 0 0 1 6-6h138v36H6a6 6 0 0 1-6-6V6z" class="H"/><path transform="translate(10 7)" d="M5.299 19.636V3.273h1.048v16.364H5.299zM8.578 8.348c-.068-.605-.349-1.074-.844-1.406s-1.116-.505-1.866-.505c-.537 0-1.001.085-1.393.256s-.697.396-.914.69a1.63 1.63 0 0 0-.32.991c0 .311.072.58.217.805a1.95 1.95 0 0 0 .582.569c.243.149.503.275.78.377l.799.243 1.278.332c.418.102.846.241 1.285.415a5.15 5.15 0 0 1 1.221.69c.375.285.678.639.908 1.061s.351.927.351 1.515c0 .742-.192 1.4-.575 1.975s-.931 1.029-1.655 1.362-1.592.498-2.614.498c-.98 0-1.828-.155-2.544-.467s-1.276-.752-1.681-1.323-.629-1.257-.671-2.046h1.982c.038.473.192.867.46 1.183s.62.543 1.042.697.893.224 1.4.224c.558 0 1.055-.087 1.489-.262s.784-.426 1.036-.741.377-.692.377-1.119c0-.388-.111-.705-.332-.952s-.513-.452-.888-.614-.79-.305-1.259-.428l-1.547-.422c-1.048-.286-1.879-.705-2.493-1.259s-.914-1.287-.914-2.199c0-.754.205-1.413.614-1.975s.963-.999 1.662-1.31 1.487-.473 2.365-.473c.886 0 1.668.156 2.346.467s1.219.739 1.611 1.285.597 1.163.614 1.866H8.578zm9.232-3.439V18h-1.981V6.891h-.077L12.62 8.936V7.044l3.266-2.135h1.924zm4.07 13.212a1.24 1.24 0 0 1-.901-.371c-.251-.251-.377-.554-.377-.908a1.21 1.21 0 0 1 .377-.895 1.23 1.23 0 0 1 .901-.377 1.23 1.23 0 0 1 .901.377 1.21 1.21 0 0 1 .377.895 1.22 1.22 0 0 1-.179.646c-.115.192-.268.345-.46.46a1.22 1.22 0 0 1-.639.173zM25.693 18v-1.432l4.43-4.59 1.17-1.31c.311-.379.543-.739.697-1.08s.23-.703.23-1.087c0-.435-.102-.81-.307-1.125s-.484-.565-.837-.735-.752-.262-1.195-.262c-.469 0-.878.096-1.227.288a1.97 1.97 0 0 0-.805.812c-.187.349-.281.759-.281 1.227H25.68c0-.797.183-1.494.55-2.09s.869-1.059 1.508-1.387 1.366-.499 2.18-.499c.822 0 1.547.164 2.173.492s1.123.767 1.477 1.33a3.46 3.46 0 0 1 .531 1.892c0 .486-.092.961-.275 1.425s-.492.982-.94 1.553-1.07 1.255-1.866 2.065l-2.602 2.723v.096h5.893V18h-8.617zm15.36.179c-.801 0-1.521-.153-2.16-.46s-1.142-.737-1.521-1.279-.582-1.159-.607-1.854h1.918c.047.563.296 1.025.748 1.387s.993.543 1.624.543c.503 0 .948-.115 1.336-.345s.699-.556.92-.965.339-.876.339-1.4c0-.533-.115-1.008-.345-1.425a2.55 2.55 0 0 0-.952-.984c-.401-.239-.861-.36-1.381-.364-.396 0-.795.068-1.195.204s-.724.315-.972.537l-1.809-.268.735-6.597h7.197v1.694h-5.555l-.416 3.663h.077c.256-.247.594-.454 1.016-.62a3.73 3.73 0 0 1 1.368-.249c.797 0 1.506.19 2.129.569s1.119.897 1.477 1.553.541 1.402.537 2.25c.004.848-.187 1.604-.575 2.269s-.916 1.189-1.598 1.572-1.455.569-2.333.569z" class="I"/><g id="K" transform="translate(78 6.5)"><path d="M0 6a6 6 0 0 1 6-6h44a6 6 0 0 1 6 6v11a6 6 0 0 1-6 6H6a6 6 0 0 1-6-6V6z" class="J"/><path transform="translate(4)" d="M3.992 15.29V8.568H5.33v6.722H3.992zm-2.69-2.695v-1.332h6.722v1.332H1.303zm12.269 4.544c-.683 0-1.293-.118-1.829-.353s-.956-.562-1.268-.979a2.6 2.6 0 0 1-.497-1.462h1.561c.02.302.121.563.303.785s.428.388.726.507.63.179.994.179a2.56 2.56 0 0 0 1.064-.209c.312-.139.555-.333.731-.582s.263-.542.263-.87c0-.341-.088-.641-.263-.9s-.426-.467-.761-.616-.732-.224-1.203-.224h-.86v-1.253h.86c.378 0 .709-.068.994-.204a1.63 1.63 0 0 0 .676-.567c.162-.245.244-.532.244-.86 0-.315-.071-.588-.214-.82s-.338-.419-.597-.552-.557-.199-.905-.199a2.35 2.35 0 0 0-.93.184c-.285.119-.517.292-.696.517a1.33 1.33 0 0 0-.288.8h-1.486a2.51 2.51 0 0 1 .487-1.452 3.15 3.15 0 0 1 1.233-.979c.511-.235 1.077-.353 1.7-.353.653 0 1.216.128 1.69.383s.845.588 1.104 1.009.391.882.388 1.382c.003.57-.156 1.054-.477 1.452s-.742.665-1.273.8v.08c.676.103 1.2.371 1.571.805s.56.973.557 1.616c.003.56-.152 1.062-.467 1.506s-.737.794-1.278 1.049-1.158.378-1.854.378zm9.202-10.321V17h-1.541V8.359h-.06L18.736 9.95V8.479l2.541-1.661h1.496zm3.026 10.276c-.272 0-.505-.096-.701-.288a.96.96 0 0 1-.293-.706.94.94 0 0 1 .293-.696c.196-.195.429-.293.701-.293s.506.098.701.293a.94.94 0 0 1 .293.696c0 .182-.046.35-.139.502a1.03 1.03 0 0 1-.358.358.95.95 0 0 1-.497.134zm6.011.045c-.454-.007-.901-.089-1.342-.249s-.835-.424-1.193-.795-.645-.87-.86-1.496-.318-1.409-.318-2.347c0-.888.088-1.677.263-2.366s.436-1.271.771-1.745.739-.84 1.213-1.089 1.006-.373 1.596-.373c.607 0 1.145.119 1.616.358s.852.568 1.143.989a3.31 3.31 0 0 1 .562 1.437h-1.516a1.96 1.96 0 0 0-.611-1.039c-.305-.268-.703-.403-1.193-.403-.746 0-1.327.325-1.745.974s-.623 1.553-.626 2.71h.075a2.76 2.76 0 0 1 .646-.736c.259-.206.547-.363.865-.472s.66-.169 1.014-.169c.59 0 1.124.144 1.601.433a3.15 3.15 0 0 1 1.148 1.183c.285.504.428 1.081.428 1.73s-.148 1.238-.442 1.765-.703.945-1.233 1.253-1.15.454-1.859.447zm-.005-1.293a1.94 1.94 0 0 0 1.049-.288 2.08 2.08 0 0 0 .731-.775c.179-.325.269-.688.269-1.089 0-.391-.088-.747-.264-1.069a1.99 1.99 0 0 0-.716-.766c-.302-.189-.646-.283-1.034-.283-.295 0-.569.056-.82.169s-.467.269-.656.467a2.27 2.27 0 0 0-.447.686 2.09 2.09 0 0 0-.159.81 2.19 2.19 0 0 0 .264 1.059 2.16 2.16 0 0 0 .731.786 1.94 1.94 0 0 0 1.054.293zm10.525-.756v-.537c0-.385.08-.736.239-1.054s.398-.578.706-.771.688-.293 1.129-.293c.451 0 .829.096 1.133.288s.535.449.691.771.239.675.239 1.059v.537c0 .385-.08.738-.239 1.059s-.393.575-.701.771-.679.288-1.124.288-.825-.096-1.133-.288-.542-.453-.701-.771-.239-.674-.239-1.059zm1.158-.537v.537c0 .285.068.544.204.776s.373.348.711.348.568-.116.701-.348.199-.491.199-.776v-.537c0-.285-.065-.544-.194-.776s-.361-.348-.706-.348c-.331 0-.567.116-.706.348a1.48 1.48 0 0 0-.209.776zm-6.279-5.29v-.537c0-.384.08-.737.239-1.059s.398-.578.706-.771.688-.288 1.129-.288c.451 0 .829.096 1.133.288s.535.449.691.771.234.674.234 1.059v.537c0 .384-.08.737-.239 1.059s-.388.575-.696.771-.679.288-1.124.288c-.451 0-.83-.096-1.139-.288s-.537-.453-.696-.771-.239-.675-.239-1.059zm1.163-.537v.537c0 .285.066.544.199.776s.373.348.711.348c.331 0 .563-.116.696-.348s.204-.491.204-.776v-.537c0-.285-.065-.544-.194-.776s-.364-.348-.706-.348c-.331 0-.567.116-.706.348s-.204.491-.204.776zM37.682 17l7-10.182h1.188L38.87 17h-1.188z" class="K"/></g></g><path transform="matrix(-1 0 0 1 145 0)" d="M.25.25h.5v47.5h-.5z" class="L M N"/><g transform="translate(145 6)"><path d="M0 0h138a6 6 0 0 1 6 6v24a6 6 0 0 1-6 6H0V0z" fill="url(#L)" class="O"/><path transform="translate(82 7)" d="M6.107 19.636V3.273h1.048v16.364H6.107zM9.13 8.508c-.06-.558-.311-.993-.754-1.304s-1.01-.467-1.713-.467c-.494 0-.918.075-1.272.224s-.624.352-.812.607-.283.548-.288.876c0 .273.062.509.185.71s.3.371.518.511a3.65 3.65 0 0 0 .722.345 7.75 7.75 0 0 0 .799.236l1.227.307a8.45 8.45 0 0 1 1.425.467c.46.196.871.443 1.234.742a3.29 3.29 0 0 1 .869 1.08c.213.422.32.916.32 1.483 0 .767-.196 1.442-.588 2.026s-.959 1.033-1.7 1.361-1.63.486-2.678.486c-1.018 0-1.903-.158-2.653-.473s-1.33-.776-1.751-1.381-.643-1.342-.678-2.212h2.333c.034.456.175.835.422 1.138s.569.528.965.678.848.224 1.342.224c.516 0 .967-.077 1.355-.23s.699-.375.92-.652.335-.609.339-.984c-.004-.341-.104-.622-.3-.844s-.471-.413-.825-.562-.759-.29-1.227-.409l-1.489-.384c-1.078-.277-1.93-.697-2.557-1.259s-.933-1.319-.933-2.256c0-.771.209-1.447.626-2.026s.995-1.029 1.719-1.349 1.545-.486 2.461-.486c.929 0 1.743.162 2.442.486s1.255.765 1.656 1.336a3.41 3.41 0 0 1 .62 1.956H9.13zm9.286 9.741c-1.053 0-1.956-.266-2.71-.799s-1.327-1.31-1.732-2.32-.601-2.235-.601-3.663.207-2.642.607-3.643.982-1.773 1.732-2.301 1.655-.793 2.704-.793 1.95.264 2.704.793 1.332 1.295 1.732 2.301.607 2.22.607 3.643c0 1.432-.202 2.655-.607 3.669s-.978 1.781-1.732 2.314-1.651.799-2.704.799zm0-2.001c.818 0 1.464-.403 1.937-1.208s.716-2.001.716-3.573c0-1.04-.109-1.913-.326-2.621s-.524-1.24-.921-1.598-.865-.543-1.406-.543c-.814 0-1.457.405-1.93 1.214s-.712 1.988-.716 3.548c-.004 1.044.1 1.922.313 2.634s.524 1.249.92 1.611.867.537 1.413.537zm8.108 1.892a1.37 1.37 0 0 1-.997-.409c-.277-.273-.413-.605-.409-.997a1.31 1.31 0 0 1 .409-.984 1.37 1.37 0 0 1 .997-.409c.375 0 .701.136.978.409s.424.601.428.984c-.004.26-.073.496-.205.709a1.47 1.47 0 0 1-.511.511 1.33 1.33 0 0 1-.69.185zm8.121-13.41c.626.004 1.236.115 1.828.332s1.133.563 1.611 1.048.857 1.127 1.138 1.937.422 1.811.422 3.004c.004 1.125-.115 2.131-.358 3.017s-.582 1.628-1.029 2.237A4.54 4.54 0 0 1 36.64 17.7c-.631.32-1.34.479-2.128.479-.827 0-1.56-.162-2.199-.486a4.13 4.13 0 0 1-1.541-1.33c-.392-.563-.633-1.206-.722-1.93h2.333c.119.52.362.933.729 1.24s.837.454 1.4.454c.908 0 1.606-.394 2.097-1.182s.735-1.883.735-3.285h-.089c-.209.375-.48.699-.812.972s-.71.475-1.131.62-.861.217-1.33.217a3.96 3.96 0 0 1-2.071-.55c-.609-.367-1.093-.869-1.451-1.508s-.533-1.37-.537-2.192c0-.852.196-1.617.588-2.295s.948-1.219 1.656-1.611 1.534-.59 2.48-.582zm.006 1.918c-.46 0-.876.113-1.246.339s-.656.524-.869.908-.313.803-.313 1.272.109.886.313 1.266a2.4 2.4 0 0 0 .85.901c.362.222.776.332 1.24.332.345 0 .667-.066.965-.198s.558-.315.78-.55a2.6 2.6 0 0 0 .524-.812 2.36 2.36 0 0 0 .185-.959 2.49 2.49 0 0 0-.32-1.24c-.209-.379-.497-.684-.863-.914s-.778-.345-1.246-.345zm11.672 11.531c-.852 0-1.615-.16-2.288-.479s-1.208-.767-1.604-1.33-.601-1.206-.626-1.93h2.301a1.81 1.81 0 0 0 .697 1.317c.422.337.929.505 1.521.505a2.4 2.4 0 0 0 1.24-.32 2.29 2.29 0 0 0 .857-.889c.209-.379.311-.812.307-1.298.004-.494-.1-.933-.313-1.317s-.505-.684-.876-.901-.797-.332-1.279-.332c-.392-.004-.778.068-1.157.217s-.68.345-.901.588l-2.141-.352.684-6.75h7.594v1.982h-5.631l-.377 3.471h.077c.243-.285.586-.522 1.029-.71a3.63 3.63 0 0 1 1.457-.288c.793 0 1.5.188 2.122.563s1.112.882 1.47 1.534.537 1.398.537 2.237c0 .865-.2 1.636-.601 2.314a4.25 4.25 0 0 1-1.656 1.592c-.703.384-1.517.575-2.442.575z" class="P"/></g></g></g></g><path transform="translate(0 243)" fill="url(#M)" d="M0 0h496v77H0z"/></g><rect x=".5" y=".5" width="495" height="318.76" rx="7.5" stroke="#d6d4e8"/></g></g><defs><linearGradient id="L" x1="0" y1="18" x2="144" y2="18" gradientUnits="userSpaceOnUse"><stop stop-color="#e3e1fa"/><stop offset="1" stop-color="#beb9f3"/></linearGradient><linearGradient id="M" x1="248" y1="0" x2="248" y2="77" gradientUnits="userSpaceOnUse"><stop stop-color="#fff" stop-opacity="0"/><stop offset="1" stop-color="#fff"/></linearGradient><clipPath id="N"><rect width="624" height="532" rx="12" class="B"/></clipPath><clipPath id="O"><rect width="496" height="319.76" rx="8" class="B"/></clipPath><clipPath id="P"><path d="M0 0h20v20H0z" class="B"/></clipPath><clipPath id="Q"><path d="M0 0h20v20H0z" class="B"/></clipPath><clipPath id="R"><path d="M0 0h20v20H0z" class="B"/></clipPath><clipPath id="S"><path d="M0 0h20v20H0z" class="B"/></clipPath></defs></svg>